<svg xmlns="http://www.w3.org/2000/svg" xmlns:xlink="http://www.w3.org/1999/xlink" width="252" zoomAndPan="magnify" viewBox="0 0 189 189.000001" height="252" preserveAspectRatio="xMidYMid meet" version="1.0"><path fill="#ffffff" d="M 149.871094 130.949219 C 155.703125 135.164062 161.289062 139.722656 166.585938 144.59375 C 167.488281 145.425781 168.433594 146.355469 168.640625 147.5625 C 168.941406 149.304688 167.628906 150.867188 166.414062 152.148438 C 163.207031 155.523438 160.003906 158.894531 156.796875 162.269531 C 156.300781 162.789062 155.785156 163.324219 155.117188 163.585938 C 153.488281 164.222656 151.761719 163.027344 150.417969 161.90625 C 144.875 157.277344 139.332031 152.648438 133.789062 148.019531 Z M 149.871094 130.949219 " fill-opacity="1" fill-rule="nonzero"/><path fill="#000000" d="M 154.160156 164.742188 C 152.539062 164.742188 151.011719 163.671875 149.796875 162.65625 L 133.167969 148.769531 L 134.414062 147.273438 L 151.042969 161.160156 C 152.171875 162.101562 153.617188 163.128906 154.761719 162.679688 C 155.242188 162.492188 155.671875 162.039062 156.089844 161.597656 L 165.707031 151.480469 C 166.859375 150.265625 167.894531 148.972656 167.679688 147.726562 C 167.53125 146.847656 166.765625 146.082031 165.925781 145.308594 C 160.675781 140.480469 155.082031 135.914062 149.300781 131.738281 L 150.441406 130.160156 C 156.285156 134.382812 161.9375 138.996094 167.246094 143.878906 C 168.296875 144.847656 169.34375 145.914062 169.601562 147.398438 C 170.011719 149.777344 168.128906 151.757812 167.121094 152.820312 L 157.503906 162.9375 C 156.992188 163.476562 156.355469 164.148438 155.472656 164.492188 C 155.03125 164.664062 154.59375 164.742188 154.160156 164.742188 Z M 154.160156 164.742188 " fill-opacity="1" fill-rule="nonzero"/><path fill="#ffffff" d="M 141.5 47 C 142.269531 47.769531 143.019531 48.558594 143.75 49.363281 C 144.480469 50.167969 145.191406 50.992188 145.882812 51.835938 C 146.570312 52.675781 147.242188 53.53125 147.890625 54.40625 C 148.535156 55.28125 149.164062 56.167969 149.765625 57.074219 C 150.371094 57.976562 150.953125 58.898438 151.511719 59.828125 C 152.070312 60.761719 152.609375 61.710938 153.121094 62.667969 C 153.632812 63.628906 154.121094 64.597656 154.585938 65.582031 C 155.054688 66.566406 155.492188 67.558594 155.910156 68.566406 C 156.328125 69.570312 156.71875 70.585938 157.085938 71.609375 C 157.449219 72.632812 157.792969 73.664062 158.109375 74.707031 C 158.421875 75.746094 158.714844 76.796875 158.976562 77.851562 C 159.242188 78.90625 159.480469 79.96875 159.691406 81.035156 C 159.90625 82.101562 160.089844 83.171875 160.25 84.25 C 160.410156 85.324219 160.542969 86.402344 160.648438 87.488281 C 160.757812 88.570312 160.835938 89.652344 160.890625 90.742188 C 160.941406 91.828125 160.96875 92.914062 160.96875 94.003906 C 160.96875 95.089844 160.941406 96.175781 160.890625 97.261719 C 160.835938 98.351562 160.757812 99.433594 160.648438 100.515625 C 160.542969 101.601562 160.410156 102.679688 160.25 103.753906 C 160.089844 104.832031 159.90625 105.902344 159.691406 106.96875 C 159.480469 108.035156 159.242188 109.097656 158.976562 110.152344 C 158.714844 111.207031 158.421875 112.257812 158.109375 113.296875 C 157.792969 114.339844 157.449219 115.371094 157.085938 116.394531 C 156.71875 117.417969 156.328125 118.433594 155.910156 119.4375 C 155.492188 120.445312 155.054688 121.4375 154.585938 122.421875 C 154.121094 123.40625 153.632812 124.375 153.121094 125.335938 C 152.609375 126.296875 152.070312 127.242188 151.511719 128.175781 C 150.953125 129.105469 150.371094 130.027344 149.765625 130.929688 C 149.164062 131.835938 148.535156 132.722656 147.890625 133.597656 C 147.242188 134.472656 146.570312 135.328125 145.882812 136.167969 C 145.191406 137.011719 144.480469 137.835938 143.75 138.640625 C 143.019531 139.445312 142.269531 140.234375 141.5 141.003906 C 140.730469 141.773438 139.945312 142.523438 139.136719 143.253906 C 138.332031 143.984375 137.507812 144.695312 136.667969 145.382812 C 135.828125 146.074219 134.96875 146.742188 134.097656 147.390625 C 133.222656 148.039062 132.332031 148.664062 131.429688 149.269531 C 130.523438 149.875 129.605469 150.457031 128.671875 151.015625 C 127.738281 151.574219 126.792969 152.109375 125.832031 152.621094 C 124.875 153.136719 123.902344 153.625 122.917969 154.089844 C 121.9375 154.554688 120.941406 154.996094 119.9375 155.410156 C 118.933594 155.828125 117.917969 156.21875 116.894531 156.585938 C 115.867188 156.953125 114.835938 157.292969 113.796875 157.609375 C 112.753906 157.925781 111.707031 158.214844 110.652344 158.480469 C 109.59375 158.742188 108.535156 158.980469 107.46875 159.195312 C 106.402344 159.40625 105.328125 159.59375 104.253906 159.753906 C 103.175781 159.910156 102.097656 160.042969 101.015625 160.152344 C 99.933594 160.257812 98.847656 160.339844 97.761719 160.390625 C 96.675781 160.445312 95.589844 160.472656 94.5 160.472656 C 93.414062 160.472656 92.324219 160.445312 91.238281 160.390625 C 90.152344 160.339844 89.066406 160.257812 87.984375 160.152344 C 86.902344 160.042969 85.824219 159.910156 84.746094 159.753906 C 83.671875 159.59375 82.597656 159.40625 81.53125 159.195312 C 80.464844 158.980469 79.40625 158.742188 78.347656 158.480469 C 77.292969 158.214844 76.246094 157.925781 75.203125 157.609375 C 74.164062 157.292969 73.132812 156.953125 72.105469 156.585938 C 71.082031 156.21875 70.066406 155.828125 69.0625 155.410156 C 68.058594 154.996094 67.0625 154.554688 66.082031 154.089844 C 65.097656 153.625 64.125 153.136719 63.167969 152.621094 C 62.207031 152.109375 61.261719 151.574219 60.328125 151.015625 C 59.394531 150.457031 58.476562 149.875 57.570312 149.269531 C 56.667969 148.664062 55.777344 148.039062 54.902344 147.390625 C 54.03125 146.742188 53.171875 146.074219 52.332031 145.382812 C 51.492188 144.695312 50.667969 143.984375 49.863281 143.253906 C 49.054688 142.523438 48.269531 141.773438 47.5 141.003906 C 46.730469 140.234375 45.980469 139.445312 45.25 138.640625 C 44.519531 137.835938 43.808594 137.011719 43.117188 136.167969 C 42.429688 135.328125 41.757812 134.472656 41.109375 133.597656 C 40.464844 132.722656 39.835938 131.835938 39.234375 130.929688 C 38.628906 130.027344 38.046875 129.105469 37.488281 128.175781 C 36.929688 127.242188 36.390625 126.296875 35.878906 125.335938 C 35.367188 124.375 34.878906 123.40625 34.414062 122.421875 C 33.945312 121.4375 33.507812 120.445312 33.089844 119.4375 C 32.675781 118.433594 32.28125 117.417969 31.917969 116.394531 C 31.550781 115.371094 31.207031 114.339844 30.894531 113.296875 C 30.578125 112.257812 30.285156 111.207031 30.023438 110.152344 C 29.757812 109.097656 29.519531 108.035156 29.308594 106.96875 C 29.09375 105.902344 28.910156 104.832031 28.75 103.753906 C 28.589844 102.679688 28.457031 101.601562 28.351562 100.515625 C 28.242188 99.433594 28.164062 98.351562 28.109375 97.261719 C 28.058594 96.175781 28.03125 95.089844 28.03125 94.003906 C 28.03125 92.914062 28.058594 91.828125 28.109375 90.742188 C 28.164062 89.652344 28.242188 88.570312 28.351562 87.488281 C 28.457031 86.40625 28.589844 85.324219 28.75 84.25 C 28.910156 83.171875 29.09375 82.101562 29.308594 81.035156 C 29.519531 79.96875 29.757812 78.90625 30.023438 77.851562 C 30.285156 76.796875 30.578125 75.746094 30.894531 74.707031 C 31.207031 73.664062 31.550781 72.632812 31.917969 71.609375 C 32.28125 70.585938 32.675781 69.570312 33.089844 68.566406 C 33.507812 67.558594 33.945312 66.566406 34.414062 65.582031 C 34.878906 64.597656 35.367188 63.628906 35.878906 62.667969 C 36.390625 61.710938 36.929688 60.761719 37.488281 59.828125 C 38.046875 58.898438 38.628906 57.976562 39.234375 57.074219 C 39.835938 56.167969 40.464844 55.28125 41.109375 54.40625 C 41.757812 53.53125 42.429688 52.675781 43.117188 51.835938 C 43.808594 50.992188 44.519531 50.167969 45.25 49.363281 C 45.980469 48.558594 46.730469 47.769531 47.5 47 C 48.269531 46.230469 49.054688 45.480469 49.863281 44.75 C 50.667969 44.019531 51.492188 43.308594 52.332031 42.621094 C 53.171875 41.929688 54.03125 41.261719 54.902344 40.613281 C 55.777344 39.964844 56.667969 39.339844 57.570312 38.734375 C 58.476562 38.128906 59.394531 37.546875 60.328125 36.988281 C 61.261719 36.429688 62.207031 35.894531 63.167969 35.382812 C 64.125 34.867188 65.097656 34.378906 66.082031 33.914062 C 67.0625 33.449219 68.058594 33.007812 69.0625 32.59375 C 70.066406 32.175781 71.082031 31.785156 72.105469 31.417969 C 73.132812 31.050781 74.164062 30.710938 75.203125 30.394531 C 76.246094 30.078125 77.292969 29.789062 78.347656 29.523438 C 79.40625 29.261719 80.464844 29.023438 81.53125 28.808594 C 82.597656 28.597656 83.671875 28.410156 84.746094 28.25 C 85.824219 28.09375 86.902344 27.960938 87.984375 27.851562 C 89.066406 27.746094 90.152344 27.664062 91.238281 27.613281 C 92.324219 27.558594 93.414062 27.53125 94.5 27.53125 C 95.589844 27.53125 96.675781 27.558594 97.761719 27.613281 C 98.847656 27.664062 99.933594 27.746094 101.015625 27.851562 C 102.097656 27.960938 103.175781 28.09375 104.253906 28.25 C 105.328125 28.410156 106.402344 28.597656 107.46875 28.808594 C 108.535156 29.023438 109.59375 29.261719 110.652344 29.523438 C 111.707031 29.789062 112.753906 30.078125 113.796875 30.394531 C 114.835938 30.710938 115.867188 31.050781 116.894531 31.417969 C 117.917969 31.785156 118.933594 32.175781 119.9375 32.59375 C 120.941406 33.007812 121.9375 33.449219 122.917969 33.914062 C 123.902344 34.378906 124.875 34.867188 125.832031 35.382812 C 126.792969 35.894531 127.738281 36.429688 128.671875 36.988281 C 129.605469 37.546875 130.523438 38.128906 131.429688 38.734375 C 132.332031 39.339844 133.222656 39.964844 134.097656 40.613281 C 134.96875 41.261719 135.828125 41.929688 136.667969 42.621094 C 137.507812 43.308594 138.332031 44.019531 139.136719 44.75 C 139.945312 45.480469 140.730469 46.230469 141.5 47 Z M 141.5 47 " fill-opacity="1" fill-rule="nonzero"/><path fill="#000000" d="M 94.5 161.445312 C 57.3125 161.445312 27.058594 131.191406 27.058594 94.003906 C 27.058594 56.8125 57.3125 26.558594 94.5 26.558594 C 131.6875 26.558594 161.941406 56.8125 161.941406 94.003906 C 161.941406 131.191406 131.6875 161.445312 94.5 161.445312 Z M 94.5 28.507812 C 58.386719 28.507812 29.003906 57.886719 29.003906 94.003906 C 29.003906 130.117188 58.386719 159.496094 94.5 159.496094 C 130.613281 159.496094 159.996094 130.117188 159.996094 94.003906 C 159.996094 57.886719 130.613281 28.507812 94.5 28.507812 Z M 94.5 28.507812 " fill-opacity="1" fill-rule="nonzero"/><path fill="#000000" d="M 94.5 152.03125 C 62.375 152.03125 36.238281 125.894531 36.238281 93.769531 C 36.238281 61.644531 62.375 35.507812 94.5 35.507812 C 126.625 35.507812 152.761719 61.644531 152.761719 93.769531 C 152.761719 125.894531 126.625 152.03125 94.5 152.03125 Z M 94.5 37.453125 C 63.449219 37.453125 38.1875 62.714844 38.1875 93.769531 C 38.1875 124.820312 63.449219 150.082031 94.5 150.082031 C 125.550781 150.082031 150.8125 124.820312 150.8125 93.769531 C 150.8125 62.714844 125.550781 37.453125 94.5 37.453125 Z M 94.5 37.453125 " fill-opacity="1" fill-rule="nonzero"/><path fill="#000000" d="M 50.9375 56.480469 C 53.433594 53.78125 54.058594 49.796875 56.304688 46.886719 C 56.453125 46.695312 56.613281 46.496094 56.832031 46.394531 C 57.191406 46.226562 57.632812 46.359375 57.933594 46.617188 C 58.230469 46.875 58.417969 47.238281 58.589844 47.59375 C 60.03125 50.582031 60.96875 53.8125 61.636719 57.199219 C 66.152344 57.632812 70.605469 58.664062 74.832031 60.105469 C 76.570312 57.886719 78.59375 55.886719 80.835938 54.175781 C 81.273438 53.84375 81.910156 53.527344 82.316406 53.894531 C 82.546875 54.101562 82.585938 54.449219 82.582031 54.761719 C 82.582031 56.070312 82.21875 57.351562 81.855469 58.609375 C 81.308594 60.488281 80.75 62.363281 80.339844 64.582031 C 84.253906 73.242188 82.519531 84.15625 76.152344 91.34375 C 79.664062 95.472656 84.910156 97.84375 90.246094 98.792969 C 95.585938 99.742188 101.066406 99.394531 106.460938 98.855469 C 107.789062 98.722656 109.457031 98.75 110.046875 99.949219 C 110.378906 100.625 110.203125 101.464844 109.777344 102.085938 C 109.351562 102.707031 108.710938 103.148438 108.070312 103.542969 C 105.039062 105.390625 101.546875 106.480469 97.984375 106.8125 C 101.667969 107.890625 105.074219 109.902344 108.019531 112.5 C 112.085938 110.007812 116.324219 109.625 121.089844 109.839844 C 123.042969 109.929688 124.511719 109.847656 126.429688 109.464844 C 130.507812 108.652344 132.714844 106.449219 135.234375 103.136719 C 136.191406 101.882812 137.234375 100.429688 138.804688 100.230469 C 139.105469 100.195312 139.425781 100.210938 139.703125 100.335938 C 140.246094 100.578125 140.539062 101.195312 140.558594 101.789062 C 140.578125 102.378906 140.46875 103.003906 140.152344 103.503906 C 138.222656 106.554688 136.179688 109.238281 133.746094 112.054688 C 132.582031 113.402344 130.851562 114.417969 129.542969 115.5 C 128.519531 116.347656 128.1875 117.382812 127.382812 118.308594 C 129.953125 118.523438 132.542969 118.496094 135.109375 118.222656 C 136.308594 118.09375 137.519531 117.90625 138.617188 117.414062 C 140.78125 116.445312 142.277344 114.402344 143.324219 112.277344 C 144.375 110.152344 145.085938 107.867188 146.242188 105.796875 C 146.695312 104.992188 147.25 104.191406 148.0625 103.75 C 148.878906 103.308594 150.015625 103.339844 150.617188 104.042969 C 151.171875 104.691406 151.117188 105.652344 151 106.5 C 150.019531 113.589844 146.957031 120.308594 142.679688 126.050781 C 138.402344 131.792969 132.941406 136.585938 127.4375 140.734375 C 112.398438 152.066406 93.59375 154.121094 77.542969 148.675781 C 58.511719 142.214844 43.960938 127.121094 38.839844 107.6875 C 37.792969 103.710938 37.101562 97.585938 36.929688 93.476562 C 36.363281 79.949219 42.460938 65.644531 50.9375 56.480469 Z M 50.9375 56.480469 " fill-opacity="1" fill-rule="nonzero"/><path fill="#ffffff" d="M 81.667969 115.191406 C 77.605469 114.292969 73.574219 113.183594 69.699219 111.65625 C 67.070312 110.613281 63.625 108.902344 60.730469 107.1875 C 59.742188 106.605469 58.777344 105.976562 57.835938 105.316406 C 57.375 105.046875 56.984375 104.597656 56.472656 104.449219 C 55.804688 104.332031 55.453125 105.304688 56.0625 105.644531 C 61.578125 109.613281 67.78125 112.648438 74.28125 114.632812 C 78.101562 115.878906 82.082031 116.511719 85.929688 117.648438 C 89.050781 118.628906 92.0625 120.179688 89.875 121.9375 C 87.433594 123.898438 83.304688 124.234375 79.484375 124.402344 C 71.753906 124.554688 64.191406 123.265625 57.574219 119.667969 C 56.386719 119.035156 55.21875 118.359375 54.066406 117.660156 C 53.496094 117.308594 52.777344 118.003906 53.136719 118.59375 C 53.226562 118.753906 53.386719 118.84375 53.539062 118.929688 C 54.152344 119.285156 54.765625 119.636719 55.390625 119.976562 C 56.8125 120.75 58.238281 121.519531 59.71875 122.183594 C 66.3125 125 73.628906 126.070312 80.765625 125.675781 C 84.207031 125.433594 89.621094 125.007812 91.660156 121.863281 C 93.722656 117.515625 84.484375 115.886719 81.667969 115.191406 Z M 81.667969 115.191406 " fill-opacity="1" fill-rule="nonzero"/><path fill="#ffffff" d="M 96.253906 105.972656 C 95.96875 105.566406 95.382812 105.566406 94.953125 105.378906 C 90.542969 104.058594 86.679688 103.019531 82.925781 100.769531 C 80.460938 99.332031 78.804688 98.125 76.792969 96.246094 C 76.605469 96.058594 76.414062 95.824219 76.125 95.839844 C 75.597656 95.820312 75.296875 96.527344 75.6875 96.894531 C 78.855469 100.039062 82.707031 102.476562 86.839844 104.140625 C 88.847656 104.953125 90.933594 105.535156 93.007812 106.140625 C 93.878906 106.332031 94.960938 106.835938 95.785156 106.929688 C 96.226562 106.902344 96.488281 106.34375 96.253906 105.972656 Z M 96.253906 105.972656 " fill-opacity="1" fill-rule="nonzero"/><path fill="#ffffff" d="M 126.488281 117.730469 C 122.527344 117.8125 119.269531 118.382812 116.402344 119.707031 C 116.386719 119.691406 116.378906 119.675781 116.363281 119.660156 C 114.492188 117.71875 112.59375 115.792969 110.441406 114.15625 C 109.96875 113.878906 109.496094 113.09375 108.890625 113.351562 C 108.585938 113.460938 108.429688 113.816406 108.511719 114.121094 C 108.542969 114.230469 108.597656 114.328125 108.679688 114.410156 C 109.039062 114.683594 109.058594 114.703125 109.167969 114.785156 C 109.253906 114.851562 109.382812 114.953125 109.4375 114.996094 C 109.582031 115.09375 111.203125 116.402344 111.792969 116.957031 C 113.011719 117.976562 114.039062 119.238281 115.199219 120.316406 C 112.675781 121.726562 110.441406 123.800781 108.265625 126.75 C 107.183594 128.140625 106.175781 129.589844 105.21875 131.070312 C 104.953125 131.628906 104.101562 132.308594 104.570312 132.933594 C 104.761719 133.210938 105.164062 133.273438 105.449219 133.109375 C 105.769531 132.890625 105.890625 132.484375 106.121094 132.183594 C 106.71875 131.261719 107.316406 130.339844 107.957031 129.441406 C 110.28125 126.226562 112.800781 122.949219 116.535156 121.128906 C 118.140625 120.246094 121.273438 119.492188 122.933594 119.339844 C 123.972656 119.21875 125.015625 119.125 126.0625 119.097656 C 126.375 119.082031 126.734375 119.148438 126.96875 118.890625 C 127.394531 118.492188 127.078125 117.710938 126.488281 117.730469 Z M 126.488281 117.730469 " fill-opacity="1" fill-rule="nonzero"/><path fill="#ffffff" d="M 66.972656 73.058594 C 66.972656 73.417969 66.9375 73.769531 66.871094 74.121094 C 66.808594 74.472656 66.710938 74.8125 66.582031 75.144531 C 66.453125 75.472656 66.296875 75.789062 66.109375 76.085938 C 65.925781 76.382812 65.710938 76.65625 65.476562 76.910156 C 65.238281 77.164062 64.980469 77.390625 64.703125 77.589844 C 64.421875 77.785156 64.128906 77.953125 63.820312 78.089844 C 63.507812 78.226562 63.191406 78.332031 62.859375 78.402344 C 62.53125 78.472656 62.199219 78.507812 61.863281 78.507812 C 61.527344 78.507812 61.195312 78.472656 60.867188 78.402344 C 60.539062 78.332031 60.21875 78.226562 59.910156 78.089844 C 59.601562 77.953125 59.304688 77.785156 59.027344 77.589844 C 58.75 77.390625 58.492188 77.164062 58.253906 76.910156 C 58.015625 76.65625 57.804688 76.382812 57.617188 76.085938 C 57.433594 75.789062 57.273438 75.472656 57.144531 75.144531 C 57.019531 74.8125 56.921875 74.472656 56.855469 74.121094 C 56.789062 73.769531 56.757812 73.417969 56.757812 73.058594 C 56.757812 72.703125 56.789062 72.347656 56.855469 71.996094 C 56.921875 71.644531 57.019531 71.304688 57.144531 70.976562 C 57.273438 70.644531 57.433594 70.332031 57.617188 70.03125 C 57.804688 69.734375 58.015625 69.460938 58.253906 69.207031 C 58.492188 68.953125 58.75 68.730469 59.027344 68.53125 C 59.304688 68.332031 59.601562 68.164062 59.910156 68.027344 C 60.21875 67.890625 60.539062 67.785156 60.867188 67.714844 C 61.195312 67.648438 61.527344 67.613281 61.863281 67.613281 C 62.199219 67.613281 62.53125 67.648438 62.859375 67.714844 C 63.191406 67.785156 63.507812 67.890625 63.820312 68.027344 C 64.128906 68.164062 64.421875 68.332031 64.703125 68.53125 C 64.980469 68.730469 65.238281 68.953125 65.476562 69.207031 C 65.710938 69.460938 65.925781 69.734375 66.109375 70.03125 C 66.296875 70.332031 66.453125 70.644531 66.582031 70.976562 C 66.710938 71.304688 66.808594 71.644531 66.871094 71.996094 C 66.9375 72.347656 66.972656 72.703125 66.972656 73.058594 Z M 66.972656 73.058594 " fill-opacity="1" fill-rule="nonzero"/><path fill="#ffffff" d="M 81.269531 74.761719 C 81.269531 75.074219 81.246094 75.382812 81.199219 75.691406 C 81.148438 76 81.078125 76.296875 80.984375 76.585938 C 80.890625 76.875 80.773438 77.148438 80.636719 77.410156 C 80.5 77.667969 80.347656 77.910156 80.171875 78.132812 C 80 78.351562 79.808594 78.550781 79.605469 78.722656 C 79.402344 78.898438 79.183594 79.042969 78.957031 79.164062 C 78.730469 79.285156 78.496094 79.375 78.253906 79.4375 C 78.015625 79.496094 77.769531 79.527344 77.523438 79.527344 C 77.277344 79.527344 77.035156 79.496094 76.792969 79.4375 C 76.554688 79.375 76.320312 79.285156 76.089844 79.164062 C 75.863281 79.042969 75.648438 78.898438 75.445312 78.722656 C 75.238281 78.550781 75.050781 78.351562 74.875 78.132812 C 74.703125 77.910156 74.546875 77.667969 74.410156 77.410156 C 74.273438 77.148438 74.160156 76.875 74.066406 76.585938 C 73.972656 76.296875 73.898438 76 73.851562 75.691406 C 73.804688 75.382812 73.78125 75.074219 73.78125 74.761719 C 73.78125 74.449219 73.804688 74.136719 73.851562 73.832031 C 73.898438 73.523438 73.972656 73.226562 74.066406 72.9375 C 74.160156 72.648438 74.273438 72.375 74.410156 72.113281 C 74.546875 71.851562 74.703125 71.613281 74.875 71.390625 C 75.050781 71.167969 75.238281 70.972656 75.445312 70.796875 C 75.648438 70.625 75.863281 70.476562 76.089844 70.359375 C 76.320312 70.238281 76.554688 70.148438 76.792969 70.085938 C 77.035156 70.027344 77.277344 69.996094 77.523438 69.996094 C 77.769531 69.996094 78.015625 70.027344 78.253906 70.085938 C 78.496094 70.148438 78.730469 70.238281 78.957031 70.359375 C 79.183594 70.476562 79.402344 70.625 79.605469 70.796875 C 79.808594 70.972656 80 71.167969 80.171875 71.390625 C 80.347656 71.613281 80.5 71.851562 80.636719 72.113281 C 80.773438 72.375 80.890625 72.648438 80.984375 72.9375 C 81.078125 73.226562 81.148438 73.523438 81.199219 73.832031 C 81.246094 74.136719 81.269531 74.449219 81.269531 74.761719 Z M 81.269531 74.761719 " fill-opacity="1" fill-rule="nonzero"/><path fill="#ffffff" d="M 71.613281 76.269531 C 71.136719 75.980469 69.703125 75.847656 69.535156 76.554688 C 69.472656 76.855469 69.652344 77.125 69.792969 77.371094 C 69.949219 77.574219 70.050781 77.867188 70.28125 77.988281 C 70.351562 78.066406 70.4375 78.128906 70.546875 78.15625 C 70.90625 78.222656 71.191406 77.90625 71.441406 77.691406 C 71.824219 77.335938 72.164062 76.636719 71.613281 76.269531 Z M 71.613281 76.269531 " fill-opacity="1" fill-rule="nonzero"/><path fill="#000000" d="M 63.257812 71.835938 C 63.171875 72.679688 63.09375 73.523438 63.074219 74.371094 C 62.988281 74.800781 63.277344 75.246094 63.75 75.128906 C 64.273438 74.980469 64.136719 74.347656 64.179688 73.929688 C 64.195312 73.230469 64.230469 72.53125 64.292969 71.835938 C 64.289062 71.160156 63.261719 71.160156 63.257812 71.835938 Z M 63.257812 71.835938 " fill-opacity="1" fill-rule="nonzero"/><path fill="#000000" d="M 79.695312 73.199219 C 79.398438 72.886719 78.824219 73.125 78.839844 73.554688 C 78.765625 74.277344 78.695312 74.859375 78.636719 75.25 C 78.589844 75.578125 78.464844 76.003906 78.824219 76.203125 C 79.152344 76.40625 79.621094 76.140625 79.605469 75.753906 C 79.691406 75.0625 79.761719 74.371094 79.832031 73.679688 C 79.859375 73.507812 79.824219 73.324219 79.695312 73.199219 Z M 79.695312 73.199219 " fill-opacity="1" fill-rule="nonzero"/><path fill="#000000" d="M 144.769531 68.441406 C 143.558594 68.003906 143.300781 69.230469 143.082031 70.496094 C 142.859375 71.761719 143.007812 73.183594 142.234375 74.210938 C 140.761719 76.171875 137.550781 75.011719 135.308594 76.003906 C 134.773438 76.242188 134.285156 76.609375 133.714844 76.746094 C 132.179688 77.113281 130.84375 75.753906 129.710938 74.660156 C 128.574219 73.5625 126.699219 72.621094 125.546875 73.695312 C 124.6875 74.496094 124.878906 75.921875 125.382812 76.984375 C 125.886719 78.046875 126.644531 79.039062 126.75 80.210938 C 126.898438 81.84375 125.664062 83.355469 124.167969 84.023438 C 122.667969 84.6875 118.972656 85.523438 115.839844 85.488281 C 110.28125 85.425781 105.949219 83.492188 103.789062 80.398438 C 102.171875 78.082031 105.164062 75.441406 101.445312 73.066406 C 100.074219 72.191406 98.375 71.984375 96.75 72.058594 C 95.476562 72.113281 94.140625 72.320312 92.960938 71.824219 C 91.785156 71.328125 90.949219 69.765625 91.71875 68.746094 C 92.007812 68.359375 92.472656 68.121094 92.71875 67.707031 C 93.339844 66.652344 92.144531 65.386719 90.957031 65.082031 C 89.773438 64.773438 88.421875 64.871094 87.449219 64.128906 C 85.679688 62.78125 86.558594 59.890625 88.046875 58.238281 C 89.539062 56.585938 91.578125 55.144531 91.933594 52.949219 C 92.289062 50.75 90.660156 48.582031 88.605469 47.714844 C 86.554688 46.84375 84.207031 47.023438 82.03125 47.503906 C 78.308594 48.320312 74.8125 49.953125 71.113281 50.863281 C 69.230469 51.324219 66.679688 51.257812 66.023438 49.433594 C 65.769531 48.726562 65.90625 47.9375 66.148438 47.226562 C 66.84375 45.191406 68.429688 43.484375 70.824219 42.289062 C 82.222656 36.28125 97.796875 34.957031 108.734375 37.855469 C 134.03125 44.5625 143.34375 65.566406 144.769531 68.441406 Z M 144.769531 68.441406 " fill-opacity="1" fill-rule="nonzero"/><path fill="#000000" d="M 129.542969 119.117188 C 132.972656 117.511719 135.214844 114.167969 137.09375 110.878906 C 139.667969 106.371094 141.925781 101.5625 142.582031 96.414062 C 143.746094 87.296875 139.746094 78.222656 134.292969 70.820312 C 131.828125 67.472656 128.960938 64.148438 128.261719 60.054688 C 127.910156 58 128.375 55.503906 130.238281 54.570312 C 132.230469 53.570312 134.585938 54.894531 136.289062 56.335938 C 142.125 61.277344 146.132812 68.144531 148.421875 75.4375 C 150.710938 82.730469 151.359375 90.453125 151.238281 98.097656 C 151.191406 100.9375 151.035156 103.796875 150.335938 106.550781 C 149.789062 108.703125 148.914062 110.757812 147.914062 112.742188 C 146.308594 115.941406 144.328125 119.03125 141.539062 121.269531 C 138.75 123.507812 135.039062 124.800781 131.539062 124.058594 C 130.46875 123.835938 129.382812 123.378906 128.753906 122.488281 C 128.128906 121.59375 127.960938 119.855469 129.542969 119.117188 Z M 129.542969 119.117188 " fill-opacity="1" fill-rule="nonzero"/><path fill="#ffffff" d="M 151.300781 103.722656 C 150.921875 103.109375 150.15625 102.957031 149.480469 102.996094 C 147.640625 103.082031 146.316406 104.59375 145.378906 106.03125 C 144.007812 108.113281 143.320312 111.289062 142.519531 113.117188 C 141.613281 114.984375 140.453125 116.171875 138.613281 117.097656 C 137.214844 117.769531 135.152344 117.980469 133.171875 118.023438 C 131.613281 118.113281 130.027344 117.933594 128.484375 118.097656 C 127.996094 118.269531 128.148438 119.0625 128.671875 119.042969 C 132.609375 118.878906 137.082031 119.632812 140.460938 117.152344 C 141.75 116.175781 142.851562 114.90625 143.484375 113.410156 C 144.59375 110.71875 144.976562 108.257812 146.613281 106.019531 C 147.019531 105.46875 147.765625 104.59375 148.53125 104.242188 C 148.953125 103.988281 150.054688 103.890625 150.335938 104.121094 C 150.34375 104.128906 150.34375 104.128906 150.351562 104.132812 C 150.378906 104.160156 150.410156 104.183594 150.433594 104.214844 C 150.449219 104.230469 150.457031 104.242188 150.460938 104.246094 C 150.503906 104.316406 150.546875 104.386719 150.617188 104.425781 C 151.058594 104.796875 151.671875 104.164062 151.300781 103.722656 Z M 151.300781 103.722656 " fill-opacity="1" fill-rule="nonzero"/><path fill="#000000" d="M 128.457031 83.898438 C 127.441406 84.25 127.753906 85.351562 128.554688 85.714844 C 128.691406 85.800781 128.835938 85.875 128.984375 85.933594 C 129.554688 86.164062 130.402344 86.222656 130.738281 85.601562 C 131.246094 84.414062 129.410156 83.589844 128.457031 83.898438 Z M 128.457031 83.898438 " fill-opacity="1" fill-rule="nonzero"/><path fill="#000000" d="M 100.0625 76.558594 C 99.238281 75.800781 97.734375 75.203125 96.6875 75.8125 C 96.257812 76.074219 96.121094 76.644531 96.363281 77.082031 C 96.421875 77.195312 96.5 77.292969 96.582031 77.386719 C 97.203125 78.21875 99.074219 78.878906 99.792969 78.585938 C 100.78125 78.285156 100.703125 77.183594 100.0625 76.558594 Z M 100.0625 76.558594 " fill-opacity="1" fill-rule="nonzero"/><path fill="#000000" d="M 93.699219 77.863281 C 93.628906 77.828125 93.554688 77.792969 93.484375 77.761719 C 92.773438 77.382812 91.296875 77.347656 91.476562 78.496094 C 91.765625 79.347656 92.703125 79.765625 93.5 80.027344 C 94.203125 80.21875 95.199219 80.300781 95.402344 79.429688 C 95.480469 78.710938 94.496094 78.125 93.699219 77.863281 Z M 93.699219 77.863281 " fill-opacity="1" fill-rule="nonzero"/><path fill="#ffffff" d="M 137.230469 74.675781 C 134.839844 71.390625 132.464844 68.621094 130.0625 64.8125 C 128.082031 61.675781 126.460938 58.777344 126.773438 55.328125 C 126.90625 53.808594 127.867188 52.082031 129.078125 51.625 C 130.679688 51.007812 132.097656 52.007812 133.851562 53.367188 C 133.847656 53.359375 133.859375 53.371094 133.910156 53.414062 C 134.238281 53.621094 134.085938 53.65625 134.496094 53.726562 C 134.828125 53.734375 135.085938 53.390625 134.992188 53.074219 C 134.902344 52.785156 134.589844 52.648438 134.386719 52.453125 C 133.382812 51.636719 132.355469 50.757812 131.066406 50.453125 C 128.925781 49.871094 127.042969 51.21875 126.210938 53.148438 C 124.71875 56.632812 126.222656 60.492188 128.003906 63.574219 C 129.996094 66.933594 132.398438 70.027344 134.789062 73.109375 C 135.429688 73.953125 135.722656 74.273438 136.351562 75.1875 C 136.421875 75.304688 136.53125 75.386719 136.65625 75.421875 C 137.078125 75.546875 137.46875 75.050781 137.230469 74.675781 Z M 137.230469 74.675781 " fill-opacity="1" fill-rule="nonzero"/><path fill="#ffffff" d="M 133.910156 53.414062 C 133.890625 53.398438 133.871094 53.382812 133.851562 53.367188 C 133.859375 53.378906 133.90625 53.417969 133.945312 53.441406 C 133.933594 53.429688 133.925781 53.421875 133.914062 53.414062 C 133.910156 53.414062 133.910156 53.414062 133.910156 53.414062 Z M 133.910156 53.414062 " fill-opacity="1" fill-rule="nonzero"/><path fill="#ffffff" d="M 105.648438 70.34375 C 105.304688 70.15625 104.832031 70.054688 104.417969 70.085938 C 104.386719 70.082031 104.355469 70.078125 104.324219 70.074219 C 103.683594 69.960938 103.128906 70.59375 103.617188 71.136719 C 103.902344 71.429688 104.328125 71.523438 104.71875 71.597656 C 105.035156 71.652344 105.375 71.6875 105.671875 71.535156 C 106.175781 71.28125 106.125 70.597656 105.648438 70.34375 Z M 105.648438 70.34375 " fill-opacity="1" fill-rule="nonzero"/><path fill="#ffffff" d="M 108.796875 73.039062 C 108.667969 73.011719 108.523438 72.980469 108.386719 72.976562 C 107.828125 72.789062 107.386719 73.617188 108 73.953125 C 108.449219 74.210938 109.328125 74.355469 109.367188 73.628906 C 109.359375 73.292969 109.089844 73.113281 108.796875 73.039062 Z M 108.796875 73.039062 " fill-opacity="1" fill-rule="nonzero"/><path fill="#ffffff" d="M 56.753906 50.199219 C 56.191406 51.578125 55.699219 52.992188 55.417969 54.457031 C 55.378906 54.847656 55.199219 55.269531 55.304688 55.648438 C 55.429688 56.019531 55.984375 56.042969 56.171875 55.707031 C 56.3125 55.199219 56.480469 53.84375 56.804688 52.941406 C 56.992188 52.351562 57.179688 51.761719 57.410156 51.1875 C 57.5 50.882812 57.730469 50.589844 57.707031 50.265625 C 57.667969 49.75 56.871094 49.699219 56.753906 50.199219 Z M 56.753906 50.199219 " fill-opacity="1" fill-rule="nonzero"/><path fill="#000000" d="M 152.882812 159.257812 C 149.457031 156.242188 145.953125 153.320312 142.441406 150.40625 C 141.117188 149.390625 140.527344 148.835938 139.234375 147.777344 C 138.601562 147.476562 138.011719 148.355469 138.519531 148.84375 C 140.421875 150.671875 142.550781 152.25 144.535156 153.988281 C 147.195312 156.167969 149.742188 158.515625 152.382812 160.703125 C 152.832031 160.933594 153.414062 160.53125 153.394531 160.035156 C 153.398438 159.679688 153.136719 159.460938 152.882812 159.257812 Z M 152.882812 159.257812 " fill-opacity="1" fill-rule="nonzero"/><path stroke-linecap="butt" transform="matrix(-0.604414, 0.437353, -0.437353, -0.604414, 104.782795, 128.038928)" fill="none" stroke-linejoin="miter" d="M 0.00351355 1.999347 L 31.148013 1.999446 " stroke="#000000" stroke-width="4" stroke-opacity="1" stroke-miterlimit="4"/></svg>