<svg xmlns="http://www.w3.org/2000/svg" xmlns:xlink="http://www.w3.org/1999/xlink" width="302" zoomAndPan="magnify" viewBox="0 0 226.5 189.000001" height="252" preserveAspectRatio="xMidYMid meet" version="1.0"><defs><clipPath id="64cd531d84"><path d="M 0.347656 0 L 225 0 L 225 188 L 0.347656 188 Z M 0.347656 0 " clip-rule="nonzero"/></clipPath></defs><g clip-path="url(#64cd531d84)"><path fill="#ffffff" d="M 220.589844 28.253906 C 221.628906 26.457031 222.679688 24.671875 223.652344 22.832031 C 224.304688 21.445312 225.554688 19.425781 224.1875 18.113281 C 223.636719 17.597656 222.828125 17.710938 222.132812 17.632812 C 221 17.582031 219.867188 17.550781 218.726562 17.578125 C 214.15625 17.714844 209.632812 18.460938 205.070312 18.828125 C 201.109375 19.175781 197.105469 19.101562 193.179688 19.796875 C 192.722656 19.875 192.269531 19.964844 191.820312 20.058594 C 190.496094 19.28125 182.203125 15.964844 182.175781 15.953125 C 174.140625 13.207031 162.117188 11.863281 150.386719 14.402344 C 150.195312 14.445312 150 14.488281 149.804688 14.535156 C 149.75 14.496094 149.6875 14.453125 149.625 14.40625 C 146.8125 12.507812 143.902344 10.753906 140.929688 9.121094 C 137.023438 6.921875 132.949219 5.042969 128.949219 3.023438 C 127.515625 2.3125 126.082031 1.582031 124.644531 0.890625 C 123.804688 0.53125 122.914062 -0.00390625 121.96875 0.214844 C 121.246094 0.40625 121.097656 1.207031 121.15625 1.847656 C 121.160156 1.910156 121.164062 1.976562 121.171875 2.054688 C 121.164062 2.144531 121.171875 2.242188 121.191406 2.339844 C 121.226562 2.746094 121.285156 3.265625 121.386719 3.726562 C 121.851562 6.21875 122.386719 8.691406 122.972656 11.152344 C 123.921875 15.328125 125.058594 19.453125 126.269531 23.558594 C 126.464844 24.183594 126.667969 24.8125 126.871094 25.4375 C 126.691406 25.613281 126.503906 25.792969 126.324219 25.976562 C 123.5 28.921875 121.324219 31.4375 119.179688 34.65625 C 114.976562 41.429688 112.46875 49.078125 110.460938 56.742188 C 109.78125 59.269531 109.359375 61.851562 108.863281 64.417969 C 108.433594 64.597656 108.003906 64.777344 107.570312 64.949219 C 102.980469 66.714844 98.523438 68.785156 94.171875 71.078125 C 89.15625 73.605469 84.234375 76.3125 79.480469 79.300781 C 75.835938 81.585938 45.429688 100.984375 38.714844 105.214844 C 34.507812 107.867188 29.957031 111.542969 31.269531 117.117188 C 31.578125 118.828125 32.898438 120.363281 34.878906 121.730469 C 32.066406 122.996094 26.566406 126.277344 23.007812 128.367188 C 18.9375 130.816406 14.78125 133.121094 10.835938 135.777344 C 8.707031 137.175781 6.53125 138.507812 4.324219 139.789062 C 4.148438 139.90625 3.925781 139.992188 3.789062 140.15625 C 3.648438 140.179688 3.515625 140.257812 3.417969 140.367188 C 3.316406 140.421875 3.226562 140.488281 3.171875 140.597656 C 3.027344 140.832031 3.085938 141.109375 3.238281 141.296875 C 2.972656 145.425781 2.878906 151.203125 2.496094 153.585938 C 2.46875 153.605469 2.4375 153.632812 2.410156 153.65625 C 2.160156 153.914062 1.894531 154.152344 1.613281 154.378906 C 1.359375 154.566406 1.097656 154.738281 0.824219 154.898438 C 0.660156 154.996094 0.527344 155.167969 0.476562 155.351562 C 0.433594 155.496094 0.445312 155.671875 0.496094 155.820312 C 0.496094 155.835938 0.492188 155.847656 0.492188 155.863281 C 0.480469 156.382812 1.023438 156.683594 1.492188 156.59375 C 2.152344 156.578125 2.808594 156.570312 3.46875 156.578125 C 5.0625 156.585938 6.648438 156.617188 8.238281 156.734375 C 14.523438 157.34375 20.539062 158.167969 26.945312 159.984375 C 35.453125 162.183594 43.832031 164.875 52.027344 168.054688 C 55.582031 169.445312 58.800781 170.875 62.902344 172.714844 C 66.222656 174.269531 69.363281 176.164062 72.347656 178.273438 C 73.914062 179.4375 75.117188 179.753906 75.695312 177.464844 C 75.792969 177.015625 76.34375 175 76.363281 174.925781 C 77.230469 172.855469 79.140625 171.738281 79.996094 171.625 C 82.082031 171.339844 83.695312 172.777344 84.390625 174.453125 C 84.570312 175.050781 84.519531 175.75 84.488281 176.125 C 84.46875 176.316406 84.417969 176.5 84.351562 176.679688 C 83.289062 179.503906 86.332031 179.246094 88.558594 179.066406 C 91.800781 178.828125 95.042969 178.597656 98.296875 178.699219 C 103.410156 178.832031 108.511719 179.28125 113.617188 179.605469 C 120.355469 180.035156 125.226562 180.9375 131.976562 181.828125 C 138.207031 182.636719 148.222656 184.128906 155.679688 185.964844 C 157.429688 186.390625 159.179688 186.824219 160.9375 187.210938 C 161.472656 187.324219 162.015625 187.425781 162.558594 187.492188 C 162.730469 187.808594 163.101562 188.003906 163.59375 187.742188 C 167.601562 185.15625 171.292969 182.125 175.121094 179.285156 C 181.273438 174.773438 187.398438 170.21875 193.367188 165.464844 C 195.726562 163.574219 197.605469 161.984375 199.800781 160.410156 C 200.429688 159.953125 201.074219 159.527344 201.714844 159.101562 C 201.878906 159.011719 201.996094 158.859375 202.046875 158.679688 C 202.113281 158.453125 202.054688 158.242188 201.925781 158.070312 C 201.863281 157.699219 201.421875 157.503906 201.0625 157.402344 C 200.351562 157.167969 199.628906 156.996094 198.902344 156.816406 C 197.492188 156.519531 196.082031 156.128906 194.675781 155.871094 C 194.679688 155.269531 194.683594 154.667969 194.683594 154.066406 C 194.695312 152.785156 194.703125 151.503906 194.746094 150.222656 C 194.734375 149.90625 194.765625 149.582031 194.78125 149.257812 C 195.933594 149.039062 197.277344 148.789062 197.539062 148.769531 C 197.578125 148.765625 197.621094 148.757812 197.65625 148.753906 C 198.621094 148.757812 199.746094 148.886719 200.710938 148.722656 C 201.273438 149.035156 201.84375 149.320312 202.441406 149.570312 C 205.683594 151.015625 208.105469 150.949219 211.195312 149.171875 C 215.40625 146.746094 218.984375 142.957031 220.539062 138.296875 C 222.550781 132.980469 221.144531 127.714844 218.710938 122.804688 C 217.050781 119.289062 214.90625 116.039062 212.941406 112.695312 C 210.6875 108.90625 208.632812 105.007812 206.328125 101.253906 C 204.003906 97.5625 201.910156 93.742188 199.617188 90.03125 C 199.253906 89.441406 198.898438 88.835938 198.550781 88.230469 C 198.882812 87.960938 199.21875 87.675781 199.527344 87.398438 C 202.507812 84.695312 205.199219 81.398438 206.089844 77.386719 C 206.640625 74.960938 206.726562 72.128906 205.386719 69.980469 C 205.382812 69.757812 205.382812 69.515625 205.382812 69.292969 C 206.011719 68.3125 206.605469 67.3125 207.125 66.269531 C 208.957031 62.40625 210.132812 58.222656 210.578125 53.972656 C 210.820312 51.480469 210.765625 48.945312 210.269531 46.484375 C 210.214844 46.222656 210.152344 45.949219 210.089844 45.683594 C 210.394531 45.242188 210.683594 44.792969 210.976562 44.34375 C 214.273438 39.035156 217.449219 33.65625 220.589844 28.253906 Z M 86.714844 108.871094 C 88.917969 107.800781 90.902344 107.023438 93.09375 106.207031 C 92.683594 109.660156 92.476562 113.128906 92.464844 116.609375 C 92.460938 117.480469 92.441406 118.714844 92.457031 119.730469 C 89.964844 118.820312 87.476562 117.921875 85.046875 116.929688 C 82.421875 115.859375 80.265625 114.996094 77.871094 113.835938 C 80.75 112.066406 83.660156 110.34375 86.714844 108.871094 Z M 86.714844 108.871094 " fill-opacity="1" fill-rule="nonzero"/><path fill="#000000" d="M 220.589844 28.253906 C 221.628906 26.457031 222.679688 24.667969 223.648438 22.832031 C 224.300781 21.445312 225.558594 19.425781 224.1875 18.109375 C 223.632812 17.597656 222.828125 17.710938 222.132812 17.632812 C 221 17.585938 219.863281 17.550781 218.730469 17.578125 C 214.15625 17.714844 209.628906 18.460938 205.074219 18.824219 C 201.109375 19.171875 197.105469 19.101562 193.175781 19.796875 C 192.722656 19.875 192.269531 19.964844 191.816406 20.058594 C 190.496094 19.277344 182.203125 15.960938 182.175781 15.953125 C 174.140625 13.207031 162.121094 11.859375 150.386719 14.402344 C 150.191406 14.445312 150 14.492188 149.808594 14.535156 C 149.746094 14.492188 149.6875 14.453125 149.625 14.410156 C 146.8125 12.507812 143.902344 10.757812 140.929688 9.117188 C 137.023438 6.921875 132.949219 5.042969 128.949219 3.023438 C 127.511719 2.3125 126.085938 1.585938 124.640625 0.890625 C 123.804688 0.53125 122.910156 -0.00390625 121.96875 0.21875 C 121.25 0.40625 121.097656 1.203125 121.15625 1.851562 C 121.160156 1.90625 121.164062 1.976562 121.171875 2.050781 C 121.164062 2.148438 121.171875 2.242188 121.191406 2.339844 C 121.226562 2.75 121.285156 3.269531 121.386719 3.730469 C 121.847656 6.21875 122.386719 8.691406 122.972656 11.152344 C 123.925781 15.324219 125.058594 19.457031 126.269531 23.558594 C 126.464844 24.1875 126.667969 24.8125 126.871094 25.433594 C 126.6875 25.617188 126.503906 25.792969 126.320312 25.976562 C 123.503906 28.921875 121.324219 31.4375 119.179688 34.660156 C 114.976562 41.429688 112.46875 49.078125 110.460938 56.742188 C 109.785156 59.273438 109.359375 61.851562 108.863281 64.421875 C 108.433594 64.597656 108.003906 64.773438 107.570312 64.949219 C 102.976562 66.714844 98.523438 68.785156 94.171875 71.078125 C 89.15625 73.601562 84.234375 76.316406 79.476562 79.300781 C 75.839844 81.585938 45.429688 100.984375 38.71875 105.214844 C 34.507812 107.867188 29.957031 111.542969 31.269531 117.117188 C 31.574219 118.828125 32.902344 120.363281 34.882812 121.734375 C 32.070312 122.996094 26.566406 126.277344 23.007812 128.367188 C 18.9375 130.816406 14.78125 133.121094 10.839844 135.777344 C 8.707031 137.175781 6.53125 138.507812 4.324219 139.789062 C 4.148438 139.90625 3.925781 139.992188 3.789062 140.152344 C 3.644531 140.183594 3.511719 140.257812 3.417969 140.367188 C 3.316406 140.417969 3.230469 140.488281 3.171875 140.597656 C 3.027344 140.832031 3.082031 141.109375 3.238281 141.300781 C 2.96875 145.429688 2.878906 151.207031 2.496094 153.585938 C 2.464844 153.609375 2.4375 153.628906 2.410156 153.65625 C 2.164062 153.914062 1.894531 154.152344 1.613281 154.375 C 1.359375 154.566406 1.097656 154.742188 0.824219 154.898438 C 0.660156 154.996094 0.523438 155.171875 0.472656 155.351562 C 0.433594 155.496094 0.441406 155.671875 0.496094 155.824219 C 0.496094 155.835938 0.492188 155.847656 0.488281 155.863281 C 0.484375 156.382812 1.019531 156.6875 1.492188 156.589844 C 2.152344 156.578125 2.8125 156.570312 3.46875 156.574219 C 5.058594 156.585938 6.652344 156.621094 8.238281 156.738281 C 14.527344 157.34375 20.542969 158.167969 26.941406 159.988281 C 35.453125 162.1875 43.832031 164.875 52.027344 168.050781 C 55.582031 169.449219 58.800781 170.875 62.902344 172.714844 C 66.21875 174.269531 69.363281 176.164062 72.351562 178.277344 C 73.910156 179.4375 75.121094 179.753906 75.695312 177.464844 C 75.792969 177.015625 76.34375 174.996094 76.363281 174.925781 C 77.230469 172.855469 79.140625 171.738281 79.992188 171.628906 C 82.082031 171.339844 83.695312 172.777344 84.390625 174.453125 C 84.570312 175.046875 84.523438 175.75 84.488281 176.125 C 84.46875 176.316406 84.417969 176.5 84.351562 176.675781 C 83.289062 179.503906 86.332031 179.242188 88.558594 179.066406 C 91.800781 178.828125 95.042969 178.597656 98.296875 178.699219 C 103.410156 178.832031 108.511719 179.28125 113.617188 179.609375 C 120.351562 180.035156 125.226562 180.941406 131.976562 181.828125 C 138.207031 182.640625 148.222656 184.132812 155.679688 185.96875 C 157.429688 186.390625 159.179688 186.824219 160.941406 187.210938 C 161.476562 187.324219 162.015625 187.425781 162.558594 187.492188 C 162.730469 187.808594 163.101562 188.003906 163.59375 187.738281 C 167.605469 185.15625 171.292969 182.125 175.121094 179.285156 C 181.277344 174.777344 187.398438 170.21875 193.367188 165.464844 C 195.722656 163.574219 197.601562 161.984375 199.804688 160.410156 C 200.429688 159.953125 201.070312 159.527344 201.71875 159.101562 C 201.878906 159.007812 201.996094 158.855469 202.046875 158.675781 C 202.113281 158.453125 202.054688 158.238281 201.925781 158.070312 C 201.867188 157.699219 201.417969 157.503906 201.0625 157.402344 C 200.355469 157.167969 199.625 156.996094 198.902344 156.816406 C 197.496094 156.523438 196.085938 156.128906 194.675781 155.875 C 194.679688 155.269531 194.683594 154.667969 194.6875 154.0625 C 194.691406 152.785156 194.707031 151.503906 194.746094 150.226562 C 194.734375 149.910156 194.765625 149.582031 194.785156 149.257812 C 195.933594 149.039062 197.28125 148.792969 197.542969 148.769531 C 197.582031 148.761719 197.621094 148.761719 197.660156 148.753906 C 198.621094 148.757812 199.746094 148.886719 200.710938 148.722656 C 201.269531 149.03125 201.84375 149.320312 202.441406 149.570312 C 205.683594 151.015625 208.105469 150.945312 211.195312 149.171875 C 215.40625 146.746094 218.984375 142.957031 220.539062 138.300781 C 222.550781 132.980469 221.144531 127.714844 218.714844 122.800781 C 217.050781 119.285156 214.910156 116.035156 212.9375 112.691406 C 210.6875 108.90625 208.632812 105.007812 206.328125 101.253906 C 204.007812 97.5625 201.910156 93.738281 199.621094 90.03125 C 199.253906 89.4375 198.898438 88.839844 198.550781 88.230469 C 198.882812 87.960938 199.222656 87.671875 199.527344 87.398438 C 202.507812 84.691406 205.199219 81.398438 206.089844 77.386719 C 206.640625 74.964844 206.726562 72.128906 205.386719 69.984375 C 205.382812 69.753906 205.382812 69.519531 205.378906 69.289062 C 206.011719 68.3125 206.605469 67.3125 207.125 66.269531 C 208.960938 62.40625 210.132812 58.222656 210.574219 53.972656 C 210.820312 51.480469 210.769531 48.945312 210.269531 46.488281 C 210.214844 46.21875 210.152344 45.949219 210.09375 45.683594 C 210.390625 45.238281 210.683594 44.792969 210.972656 44.34375 C 214.273438 39.035156 217.453125 33.65625 220.589844 28.253906 Z M 116.847656 134.890625 C 124.296875 132.9375 131.070312 131.730469 138.875 131.972656 C 143.75 132.101562 148.363281 132.40625 152.695312 133.195312 C 155.496094 133.667969 158.21875 134.492188 160.964844 135.199219 C 163.292969 135.746094 165.535156 136.355469 167.710938 137.042969 C 171.855469 138.5625 175.132812 139.902344 179.335938 142.058594 C 181.234375 143.03125 183.125 144.011719 184.980469 145.058594 C 185.472656 145.332031 185.960938 145.613281 186.449219 145.890625 C 187.851562 146.832031 188.65625 147.566406 190.164062 148.84375 C 190.5625 149.191406 190.707031 149.34375 190.886719 149.464844 C 187.832031 151.484375 185.203125 153.816406 182.527344 155.769531 C 178.390625 158.886719 174.1875 161.917969 170.230469 165.265625 C 166.691406 168.234375 163.683594 170.546875 160.164062 173.183594 C 159.96875 173.382812 159.6875 173.539062 159.449219 173.722656 C 159.410156 173.699219 159.371094 173.679688 159.335938 173.65625 C 158.640625 173.265625 157.941406 172.882812 157.246094 172.496094 C 154.472656 170.949219 151.65625 169.476562 148.765625 168.160156 C 144.863281 166.449219 140.902344 164.828125 136.8125 163.621094 C 132.585938 162.386719 128.226562 161.660156 123.847656 161.238281 C 117.925781 160.535156 111.945312 160.382812 106.007812 160.9375 C 101.488281 161.351562 96.972656 162.015625 92.613281 163.296875 C 89.742188 164.136719 86.90625 165.113281 84.167969 166.3125 C 83.59375 166.585938 83.003906 166.839844 82.421875 167.109375 C 83.804688 165.039062 85.257812 163.425781 86.898438 161.265625 C 94.234375 152.070312 103.0625 144.117188 112.386719 137.785156 C 113.460938 137.054688 114.566406 136.378906 115.679688 135.71875 C 116.039062 135.453125 116.636719 135.285156 116.847656 134.890625 Z M 86.714844 108.871094 C 88.914062 107.800781 90.902344 107.027344 93.09375 106.207031 C 92.6875 109.660156 92.476562 113.128906 92.464844 116.609375 C 92.457031 117.480469 92.4375 118.714844 92.453125 119.730469 C 89.964844 118.820312 87.476562 117.921875 85.046875 116.929688 C 82.421875 115.859375 80.261719 115 77.867188 113.835938 C 80.75 112.066406 83.664062 110.339844 86.714844 108.871094 Z M 16.636719 133.609375 C 22.714844 130.175781 29.726562 125.695312 35.433594 123.058594 C 35.445312 123.054688 35.453125 123.050781 35.464844 123.046875 C 35.535156 123.019531 35.695312 122.953125 35.773438 122.921875 C 35.960938 122.863281 36.140625 122.757812 36.257812 122.601562 C 44.546875 127.402344 60.675781 130.007812 66.332031 130.953125 C 72.535156 132.011719 78.699219 133.285156 84.894531 134.371094 C 90.027344 135.15625 95.132812 136.148438 100.28125 136.8125 C 103.277344 137.113281 106.347656 137.648438 109.335938 137.097656 C 110.113281 136.953125 110.828125 136.613281 111.457031 136.148438 C 111.65625 136.039062 111.84375 135.910156 112.015625 135.75 C 112.125 135.640625 112.214844 135.527344 112.292969 135.410156 C 112.3125 135.390625 112.332031 135.371094 112.351562 135.351562 C 112.863281 134.839844 113.132812 134.292969 113.21875 133.730469 C 113.699219 134.035156 114.175781 134.335938 114.636719 134.632812 C 113.886719 135.074219 113.140625 135.527344 112.414062 136.003906 C 103.097656 142.1875 94.71875 149.800781 87.507812 158.339844 C 84.976562 161.648438 82.675781 164.167969 80.582031 167.65625 C 80.414062 167.464844 80.230469 167.261719 80.082031 167.015625 C 78.339844 164.683594 76.300781 162.589844 74.070312 160.722656 C 64.824219 153.253906 54.070312 147.609375 42.519531 144.703125 C 35.925781 143.03125 29.40625 140.910156 22.613281 140.203125 C 18.546875 139.78125 14.457031 139.511719 10.371094 139.613281 C 9.082031 139.648438 7.796875 139.71875 6.519531 139.859375 C 9.949219 137.871094 13.234375 135.644531 16.636719 133.609375 Z M 200.199219 158.425781 C 195.164062 161.902344 190.789062 165.875 186.15625 169.265625 C 182.089844 172.421875 177.902344 175.40625 173.769531 178.46875 C 170.40625 180.976562 167.152344 183.636719 163.644531 185.945312 C 163.542969 186.011719 163.4375 186.082031 163.335938 186.148438 C 163.230469 186.085938 163.109375 186.042969 162.96875 186.046875 C 162.886719 186.054688 162.714844 186.042969 162.609375 186.03125 C 161.613281 185.878906 160.632812 185.640625 159.648438 185.414062 C 150.414062 183.050781 140.988281 181.558594 131.539062 180.363281 C 125.195312 179.519531 118.375 178.484375 111.488281 178.15625 C 106.554688 177.882812 101.625 177.457031 96.675781 177.476562 C 93.429688 177.417969 90.195312 177.839844 86.949219 177.863281 C 86.191406 177.820312 86.1875 177.871094 85.585938 177.675781 C 85.570312 177.617188 85.574219 177.566406 85.578125 177.515625 C 85.597656 177.421875 85.832031 176.125 85.785156 176.0625 C 86.035156 174.160156 84.425781 170.976562 81.566406 170.257812 C 78.441406 169.609375 76.238281 172.019531 75.277344 174.460938 C 75.191406 174.609375 74.519531 177.148438 74.136719 177.808594 C 74.125 177.804688 74.113281 177.800781 74.101562 177.796875 C 73.792969 177.660156 73.503906 177.484375 73.21875 177.304688 C 70.523438 175.535156 67.84375 173.730469 64.953125 172.285156 C 60.875 170.289062 56.707031 168.449219 52.492188 166.746094 C 44.613281 163.671875 36.546875 161.09375 28.371094 158.933594 C 21.769531 156.992188 14.949219 155.96875 8.113281 155.296875 C 6.441406 155.171875 4.765625 155.128906 3.089844 155.113281 C 3.226562 154.992188 3.359375 154.863281 3.484375 154.730469 C 3.570312 154.644531 3.632812 154.535156 3.667969 154.417969 C 9.417969 155.023438 15.140625 155.695312 21.238281 156.847656 C 26.199219 157.785156 31.175781 158.738281 35.984375 160.292969 C 41.824219 162.234375 47.636719 164.246094 53.371094 166.476562 C 57.691406 168.179688 61.847656 169.828125 66.386719 172.414062 C 67.914062 173.296875 69.40625 174.234375 70.84375 175.257812 C 71.484375 175.710938 71.996094 176.140625 72.109375 176.21875 C 72.332031 176.445312 72.71875 176.542969 72.976562 176.3125 C 73.796875 175.53125 72.367188 174.984375 71.871094 174.546875 C 70.523438 173.570312 69.117188 172.683594 67.691406 171.835938 C 60.464844 167.695312 52.558594 164.894531 44.757812 162.042969 C 40.8125 160.753906 36.941406 159.226562 32.929688 158.148438 C 27.296875 156.6875 21.546875 155.671875 15.800781 154.746094 C 12.347656 154.164062 8.855469 153.875 5.382812 153.464844 C 4.890625 153.402344 4.402344 153.355469 3.914062 153.316406 C 4.296875 149.355469 4.332031 145.375 4.488281 141.398438 C 9.847656 140.539062 18.613281 141.144531 24.074219 141.847656 C 29.277344 142.539062 34.304688 144.09375 39.378906 145.390625 C 43.625 146.496094 47.867188 147.660156 51.945312 149.289062 C 58 151.691406 65.304688 155.835938 71.035156 160.199219 C 72.894531 161.550781 75.277344 163.609375 77.160156 165.75 C 78.035156 166.75 78.679688 167.554688 79.234375 168.308594 C 79.382812 168.476562 79.507812 168.691406 79.65625 168.871094 C 79.386719 168.921875 79.117188 168.996094 78.832031 169.09375 C 77.253906 169.757812 75.804688 170.835938 74.816406 172.242188 C 74.429688 172.839844 73.878906 173.664062 73.796875 174.363281 C 73.839844 174.890625 74.644531 174.941406 74.769531 174.429688 C 75.578125 172.40625 77.347656 170.691406 79.617188 170.070312 C 82.097656 169.644531 84.785156 170.980469 86.085938 173.210938 C 86.59375 174.113281 86.816406 174.742188 86.796875 175.753906 C 86.84375 175.964844 86.574219 176.214844 86.761719 176.640625 C 87.015625 177.097656 87.742188 176.902344 87.761719 176.386719 C 88.332031 173.035156 85.636719 169.820312 82.472656 169.015625 C 82.308594 168.980469 82.15625 168.949219 82.003906 168.921875 C 85.507812 167.046875 88.953125 165.953125 93 164.707031 C 97.554688 163.398438 101.671875 162.808594 106.019531 162.40625 C 111.214844 161.945312 116.441406 161.941406 121.628906 162.480469 C 125.707031 162.886719 128.785156 163.191406 132.71875 164.089844 C 136.699219 164.953125 140.546875 166.316406 144.3125 167.855469 C 147.570312 169.136719 151.027344 170.785156 154.519531 172.671875 C 155.792969 173.359375 157.058594 174.070312 158.328125 174.773438 C 158.730469 174.949219 159.09375 175.339844 159.5625 175.214844 C 159.613281 175.203125 159.660156 175.183594 159.703125 175.160156 C 159.871094 175.15625 160.035156 175.097656 160.160156 174.964844 C 164.730469 171.714844 170.519531 166.894531 175.402344 162.949219 C 177.808594 161.070312 181.476562 158.421875 184.40625 156.175781 C 186.703125 154.457031 188.609375 152.8125 190.632812 151.398438 C 191.339844 150.925781 192.054688 150.464844 192.773438 150.003906 C 192.957031 149.90625 193.121094 149.757812 193.191406 149.558594 C 193.230469 149.550781 193.269531 149.542969 193.308594 149.535156 C 193.242188 151.902344 193.203125 154.269531 193.203125 156.640625 C 193.199219 157.175781 193.191406 157.714844 193.179688 158.25 C 193.175781 158.535156 193.355469 158.828125 193.628906 158.921875 C 193.953125 159.082031 194.367188 158.925781 194.546875 158.621094 C 194.738281 158.230469 194.625 157.757812 194.667969 157.332031 C 194.667969 157.25 194.667969 157.164062 194.667969 157.082031 C 196.417969 157.507812 198.695312 157.972656 200.199219 158.425781 Z M 200.199219 158.425781 " fill-opacity="1" fill-rule="nonzero"/></g><path fill="#000000" d="M 193.859375 159.324219 C 193.605469 159.339844 193.40625 159.511719 193.304688 159.730469 C 192.589844 160.429688 191.558594 161.058594 190.269531 162.191406 C 187.597656 164.4375 184.8125 166.546875 182.117188 168.765625 C 178.867188 171.425781 176.160156 173.726562 172.945312 176.054688 C 170.359375 177.976562 167.714844 179.820312 165.085938 181.683594 C 164.371094 182.214844 163.644531 182.726562 162.933594 183.261719 C 162.800781 183.339844 162.703125 183.464844 162.660156 183.613281 C 162.515625 184.097656 163.089844 184.554688 163.527344 184.277344 C 168.234375 180.945312 173 177.691406 177.554688 174.152344 C 182.914062 169.789062 190.703125 163.757812 194.320312 160.703125 C 195 160.34375 194.648438 159.171875 193.859375 159.324219 Z M 193.859375 159.324219 " fill-opacity="1" fill-rule="nonzero"/><path fill="#000000" d="M 157.894531 181.925781 C 157.472656 181.589844 156.851562 181.632812 156.351562 181.46875 C 155.140625 181.199219 153.933594 180.917969 152.730469 180.621094 C 146.734375 179.101562 140.5625 178.546875 134.46875 177.550781 C 128.96875 176.785156 123.449219 176.097656 117.910156 175.640625 C 112.6875 175.3125 107.449219 175.253906 102.214844 175.308594 C 98.589844 175.34375 94.964844 175.433594 91.34375 175.589844 C 90.5 175.625 89.660156 175.671875 88.820312 175.738281 C 88.667969 175.734375 88.523438 175.796875 88.417969 175.902344 C 88.066406 176.238281 88.320312 176.894531 88.820312 176.878906 C 93.160156 176.621094 97.511719 176.644531 101.859375 176.589844 C 107.960938 176.566406 114.078125 176.605469 120.160156 177.171875 C 127.171875 177.867188 132.363281 178.589844 139.039062 179.648438 C 143.269531 180.25 147.515625 180.796875 151.667969 181.8125 C 153.105469 182.152344 154.535156 182.507812 155.972656 182.84375 C 156.621094 182.90625 157.472656 183.472656 157.953125 182.867188 C 158.179688 182.601562 158.144531 182.171875 157.894531 181.925781 Z M 157.894531 181.925781 " fill-opacity="1" fill-rule="nonzero"/><path fill="#000000" d="M 159.8125 167.367188 C 159.40625 166.910156 158.796875 166.644531 158.308594 166.273438 C 156.527344 165.113281 154.671875 164.078125 152.796875 163.082031 C 146.847656 159.824219 140.421875 157.554688 133.785156 156.175781 C 130.261719 155.40625 126.722656 154.667969 123.128906 154.304688 C 117.808594 153.8125 112.433594 153.667969 107.101562 154.046875 C 103.199219 154.382812 99.285156 154.953125 95.5625 156.203125 C 94.945312 156.386719 95.152344 157.359375 95.835938 157.195312 C 104.175781 154.515625 112.859375 154.699219 121.730469 155.316406 C 125.683594 155.628906 129.789062 156.480469 134.007812 157.441406 C 139.6875 158.742188 144.695312 160.386719 149.648438 162.941406 C 151.945312 164.085938 154.21875 165.285156 156.414062 166.617188 C 157.140625 167.058594 157.859375 167.523438 158.566406 168 C 158.828125 168.175781 159.09375 168.421875 159.429688 168.316406 C 159.824219 168.210938 160.03125 167.71875 159.8125 167.367188 Z M 159.8125 167.367188 " fill-opacity="1" fill-rule="nonzero"/><path fill="#000000" d="M 162.9375 160.996094 C 162.523438 160.757812 162.113281 160.515625 161.703125 160.277344 C 160.417969 159.507812 159.117188 158.773438 157.808594 158.050781 C 144.972656 151.074219 127.035156 148.378906 112.511719 148.644531 C 110.1875 148.695312 107.859375 148.808594 105.542969 148.996094 C 104.300781 149.15625 102.96875 149.113281 101.800781 149.542969 C 101.308594 149.890625 101.707031 150.734375 102.304688 150.550781 C 111.667969 149.257812 123.121094 149.808594 132.4375 151.433594 C 140.441406 152.875 148.765625 155.117188 155.644531 158.367188 C 157.421875 159.261719 159.195312 160.164062 160.902344 161.191406 C 161.375 161.476562 161.847656 161.761719 162.328125 162.035156 C 162.535156 162.15625 162.820312 162.148438 163 161.988281 C 163.339844 161.757812 163.300781 161.191406 162.9375 160.996094 Z M 162.9375 160.996094 " fill-opacity="1" fill-rule="nonzero"/><path fill="#000000" d="M 167.515625 157.289062 C 167.085938 157 166.652344 156.714844 166.222656 156.433594 C 164.855469 155.546875 163.460938 154.703125 162.050781 153.886719 C 148.742188 146.566406 133.507812 142.246094 118.257812 142.746094 C 115.542969 142.839844 112.789062 142.734375 110.101562 143.109375 C 109.578125 143.300781 109.730469 144.15625 110.304688 144.136719 C 112.871094 143.867188 115.457031 143.914062 118.035156 143.855469 C 121.382812 143.773438 124.738281 143.828125 128.074219 144.183594 C 138.808594 145.367188 150.308594 148.96875 159.972656 154.09375 C 161.902344 155.128906 163.785156 156.257812 165.621094 157.449219 C 166.054688 157.734375 166.484375 158.023438 166.914062 158.3125 C 167.117188 158.429688 167.394531 158.421875 167.574219 158.265625 C 167.90625 158.035156 167.871094 157.480469 167.515625 157.289062 Z M 167.515625 157.289062 " fill-opacity="1" fill-rule="nonzero"/><path fill="#000000" d="M 79.90625 157.828125 C 79.421875 157.410156 78.9375 156.988281 78.445312 156.574219 C 77.132812 155.460938 75.796875 154.371094 74.402344 153.363281 C 66.441406 147.710938 57.652344 143.296875 48.488281 139.960938 C 45.550781 138.832031 42.527344 137.941406 39.503906 137.074219 C 36.640625 136.25 33.753906 135.46875 30.789062 135.101562 C 27.425781 134.667969 23.996094 134.246094 20.617188 134.328125 C 20.054688 134.539062 20.222656 135.449219 20.835938 135.429688 C 25.242188 135.578125 29.414062 135.976562 33.390625 136.714844 C 37.039062 137.507812 40.613281 138.59375 44.179688 139.691406 C 54.390625 143.023438 63.753906 147.519531 72.789062 153.679688 C 74.6875 155.003906 75.953125 156.007812 77.78125 157.558594 C 78.214844 157.925781 78.640625 158.296875 79.066406 158.667969 C 79.234375 158.835938 79.503906 158.898438 79.714844 158.792969 C 80.097656 158.65625 80.203125 158.105469 79.90625 157.828125 Z M 79.90625 157.828125 " fill-opacity="1" fill-rule="nonzero"/><path fill="#000000" d="M 83.273438 154.046875 C 83.035156 153.535156 82.445312 153.257812 82.054688 152.863281 C 80.9375 151.917969 79.792969 151.007812 78.636719 150.117188 C 67.035156 140.9375 53.789062 134.613281 39.285156 131.625 C 35.769531 130.90625 32.234375 130.238281 28.660156 129.886719 C 27.921875 129.898438 27.871094 131.03125 28.660156 131.054688 C 35.847656 131.839844 44.070312 133.640625 51.375 136.230469 C 60.070312 139.367188 68.734375 144.148438 76.425781 150.019531 C 78.136719 151.304688 79.628906 152.480469 81.484375 154.046875 C 81.929688 154.332031 82.316406 155.027344 82.90625 154.789062 C 83.195312 154.683594 83.351562 154.34375 83.273438 154.046875 Z M 83.273438 154.046875 " fill-opacity="1" fill-rule="nonzero"/><path fill="#000000" d="M 86.601562 148.75 C 86.382812 148.253906 85.828125 147.976562 85.464844 147.589844 C 84.65625 146.871094 83.84375 146.160156 83.007812 145.46875 C 76.933594 140.558594 70.308594 136.273438 63.011719 133.414062 C 57.6875 131.140625 52.296875 128.996094 46.632812 127.734375 C 44.335938 127.175781 42.03125 126.660156 39.710938 126.21875 C 38.367188 126.015625 36.984375 125.617188 35.632812 125.683594 C 35.128906 125.871094 35.277344 126.6875 35.832031 126.671875 C 40.4375 127.238281 46.058594 128.691406 50.984375 130.066406 C 54.484375 131.097656 57.824219 132.589844 61.195312 133.976562 C 63.507812 134.945312 67.480469 136.664062 70.195312 138.199219 C 73.957031 140.339844 77.523438 142.816406 80.964844 145.4375 C 81.90625 146.140625 83.441406 147.390625 84.640625 148.542969 C 85.128906 148.886719 85.558594 149.785156 86.226562 149.515625 C 86.527344 149.40625 86.6875 149.054688 86.601562 148.75 Z M 86.601562 148.75 " fill-opacity="1" fill-rule="nonzero"/><path fill="#ffffff" d="M 158.339844 52.363281 C 157.511719 52.289062 156.347656 52.09375 155.890625 52.484375 C 155.679688 52.679688 155.75 52.996094 155.871094 53.222656 C 156.03125 53.53125 156.214844 53.828125 156.4375 54.09375 C 156.449219 54.109375 156.464844 54.125 156.480469 54.140625 C 156.722656 54.65625 157.074219 55.117188 157.679688 55 C 158.382812 54.703125 159.113281 54.261719 159.5625 53.632812 C 160.203125 52.476562 158.601562 52.429688 158.339844 52.363281 Z M 158.339844 52.363281 " fill-opacity="1" fill-rule="nonzero"/><path fill="#ffffff" d="M 139.410156 17.015625 C 139.328125 16.710938 139.050781 16.570312 138.792969 16.4375 C 135.203125 14.371094 132.957031 12.742188 130.289062 10.222656 C 128.828125 8.832031 127.179688 7.023438 126.261719 5.789062 C 125.875 5.128906 124.855469 5.714844 125.242188 6.386719 C 127.753906 9.742188 130.753906 12.738281 134.175781 15.167969 C 135.59375 16.164062 137.046875 17.222656 138.652344 17.878906 C 139.121094 17.976562 139.550781 17.46875 139.410156 17.015625 Z M 139.410156 17.015625 " fill-opacity="1" fill-rule="nonzero"/><path fill="#ffffff" d="M 217.527344 22.644531 C 212.519531 25.460938 206.855469 26.5 201.0625 26.730469 C 200.699219 26.765625 200.265625 26.640625 199.980469 26.929688 C 199.574219 27.3125 199.878906 28.058594 200.441406 28.039062 C 203.949219 28.011719 207.460938 27.554688 210.851562 26.65625 C 212.679688 26.1875 214.445312 25.503906 216.15625 24.710938 C 216.835938 24.410156 217.484375 24.039062 218.128906 23.667969 C 218.261719 23.589844 218.359375 23.460938 218.398438 23.316406 C 218.550781 22.824219 217.964844 22.371094 217.527344 22.644531 Z M 217.527344 22.644531 " fill-opacity="1" fill-rule="nonzero"/><path fill="#ffffff" d="M 203.144531 69.226562 C 200.714844 70.550781 198.480469 72.191406 196.117188 73.628906 C 192.628906 75.722656 189.066406 77.714844 185.390625 79.460938 C 183.664062 80.367188 181.179688 81.179688 180.832031 83.367188 C 180.6875 85.476562 181.074219 87.589844 181.511719 89.644531 C 183.148438 95.484375 184.964844 101.273438 186.367188 107.175781 C 187.828125 113.59375 189.511719 119.96875 190.785156 126.429688 C 190.988281 127.484375 191.027344 128.648438 191.199219 130.160156 C 191.328125 130.738281 191.140625 130.722656 191.476562 131.175781 C 191.648438 131.355469 191.914062 131.417969 192.152344 131.355469 C 192.496094 131.265625 192.710938 130.910156 192.65625 130.5625 C 192.640625 130.066406 192.601562 129.570312 192.558594 129.078125 C 192.304688 125.265625 191.226562 121.578125 190.390625 117.867188 C 188.761719 110.988281 187.234375 104.082031 185.261719 97.289062 C 184.214844 93.519531 182.597656 89.105469 182.351562 85.824219 C 182.214844 84.675781 182.242188 83.15625 182.429688 83.113281 C 183.054688 81.96875 185.953125 80.878906 187.980469 79.832031 C 191.007812 78.296875 193.972656 76.625 196.847656 74.824219 C 199.054688 73.4375 201.125 71.835938 203.375 70.519531 C 203.636719 70.359375 203.976562 70.257812 204.058594 69.925781 C 204.214844 69.421875 203.605469 68.933594 203.144531 69.226562 Z M 203.144531 69.226562 " fill-opacity="1" fill-rule="nonzero"/><path fill="#ffffff" d="M 150.640625 45.300781 C 150.640625 45.847656 150.574219 46.386719 150.449219 46.925781 C 150.320312 47.460938 150.128906 47.984375 149.878906 48.488281 C 149.628906 48.992188 149.320312 49.472656 148.957031 49.929688 C 148.589844 50.382812 148.175781 50.804688 147.710938 51.191406 C 147.246094 51.578125 146.742188 51.925781 146.195312 52.230469 C 145.652344 52.53125 145.074219 52.789062 144.46875 53 C 143.863281 53.207031 143.238281 53.367188 142.59375 53.472656 C 141.949219 53.578125 141.300781 53.632812 140.644531 53.632812 C 139.988281 53.632812 139.335938 53.578125 138.691406 53.472656 C 138.050781 53.367188 137.425781 53.207031 136.816406 53 C 136.210938 52.789062 135.636719 52.53125 135.089844 52.230469 C 134.542969 51.925781 134.039062 51.578125 133.574219 51.191406 C 133.109375 50.804688 132.695312 50.382812 132.332031 49.929688 C 131.96875 49.472656 131.660156 48.992188 131.40625 48.488281 C 131.15625 47.984375 130.96875 47.460938 130.839844 46.925781 C 130.710938 46.386719 130.648438 45.847656 130.648438 45.300781 C 130.648438 44.753906 130.710938 44.210938 130.839844 43.671875 C 130.96875 43.136719 131.15625 42.617188 131.40625 42.109375 C 131.660156 41.605469 131.96875 41.125 132.332031 40.667969 C 132.695312 40.214844 133.109375 39.792969 133.574219 39.40625 C 134.039062 39.019531 134.542969 38.675781 135.089844 38.371094 C 135.636719 38.066406 136.210938 37.808594 136.816406 37.601562 C 137.425781 37.390625 138.050781 37.230469 138.691406 37.125 C 139.335938 37.019531 139.988281 36.964844 140.644531 36.964844 C 141.300781 36.964844 141.949219 37.019531 142.59375 37.125 C 143.238281 37.230469 143.863281 37.390625 144.46875 37.601562 C 145.074219 37.808594 145.652344 38.066406 146.195312 38.371094 C 146.742188 38.675781 147.246094 39.019531 147.710938 39.40625 C 148.175781 39.792969 148.589844 40.214844 148.957031 40.667969 C 149.320312 41.125 149.628906 41.605469 149.878906 42.109375 C 150.128906 42.617188 150.320312 43.136719 150.449219 43.671875 C 150.574219 44.210938 150.640625 44.753906 150.640625 45.300781 Z M 150.640625 45.300781 " fill-opacity="1" fill-rule="nonzero"/><path fill="#ffffff" d="M 188.65625 52.246094 C 188.65625 53.378906 188.386719 54.460938 187.890625 55.449219 C 185.457031 54.925781 182.902344 55.058594 180.460938 55.578125 C 177.652344 56.171875 174.972656 57.292969 172.550781 58.839844 C 170.1875 57.320312 168.664062 54.933594 168.664062 52.246094 C 168.664062 47.644531 173.136719 43.914062 178.660156 43.914062 C 184.179688 43.914062 188.65625 47.644531 188.65625 52.246094 Z M 188.65625 52.246094 " fill-opacity="1" fill-rule="nonzero"/><path fill="#000000" d="M 139.535156 44.53125 C 139.085938 46.128906 138.820312 47.769531 138.476562 49.390625 C 138.332031 50.125 138.179688 50.855469 138.058594 51.589844 C 138.003906 51.78125 138.03125 51.988281 138.132812 52.160156 C 138.59375 52.871094 139.558594 52.449219 139.539062 51.644531 C 139.949219 49.296875 140.515625 46.949219 140.972656 44.628906 C 140.902344 43.847656 139.726562 43.773438 139.535156 44.53125 Z M 139.535156 44.53125 " fill-opacity="1" fill-rule="nonzero"/><path fill="#000000" d="M 178.757812 50.597656 C 178.460938 50.042969 177.558594 50.160156 177.410156 50.773438 C 176.863281 52.867188 176.363281 54.976562 175.863281 57.082031 C 175.726562 57.664062 175.585938 58.246094 175.441406 58.824219 C 175.390625 59.015625 175.417969 59.222656 175.515625 59.394531 C 175.742188 59.804688 176.347656 59.875 176.671875 59.542969 C 176.941406 59.25 176.929688 58.8125 177.050781 58.453125 C 177.300781 57.402344 177.542969 56.351562 177.800781 55.304688 C 178.09375 54.125 178.375 52.941406 178.675781 51.761719 C 178.753906 51.382812 178.988281 50.964844 178.757812 50.597656 Z M 178.757812 50.597656 " fill-opacity="1" fill-rule="nonzero"/><path stroke-linecap="butt" transform="matrix(-0.734485, 0.130865, -0.130865, -0.734485, 161.424031, 96.941496)" fill="none" stroke-linejoin="miter" d="M -0.00229425 1.999412 L 6.262825 1.998832 " stroke="#000000" stroke-width="4" stroke-opacity="1" stroke-miterlimit="4"/></svg>