<svg xmlns="http://www.w3.org/2000/svg" xmlns:xlink="http://www.w3.org/1999/xlink" width="65" zoomAndPan="magnify" viewBox="0 0 48.75 189.000001" height="252" preserveAspectRatio="xMidYMid meet" version="1.0"><defs><clipPath id="fb100b2297"><path d="M 0.00390625 181 L 8 181 L 8 188 L 0.00390625 188 Z M 0.00390625 181 " clip-rule="nonzero"/></clipPath><clipPath id="245090299a"><path d="M 0.00390625 179 L 3 179 L 3 182 L 0.00390625 182 Z M 0.00390625 179 " clip-rule="nonzero"/></clipPath><clipPath id="1e5b494239"><path d="M 0.00390625 159 L 2 159 L 2 163 L 0.00390625 163 Z M 0.00390625 159 " clip-rule="nonzero"/></clipPath><clipPath id="6993de4f34"><path d="M 46 21 L 48.496094 21 L 48.496094 23 L 46 23 Z M 46 21 " clip-rule="nonzero"/></clipPath><clipPath id="934c7184c0"><path d="M 46 24 L 48.496094 24 L 48.496094 26 L 46 26 Z M 46 24 " clip-rule="nonzero"/></clipPath><clipPath id="9ccee14a34"><path d="M 0.00390625 66 L 36 66 L 36 101 L 0.00390625 101 Z M 0.00390625 66 " clip-rule="nonzero"/></clipPath></defs><g clip-path="url(#fb100b2297)"><path fill="#000000" d="M 6.878906 187.171875 C 7.074219 186.820312 7.136719 186.394531 7.027344 186.003906 C 6.90625 185.574219 6.632812 185.210938 6.441406 184.8125 C 6.339844 184.609375 6.269531 184.347656 6.265625 184.132812 C 6.246094 183.667969 6.34375 183.199219 6.273438 182.738281 C 6.148438 181.902344 5.527344 181.394531 4.679688 181.492188 C 4.433594 181.515625 4.191406 181.59375 3.980469 181.71875 C 3.695312 181.914062 3.417969 182.125 3.089844 182.25 C 3.0625 182.261719 3.027344 182.277344 2.996094 182.289062 C 2.589844 182.445312 2.148438 182.472656 1.722656 182.382812 C 1.605469 182.359375 1.484375 182.34375 1.363281 182.351562 C 0.628906 182.394531 0.0859375 182.871094 0.015625 183.613281 C -0.0742188 184.417969 0.367188 185.214844 1.066406 185.605469 C 1.285156 185.730469 1.511719 185.84375 1.746094 185.925781 C 1.976562 186.003906 2.21875 186.054688 2.441406 186.148438 C 2.761719 186.269531 3.15625 186.523438 3.433594 186.871094 C 3.597656 187.058594 3.742188 187.261719 3.929688 187.429688 C 4.105469 187.589844 4.308594 187.710938 4.53125 187.792969 C 5.328125 188.097656 6.433594 187.976562 6.878906 187.171875 Z M 6.878906 187.171875 " fill-opacity="1" fill-rule="nonzero"/></g><g clip-path="url(#245090299a)"><path fill="#000000" d="M 2.472656 180.675781 C 2.722656 179.972656 2.472656 179.488281 2.191406 179.355469 C 1.890625 179.207031 1.539062 179.402344 1.347656 179.644531 C 1.027344 180.027344 0.863281 180.71875 1.09375 181.179688 C 1.214844 181.40625 1.480469 181.511719 1.726562 181.453125 C 2.097656 181.363281 2.351562 181.023438 2.472656 180.675781 Z M 2.472656 180.675781 " fill-opacity="1" fill-rule="nonzero"/></g><path fill="#000000" d="M 5.53125 179.160156 C 5.539062 178.988281 5.519531 178.8125 5.445312 178.660156 C 5.34375 178.472656 5.128906 178.332031 4.910156 178.367188 C 4.222656 178.425781 3.800781 179.820312 4.296875 180.277344 C 4.722656 180.664062 5.078125 180.308594 5.195312 180.136719 C 5.335938 179.925781 5.519531 179.476562 5.53125 179.160156 Z M 5.53125 179.160156 " fill-opacity="1" fill-rule="nonzero"/><path fill="#000000" d="M 8.070312 180.710938 C 8.207031 180.40625 8.238281 179.984375 7.941406 179.761719 C 7.773438 179.628906 7.542969 179.617188 7.339844 179.667969 C 7.097656 179.722656 6.890625 179.859375 6.714844 180.035156 C 6.523438 180.203125 6.371094 180.414062 6.292969 180.585938 C 6.035156 181.121094 6.277344 181.722656 6.925781 181.664062 C 7.441406 181.585938 7.871094 181.179688 8.070312 180.710938 Z M 8.070312 180.710938 " fill-opacity="1" fill-rule="nonzero"/><path fill="#000000" d="M 9.195312 182.554688 C 8.816406 182.128906 8.085938 182.570312 7.835938 182.8125 C 7.664062 182.976562 7.117188 183.804688 7.726562 184.171875 C 8.421875 184.585938 9.808594 183.246094 9.195312 182.554688 Z M 9.195312 182.554688 " fill-opacity="1" fill-rule="nonzero"/><path fill="#000000" d="M 9.128906 163.441406 C 9.078125 163.042969 8.875 162.664062 8.558594 162.414062 C 8.207031 162.140625 7.769531 162.007812 7.378906 161.800781 C 7.179688 161.695312 6.964844 161.523438 6.832031 161.355469 C 6.546875 160.988281 6.347656 160.554688 6.015625 160.222656 C 5.421875 159.625 4.617188 159.582031 3.992188 160.160156 C 3.808594 160.324219 3.660156 160.527344 3.566406 160.753906 C 3.449219 161.082031 3.347656 161.414062 3.160156 161.707031 C 3.144531 161.734375 3.125 161.765625 3.105469 161.796875 C 2.871094 162.160156 2.53125 162.441406 2.136719 162.621094 C 2.027344 162.671875 1.921875 162.730469 1.824219 162.808594 C 1.257812 163.277344 1.101562 163.984375 1.488281 164.621094 C 1.886719 165.324219 2.714844 165.707031 3.511719 165.605469 C 3.761719 165.582031 4.011719 165.539062 4.25 165.464844 C 4.484375 165.390625 4.707031 165.292969 4.945312 165.234375 C 5.277344 165.144531 5.746094 165.117188 6.171875 165.234375 C 6.414062 165.289062 6.652344 165.367188 6.902344 165.390625 C 7.136719 165.417969 7.375 165.394531 7.605469 165.328125 C 8.425781 165.105469 9.246094 164.355469 9.128906 163.441406 Z M 9.128906 163.441406 " fill-opacity="1" fill-rule="nonzero"/><g clip-path="url(#1e5b494239)"><path fill="#000000" d="M 1.730469 160.800781 C 1.511719 160.085938 1.023438 159.847656 0.71875 159.902344 C 0.386719 159.960938 0.21875 160.328125 0.210938 160.632812 C 0.179688 161.132812 0.457031 161.789062 0.914062 162.023438 C 1.144531 162.132812 1.421875 162.0625 1.585938 161.871094 C 1.832031 161.578125 1.835938 161.152344 1.730469 160.800781 Z M 1.730469 160.800781 " fill-opacity="1" fill-rule="nonzero"/></g><path fill="#000000" d="M 3.300781 157.773438 C 3.203125 157.632812 3.085938 157.503906 2.929688 157.421875 C 2.738281 157.332031 2.484375 157.34375 2.328125 157.5 C 1.808594 157.957031 2.292969 159.328125 2.964844 159.402344 C 3.535156 159.464844 3.613281 158.96875 3.605469 158.761719 C 3.59375 158.507812 3.476562 158.035156 3.300781 157.773438 Z M 3.300781 157.773438 " fill-opacity="1" fill-rule="nonzero"/><path fill="#000000" d="M 6.265625 157.527344 C 6.195312 157.203125 5.96875 156.84375 5.601562 156.839844 C 5.386719 156.832031 5.195312 156.957031 5.058594 157.117188 C 4.894531 157.304688 4.808594 157.539062 4.769531 157.78125 C 4.71875 158.03125 4.714844 158.292969 4.757812 158.476562 C 4.867188 159.058594 5.417969 159.402344 5.90625 158.972656 C 6.277344 158.605469 6.382812 158.023438 6.265625 157.527344 Z M 6.265625 157.527344 " fill-opacity="1" fill-rule="nonzero"/><path fill="#000000" d="M 8.261719 158.351562 C 7.707031 158.234375 7.378906 159.019531 7.320312 159.359375 C 7.28125 159.597656 7.328125 160.585938 8.035156 160.523438 C 8.84375 160.449219 9.167969 158.546875 8.261719 158.351562 Z M 8.261719 158.351562 " fill-opacity="1" fill-rule="nonzero"/><path fill="#000000" d="M 21.371094 155.425781 C 21.628906 155.117188 21.773438 154.710938 21.742188 154.308594 C 21.703125 153.863281 21.503906 153.453125 21.390625 153.027344 C 21.332031 152.808594 21.3125 152.535156 21.351562 152.324219 C 21.421875 151.863281 21.605469 151.425781 21.625 150.957031 C 21.664062 150.113281 21.152344 149.496094 20.300781 149.429688 C 20.054688 149.40625 19.804688 149.4375 19.574219 149.519531 C 19.253906 149.65625 18.941406 149.808594 18.597656 149.871094 C 18.566406 149.875 18.53125 149.882812 18.496094 149.890625 C 18.066406 149.96875 17.628906 149.90625 17.230469 149.738281 C 17.117188 149.695312 17.003906 149.65625 16.878906 149.640625 C 16.152344 149.539062 15.527344 149.90625 15.316406 150.621094 C 15.070312 151.394531 15.351562 152.257812 15.96875 152.773438 C 16.15625 152.941406 16.355469 153.09375 16.570312 153.21875 C 16.785156 153.339844 17.007812 153.4375 17.210938 153.574219 C 17.503906 153.753906 17.84375 154.078125 18.046875 154.472656 C 18.171875 154.6875 18.273438 154.914062 18.425781 155.117188 C 18.566406 155.304688 18.746094 155.464844 18.945312 155.585938 C 19.667969 156.039062 20.777344 156.128906 21.371094 155.425781 Z M 21.371094 155.425781 " fill-opacity="1" fill-rule="nonzero"/><path fill="#000000" d="M 18.292969 148.207031 C 18.671875 147.5625 18.519531 147.042969 18.269531 146.855469 C 18 146.652344 17.617188 146.777344 17.386719 146.980469 C 17 147.296875 16.703125 147.941406 16.839844 148.4375 C 16.914062 148.683594 17.15625 148.839844 17.410156 148.828125 C 17.792969 148.808594 18.105469 148.523438 18.292969 148.207031 Z M 18.292969 148.207031 " fill-opacity="1" fill-rule="nonzero"/><path fill="#000000" d="M 21.585938 147.304688 C 21.625 147.136719 21.640625 146.960938 21.59375 146.796875 C 21.53125 146.589844 21.347656 146.414062 21.128906 146.40625 C 20.441406 146.332031 19.761719 147.621094 20.160156 148.164062 C 20.5 148.625 20.917969 148.34375 21.066406 148.199219 C 21.246094 148.019531 21.511719 147.609375 21.585938 147.304688 Z M 21.585938 147.304688 " fill-opacity="1" fill-rule="nonzero"/><path fill="#000000" d="M 23.78125 149.3125 C 23.972656 149.039062 24.082031 148.628906 23.835938 148.355469 C 23.695312 148.195312 23.472656 148.140625 23.265625 148.148438 C 23.015625 148.15625 22.785156 148.25 22.578125 148.386719 C 22.359375 148.515625 22.167969 148.695312 22.058594 148.851562 C 21.703125 149.324219 21.824219 149.960938 22.472656 150.03125 C 22.996094 150.046875 23.492188 149.734375 23.78125 149.3125 Z M 23.78125 149.3125 " fill-opacity="1" fill-rule="nonzero"/><path fill="#000000" d="M 24.527344 151.335938 C 24.242188 150.847656 23.4375 151.140625 23.148438 151.328125 C 22.945312 151.460938 22.25 152.167969 22.777344 152.640625 C 23.378906 153.183594 25 152.132812 24.527344 151.335938 Z M 24.527344 151.335938 " fill-opacity="1" fill-rule="nonzero"/><path fill="#000000" d="M 15.605469 136.34375 C 15.589844 135.941406 15.425781 135.542969 15.132812 135.265625 C 14.808594 134.957031 14.386719 134.785156 14.019531 134.542969 C 13.828125 134.417969 13.632812 134.226562 13.515625 134.046875 C 13.265625 133.65625 13.109375 133.203125 12.808594 132.84375 C 12.277344 132.1875 11.480469 132.070312 10.800781 132.585938 C 10.601562 132.734375 10.4375 132.921875 10.320312 133.140625 C 10.175781 133.453125 10.042969 133.773438 9.824219 134.050781 C 9.808594 134.074219 9.785156 134.101562 9.761719 134.132812 C 9.496094 134.472656 9.128906 134.722656 8.71875 134.863281 C 8.605469 134.902344 8.496094 134.953125 8.390625 135.019531 C 7.78125 135.429688 7.5625 136.121094 7.882812 136.792969 C 8.214844 137.53125 9.003906 137.988281 9.804688 137.964844 C 10.058594 137.964844 10.308594 137.945312 10.554688 137.894531 C 10.792969 137.84375 11.023438 137.765625 11.265625 137.730469 C 11.605469 137.671875 12.074219 137.6875 12.488281 137.84375 C 12.726562 137.921875 12.957031 138.023438 13.203125 138.074219 C 13.433594 138.121094 13.671875 138.121094 13.90625 138.078125 C 14.746094 137.933594 15.632812 137.261719 15.605469 136.34375 Z M 15.605469 136.34375 " fill-opacity="1" fill-rule="nonzero"/><path fill="#000000" d="M 8.488281 133.011719 C 8.339844 132.277344 7.878906 131.996094 7.566406 132.019531 C 7.234375 132.046875 7.03125 132.394531 6.992188 132.699219 C 6.914062 133.195312 7.128906 133.871094 7.5625 134.152344 C 7.78125 134.285156 8.0625 134.238281 8.246094 134.0625 C 8.519531 133.792969 8.5625 133.375 8.488281 133.011719 Z M 8.488281 133.011719 " fill-opacity="1" fill-rule="nonzero"/><path fill="#000000" d="M 10.339844 130.148438 C 10.257812 130 10.152344 129.855469 10.007812 129.761719 C 9.824219 129.652344 9.570312 129.640625 9.398438 129.78125 C 8.835938 130.1875 9.191406 131.597656 9.851562 131.738281 C 10.414062 131.855469 10.539062 131.367188 10.550781 131.160156 C 10.5625 130.90625 10.492188 130.425781 10.339844 130.148438 Z M 10.339844 130.148438 " fill-opacity="1" fill-rule="nonzero"/><path fill="#000000" d="M 13.316406 130.183594 C 13.277344 129.855469 13.085938 129.472656 12.71875 129.433594 C 12.507812 129.40625 12.304688 129.515625 12.152344 129.660156 C 11.972656 129.832031 11.863281 130.058594 11.800781 130.296875 C 11.726562 130.539062 11.703125 130.796875 11.722656 130.988281 C 11.777344 131.574219 12.292969 131.96875 12.824219 131.589844 C 13.222656 131.253906 13.382812 130.691406 13.316406 130.183594 Z M 13.316406 130.183594 " fill-opacity="1" fill-rule="nonzero"/><path fill="#000000" d="M 15.226562 131.195312 C 14.683594 131.023438 14.28125 131.777344 14.191406 132.109375 C 14.128906 132.339844 14.082031 133.328125 14.792969 133.332031 C 15.601562 133.335938 16.109375 131.476562 15.226562 131.195312 Z M 15.226562 131.195312 " fill-opacity="1" fill-rule="nonzero"/><path fill="#000000" d="M 31.882812 128.148438 C 32.195312 127.894531 32.410156 127.519531 32.457031 127.121094 C 32.5 126.675781 32.386719 126.238281 32.355469 125.796875 C 32.339844 125.570312 32.371094 125.296875 32.445312 125.097656 C 32.605469 124.660156 32.867188 124.261719 32.972656 123.808594 C 33.171875 122.984375 32.785156 122.285156 31.960938 122.054688 C 31.726562 121.988281 31.472656 121.972656 31.230469 122.011719 C 30.890625 122.085938 30.554688 122.175781 30.207031 122.167969 C 30.171875 122.171875 30.136719 122.171875 30.101562 122.171875 C 29.667969 122.167969 29.25 122.023438 28.886719 121.785156 C 28.785156 121.71875 28.679688 121.660156 28.5625 121.621094 C 27.867188 121.386719 27.183594 121.628906 26.84375 122.292969 C 26.457031 123.003906 26.570312 123.90625 27.074219 124.527344 C 27.226562 124.726562 27.394531 124.914062 27.585938 125.078125 C 27.769531 125.238281 27.972656 125.375 28.144531 125.546875 C 28.398438 125.78125 28.667969 126.160156 28.796875 126.585938 C 28.878906 126.820312 28.9375 127.066406 29.046875 127.289062 C 29.148438 127.503906 29.296875 127.691406 29.46875 127.851562 C 30.09375 128.429688 31.167969 128.730469 31.882812 128.148438 Z M 31.882812 128.148438 " fill-opacity="1" fill-rule="nonzero"/><path fill="#000000" d="M 30.222656 120.480469 C 30.714844 119.917969 30.660156 119.378906 30.453125 119.148438 C 30.226562 118.898438 29.828125 118.949219 29.5625 119.105469 C 29.121094 119.339844 28.710938 119.921875 28.75 120.433594 C 28.777344 120.6875 28.988281 120.886719 29.238281 120.921875 C 29.617188 120.976562 29.976562 120.757812 30.222656 120.480469 Z M 30.222656 120.480469 " fill-opacity="1" fill-rule="nonzero"/><path fill="#000000" d="M 33.625 120.210938 C 33.691406 120.054688 33.746094 119.886719 33.730469 119.714844 C 33.707031 119.503906 33.5625 119.292969 33.34375 119.242188 C 32.683594 119.042969 31.773438 120.179688 32.0625 120.789062 C 32.3125 121.304688 32.773438 121.109375 32.945312 120.992188 C 33.15625 120.851562 33.496094 120.5 33.625 120.210938 Z M 33.625 120.210938 " fill-opacity="1" fill-rule="nonzero"/><path fill="#000000" d="M 35.402344 122.597656 C 35.640625 122.367188 35.828125 121.984375 35.636719 121.667969 C 35.527344 121.484375 35.320312 121.386719 35.113281 121.355469 C 34.867188 121.320312 34.621094 121.367188 34.394531 121.460938 C 34.15625 121.550781 33.933594 121.6875 33.796875 121.820312 C 33.359375 122.21875 33.359375 122.867188 33.984375 123.054688 C 34.492188 123.171875 35.039062 122.957031 35.402344 122.597656 Z M 35.402344 122.597656 " fill-opacity="1" fill-rule="nonzero"/><path fill="#000000" d="M 35.753906 124.722656 C 35.5625 124.191406 34.71875 124.328125 34.398438 124.457031 C 34.175781 124.546875 33.359375 125.113281 33.789062 125.675781 C 34.277344 126.324219 36.066406 125.59375 35.753906 124.722656 Z M 35.753906 124.722656 " fill-opacity="1" fill-rule="nonzero"/><path fill="#000000" d="M 28.359375 107.394531 C 28.378906 106.992188 28.246094 106.582031 27.980469 106.28125 C 27.683594 105.949219 27.277344 105.738281 26.929688 105.464844 C 26.75 105.328125 26.570312 105.121094 26.472656 104.929688 C 26.253906 104.519531 26.136719 104.054688 25.871094 103.671875 C 25.394531 102.972656 24.613281 102.789062 23.890625 103.246094 C 23.679688 103.375 23.5 103.546875 23.363281 103.753906 C 23.191406 104.054688 23.03125 104.363281 22.792969 104.621094 C 22.773438 104.644531 22.75 104.667969 22.726562 104.695312 C 22.429688 105.015625 22.042969 105.230469 21.625 105.335938 C 21.507812 105.367188 21.390625 105.40625 21.285156 105.464844 C 20.640625 105.824219 20.363281 106.488281 20.625 107.1875 C 20.894531 107.949219 21.640625 108.472656 22.441406 108.519531 C 22.691406 108.539062 22.945312 108.542969 23.195312 108.511719 C 23.4375 108.480469 23.671875 108.421875 23.917969 108.410156 C 24.261719 108.378906 24.726562 108.4375 25.125 108.628906 C 25.355469 108.722656 25.574219 108.84375 25.816406 108.914062 C 26.042969 108.980469 26.28125 109 26.515625 108.976562 C 27.367188 108.90625 28.308594 108.3125 28.359375 107.394531 Z M 28.359375 107.394531 " fill-opacity="1" fill-rule="nonzero"/><path fill="#000000" d="M 21.550781 103.472656 C 21.464844 102.730469 21.027344 102.40625 20.71875 102.40625 C 20.382812 102.40625 20.152344 102.734375 20.085938 103.035156 C 19.96875 103.519531 20.121094 104.214844 20.53125 104.527344 C 20.734375 104.679688 21.023438 104.65625 21.21875 104.496094 C 21.515625 104.253906 21.589844 103.839844 21.550781 103.472656 Z M 21.550781 103.472656 " fill-opacity="1" fill-rule="nonzero"/><path fill="#000000" d="M 23.640625 100.773438 C 23.566406 100.621094 23.476562 100.46875 23.339844 100.363281 C 23.167969 100.238281 22.914062 100.207031 22.730469 100.332031 C 22.136719 100.6875 22.371094 102.125 23.015625 102.316406 C 23.566406 102.480469 23.734375 102.007812 23.761719 101.800781 C 23.796875 101.550781 23.765625 101.0625 23.640625 100.773438 Z M 23.640625 100.773438 " fill-opacity="1" fill-rule="nonzero"/><path fill="#000000" d="M 26.601562 101.0625 C 26.589844 100.730469 26.433594 100.335938 26.070312 100.265625 C 25.859375 100.222656 25.648438 100.3125 25.488281 100.441406 C 25.292969 100.601562 25.164062 100.8125 25.082031 101.046875 C 24.988281 101.28125 24.941406 101.539062 24.945312 101.726562 C 24.949219 102.320312 25.429688 102.753906 25.988281 102.421875 C 26.417969 102.125 26.625 101.574219 26.601562 101.0625 Z M 26.601562 101.0625 " fill-opacity="1" fill-rule="nonzero"/><path fill="#000000" d="M 28.417969 102.230469 C 27.894531 102.015625 27.425781 102.730469 27.308594 103.054688 C 27.226562 103.28125 27.097656 104.261719 27.804688 104.328125 C 28.609375 104.398438 29.273438 102.585938 28.417969 102.230469 Z M 28.417969 102.230469 " fill-opacity="1" fill-rule="nonzero"/><path fill="#000000" d="M 19.589844 86.976562 C 19.78125 86.625 19.84375 86.199219 19.738281 85.8125 C 19.613281 85.382812 19.339844 85.019531 19.148438 84.621094 C 19.046875 84.417969 18.976562 84.152344 18.972656 83.9375 C 18.957031 83.472656 19.050781 83.007812 18.980469 82.542969 C 18.855469 81.707031 18.234375 81.203125 17.386719 81.296875 C 17.140625 81.320312 16.902344 81.398438 16.691406 81.527344 C 16.402344 81.722656 16.125 81.929688 15.796875 82.054688 C 15.769531 82.070312 15.738281 82.082031 15.703125 82.09375 C 15.296875 82.253906 14.855469 82.277344 14.433594 82.191406 C 14.3125 82.164062 14.191406 82.152344 14.070312 82.160156 C 13.335938 82.199219 12.792969 82.679688 12.722656 83.421875 C 12.632812 84.222656 13.074219 85.019531 13.773438 85.410156 C 13.992188 85.539062 14.21875 85.648438 14.453125 85.730469 C 14.683594 85.808594 14.925781 85.859375 15.148438 85.957031 C 15.46875 86.078125 15.867188 86.332031 16.140625 86.675781 C 16.304688 86.863281 16.449219 87.070312 16.636719 87.238281 C 16.8125 87.398438 17.019531 87.519531 17.238281 87.601562 C 18.035156 87.90625 19.140625 87.785156 19.589844 86.976562 Z M 19.589844 86.976562 " fill-opacity="1" fill-rule="nonzero"/><path fill="#000000" d="M 15.183594 80.484375 C 15.429688 79.777344 15.179688 79.296875 14.898438 79.160156 C 14.597656 79.011719 14.246094 79.207031 14.058594 79.449219 C 13.738281 79.835938 13.570312 80.527344 13.800781 80.988281 C 13.921875 81.210938 14.1875 81.320312 14.433594 81.257812 C 14.808594 81.167969 15.058594 80.828125 15.183594 80.484375 Z M 15.183594 80.484375 " fill-opacity="1" fill-rule="nonzero"/><path fill="#000000" d="M 18.242188 78.964844 C 18.246094 78.796875 18.230469 78.621094 18.152344 78.464844 C 18.050781 78.277344 17.835938 78.136719 17.617188 78.171875 C 16.929688 78.234375 16.507812 79.625 17.007812 80.082031 C 17.429688 80.46875 17.785156 80.117188 17.902344 79.945312 C 18.042969 79.730469 18.226562 79.28125 18.242188 78.964844 Z M 18.242188 78.964844 " fill-opacity="1" fill-rule="nonzero"/><path fill="#000000" d="M 20.777344 80.519531 C 20.914062 80.214844 20.945312 79.789062 20.652344 79.570312 C 20.480469 79.4375 20.25 79.425781 20.050781 79.472656 C 19.804688 79.53125 19.597656 79.667969 19.421875 79.839844 C 19.230469 80.007812 19.078125 80.21875 19 80.394531 C 18.742188 80.925781 18.984375 81.527344 19.636719 81.472656 C 20.148438 81.390625 20.578125 80.984375 20.777344 80.519531 Z M 20.777344 80.519531 " fill-opacity="1" fill-rule="nonzero"/><path fill="#000000" d="M 21.902344 82.359375 C 21.527344 81.9375 20.792969 82.378906 20.542969 82.617188 C 20.371094 82.785156 19.824219 83.613281 20.433594 83.976562 C 21.128906 84.394531 22.515625 83.050781 21.902344 82.359375 Z M 21.902344 82.359375 " fill-opacity="1" fill-rule="nonzero"/><path fill="#000000" d="M 21.839844 63.25 C 21.785156 62.851562 21.585938 62.46875 21.265625 62.21875 C 20.914062 61.945312 20.480469 61.8125 20.085938 61.605469 C 19.886719 61.5 19.671875 61.332031 19.542969 61.160156 C 19.253906 60.796875 19.054688 60.363281 18.722656 60.03125 C 18.128906 59.429688 17.324219 59.386719 16.699219 59.964844 C 16.515625 60.128906 16.367188 60.335938 16.273438 60.5625 C 16.15625 60.886719 16.054688 61.21875 15.867188 61.511719 C 15.851562 61.542969 15.832031 61.570312 15.8125 61.601562 C 15.578125 61.96875 15.238281 62.25 14.84375 62.429688 C 14.734375 62.476562 14.628906 62.539062 14.53125 62.617188 C 13.964844 63.082031 13.808594 63.789062 14.195312 64.429688 C 14.597656 65.132812 15.421875 65.511719 16.222656 65.414062 C 16.46875 65.386719 16.71875 65.34375 16.960938 65.269531 C 17.191406 65.199219 17.414062 65.097656 17.652344 65.042969 C 17.984375 64.953125 18.453125 64.921875 18.878906 65.039062 C 19.121094 65.09375 19.363281 65.171875 19.609375 65.199219 C 19.847656 65.222656 20.085938 65.199219 20.3125 65.136719 C 21.132812 64.914062 21.957031 64.160156 21.839844 63.25 Z M 21.839844 63.25 " fill-opacity="1" fill-rule="nonzero"/><path fill="#000000" d="M 14.4375 60.609375 C 14.21875 59.890625 13.730469 59.652344 13.425781 59.707031 C 13.097656 59.769531 12.929688 60.132812 12.917969 60.441406 C 12.886719 60.9375 13.164062 61.59375 13.621094 61.828125 C 13.851562 61.941406 14.132812 61.867188 14.292969 61.675781 C 14.542969 61.382812 14.542969 60.960938 14.4375 60.609375 Z M 14.4375 60.609375 " fill-opacity="1" fill-rule="nonzero"/><path fill="#000000" d="M 16.007812 57.582031 C 15.910156 57.441406 15.792969 57.308594 15.640625 57.230469 C 15.445312 57.136719 15.191406 57.148438 15.035156 57.308594 C 14.515625 57.761719 15 59.136719 15.671875 59.210938 C 16.242188 59.273438 16.320312 58.777344 16.3125 58.570312 C 16.300781 58.316406 16.183594 57.84375 16.007812 57.582031 Z M 16.007812 57.582031 " fill-opacity="1" fill-rule="nonzero"/><path fill="#000000" d="M 18.972656 57.335938 C 18.902344 57.011719 18.675781 56.648438 18.308594 56.644531 C 18.09375 56.636719 17.902344 56.765625 17.765625 56.921875 C 17.605469 57.113281 17.515625 57.347656 17.476562 57.589844 C 17.425781 57.835938 17.425781 58.097656 17.464844 58.285156 C 17.574219 58.867188 18.125 59.207031 18.617188 58.78125 C 18.984375 58.410156 19.089844 57.832031 18.972656 57.335938 Z M 18.972656 57.335938 " fill-opacity="1" fill-rule="nonzero"/><path fill="#000000" d="M 20.96875 58.160156 C 20.414062 58.039062 20.085938 58.828125 20.027344 59.167969 C 19.988281 59.402344 20.035156 60.394531 20.742188 60.328125 C 21.550781 60.257812 21.875 58.355469 20.96875 58.160156 Z M 20.96875 58.160156 " fill-opacity="1" fill-rule="nonzero"/><path fill="#000000" d="M 34.078125 55.230469 C 34.335938 54.921875 34.480469 54.515625 34.449219 54.113281 C 34.410156 53.667969 34.210938 53.261719 34.097656 52.832031 C 34.039062 52.617188 34.019531 52.34375 34.058594 52.128906 C 34.128906 51.671875 34.316406 51.230469 34.332031 50.761719 C 34.371094 49.921875 33.859375 49.304688 33.007812 49.234375 C 32.761719 49.210938 32.511719 49.242188 32.28125 49.328125 C 31.960938 49.464844 31.648438 49.613281 31.304688 49.675781 C 31.273438 49.683594 31.238281 49.691406 31.203125 49.695312 C 30.773438 49.773438 30.335938 49.714844 29.9375 49.546875 C 29.824219 49.5 29.710938 49.464844 29.585938 49.445312 C 28.859375 49.347656 28.234375 49.710938 28.023438 50.425781 C 27.78125 51.199219 28.058594 52.0625 28.675781 52.582031 C 28.863281 52.75 29.0625 52.902344 29.28125 53.027344 C 29.492188 53.148438 29.714844 53.242188 29.917969 53.378906 C 30.210938 53.5625 30.550781 53.886719 30.753906 54.277344 C 30.878906 54.492188 30.980469 54.722656 31.132812 54.921875 C 31.273438 55.113281 31.453125 55.269531 31.652344 55.394531 C 32.375 55.84375 33.488281 55.9375 34.078125 55.230469 Z M 34.078125 55.230469 " fill-opacity="1" fill-rule="nonzero"/><path fill="#000000" d="M 31 48.015625 C 31.378906 47.371094 31.226562 46.847656 30.976562 46.660156 C 30.707031 46.460938 30.328125 46.585938 30.09375 46.785156 C 29.707031 47.101562 29.410156 47.75 29.550781 48.246094 C 29.621094 48.488281 29.867188 48.644531 30.117188 48.632812 C 30.5 48.617188 30.8125 48.332031 31 48.015625 Z M 31 48.015625 " fill-opacity="1" fill-rule="nonzero"/><path fill="#000000" d="M 34.292969 47.109375 C 34.332031 46.945312 34.347656 46.769531 34.304688 46.601562 C 34.238281 46.398438 34.058594 46.21875 33.835938 46.210938 C 33.148438 46.140625 32.46875 47.429688 32.867188 47.96875 C 33.207031 48.429688 33.628906 48.152344 33.773438 48.003906 C 33.953125 47.824219 34.222656 47.417969 34.292969 47.109375 Z M 34.292969 47.109375 " fill-opacity="1" fill-rule="nonzero"/><path fill="#000000" d="M 36.488281 49.117188 C 36.679688 48.847656 36.792969 48.4375 36.542969 48.164062 C 36.402344 48 36.179688 47.945312 35.972656 47.953125 C 35.722656 47.964844 35.492188 48.058594 35.285156 48.195312 C 35.066406 48.324219 34.875 48.5 34.765625 48.65625 C 34.410156 49.132812 34.53125 49.765625 35.183594 49.835938 C 35.703125 49.855469 36.199219 49.539062 36.488281 49.117188 Z M 36.488281 49.117188 " fill-opacity="1" fill-rule="nonzero"/><path fill="#000000" d="M 37.234375 51.140625 C 36.949219 50.652344 36.144531 50.945312 35.855469 51.136719 C 35.652344 51.265625 34.957031 51.972656 35.484375 52.449219 C 36.085938 52.988281 37.707031 51.9375 37.234375 51.140625 Z M 37.234375 51.140625 " fill-opacity="1" fill-rule="nonzero"/><path fill="#000000" d="M 28.3125 36.148438 C 28.300781 35.746094 28.132812 35.351562 27.839844 35.070312 C 27.515625 34.765625 27.09375 34.59375 26.726562 34.347656 C 26.535156 34.226562 26.339844 34.035156 26.226562 33.851562 C 25.972656 33.460938 25.816406 33.011719 25.515625 32.652344 C 24.984375 31.996094 24.1875 31.878906 23.507812 32.394531 C 23.3125 32.539062 23.144531 32.730469 23.027344 32.945312 C 22.882812 33.257812 22.75 33.582031 22.535156 33.855469 C 22.515625 33.882812 22.492188 33.910156 22.46875 33.9375 C 22.203125 34.28125 21.835938 34.527344 21.425781 34.667969 C 21.3125 34.707031 21.203125 34.757812 21.101562 34.828125 C 20.488281 35.238281 20.269531 35.925781 20.589844 36.597656 C 20.921875 37.335938 21.710938 37.792969 22.515625 37.769531 C 22.765625 37.769531 23.015625 37.75 23.261719 37.699219 C 23.5 37.648438 23.734375 37.570312 23.972656 37.539062 C 24.3125 37.480469 24.78125 37.496094 25.195312 37.652344 C 25.433594 37.726562 25.664062 37.832031 25.910156 37.878906 C 26.140625 37.925781 26.378906 37.925781 26.613281 37.882812 C 27.453125 37.738281 28.34375 37.070312 28.3125 36.148438 Z M 28.3125 36.148438 " fill-opacity="1" fill-rule="nonzero"/><path fill="#000000" d="M 21.199219 32.820312 C 21.050781 32.085938 20.585938 31.800781 20.277344 31.828125 C 19.941406 31.855469 19.738281 32.203125 19.703125 32.507812 C 19.621094 33 19.835938 33.679688 20.269531 33.957031 C 20.488281 34.089844 20.773438 34.042969 20.953125 33.867188 C 21.226562 33.597656 21.269531 33.179688 21.199219 32.820312 Z M 21.199219 32.820312 " fill-opacity="1" fill-rule="nonzero"/><path fill="#000000" d="M 23.046875 29.953125 C 22.964844 29.804688 22.859375 29.664062 22.714844 29.570312 C 22.53125 29.460938 22.277344 29.449219 22.105469 29.589844 C 21.542969 29.992188 21.898438 31.40625 22.558594 31.542969 C 23.121094 31.660156 23.246094 31.171875 23.257812 30.964844 C 23.269531 30.710938 23.199219 30.230469 23.046875 29.953125 Z M 23.046875 29.953125 " fill-opacity="1" fill-rule="nonzero"/><path fill="#000000" d="M 26.023438 29.992188 C 25.984375 29.660156 25.792969 29.28125 25.425781 29.242188 C 25.214844 29.214844 25.011719 29.320312 24.863281 29.464844 C 24.679688 29.640625 24.574219 29.863281 24.507812 30.101562 C 24.433594 30.34375 24.410156 30.601562 24.433594 30.792969 C 24.484375 31.382812 25 31.773438 25.53125 31.394531 C 25.929688 31.0625 26.089844 30.496094 26.023438 29.992188 Z M 26.023438 29.992188 " fill-opacity="1" fill-rule="nonzero"/><path fill="#000000" d="M 27.933594 31 C 27.390625 30.828125 26.988281 31.582031 26.898438 31.914062 C 26.835938 32.144531 26.789062 33.136719 27.5 33.140625 C 28.308594 33.144531 28.816406 31.28125 27.933594 31 Z M 27.933594 31 " fill-opacity="1" fill-rule="nonzero"/><path fill="#000000" d="M 44.589844 27.953125 C 44.902344 27.699219 45.117188 27.328125 45.164062 26.925781 C 45.210938 26.480469 45.09375 26.042969 45.0625 25.601562 C 45.046875 25.378906 45.078125 25.105469 45.152344 24.902344 C 45.3125 24.464844 45.578125 24.070312 45.683594 23.613281 C 45.878906 22.792969 45.492188 22.089844 44.667969 21.863281 C 44.433594 21.796875 44.179688 21.777344 43.9375 21.816406 C 43.597656 21.890625 43.261719 21.980469 42.914062 21.976562 C 42.882812 21.976562 42.847656 21.976562 42.808594 21.976562 C 42.375 21.972656 41.957031 21.832031 41.59375 21.589844 C 41.492188 21.523438 41.386719 21.46875 41.269531 21.425781 C 40.574219 21.191406 39.890625 21.433594 39.550781 22.097656 C 39.164062 22.808594 39.277344 23.710938 39.78125 24.335938 C 39.933594 24.535156 40.101562 24.722656 40.292969 24.886719 C 40.476562 25.042969 40.679688 25.179688 40.851562 25.351562 C 41.105469 25.585938 41.378906 25.96875 41.503906 26.390625 C 41.585938 26.625 41.644531 26.871094 41.753906 27.09375 C 41.855469 27.308594 42.003906 27.496094 42.179688 27.65625 C 42.800781 28.234375 43.875 28.535156 44.589844 27.953125 Z M 44.589844 27.953125 " fill-opacity="1" fill-rule="nonzero"/><path fill="#000000" d="M 42.929688 20.289062 C 43.421875 19.726562 43.371094 19.183594 43.160156 18.953125 C 42.933594 18.707031 42.535156 18.757812 42.269531 18.910156 C 41.832031 19.148438 41.417969 19.726562 41.460938 20.242188 C 41.484375 20.496094 41.695312 20.691406 41.945312 20.730469 C 42.324219 20.785156 42.683594 20.5625 42.929688 20.289062 Z M 42.929688 20.289062 " fill-opacity="1" fill-rule="nonzero"/><path fill="#000000" d="M 46.332031 20.019531 C 46.402344 19.863281 46.453125 19.691406 46.4375 19.519531 C 46.414062 19.308594 46.269531 19.097656 46.054688 19.050781 C 45.390625 18.847656 44.480469 19.988281 44.769531 20.59375 C 45.019531 21.109375 45.480469 20.914062 45.652344 20.800781 C 45.863281 20.65625 46.203125 20.304688 46.332031 20.019531 Z M 46.332031 20.019531 " fill-opacity="1" fill-rule="nonzero"/><g clip-path="url(#6993de4f34)"><path fill="#000000" d="M 48.109375 22.402344 C 48.347656 22.171875 48.535156 21.789062 48.34375 21.476562 C 48.238281 21.289062 48.027344 21.195312 47.820312 21.164062 C 47.574219 21.125 47.332031 21.171875 47.101562 21.269531 C 46.863281 21.355469 46.640625 21.492188 46.503906 21.625 C 46.066406 22.023438 46.066406 22.671875 46.691406 22.863281 C 47.199219 22.980469 47.746094 22.761719 48.109375 22.402344 Z M 48.109375 22.402344 " fill-opacity="1" fill-rule="nonzero"/></g><g clip-path="url(#934c7184c0)"><path fill="#000000" d="M 48.460938 24.53125 C 48.273438 23.996094 47.425781 24.132812 47.105469 24.265625 C 46.882812 24.355469 46.066406 24.917969 46.496094 25.484375 C 46.984375 26.128906 48.773438 25.402344 48.460938 24.53125 Z M 48.460938 24.53125 " fill-opacity="1" fill-rule="nonzero"/></g><path fill="#000000" d="M 41.066406 7.199219 C 41.085938 6.800781 40.957031 6.390625 40.6875 6.085938 C 40.390625 5.753906 39.984375 5.546875 39.636719 5.273438 C 39.460938 5.132812 39.277344 4.925781 39.179688 4.734375 C 38.960938 4.324219 38.84375 3.863281 38.578125 3.476562 C 38.101562 2.78125 37.320312 2.59375 36.597656 3.050781 C 36.390625 3.179688 36.207031 3.355469 36.070312 3.5625 C 35.898438 3.859375 35.742188 4.171875 35.503906 4.425781 C 35.480469 4.449219 35.457031 4.476562 35.433594 4.503906 C 35.136719 4.820312 34.75 5.035156 34.332031 5.140625 C 34.214844 5.171875 34.097656 5.210938 33.992188 5.273438 C 33.347656 5.628906 33.070312 6.296875 33.332031 6.992188 C 33.601562 7.757812 34.347656 8.28125 35.148438 8.324219 C 35.398438 8.347656 35.652344 8.347656 35.902344 8.316406 C 36.144531 8.289062 36.382812 8.230469 36.625 8.21875 C 36.96875 8.1875 37.433594 8.242188 37.832031 8.433594 C 38.0625 8.53125 38.285156 8.652344 38.523438 8.722656 C 38.75 8.789062 38.988281 8.808594 39.226562 8.785156 C 40.074219 8.710938 41.015625 8.121094 41.066406 7.199219 Z M 41.066406 7.199219 " fill-opacity="1" fill-rule="nonzero"/><path fill="#000000" d="M 34.257812 3.28125 C 34.171875 2.535156 33.734375 2.214844 33.425781 2.214844 C 33.089844 2.210938 32.859375 2.542969 32.796875 2.839844 C 32.675781 3.328125 32.828125 4.019531 33.238281 4.335938 C 33.445312 4.484375 33.730469 4.464844 33.925781 4.304688 C 34.222656 4.058594 34.300781 3.644531 34.257812 3.28125 Z M 34.257812 3.28125 " fill-opacity="1" fill-rule="nonzero"/><path fill="#000000" d="M 36.347656 0.582031 C 36.277344 0.425781 36.183594 0.273438 36.046875 0.171875 C 35.875 0.0429688 35.621094 0.0117188 35.4375 0.136719 C 34.84375 0.492188 35.078125 1.929688 35.722656 2.125 C 36.273438 2.289062 36.441406 1.8125 36.46875 1.609375 C 36.503906 1.355469 36.472656 0.871094 36.347656 0.582031 Z M 36.347656 0.582031 " fill-opacity="1" fill-rule="nonzero"/><path fill="#000000" d="M 39.308594 0.871094 C 39.296875 0.539062 39.140625 0.144531 38.777344 0.0742188 C 38.570312 0.0273438 38.355469 0.117188 38.195312 0.25 C 38 0.40625 37.875 0.621094 37.789062 0.851562 C 37.695312 1.085938 37.648438 1.34375 37.652344 1.535156 C 37.65625 2.125 38.136719 2.5625 38.699219 2.226562 C 39.125 1.929688 39.332031 1.378906 39.308594 0.871094 Z M 39.308594 0.871094 " fill-opacity="1" fill-rule="nonzero"/><path fill="#000000" d="M 41.125 2.039062 C 40.601562 1.820312 40.136719 2.539062 40.015625 2.863281 C 39.933594 3.085938 39.804688 4.070312 40.511719 4.132812 C 41.320312 4.203125 41.980469 2.394531 41.125 2.039062 Z M 41.125 2.039062 " fill-opacity="1" fill-rule="nonzero"/><g clip-path="url(#9ccee14a34)"><path stroke-linecap="butt" transform="matrix(-0.734485, 0.130865, -0.130865, -0.734485, 18.866614, 84.434426)" fill="none" stroke-linejoin="miter" d="M -0.000915731 2.00067 L 6.264203 2.000089 " stroke="#000000" stroke-width="4" stroke-opacity="1" stroke-miterlimit="4"/></g></svg>