<svg xmlns="http://www.w3.org/2000/svg" xmlns:xlink="http://www.w3.org/1999/xlink" width="242" zoomAndPan="magnify" viewBox="0 0 181.5 189.000001" height="252" preserveAspectRatio="xMidYMid meet" version="1.0"><defs><clipPath id="cd5c1217a8"><path d="M 66 1 L 180.773438 1 L 180.773438 188 L 66 188 Z M 66 1 " clip-rule="nonzero"/></clipPath><clipPath id="118b037b43"><path d="M 0.230469 144 L 10 144 L 10 158 L 0.230469 158 Z M 0.230469 144 " clip-rule="nonzero"/></clipPath><clipPath id="ba0ecf1493"><path d="M 0.230469 95 L 2 95 L 2 145 L 0.230469 145 Z M 0.230469 95 " clip-rule="nonzero"/></clipPath><clipPath id="23322b5518"><path d="M 0.230469 89 L 13 89 L 13 95 L 0.230469 95 Z M 0.230469 89 " clip-rule="nonzero"/></clipPath></defs><g clip-path="url(#cd5c1217a8)"><path fill="#000000" d="M 176.28125 138.84375 C 176.023438 138.394531 175.734375 137.964844 175.410156 137.566406 C 176.804688 134.316406 177.609375 130.847656 178.226562 127.371094 C 179.113281 123.054688 179.082031 118.652344 178.996094 114.273438 C 178.871094 107.300781 177.917969 100.34375 176.210938 93.582031 C 175.273438 88.996094 173.730469 84.570312 172.140625 80.175781 C 169.722656 73.523438 166.847656 67.050781 164.292969 60.453125 C 163.308594 57.808594 161.335938 53.304688 160.96875 50.464844 C 160.839844 49.460938 160.808594 48.449219 160.863281 47.4375 C 160.894531 47.324219 160.929688 47.207031 160.964844 47.089844 C 161.5625 45.199219 162.492188 43.394531 162.695312 41.402344 C 162.9375 39.539062 162.746094 37.660156 162.628906 35.796875 C 162.300781 32.714844 161.71875 29.644531 160.785156 26.6875 C 159.90625 23.875 158.558594 21.226562 157.007812 18.726562 C 156.945312 18.652344 156.890625 18.566406 156.832031 18.480469 C 156.910156 17.015625 156.890625 15.542969 156.90625 14.070312 C 156.90625 11.445312 156.855469 8.804688 156.5 6.199219 C 156.316406 4.988281 156.183594 3.742188 155.703125 2.601562 C 154.398438 0.03125 149.519531 4.996094 148.359375 5.992188 C 145.96875 8.113281 143.566406 10.285156 141.566406 12.78125 C 141.277344 12.714844 140.988281 12.640625 140.695312 12.578125 C 138.742188 12.144531 136.757812 11.867188 134.765625 11.691406 C 131.183594 11.351562 127.5625 11.160156 123.976562 11.488281 C 123.5 11.546875 123.023438 11.609375 122.542969 11.679688 C 121.261719 10.445312 119.742188 9.109375 118.59375 8.132812 C 116.457031 6.34375 114.390625 4.226562 111.691406 3.320312 C 109.9375 2.824219 109.207031 3.882812 109.148438 5.304688 C 109.019531 6.503906 108.96875 7.722656 109.0625 8.929688 C 109.160156 10.191406 109.441406 11.550781 109.566406 12.636719 C 109.808594 14.488281 110.019531 16.421875 110.53125 18.636719 C 110.140625 19.386719 109.679688 20.199219 109.339844 20.980469 C 108.539062 22.808594 107.925781 24.726562 107.527344 26.679688 C 106.988281 29.773438 106.636719 32.910156 106.605469 36.050781 C 106.761719 41.175781 107.808594 46.242188 109.632812 51.03125 C 109.785156 51.453125 109.941406 51.875 110.097656 52.296875 C 109.847656 61.164062 104.355469 72.492188 99.457031 78.832031 C 97.554688 81.292969 95.46875 83.617188 93.15625 85.699219 C 91.105469 87.542969 89.3125 88.78125 87.058594 90.503906 C 85.53125 91.761719 80.515625 95.25 81.898438 97.433594 C 84.699219 101.414062 93.578125 98.765625 97.519531 97.675781 C 99.78125 97 101.96875 96.09375 104.074219 95.027344 C 104.242188 94.941406 104.40625 94.84375 104.574219 94.753906 C 102.910156 100.917969 102.640625 107.4375 103.273438 113.769531 C 101.074219 116.078125 98.988281 118.507812 97.136719 121.109375 C 94.359375 125.214844 92.703125 128 87.984375 130.195312 C 86.027344 131.199219 83.4375 131.777344 80.9375 132.269531 C 77.628906 133.058594 74.25 133.609375 71.003906 134.617188 C 68.71875 135.453125 64.28125 138.164062 67.964844 140.34375 C 69.285156 141.046875 70.792969 141.28125 72.269531 141.386719 C 73.9375 141.507812 75.613281 141.539062 77.285156 141.570312 C 83.140625 141.722656 89 141.757812 94.855469 141.539062 C 96.597656 141.464844 98.429688 141.328125 99.953125 140.398438 C 101.605469 139.285156 102.757812 138.316406 104.585938 138 C 108.394531 137.1875 112.339844 137.097656 116.515625 136.980469 C 117.027344 136.96875 117.539062 136.964844 118.050781 136.957031 C 115.382812 139.308594 112.785156 141.746094 110.535156 144.503906 C 110.023438 145.121094 109.554688 145.761719 109.101562 146.417969 C 108.429688 147.136719 107.78125 147.882812 107.128906 148.621094 C 105.609375 150.246094 103.917969 151.980469 102.488281 152.898438 C 99.183594 155.054688 95.527344 155.769531 91.46875 156.792969 C 89.328125 157.324219 87.085938 157.625 85.128906 158.695312 C 82.996094 159.765625 81.160156 161.902344 81.191406 164.378906 C 81.589844 167.675781 85.664062 167.378906 88.140625 167.113281 C 91.425781 166.820312 94.230469 166.316406 97.484375 166.070312 C 98.9375 165.964844 100.402344 166.039062 101.855469 165.902344 C 104.398438 165.742188 105.765625 165.570312 107.980469 165.324219 C 110.34375 165.195312 112.757812 165.304688 115.015625 164.480469 C 115.914062 164.183594 116.773438 163.75 117.429688 163.054688 C 118.5 161.96875 119.203125 161.0625 120.273438 160.089844 C 120.3125 160.070312 120.351562 160.050781 120.398438 160.03125 C 121.75 159.457031 121.542969 159.496094 123.242188 158.902344 C 126.722656 157.785156 130.378906 157.324219 133.972656 156.699219 C 138.910156 155.949219 145.484375 155.710938 151.167969 154.714844 C 153.957031 154.269531 156.738281 153.71875 159.363281 152.65625 C 161.347656 151.859375 163.335938 150.984375 165.054688 149.695312 C 167.207031 148.152344 169.152344 146.324219 170.8125 144.265625 C 170.996094 144.777344 171.128906 145.324219 171.207031 145.949219 C 171.589844 149.472656 171 153.714844 168.628906 156.964844 C 167.117188 159.214844 164.863281 161.121094 162.210938 162.546875 C 159.0625 164.414062 156.355469 165.417969 152.917969 166.648438 C 146.992188 168.683594 140.910156 170.28125 134.734375 171.367188 C 131.742188 171.894531 128.738281 172.371094 125.746094 172.910156 C 122.699219 173.5 119.664062 174.167969 116.613281 174.726562 C 113.234375 175.425781 109.867188 176.21875 106.601562 177.34375 C 104.878906 177.976562 103.078125 178.53125 101.578125 179.609375 C 98.617188 181.832031 99.496094 186.570312 103.078125 187.398438 C 104.691406 187.84375 106.386719 187.867188 108.054688 187.917969 C 110.660156 187.9375 113.269531 187.792969 115.871094 187.621094 C 124.417969 186.921875 132.835938 185.128906 141.136719 183.042969 C 144.90625 182.035156 148.730469 181.234375 152.453125 180.0625 C 155.558594 179.023438 158.585938 177.746094 161.519531 176.292969 C 163.722656 175.183594 165.808594 173.859375 167.863281 172.496094 C 170.082031 170.972656 172.261719 169.34375 174.070312 167.335938 C 177.449219 163.707031 179.03125 158.855469 179.832031 154.050781 C 180.78125 148.460938 179.722656 143.890625 176.28125 138.84375 Z M 176.28125 138.84375 " fill-opacity="1" fill-rule="nonzero"/></g><path fill="#ffffff" d="M 151.914062 34.292969 C 151.914062 34.792969 151.863281 35.289062 151.765625 35.777344 C 151.667969 36.269531 151.523438 36.746094 151.332031 37.210938 C 151.140625 37.671875 150.90625 38.113281 150.625 38.527344 C 150.347656 38.945312 150.03125 39.328125 149.675781 39.683594 C 149.320312 40.039062 148.9375 40.351562 148.519531 40.632812 C 148.101562 40.910156 147.660156 41.144531 147.199219 41.335938 C 146.734375 41.527344 146.257812 41.671875 145.765625 41.769531 C 145.273438 41.867188 144.777344 41.917969 144.277344 41.917969 C 143.773438 41.917969 143.277344 41.867188 142.785156 41.769531 C 142.292969 41.671875 141.816406 41.527344 141.351562 41.335938 C 140.890625 41.144531 140.449219 40.910156 140.03125 40.632812 C 139.613281 40.351562 139.230469 40.039062 138.875 39.683594 C 138.519531 39.328125 138.203125 38.945312 137.925781 38.527344 C 137.644531 38.113281 137.410156 37.671875 137.21875 37.210938 C 137.027344 36.746094 136.882812 36.269531 136.785156 35.777344 C 136.6875 35.289062 136.636719 34.792969 136.636719 34.292969 C 136.636719 33.789062 136.6875 33.292969 136.785156 32.804688 C 136.882812 32.3125 137.027344 31.835938 137.21875 31.375 C 137.410156 30.910156 137.644531 30.472656 137.925781 30.054688 C 138.203125 29.640625 138.519531 29.253906 138.875 28.898438 C 139.230469 28.546875 139.613281 28.230469 140.03125 27.953125 C 140.449219 27.671875 140.890625 27.4375 141.351562 27.246094 C 141.816406 27.054688 142.292969 26.910156 142.785156 26.8125 C 143.277344 26.714844 143.773438 26.667969 144.277344 26.667969 C 144.777344 26.667969 145.273438 26.714844 145.765625 26.8125 C 146.257812 26.910156 146.734375 27.054688 147.199219 27.246094 C 147.660156 27.4375 148.101562 27.671875 148.519531 27.953125 C 148.9375 28.230469 149.320312 28.546875 149.675781 28.898438 C 150.03125 29.253906 150.347656 29.640625 150.625 30.054688 C 150.90625 30.472656 151.140625 30.910156 151.332031 31.375 C 151.523438 31.835938 151.667969 32.3125 151.765625 32.804688 C 151.863281 33.292969 151.914062 33.789062 151.914062 34.292969 Z M 151.914062 34.292969 " fill-opacity="1" fill-rule="nonzero"/><path fill="#ffffff" d="M 154.226562 81.335938 C 153.382812 83.886719 152.59375 85.707031 151.417969 88.085938 C 147.015625 96.710938 141.414062 104.023438 133.972656 110.296875 C 129.566406 113.957031 124.484375 117.277344 119.132812 117.460938 C 113.210938 117.480469 115.601562 112.25 118.863281 107.707031 C 121.171875 104.4375 123.527344 101.195312 125.574219 97.75 C 128.164062 93.296875 130.714844 88.761719 132.289062 83.839844 C 133.019531 81.574219 133.554688 79.230469 133.824219 76.867188 C 133.785156 76.417969 133.074219 76.351562 132.964844 76.808594 C 132.175781 82.375 130.25 87.085938 127.589844 91.847656 C 125.960938 94.820312 124.230469 97.742188 122.3125 100.539062 C 119.851562 104.574219 113.679688 111.085938 114.0625 115.382812 C 114.3125 117.894531 116.726562 118.976562 119.011719 118.882812 C 124.960938 118.601562 130.136719 115.066406 134.578125 111.382812 C 141.894531 105.265625 147.789062 97.507812 152.128906 89.042969 C 152.988281 87.339844 153.765625 85.597656 154.457031 83.824219 C 154.730469 82.996094 155.171875 82.183594 155.296875 81.328125 C 155.207031 80.722656 154.332031 80.722656 154.226562 81.335938 Z M 154.226562 81.335938 " fill-opacity="1" fill-rule="nonzero"/><path fill="#ffffff" d="M 146.464844 118.128906 C 142.898438 119.074219 139.570312 120.742188 136.34375 122.5 C 132.753906 124.554688 129.515625 127.164062 126.402344 129.871094 C 122.09375 133.597656 117.9375 137.511719 114.167969 141.789062 C 113.476562 142.574219 112.792969 143.371094 112.121094 144.175781 C 111.839844 144.503906 111.4375 144.914062 111.839844 145.328125 C 112.355469 145.777344 112.746094 145.246094 113.0625 144.863281 C 114.046875 143.738281 115.035156 142.621094 116.039062 141.515625 C 119.316406 137.890625 122.84375 134.496094 126.519531 131.269531 C 129.800781 128.363281 132.625 125.96875 136.316406 123.679688 C 138.628906 122.289062 141.367188 120.890625 143.527344 120 C 144.59375 119.535156 145.734375 119.226562 146.824219 118.851562 C 147.179688 118.609375 146.886719 117.996094 146.464844 118.128906 Z M 146.464844 118.128906 " fill-opacity="1" fill-rule="nonzero"/><path fill="#000000" d="M 143.738281 31.773438 C 143.703125 31.277344 142.933594 31.230469 142.820312 31.710938 C 142.074219 33.6875 141.757812 35.851562 142.042969 37.953125 C 142.078125 38.289062 142.234375 38.875 142.253906 38.917969 C 142.296875 39.070312 142.355469 39.230469 142.503906 39.3125 C 142.753906 39.464844 143.105469 39.320312 143.179688 39.039062 C 143.230469 38.796875 143.144531 38.183594 143.132812 37.613281 C 143.054688 36.007812 143.117188 34.617188 143.367188 33.363281 C 143.425781 32.84375 143.714844 32.234375 143.738281 31.773438 Z M 143.738281 31.773438 " fill-opacity="1" fill-rule="nonzero"/><path fill="#ffffff" d="M 125.289062 34.292969 C 125.285156 34.769531 125.242188 35.242188 125.148438 35.710938 C 125.054688 36.175781 124.914062 36.632812 124.734375 37.074219 C 124.550781 37.515625 124.324219 37.933594 124.058594 38.328125 C 123.792969 38.726562 123.492188 39.09375 123.15625 39.429688 C 122.816406 39.769531 122.449219 40.070312 122.050781 40.335938 C 121.652344 40.601562 121.234375 40.824219 120.792969 41.007812 C 120.351562 41.191406 119.894531 41.328125 119.425781 41.421875 C 118.957031 41.515625 118.484375 41.558594 118.007812 41.558594 C 117.527344 41.558594 117.054688 41.515625 116.585938 41.421875 C 116.117188 41.328125 115.660156 41.191406 115.21875 41.007812 C 114.777344 40.824219 114.359375 40.601562 113.960938 40.335938 C 113.5625 40.070312 113.195312 39.769531 112.859375 39.429688 C 112.519531 39.09375 112.21875 38.726562 111.953125 38.328125 C 111.6875 37.933594 111.460938 37.515625 111.277344 37.074219 C 111.097656 36.632812 110.957031 36.175781 110.863281 35.710938 C 110.773438 35.242188 110.726562 34.769531 110.726562 34.292969 C 110.726562 33.8125 110.773438 33.339844 110.863281 32.875 C 110.957031 32.40625 111.097656 31.949219 111.277344 31.511719 C 111.460938 31.070312 111.6875 30.648438 111.953125 30.253906 C 112.21875 29.855469 112.519531 29.488281 112.859375 29.152344 C 113.195312 28.8125 113.5625 28.511719 113.960938 28.246094 C 114.359375 27.984375 114.777344 27.757812 115.21875 27.574219 C 115.660156 27.394531 116.117188 27.253906 116.585938 27.164062 C 117.054688 27.070312 117.527344 27.023438 118.007812 27.023438 C 118.484375 27.023438 118.957031 27.070312 119.425781 27.164062 C 119.894531 27.253906 120.351562 27.394531 120.792969 27.574219 C 121.234375 27.757812 121.652344 27.984375 122.050781 28.246094 C 122.449219 28.511719 122.816406 28.8125 123.15625 29.152344 C 123.492188 29.488281 123.792969 29.855469 124.058594 30.253906 C 124.324219 30.648438 124.550781 31.070312 124.734375 31.511719 C 124.914062 31.949219 125.054688 32.40625 125.148438 32.875 C 125.242188 33.339844 125.285156 33.8125 125.289062 34.292969 Z M 125.289062 34.292969 " fill-opacity="1" fill-rule="nonzero"/><path fill="#000000" d="M 117.496094 31.890625 C 117.460938 31.417969 116.726562 31.371094 116.617188 31.832031 C 115.910156 33.71875 115.605469 35.777344 115.878906 37.78125 C 115.910156 38.101562 116.0625 38.660156 116.078125 38.703125 C 116.121094 38.847656 116.175781 39 116.320312 39.078125 C 116.558594 39.222656 116.890625 39.085938 116.960938 38.816406 C 117.007812 38.585938 116.929688 38.003906 116.914062 37.457031 C 116.84375 35.929688 116.902344 34.601562 117.140625 33.40625 C 117.195312 32.910156 117.472656 32.332031 117.496094 31.890625 Z M 117.496094 31.890625 " fill-opacity="1" fill-rule="nonzero"/><path fill="#ffffff" d="M 131.703125 38.359375 C 130.765625 38.308594 129.832031 38.273438 128.902344 38.238281 C 128.640625 38.230469 128.476562 38.519531 128.613281 38.746094 C 129.023438 39.410156 129.472656 40.042969 129.960938 40.613281 C 130.085938 40.757812 130.316406 40.761719 130.449219 40.625 C 130.984375 40.082031 131.480469 39.5 131.949219 38.886719 C 132.109375 38.679688 131.964844 38.375 131.703125 38.359375 Z M 131.703125 38.359375 " fill-opacity="1" fill-rule="nonzero"/><path fill="#ffffff" d="M 115.371094 11.277344 C 114.90625 10.351562 114.390625 9.445312 113.765625 8.617188 C 113.359375 8.085938 112.917969 7.574219 112.429688 7.117188 C 112.25 6.972656 112.046875 6.722656 111.792969 6.847656 C 111.558594 6.929688 111.496094 7.269531 111.675781 7.4375 C 112.90625 8.640625 113.40625 9.433594 114.292969 11.089844 C 114.6875 11.800781 114.714844 12.066406 115.058594 12.828125 C 115.265625 13.132812 115.78125 13.023438 115.867188 12.671875 C 115.917969 12.246094 115.519531 11.6875 115.371094 11.277344 Z M 115.371094 11.277344 " fill-opacity="1" fill-rule="nonzero"/><path fill="#ffffff" d="M 152.230469 6.527344 C 150.363281 7.8125 148.8125 9.515625 147.597656 11.417969 C 147.253906 11.933594 146.921875 12.457031 146.640625 13.003906 C 146.574219 13.117188 146.554688 13.253906 146.589844 13.378906 C 146.667969 13.675781 147.039062 13.824219 147.304688 13.667969 C 147.605469 13.421875 147.703125 12.996094 147.9375 12.6875 C 148.957031 11.007812 149.757812 9.914062 151.117188 8.554688 C 151.75 7.898438 152.179688 7.59375 152.757812 7.128906 C 153.042969 6.800781 152.597656 6.296875 152.230469 6.527344 Z M 152.230469 6.527344 " fill-opacity="1" fill-rule="nonzero"/><path fill="#ffffff" d="M 113.613281 12.496094 C 113.371094 11.925781 113.0625 11.386719 112.730469 10.867188 C 112.53125 10.558594 112.3125 10.265625 112.085938 9.980469 C 112.101562 10 112.132812 10.042969 112.121094 10.027344 C 112.039062 9.933594 111.984375 9.800781 111.855469 9.769531 C 111.621094 9.695312 111.40625 9.972656 111.539062 10.179688 C 112.390625 11.3125 112.820312 12.273438 113.191406 13.257812 C 113.289062 13.398438 113.492188 13.425781 113.636719 13.34375 C 113.964844 13.144531 113.714844 12.761719 113.613281 12.496094 Z M 113.613281 12.496094 " fill-opacity="1" fill-rule="nonzero"/><path fill="#ffffff" d="M 151.949219 10.335938 C 151.09375 10.972656 150.394531 11.789062 149.796875 12.664062 C 149.570312 13.015625 149.359375 13.375 149.179688 13.753906 C 149.136719 13.832031 149.125 13.925781 149.148438 14.015625 C 149.199219 14.222656 149.460938 14.328125 149.644531 14.214844 C 149.917969 13.949219 149.988281 13.519531 150.21875 13.207031 C 150.726562 12.367188 151.132812 11.863281 151.851562 11.132812 C 152.015625 10.953125 152.265625 10.839844 152.394531 10.636719 C 152.519531 10.371094 152.144531 10.121094 151.949219 10.335938 Z M 151.949219 10.335938 " fill-opacity="1" fill-rule="nonzero"/><path fill="#ffffff" d="M 1 152.382812 L 1 95.246094 C 1 92.445312 3.273438 90.175781 6.078125 90.175781 L 86.496094 90.175781 C 89.300781 90.175781 91.574219 92.445312 91.574219 95.246094 L 91.574219 152.382812 C 91.574219 155.179688 89.300781 157.449219 86.496094 157.449219 L 6.078125 157.449219 C 3.273438 157.449219 1 155.179688 1 152.382812 Z M 1 152.382812 " fill-opacity="1" fill-rule="nonzero"/><path fill="#000000" d="M 49.722656 124.929688 C 49.234375 124.5625 48.332031 123.804688 48.046875 123.058594 C 47.886719 122.71875 47.703125 121.425781 47.398438 120.777344 C 47.070312 119.980469 46.582031 119.207031 45.832031 118.757812 C 44.414062 117.839844 42.394531 118.425781 41.726562 119.984375 C 41.421875 120.605469 41.460938 121.316406 41.398438 121.988281 C 41.347656 122.664062 41.164062 123.425781 40.636719 124.148438 C 40.472656 124.40625 40.21875 124.6875 39.941406 124.988281 C 39.496094 125.378906 39.058594 125.785156 38.777344 126.3125 C 37.925781 127.859375 38.402344 129.484375 40.050781 130.199219 C 40.871094 130.542969 41.839844 130.609375 42.699219 130.355469 C 43.589844 130.019531 44.472656 129.371094 44.992188 129.390625 C 46.074219 129.257812 47.007812 130.378906 48.449219 130.535156 C 51.597656 130.859375 52.105469 126.324219 49.722656 124.929688 Z M 49.722656 124.929688 " fill-opacity="1" fill-rule="nonzero"/><path fill="#000000" d="M 37.238281 119.355469 C 37.082031 119.140625 36.898438 118.953125 36.703125 118.78125 C 35.6875 117.675781 34.152344 117.332031 33.152344 118.832031 C 32.914062 119.167969 32.882812 119.589844 32.902344 119.988281 C 32.941406 120.566406 33.089844 121.136719 33.371094 121.648438 C 34.507812 123.996094 38.046875 124.035156 38.089844 121.769531 C 38.085938 120.902344 37.75 120.046875 37.238281 119.355469 Z M 37.238281 119.355469 " fill-opacity="1" fill-rule="nonzero"/><path fill="#000000" d="M 41.507812 113.136719 C 40.765625 112.25 39.523438 111.8125 38.699219 112.15625 C 37.410156 112.667969 37.265625 114.222656 37.804688 115.535156 C 37.851562 115.636719 37.898438 115.746094 37.945312 115.851562 C 38.128906 116.339844 38.410156 116.777344 38.75 117.140625 C 39.292969 117.675781 40.03125 118.128906 40.820312 118.066406 C 41.632812 117.976562 42.34375 117.296875 42.433594 116.476562 C 42.621094 115.308594 42.230469 114.058594 41.507812 113.136719 Z M 41.507812 113.136719 " fill-opacity="1" fill-rule="nonzero"/><path fill="#000000" d="M 47.164062 110.816406 C 46.140625 110.972656 45.621094 111.476562 45.128906 112.378906 C 44.882812 112.867188 44.8125 113.40625 44.820312 113.949219 C 44.695312 114.890625 44.828125 115.925781 45.511719 116.609375 C 47.128906 117.929688 49.027344 116.597656 49.449219 114.820312 C 50.007812 113.140625 49.042969 110.664062 47.164062 110.816406 Z M 47.164062 110.816406 " fill-opacity="1" fill-rule="nonzero"/><path fill="#000000" d="M 54.046875 116.816406 C 53.75 116.40625 53.257812 116.136719 52.757812 116.082031 C 52.3125 116.046875 51.871094 116.175781 51.480469 116.371094 C 51.410156 116.40625 51.339844 116.441406 51.28125 116.484375 C 51.160156 116.558594 51.058594 116.636719 50.957031 116.722656 C 50.785156 116.890625 50.621094 117.078125 50.476562 117.277344 C 50.042969 117.761719 49.71875 118.367188 49.585938 118.976562 C 49.390625 120.058594 50.003906 121.292969 51.078125 121.640625 C 51.964844 121.929688 52.867188 121.394531 53.441406 120.746094 C 53.957031 120.140625 54.417969 119.429688 54.488281 118.621094 C 54.515625 118.003906 54.382812 117.339844 54.046875 116.816406 Z M 54.046875 116.816406 " fill-opacity="1" fill-rule="nonzero"/><path fill="#000000" d="M 4.042969 104.402344 C 3.742188 104.402344 3.5 104.160156 3.5 103.863281 L 3.5 95.175781 C 3.5 93.652344 4.742188 92.410156 6.269531 92.410156 L 15.695312 92.410156 C 15.992188 92.410156 16.238281 92.652344 16.238281 92.953125 C 16.238281 93.253906 15.992188 93.496094 15.695312 93.496094 L 6.269531 93.496094 C 5.339844 93.496094 4.585938 94.25 4.585938 95.175781 L 4.585938 103.863281 C 4.585938 104.160156 4.34375 104.402344 4.042969 104.402344 Z M 4.042969 104.402344 " fill-opacity="1" fill-rule="nonzero"/><path fill="#000000" d="M 87.703125 104.402344 C 87.402344 104.402344 87.160156 104.160156 87.160156 103.863281 L 87.160156 95.175781 C 87.160156 94.25 86.402344 93.496094 85.472656 93.496094 L 80.769531 93.496094 C 80.46875 93.496094 80.226562 93.253906 80.226562 92.953125 C 80.226562 92.652344 80.46875 92.410156 80.769531 92.410156 L 85.472656 92.410156 C 87.003906 92.410156 88.246094 93.652344 88.246094 95.175781 L 88.246094 103.863281 C 88.246094 104.160156 88.003906 104.402344 87.703125 104.402344 Z M 87.703125 104.402344 " fill-opacity="1" fill-rule="nonzero"/><path fill="#000000" d="M 16.214844 154.136719 L 6.789062 154.136719 C 5.261719 154.136719 4.015625 152.894531 4.015625 151.367188 L 4.015625 142.683594 C 4.015625 142.382812 4.261719 142.140625 4.5625 142.140625 C 4.859375 142.140625 5.105469 142.382812 5.105469 142.683594 L 5.105469 151.367188 C 5.105469 152.296875 5.859375 153.050781 6.789062 153.050781 L 16.214844 153.050781 C 16.511719 153.050781 16.757812 153.292969 16.757812 153.59375 C 16.757812 153.890625 16.511719 154.136719 16.214844 154.136719 Z M 16.214844 154.136719 " fill-opacity="1" fill-rule="nonzero"/><path fill="#000000" d="M 81.972656 153.679688 L 26.613281 153.679688 C 26.316406 153.679688 26.070312 153.433594 26.070312 153.136719 C 26.070312 152.835938 26.316406 152.59375 26.613281 152.59375 L 81.972656 152.59375 C 82.273438 152.59375 82.515625 152.835938 82.515625 153.136719 C 82.515625 153.433594 82.273438 153.679688 81.972656 153.679688 Z M 81.972656 153.679688 " fill-opacity="1" fill-rule="nonzero"/><path fill="#ffffff" d="M 87.933594 139.972656 C 97.75 139.8125 107.566406 139.652344 117.382812 139.492188 C 117.042969 140.027344 116.476562 140.375 115.933594 140.703125 C 108.042969 145.46875 100.152344 150.234375 92.257812 155 C 91.449219 155.488281 90.617188 155.988281 89.6875 156.167969 C 88.523438 156.394531 87.332031 156.101562 86.179688 155.8125 C 85.738281 155.703125 85.25 155.554688 85.019531 155.160156 C 84.859375 154.878906 84.871094 154.53125 84.890625 154.207031 C 85.1875 149.242188 85.917969 144.308594 87.933594 139.972656 Z M 87.933594 139.972656 " fill-opacity="1" fill-rule="nonzero"/><path fill="#000000" d="M 113.945312 141.210938 C 112.691406 142.164062 111.121094 143.078125 109.21875 144.292969 C 106.433594 146 103.691406 147.773438 100.910156 149.492188 C 98.679688 150.882812 96.457031 152.285156 94.210938 153.652344 C 93.03125 154.371094 92.03125 154.960938 90.972656 155.4375 C 91.019531 155.339844 91.070312 155.246094 91.113281 155.148438 C 92.300781 152.652344 91.945312 149.8125 91.96875 147.132812 C 91.9375 145.226562 91.835938 143.320312 91.824219 141.414062 C 91.816406 141.015625 91.804688 140.621094 91.796875 140.226562 C 91.800781 140.003906 91.652344 139.773438 91.441406 139.699219 C 91.183594 139.574219 90.859375 139.695312 90.714844 139.933594 C 90.535156 140.425781 90.703125 140.996094 90.664062 141.515625 C 90.675781 143.179688 90.757812 144.847656 90.796875 146.511719 C 90.832031 148.027344 90.855469 149.542969 90.808594 151.058594 C 90.773438 152.460938 90.683594 153.195312 90.105469 154.582031 C 89.796875 155.332031 89.308594 156.089844 88.257812 156.285156 C 85.238281 156.9375 81.417969 156.886719 77.890625 156.816406 C 74.1875 156.671875 70.476562 156.777344 66.769531 156.738281 C 62.484375 156.695312 58.203125 156.476562 53.917969 156.53125 C 48.75 156.566406 43.585938 156.773438 38.417969 156.773438 C 32.835938 156.796875 27.25 156.671875 21.667969 156.9375 C 19.113281 157.03125 16.554688 157.074219 13.996094 157.105469 C 13.488281 157.109375 12.980469 157.101562 12.472656 157.113281 C 12.355469 157.113281 12.246094 157.160156 12.164062 157.238281 C 11.898438 157.492188 12.089844 158 12.472656 157.984375 C 17.914062 158.164062 23.359375 157.90625 28.804688 157.902344 C 37.566406 158.035156 46.328125 157.789062 55.09375 157.679688 C 58.800781 157.664062 62.503906 157.84375 66.210938 157.890625 C 69.714844 157.945312 73.214844 157.832031 76.714844 157.941406 C 80.476562 158.050781 84.277344 158.132812 88.003906 157.53125 C 88.085938 157.511719 88.171875 157.496094 88.257812 157.476562 C 88.863281 157.410156 89.90625 157.109375 90.824219 156.753906 C 93.4375 155.671875 95.761719 154.015625 98.171875 152.5625 C 101.726562 150.355469 105.265625 148.132812 108.785156 145.871094 C 111.292969 144.253906 112.363281 143.527344 114.445312 141.710938 C 114.761719 141.390625 114.28125 140.882812 113.945312 141.210938 Z M 113.945312 141.210938 " fill-opacity="1" fill-rule="nonzero"/><path fill="#000000" d="M 92.605469 130.445312 C 92.585938 129.660156 92.574219 128.875 92.5625 128.089844 C 92.511719 125.664062 92.488281 123.238281 92.472656 120.8125 C 92.550781 115.101562 92.035156 109.402344 92.023438 103.691406 C 92.015625 101.789062 92.003906 99.890625 91.957031 97.992188 C 91.960938 97.488281 91.175781 97.46875 91.171875 97.992188 C 91.042969 100.777344 90.949219 103.566406 90.9375 106.359375 C 90.957031 109.292969 91.167969 112.21875 91.253906 115.148438 C 91.347656 120.261719 91.3125 125.378906 91.449219 130.492188 C 91.484375 130.8125 91.417969 131.15625 91.523438 131.460938 C 91.675781 131.890625 92.332031 131.933594 92.550781 131.527344 C 92.714844 131.199219 92.582031 130.800781 92.605469 130.445312 Z M 92.605469 130.445312 " fill-opacity="1" fill-rule="nonzero"/><g clip-path="url(#118b037b43)"><path fill="#38018d" d="M 9.820312 157.445312 C 9.632812 156.9375 8.941406 157.21875 8.53125 157.144531 C 7.453125 157.117188 6.375 157.15625 5.300781 157.066406 C 4.613281 156.996094 3.996094 156.929688 3.457031 156.597656 C 2.679688 156.070312 2.246094 155.378906 1.894531 154.277344 C 1.597656 153.226562 1.351562 151.332031 1.320312 149.308594 C 1.273438 147.800781 1.324219 146.621094 1.210938 145.285156 C 1.25 144.851562 0.609375 144.75 0.582031 145.210938 C 0.527344 147.253906 0.375 149.488281 0.59375 151.777344 C 0.625 152.894531 0.917969 153.964844 1.136719 154.566406 C 1.382812 155.253906 1.765625 156.246094 2.53125 156.925781 C 3.03125 157.378906 3.675781 157.648438 4.34375 157.746094 C 5.375 157.925781 6.425781 157.953125 7.46875 157.953125 C 8.125 157.953125 8.777344 157.96875 9.429688 157.957031 C 9.6875 157.964844 9.890625 157.695312 9.820312 157.445312 Z M 9.820312 157.445312 " fill-opacity="1" fill-rule="nonzero"/></g><g clip-path="url(#ba0ecf1493)"><path fill="#000000" d="M 1.390625 128.945312 C 1.277344 123.46875 1.367188 117.992188 1.371094 112.519531 C 1.363281 109.398438 1.183594 106.285156 1.234375 103.167969 C 1.25 100.703125 1.394531 98.242188 1.320312 95.78125 C 1.320312 95.273438 0.503906 95.230469 0.5 95.78125 C 0.457031 98.828125 0.238281 101.871094 0.242188 104.921875 C 0.238281 108.203125 0.390625 111.480469 0.355469 114.761719 C 0.382812 118.894531 0.265625 123.023438 0.257812 127.15625 C 0.3125 132.414062 0.382812 137.675781 0.460938 142.933594 C 0.492188 143.636719 0.5 144 0.601562 144.511719 C 0.695312 144.785156 1.113281 144.8125 1.25 144.558594 C 1.609375 139.816406 1.484375 134.082031 1.390625 128.945312 Z M 1.390625 128.945312 " fill-opacity="1" fill-rule="nonzero"/></g><g clip-path="url(#23322b5518)"><path fill="#38018d" d="M 11.488281 89.589844 C 10.570312 89.574219 9.652344 89.566406 8.730469 89.570312 C 6.152344 89.539062 3.53125 89.621094 1.734375 91.890625 C 1.394531 92.292969 1.167969 92.773438 1.015625 93.277344 C 0.96875 93.503906 0.804688 93.761719 0.917969 93.988281 C 1.054688 94.234375 1.457031 94.183594 1.523438 93.910156 C 2.054688 91.664062 4.40625 90.714844 6.363281 90.433594 C 7.980469 90.253906 9.613281 90.296875 11.242188 90.304688 C 11.609375 90.277344 12.367188 90.464844 12.273438 89.867188 C 12.171875 89.527344 11.761719 89.621094 11.488281 89.589844 Z M 11.488281 89.589844 " fill-opacity="1" fill-rule="nonzero"/></g><path fill="#000000" d="M 88.101562 90.167969 C 87.148438 90.160156 86.191406 90.210938 85.238281 90.191406 C 81.230469 90.125 77.226562 89.78125 73.214844 89.792969 C 68.039062 89.878906 62.863281 89.617188 57.683594 89.765625 C 51.019531 89.722656 44.355469 89.570312 37.691406 89.785156 C 31.449219 89.625 25.210938 89.816406 18.96875 89.820312 C 17.261719 89.839844 15.554688 89.742188 13.851562 89.789062 C 13.679688 89.785156 13.527344 89.9375 13.53125 90.109375 C 13.53125 90.277344 13.679688 90.433594 13.851562 90.429688 C 21.601562 90.855469 29.367188 90.496094 37.121094 90.664062 C 48.324219 90.886719 59.53125 90.796875 70.734375 90.976562 C 75.738281 90.839844 80.738281 91.210938 85.738281 91.289062 C 86.59375 91.285156 87.453125 91.269531 88.308594 91.242188 C 88.699219 91.242188 89.222656 91.214844 89.226562 90.699219 C 89.1875 90.074219 88.554688 90.1875 88.101562 90.167969 Z M 88.101562 90.167969 " fill-opacity="1" fill-rule="nonzero"/><path fill="#000000" d="M 116.859375 139.332031 C 116.808594 139.132812 116.652344 138.964844 116.410156 138.972656 C 111.9375 139.0625 107.464844 139.152344 102.992188 139.328125 C 100.433594 139.445312 97.863281 139.402344 95.316406 139.628906 C 94.703125 139.808594 94.835938 140.710938 95.488281 140.691406 C 100.289062 140.75 105.089844 140.660156 109.886719 140.464844 C 111.566406 140.386719 113.765625 140.269531 115.046875 140.207031 C 115.628906 140.167969 115.835938 140.183594 116.195312 140.144531 C 116.496094 140.074219 116.796875 140.171875 116.929688 139.660156 C 116.953125 139.539062 116.921875 139.425781 116.859375 139.332031 Z M 116.859375 139.332031 " fill-opacity="1" fill-rule="nonzero"/><path fill="#000000" d="M 111.242188 140.8125 C 110.582031 141.164062 109.914062 141.527344 109.234375 141.902344 C 107.828125 141.894531 106.417969 141.953125 105.007812 142.046875 C 105.214844 141.914062 105.425781 141.78125 105.628906 141.640625 C 105.84375 141.390625 105.503906 141 105.222656 141.179688 C 104.613281 141.496094 104.007812 141.824219 103.402344 142.15625 C 102.1875 142.246094 100.972656 142.34375 99.761719 142.421875 C 100.078125 142.234375 100.394531 142.046875 100.703125 141.851562 C 100.777344 141.808594 100.828125 141.738281 100.851562 141.65625 C 100.933594 141.390625 100.617188 141.144531 100.378906 141.292969 C 99.625 141.699219 98.871094 142.105469 98.113281 142.511719 C 98.070312 142.515625 98.023438 142.515625 97.980469 142.519531 C 96.78125 142.566406 95.585938 142.648438 94.386719 142.699219 C 94.960938 142.402344 95.527344 142.09375 96.0625 141.753906 C 96.285156 141.496094 95.933594 141.097656 95.644531 141.28125 C 94.578125 141.761719 93.96875 142.054688 92.980469 142.546875 C 92.800781 142.652344 92.558594 142.71875 92.503906 142.941406 C 92.402344 143.261719 92.789062 143.558594 93.074219 143.378906 C 93.210938 143.308594 93.347656 143.238281 93.484375 143.167969 C 94.664062 143.179688 95.835938 143.152344 97.007812 143.113281 C 95.894531 143.71875 94.796875 144.339844 93.71875 144.984375 C 93.648438 144.984375 93.582031 144.984375 93.515625 144.984375 C 93.265625 145.007812 92.980469 144.972656 92.757812 145.09375 C 92.570312 145.21875 92.65625 145.519531 92.863281 145.5625 C 92.730469 145.886719 93.125 146.28125 93.464844 146.070312 C 93.753906 145.914062 94.039062 145.75 94.328125 145.589844 C 95.332031 145.617188 96.335938 145.652344 97.34375 145.699219 C 96.015625 146.5 94.6875 147.300781 93.347656 148.078125 C 93.140625 148.09375 92.890625 148.015625 92.722656 148.167969 C 92.53125 148.347656 92.671875 148.699219 92.9375 148.691406 C 93.027344 148.695312 93.117188 148.703125 93.207031 148.707031 C 93.324219 148.816406 93.511719 148.851562 93.652344 148.761719 C 93.667969 148.753906 93.6875 148.746094 93.703125 148.734375 C 94.851562 148.808594 96.003906 148.925781 97.152344 149.015625 C 96.203125 149.574219 95.257812 150.128906 94.320312 150.664062 C 94.097656 150.757812 93.980469 150.894531 93.933594 151.027344 C 93.511719 151.039062 93.074219 150.960938 92.664062 151.023438 C 92.363281 151.128906 92.460938 151.613281 92.78125 151.601562 C 93.296875 151.621094 93.804688 151.710938 94.320312 151.757812 C 94.507812 151.765625 94.710938 151.84375 94.890625 151.769531 C 95.140625 151.679688 95.1875 151.335938 95.019531 151.160156 C 96.214844 150.507812 97.390625 149.8125 98.558594 149.105469 C 99.109375 149.132812 99.660156 149.148438 100.210938 149.140625 C 100.558594 149.015625 100.445312 148.457031 100.074219 148.472656 C 99.933594 148.464844 99.789062 148.453125 99.648438 148.445312 C 101.03125 147.609375 102.417969 146.78125 103.847656 146.027344 C 103.910156 145.996094 103.972656 145.960938 104.035156 145.925781 C 104.257812 145.925781 104.484375 145.929688 104.710938 145.929688 C 105.039062 145.929688 105.144531 145.59375 105.027344 145.371094 C 106.652344 144.460938 108.40625 143.457031 109.851562 142.546875 C 109.890625 142.546875 109.925781 142.546875 109.964844 142.546875 C 110.1875 142.578125 110.347656 142.40625 110.359375 142.222656 C 110.753906 141.96875 111.117188 141.722656 111.4375 141.492188 C 111.550781 141.40625 111.699219 141.34375 111.734375 141.191406 C 111.820312 140.917969 111.492188 140.660156 111.242188 140.8125 Z M 95.878906 144.992188 C 95.71875 144.988281 95.554688 144.988281 95.394531 144.988281 C 96.507812 144.347656 97.609375 143.695312 98.710938 143.042969 C 99.855469 142.988281 101.003906 142.921875 102.148438 142.855469 C 100.894531 143.570312 99.65625 144.308594 98.417969 145.050781 C 97.570312 145.03125 96.726562 145.007812 95.878906 144.992188 Z M 98.257812 148.359375 C 97.109375 148.285156 95.960938 148.203125 94.808594 148.140625 C 96.089844 147.4375 97.492188 146.613281 98.890625 145.765625 C 100.050781 145.820312 101.210938 145.867188 102.375 145.898438 C 101 146.71875 99.625 147.546875 98.257812 148.359375 Z M 103.597656 145.167969 C 102.398438 145.152344 101.199219 145.125 100 145.09375 C 100.921875 144.53125 101.832031 143.96875 102.6875 143.441406 C 103.054688 143.207031 103.4375 142.984375 103.816406 142.761719 C 105.21875 142.683594 106.625 142.613281 108.03125 142.578125 C 106.574219 143.402344 105.089844 144.277344 103.597656 145.167969 Z M 103.597656 145.167969 " fill-opacity="1" fill-rule="nonzero"/><path stroke-linecap="butt" transform="matrix(-0.604414, 0.437353, -0.437353, -0.604414, 153.098929, 48.764558)" fill="none" stroke-linejoin="miter" d="M 0.00088116 2.002362 L 31.14845 1.998219 " stroke="#000000" stroke-width="4" stroke-opacity="1" stroke-miterlimit="4"/></svg>