<svg xmlns="http://www.w3.org/2000/svg" xmlns:xlink="http://www.w3.org/1999/xlink" width="184" zoomAndPan="magnify" viewBox="0 0 138 189.000001" height="252" preserveAspectRatio="xMidYMid meet" version="1.0"><defs><clipPath id="951aa7bae0"><path d="M 0.363281 53 L 69 53 L 69 188 L 0.363281 188 Z M 0.363281 53 " clip-rule="nonzero"/></clipPath><clipPath id="852c0e22c4"><path d="M 67 56 L 136.890625 56 L 136.890625 187 L 67 187 Z M 67 56 " clip-rule="nonzero"/></clipPath></defs><g clip-path="url(#951aa7bae0)"><path fill="#000000" d="M 1.679688 168.503906 C 9.539062 150.789062 17.398438 133.074219 25.257812 115.359375 C 28.117188 108.917969 31.035156 102.179688 30.707031 95.136719 C 30.5 90.738281 29.03125 86.511719 28.050781 82.21875 C 27.070312 77.921875 26.601562 73.28125 28.324219 69.226562 C 30.050781 65.171875 34.566406 62.039062 38.820312 63.183594 C 38.105469 59.390625 40.390625 55.246094 43.984375 53.828125 C 47.574219 52.410156 52.074219 53.871094 54.148438 57.128906 C 58.015625 54.808594 63.339844 57.148438 65.738281 60.96875 C 68.136719 64.789062 68.347656 69.550781 68.308594 74.0625 C 67.976562 110.988281 55.683594 147.859375 61.367188 183.761719 C 60.964844 186.382812 57.914062 187.96875 55.300781 187.523438 C 52.691406 187.082031 50.570312 185.136719 49.039062 182.972656 C 47.15625 184.691406 45.164062 186.46875 42.695312 187.109375 C 40.226562 187.75 37.152344 186.828125 36.234375 184.449219 C 36.117188 184.15625 36.039062 183.839844 35.847656 183.589844 C 34.933594 182.363281 33.117188 183.65625 31.90625 184.589844 C 29.945312 186.101562 27.191406 186.515625 24.871094 185.648438 C 22.550781 184.78125 20.742188 182.664062 20.25 180.238281 C 17.921875 181.609375 15.25 182.839844 12.601562 182.292969 C 9.953125 181.742188 7.789062 178.578125 9.183594 176.265625 C 7.164062 175.699219 5.050781 177.679688 3.046875 177.054688 C 1.847656 176.683594 1.089844 175.433594 0.914062 174.191406 C 0.742188 172.945312 0.363281 171.472656 1.679688 168.503906 Z M 1.679688 168.503906 " fill-opacity="1" fill-rule="nonzero"/></g><g clip-path="url(#852c0e22c4)"><path fill="#000000" d="M 135.957031 175.507812 C 123.488281 153.953125 113.34375 131.0625 105.75 107.351562 C 104.304688 102.839844 102.9375 98.136719 103.515625 93.433594 C 103.933594 90.035156 105.347656 86.839844 106.09375 83.5 C 106.824219 80.238281 106.90625 76.832031 106.332031 73.539062 C 105.851562 70.765625 104.792969 67.90625 102.53125 66.226562 C 100.269531 64.550781 96.578125 64.625 95.023438 66.972656 C 95.421875 62.65625 92.878906 58.082031 88.800781 56.621094 C 84.722656 55.160156 79.539062 57.429688 78.289062 61.578125 C 77.070312 58.625 72.367188 58.882812 70.308594 61.328125 C 68.246094 63.769531 68.089844 67.242188 68.035156 70.4375 C 67.902344 78.042969 67.769531 85.644531 67.636719 93.246094 C 67.5625 97.472656 67.488281 101.703125 67.8125 105.917969 C 68.257812 111.707031 69.449219 117.410156 70.566406 123.105469 C 74.410156 142.679688 77.425781 162.414062 80.550781 181.726562 C 81.203125 184.34375 83.539062 186.453125 86.207031 186.835938 C 88.875 187.222656 91.710938 185.851562 93.070312 183.527344 C 93.710938 182.433594 94.808594 180.910156 95.828125 181.664062 C 96.039062 181.820312 96.175781 182.050781 96.320312 182.269531 C 97.679688 184.324219 100.144531 185.597656 102.601562 185.507812 C 105.0625 185.421875 107.433594 183.980469 108.640625 181.835938 C 109.152344 180.925781 109.5625 179.816406 110.53125 179.433594 C 112.09375 181.539062 114.8125 182.726562 117.417969 182.4375 C 120.023438 182.152344 122.417969 180.40625 123.488281 178.011719 C 123.765625 177.390625 124.074219 176.628906 124.746094 176.523438 C 125.050781 176.476562 125.359375 176.589844 125.644531 176.707031 C 127.597656 177.507812 129.464844 178.714844 131.574219 178.839844 C 133.679688 178.964844 136.886719 177.109375 135.957031 175.507812 Z M 135.957031 175.507812 " fill-opacity="1" fill-rule="nonzero"/></g><path fill="#ffffff" d="M 41.722656 84.089844 C 42.972656 83.078125 44.257812 82.019531 44.972656 80.578125 C 45.65625 79.191406 45.746094 77.558594 46.492188 76.203125 C 47.375 74.59375 49.183594 73.542969 51.019531 73.574219 C 52.851562 73.605469 54.625 74.71875 55.449219 76.355469 C 56.222656 77.886719 56.183594 79.730469 56.957031 81.261719 C 57.554688 82.445312 58.582031 83.339844 59.40625 84.375 C 60.695312 86.003906 61.488281 88.109375 61.179688 90.160156 C 60.871094 92.210938 59.292969 94.117188 57.246094 94.445312 C 55.292969 94.753906 53.382812 93.675781 51.410156 93.628906 C 48.605469 93.558594 45.75 95.546875 43.164062 94.457031 C 42.238281 94.066406 41.503906 93.320312 40.925781 92.5 C 39.910156 91.0625 39.292969 89.285156 39.492188 87.535156 C 39.691406 85.785156 40.804688 84.101562 41.722656 84.089844 Z M 41.722656 84.089844 " fill-opacity="1" fill-rule="nonzero"/><path fill="#ffffff" d="M 39.183594 72.152344 C 39.917969 73.523438 40.671875 74.964844 40.671875 76.519531 C 40.675781 78.074219 39.640625 79.75 38.09375 79.898438 C 37.003906 80 35.976562 79.34375 35.234375 78.535156 C 33.546875 76.691406 32.953125 73.917969 33.734375 71.542969 C 33.859375 71.167969 34.019531 70.792969 34.304688 70.519531 C 34.664062 70.175781 35.179688 70.035156 35.675781 70.015625 C 37.050781 69.96875 38.46875 70.820312 39.183594 72.152344 Z M 39.183594 72.152344 " fill-opacity="1" fill-rule="nonzero"/><path fill="#ffffff" d="M 49.714844 62.222656 C 50.207031 63.847656 50.417969 65.554688 50.339844 67.25 C 50.308594 67.917969 50.222656 68.617188 49.855469 69.179688 C 49.171875 70.230469 47.640625 70.480469 46.5 69.96875 C 45.359375 69.457031 44.578125 68.347656 44.128906 67.179688 C 43.296875 65.019531 43.511719 62.367188 45.058594 60.640625 C 45.421875 60.234375 45.867188 59.875 46.394531 59.75 C 47.210938 59.554688 48.074219 59.953125 48.65625 60.558594 C 49.238281 61.160156 49.628906 61.929688 49.714844 62.222656 Z M 49.714844 62.222656 " fill-opacity="1" fill-rule="nonzero"/><path fill="#ffffff" d="M 61.832031 67.164062 C 62.375 68.664062 62.257812 70.394531 61.519531 71.808594 C 61.039062 72.726562 60.117188 73.585938 59.089844 73.417969 C 58.316406 73.292969 57.75 72.621094 57.359375 71.941406 C 56.464844 70.402344 56.09375 68.570312 56.308594 66.804688 C 56.410156 65.996094 56.640625 65.179688 57.136719 64.535156 C 57.632812 63.890625 58.429688 63.4375 59.242188 63.507812 C 60.203125 63.589844 60.984375 64.382812 61.347656 65.277344 C 61.707031 66.175781 61.722656 67.167969 61.832031 67.164062 Z M 61.832031 67.164062 " fill-opacity="1" fill-rule="nonzero"/><path fill="#ffffff" d="M 78.09375 88.027344 C 79.425781 87.226562 80.144531 85.707031 80.617188 84.226562 C 81.09375 82.746094 81.414062 81.183594 82.261719 79.878906 C 83.113281 78.578125 84.6875 77.578125 86.191406 77.976562 C 87.628906 78.359375 88.484375 79.84375 88.929688 81.265625 C 89.375 82.6875 89.601562 84.226562 90.480469 85.433594 C 91.933594 87.429688 94.886719 88.078125 95.964844 90.304688 C 96.910156 92.257812 95.875 94.769531 94.046875 95.9375 C 92.21875 97.105469 89.84375 97.125 87.757812 96.527344 C 86.769531 96.246094 85.804688 95.835938 84.777344 95.75 C 82.230469 95.542969 79.449219 97.328125 77.277344 95.976562 C 76.050781 95.210938 75.53125 93.613281 75.730469 92.179688 C 75.933594 90.75 76.398438 89.050781 78.09375 88.027344 Z M 78.09375 88.027344 " fill-opacity="1" fill-rule="nonzero"/><path fill="#ffffff" d="M 77.203125 70.710938 C 77.433594 72.015625 77.660156 73.34375 77.496094 74.660156 C 77.335938 75.976562 76.722656 77.300781 75.597656 78.007812 C 75.425781 78.117188 75.238281 78.214844 75.035156 78.238281 C 74.757812 78.273438 74.480469 78.171875 74.234375 78.035156 C 73.214844 77.457031 72.703125 76.269531 72.445312 75.125 C 72.191406 74.003906 72.113281 72.847656 72.210938 71.703125 C 72.28125 70.929688 72.4375 70.136719 72.875 69.492188 C 73.3125 68.847656 74.078125 68.378906 74.847656 68.480469 C 75.859375 68.609375 76.976562 69.40625 77.203125 70.710938 Z M 77.203125 70.710938 " fill-opacity="1" fill-rule="nonzero"/><path fill="#ffffff" d="M 88.296875 65.933594 C 88.671875 67.65625 88.535156 69.492188 87.914062 71.140625 C 87.585938 72.003906 87.011719 72.90625 86.101562 73.046875 C 85.300781 73.175781 84.527344 72.644531 84.03125 72 C 82.882812 70.511719 82.777344 68.46875 82.992188 66.601562 C 83.105469 65.597656 83.316406 64.558594 83.949219 63.769531 C 84.585938 62.984375 85.75 62.542969 86.640625 63.015625 C 87.527344 63.488281 87.996094 64.550781 88.296875 65.933594 Z M 88.296875 65.933594 " fill-opacity="1" fill-rule="nonzero"/><path fill="#ffffff" d="M 94.824219 78.09375 C 94.847656 76.691406 94.929688 75.226562 95.617188 74.003906 C 96.304688 72.78125 97.777344 71.882812 99.117188 72.300781 C 99.992188 72.574219 100.644531 73.355469 100.957031 74.21875 C 101.269531 75.082031 101.285156 76.023438 101.222656 76.941406 C 101.152344 77.929688 101 78.914062 100.742188 79.871094 C 100.492188 80.796875 100.128906 81.722656 99.464844 82.414062 C 98.800781 83.105469 97.785156 83.519531 96.863281 83.261719 C 96.035156 83.027344 95.425781 82.292969 95.117188 81.488281 C 94.8125 80.683594 94.792969 79.808594 94.824219 78.09375 Z M 94.824219 78.09375 " fill-opacity="1" fill-rule="nonzero"/><path fill="#000000" d="M 78.574219 43.28125 C 75.800781 43.316406 73.027344 43.121094 70.257812 42.9375 C 70.453125 42.738281 70.648438 42.539062 70.839844 42.332031 C 71.632812 41.460938 72.488281 40.636719 73.132812 39.644531 C 73.304688 39.316406 73.691406 39.019531 73.59375 38.617188 C 73.484375 38.175781 72.839844 38.089844 72.621094 38.492188 C 71.816406 39.738281 70.683594 40.941406 69.472656 42.148438 C 69.492188 41.308594 69.511719 40.472656 69.527344 39.632812 C 69.527344 37.765625 69.730469 35.863281 69.628906 34.011719 C 69.433594 33.476562 68.570312 33.648438 68.589844 34.222656 C 68.535156 36.8125 68.417969 39.410156 68.324219 42.011719 C 68.078125 41.738281 67.832031 41.464844 67.585938 41.1875 C 66.460938 39.957031 65.417969 38.59375 64.226562 37.445312 C 63.726562 37.203125 63.246094 37.914062 63.65625 38.292969 C 64.949219 39.789062 66.230469 41.300781 67.558594 42.773438 C 67.480469 42.765625 67.40625 42.761719 67.328125 42.757812 C 64.414062 42.59375 61.824219 42.1875 59.257812 42.050781 C 58.464844 42.0625 58.453125 43.253906 59.257812 43.269531 C 62.066406 43.472656 64.871094 43.707031 67.683594 43.902344 C 66.140625 45.320312 63.855469 47.035156 63.101562 47.671875 C 62.855469 47.863281 62.546875 48.066406 62.5625 48.414062 C 62.542969 48.96875 63.28125 49.277344 63.664062 48.871094 C 65.1875 47.546875 66.75 46.25 68.242188 44.886719 C 68.1875 47.488281 68.1875 50.085938 68.351562 52.675781 C 68.582031 53.285156 69.535156 53.0625 69.484375 52.414062 C 69.375 49.867188 69.382812 47.320312 69.425781 44.769531 C 69.660156 45.015625 69.902344 45.257812 70.144531 45.5 C 71.195312 46.507812 72.28125 47.886719 73.347656 48.789062 C 73.996094 49.035156 74.371094 48.199219 73.835938 47.792969 C 72.6875 46.519531 71.476562 45.300781 70.28125 44.070312 C 71.75 44.15625 73.21875 44.226562 74.691406 44.265625 C 75.808594 44.316406 76.929688 44.34375 78.046875 44.308594 C 78.34375 44.277344 78.703125 44.378906 78.933594 44.148438 C 79.25 43.847656 79.015625 43.265625 78.574219 43.28125 Z M 78.574219 43.28125 " fill-opacity="1" fill-rule="nonzero"/><path fill="#000000" d="M 45.46875 29.761719 C 44.273438 29.742188 43.082031 29.679688 41.890625 29.617188 C 42.496094 28.980469 43.09375 28.335938 43.695312 27.695312 C 44.023438 27.351562 44.351562 27.011719 44.679688 26.667969 C 44.792969 26.554688 44.855469 26.398438 44.855469 26.242188 C 44.871094 25.726562 44.183594 25.4375 43.828125 25.816406 C 43.03125 26.640625 42.246094 27.472656 41.453125 28.296875 C 41.464844 27.871094 41.480469 27.445312 41.5 27.019531 C 41.527344 26.433594 41.578125 25.851562 41.640625 25.265625 C 41.648438 25.074219 41.726562 24.859375 41.628906 24.679688 C 41.417969 24.09375 40.472656 24.285156 40.496094 24.90625 C 40.34375 26.246094 40.269531 27.589844 40.234375 28.9375 C 39.484375 28.039062 38.71875 27.152344 37.921875 26.285156 C 37.386719 25.753906 36.566406 26.566406 37.101562 27.109375 C 37.828125 27.894531 38.535156 28.699219 39.230469 29.515625 C 38.511719 29.5 37.796875 29.503906 37.082031 29.535156 C 36.164062 29.535156 35.148438 29.507812 35.082031 29.609375 C 34.691406 29.742188 34.59375 30.304688 34.886719 30.582031 C 35.25 30.835938 35.175781 30.734375 35.367188 30.761719 C 35.507812 30.769531 36.101562 30.800781 36.265625 30.792969 C 37.179688 30.753906 38.089844 30.753906 39 30.773438 C 38.046875 31.691406 37.058594 32.582031 36.019531 33.410156 C 35.425781 34.09375 36.414062 34.871094 36.996094 34.183594 C 38.136719 33.300781 39.199219 32.332031 40.222656 31.320312 C 40.226562 32.085938 40.234375 32.847656 40.253906 33.609375 C 40.273438 34.320312 40.292969 35.03125 40.320312 35.742188 C 40.3125 36.058594 40.359375 36.449219 40.707031 36.5625 C 40.972656 36.695312 41.316406 36.566406 41.464844 36.3125 C 41.65625 35.808594 41.484375 35.226562 41.511719 34.695312 C 41.472656 33.851562 41.449219 33.007812 41.433594 32.167969 C 42.351562 33.289062 43.261719 34.414062 44.183594 35.527344 C 44.425781 35.78125 44.875 35.71875 45.046875 35.417969 C 45.242188 34.871094 45.003906 34.867188 44.796875 34.546875 C 43.800781 33.328125 42.820312 32.101562 41.832031 30.878906 C 42.863281 30.925781 43.894531 30.976562 44.925781 31 C 45.257812 30.988281 45.652344 31.097656 45.910156 30.828125 C 46.300781 30.460938 46.007812 29.746094 45.46875 29.761719 Z M 45.46875 29.761719 " fill-opacity="1" fill-rule="nonzero"/><path fill="#000000" d="M 35.410156 30.769531 C 35.390625 30.765625 35.378906 30.765625 35.367188 30.761719 C 35.316406 30.761719 35.320312 30.761719 35.410156 30.769531 Z M 35.410156 30.769531 " fill-opacity="1" fill-rule="nonzero"/><path fill="#000000" d="M 100.757812 6.070312 C 98.988281 6.167969 97.21875 6.222656 95.445312 6.269531 C 95.445312 6.15625 95.441406 6.042969 95.4375 5.925781 C 95.738281 5.609375 96.039062 5.292969 96.351562 4.988281 C 97.011719 4.351562 97.671875 3.722656 98.324219 3.082031 C 98.515625 2.894531 98.765625 2.714844 98.753906 2.421875 C 98.773438 1.925781 98.109375 1.648438 97.769531 2.011719 C 96.988281 2.78125 96.179688 3.523438 95.390625 4.285156 C 95.347656 3.113281 95.285156 1.945312 95.175781 0.777344 C 95.175781 0.046875 94.0625 0.0429688 94.058594 0.777344 C 94.21875 2.304688 94.269531 3.84375 94.300781 5.382812 C 94.1875 5.507812 94.070312 5.632812 93.957031 5.757812 C 93.347656 5.109375 92.734375 4.460938 92.132812 3.800781 C 91.847656 3.488281 91.5625 3.171875 91.277344 2.859375 C 91.179688 2.761719 91.042969 2.703125 90.90625 2.703125 C 90.457031 2.691406 90.210938 3.289062 90.539062 3.597656 C 91.363281 4.515625 92.195312 5.429688 93.03125 6.339844 C 92.84375 6.34375 92.65625 6.347656 92.464844 6.355469 C 91.769531 6.355469 91.074219 6.324219 90.378906 6.261719 C 90.136719 6.257812 89.871094 6.152344 89.644531 6.257812 C 89.277344 6.382812 89.1875 6.910156 89.464844 7.167969 C 89.636719 7.347656 89.886719 7.335938 90.117188 7.359375 C 90.894531 7.421875 91.671875 7.4375 92.449219 7.433594 C 92.183594 7.722656 91.917969 8.011719 91.640625 8.289062 C 91.140625 8.8125 90.632812 9.324219 90.136719 9.851562 C 89.898438 10.070312 89.648438 10.394531 89.824219 10.726562 C 89.925781 11.011719 90.265625 11.160156 90.554688 11.082031 C 90.882812 10.980469 91.046875 10.628906 91.292969 10.40625 C 92.242188 9.441406 93.144531 8.425781 94.050781 7.421875 C 94.152344 7.527344 94.25 7.632812 94.351562 7.738281 C 94.371094 8.648438 94.398438 9.558594 94.460938 10.464844 C 94.582031 10.820312 95.097656 10.914062 95.351562 10.640625 C 95.582031 10.414062 95.503906 10.082031 95.515625 9.792969 C 95.507812 9.515625 95.503906 9.238281 95.5 8.960938 C 95.515625 8.976562 95.53125 8.992188 95.546875 9.011719 C 96.164062 9.65625 96.78125 10.300781 97.394531 10.953125 C 97.496094 11.050781 97.632812 11.109375 97.777344 11.109375 C 98.125 11.117188 98.390625 10.757812 98.296875 10.425781 C 98.175781 10.113281 97.871094 9.914062 97.664062 9.65625 C 96.933594 8.886719 96.199219 8.117188 95.46875 7.351562 C 96.40625 7.3125 97.347656 7.277344 98.289062 7.277344 C 99.113281 7.253906 99.933594 7.207031 100.757812 7.164062 C 100.902344 7.164062 101.042969 7.105469 101.144531 7.003906 C 101.488281 6.679688 101.230469 6.054688 100.757812 6.070312 Z M 100.757812 6.070312 " fill-opacity="1" fill-rule="nonzero"/><path stroke-linecap="butt" transform="matrix(-0.734485, 0.130865, -0.130865, -0.734485, 42.388406, 135.559007)" fill="none" stroke-linejoin="miter" d="M 0.00216561 2.000648 L 6.26213 1.999149 " stroke="#000000" stroke-width="4" stroke-opacity="1" stroke-miterlimit="4"/></svg>