<svg xmlns="http://www.w3.org/2000/svg" xmlns:xlink="http://www.w3.org/1999/xlink" width="246" zoomAndPan="magnify" viewBox="0 0 184.5 189.000001" height="252" preserveAspectRatio="xMidYMid meet" version="1.0"><path fill="#ffffff" d="M 181.210938 152.757812 C 178.179688 138.59375 170.035156 125.898438 160.777344 114.964844 C 149.648438 102.726562 136.046875 92.332031 127.15625 78.21875 C 128.515625 61.347656 123.980469 42.734375 111.65625 30.601562 C 111.8125 20.972656 110.054688 11.355469 107.605469 2.074219 C 107.128906 0.394531 106.109375 0.00390625 104.550781 0.742188 C 95.949219 5.679688 88.390625 12.570312 81.761719 19.902344 C 67.308594 18.796875 52.808594 22.84375 39.582031 28.40625 C 33.679688 25.664062 27.492188 23.671875 21.183594 22.117188 C 11.140625 18.847656 6.003906 20.367188 11.453125 31.453125 C 13.332031 35.699219 17.425781 45.496094 20.957031 48.046875 C 17.820312 64.617188 21.15625 78.445312 27.851562 93.199219 C 25.804688 97.902344 23.582031 102.53125 21.480469 107.210938 C 20.550781 106.328125 19.257812 105.820312 18.175781 105.125 C 17.652344 104.667969 16.460938 104.023438 16.21875 105.050781 C 16.238281 105.75 16.960938 106.507812 17.167969 107.082031 C 17.886719 108.464844 18.507812 109.894531 19.199219 111.289062 C 16.59375 110.484375 13.96875 109.726562 11.332031 109.027344 C 10.976562 108.949219 10.636719 108.800781 10.277344 108.753906 C 9.703125 108.742188 9.4375 109.425781 9.753906 109.867188 C 11.160156 112.019531 12.660156 114.171875 13.882812 116.425781 C 13.941406 116.441406 13.996094 116.457031 14.054688 116.46875 C 14.085938 116.519531 14.117188 116.566406 14.144531 116.613281 C 12.109375 116.277344 10.0625 116.03125 8.007812 115.871094 C 7.390625 115.882812 6.476562 115.492188 6.15625 116.214844 C 6.035156 116.460938 6.105469 116.761719 6.28125 116.960938 C 7.941406 120.648438 10.191406 124.179688 11.953125 127.867188 C 7.929688 138.246094 3.40625 148.707031 2.074219 159.855469 C 0.269531 181.609375 20.796875 182.585938 34.691406 172.054688 C 36.761719 175.703125 38.667969 179.625 40.097656 182.984375 C 40.347656 183.441406 41.054688 183.492188 41.351562 183.066406 C 55.269531 179.667969 70.011719 181.257812 83.714844 185.78125 C 84.472656 185.902344 85.332031 186.625 86.0625 186.210938 C 88.066406 187.523438 91.234375 188.003906 92.992188 186.0625 C 106.222656 176.886719 128.367188 176.132812 144.171875 178.265625 C 144.503906 178.242188 144.734375 177.984375 144.808594 177.683594 C 154.410156 181.925781 166.933594 185.015625 176.011719 178.050781 C 182.460938 171.683594 182.984375 161.1875 181.210938 152.757812 Z M 181.210938 152.757812 " fill-opacity="1" fill-rule="nonzero"/><path fill="#000000" d="M 20.863281 108.5625 C 20.644531 109.054688 20.429688 109.554688 20.210938 110.046875 C 20.496094 110.632812 20.738281 111.210938 20.851562 111.78125 C 30.871094 114.863281 40.476562 119.28125 49.527344 124.539062 C 40.949219 117.644531 30.359375 113.953125 20.867188 108.5625 Z M 127.257812 107.859375 C 108.378906 105.367188 86.535156 111.445312 73.578125 125.976562 C 89.140625 114.550781 108.664062 110.363281 127.6875 110.152344 C 127.601562 109.273438 127.597656 109.027344 127.257812 107.859375 Z M 127.257812 107.859375 C 108.378906 105.367188 86.535156 111.445312 73.578125 125.976562 C 89.140625 114.550781 108.664062 110.363281 127.6875 110.152344 C 127.601562 109.273438 127.597656 109.027344 127.257812 107.859375 Z M 20.863281 108.5625 C 20.644531 109.054688 20.429688 109.554688 20.210938 110.046875 C 20.496094 110.632812 20.738281 111.210938 20.851562 111.78125 C 30.871094 114.863281 40.476562 119.28125 49.527344 124.539062 C 40.949219 117.644531 30.359375 113.953125 20.867188 108.5625 Z M 20.863281 108.5625 C 20.644531 109.054688 20.429688 109.554688 20.210938 110.046875 C 20.496094 110.632812 20.738281 111.210938 20.851562 111.78125 C 30.871094 114.863281 40.476562 119.28125 49.527344 124.539062 C 40.949219 117.644531 30.359375 113.953125 20.867188 108.5625 Z M 127.257812 107.859375 C 108.378906 105.367188 86.535156 111.445312 73.578125 125.976562 C 89.140625 114.550781 108.664062 110.363281 127.6875 110.152344 C 127.601562 109.273438 127.597656 109.027344 127.257812 107.859375 Z M 127.257812 107.859375 C 108.378906 105.367188 86.535156 111.445312 73.578125 125.976562 C 89.140625 114.550781 108.664062 110.363281 127.6875 110.152344 C 127.601562 109.273438 127.597656 109.027344 127.257812 107.859375 Z M 20.316406 109.8125 C 20.28125 109.890625 20.246094 109.96875 20.210938 110.046875 C 20.496094 110.632812 20.738281 111.210938 20.851562 111.78125 C 30.871094 114.863281 40.476562 119.28125 49.527344 124.539062 C 40.949219 117.644531 30.359375 113.953125 20.867188 108.5625 C 20.679688 108.976562 20.496094 109.394531 20.316406 109.8125 Z M 181.210938 152.757812 C 178.179688 138.59375 170.035156 125.898438 160.777344 114.964844 C 149.648438 102.726562 136.046875 92.332031 127.15625 78.21875 C 128.515625 61.347656 123.980469 42.734375 111.65625 30.601562 C 111.8125 20.972656 110.054688 11.355469 107.605469 2.074219 C 107.132812 0.394531 106.109375 0.00390625 104.550781 0.742188 C 95.949219 5.679688 88.390625 12.566406 81.761719 19.902344 C 67.308594 18.796875 52.808594 22.84375 39.582031 28.40625 C 33.679688 25.664062 27.496094 23.671875 21.183594 22.117188 C 11.054688 18.894531 6.035156 20.246094 11.449219 31.453125 C 13.332031 35.695312 17.429688 45.5 20.957031 48.046875 C 17.820312 64.617188 21.160156 78.445312 27.851562 93.199219 C 25.828125 97.851562 23.625 102.425781 21.539062 107.054688 C 21.222656 106.335938 20.273438 106.136719 19.683594 105.667969 C 18.824219 105.152344 17.941406 104.679688 17.082031 104.160156 C 16.617188 103.789062 15.800781 103.839844 15.71875 104.53125 C 15.664062 104.800781 15.824219 105.046875 15.972656 105.257812 C 16.980469 107.144531 17.984375 109.03125 18.921875 110.953125 C 16.328125 109.910156 13.550781 109.328125 10.867188 108.546875 C 10.515625 108.46875 10.171875 108.324219 9.8125 108.277344 C 9.242188 108.265625 8.972656 108.949219 9.289062 109.390625 C 10.164062 110.78125 11.125 112.117188 12.007812 113.503906 C 12.679688 114.519531 13.300781 115.566406 13.972656 116.582031 C 11.992188 116.261719 10.003906 116.027344 8.007812 115.871094 C 7.390625 115.882812 6.476562 115.492188 6.15625 116.214844 C 6.035156 116.460938 6.105469 116.761719 6.285156 116.960938 C 7.941406 120.648438 10.191406 124.179688 11.953125 127.867188 C 7.929688 138.246094 3.410156 148.707031 2.074219 159.855469 C 0.265625 181.613281 20.796875 182.582031 34.691406 172.054688 C 36.761719 175.699219 38.671875 179.628906 40.097656 182.984375 C 40.347656 183.441406 41.054688 183.492188 41.351562 183.066406 C 55.269531 179.667969 70.011719 181.257812 83.714844 185.78125 C 84.472656 185.90625 85.320312 186.609375 86.0625 186.21875 C 88.070312 187.53125 91.246094 188 93.003906 186.054688 C 106.234375 176.886719 128.371094 176.136719 144.171875 178.265625 C 144.5 178.242188 144.730469 177.992188 144.808594 177.695312 C 154.417969 181.921875 166.933594 185.015625 176.007812 178.050781 C 182.460938 171.683594 182.984375 161.1875 181.210938 152.757812 Z M 84.996094 46.660156 C 103.199219 44.574219 105.839844 64.980469 87.703125 67.601562 C 69.5 69.6875 66.859375 49.277344 84.996094 46.660156 Z M 61.925781 68.773438 C 62.257812 67.964844 63.425781 68.117188 64.136719 67.894531 C 65.535156 67.699219 66.382812 67.246094 67.660156 67.675781 C 68.632812 68.382812 67.519531 69.449219 66.945312 70.019531 C 66.390625 70.515625 65.867188 71.222656 65.082031 71.304688 C 64.335938 71.3125 63.699219 70.820312 63.1875 70.324219 C 62.457031 69.941406 61.753906 69.40625 61.925781 68.773438 Z M 42.992188 54.511719 C 59.003906 52.6875 61.417969 71.363281 45.472656 73.671875 C 29.464844 75.5 27.050781 56.824219 42.992188 54.511719 Z M 11.292969 110.058594 C 13.59375 110.804688 16.027344 111.324219 18.316406 112.132812 C 18.921875 112.300781 19.28125 111.679688 19.121094 111.226562 C 19.238281 111.347656 19.429688 111.429688 19.601562 111.40625 C 19.75 111.082031 19.894531 110.757812 20.039062 110.429688 C 19.429688 109.203125 18.640625 107.632812 17.980469 106.308594 C 18.988281 106.898438 19.984375 107.496094 20.300781 107.734375 C 20.550781 108 20.910156 108.003906 21.179688 107.855469 C 21.277344 107.640625 21.371094 107.429688 21.464844 107.21875 C 36.773438 114.597656 52.003906 122.320312 64.117188 134.546875 C 71.28125 127.03125 77.523438 118.246094 87.160156 113.625 C 98.996094 107.640625 112.710938 104.714844 125.941406 106.164062 C 126.675781 106.382812 127.851562 106.152344 128.253906 106.925781 C 129.027344 107.289062 129 109.453125 129.183594 110.125 C 130.113281 110.242188 133.859375 109.796875 133.699219 111.125 C 134.273438 112.605469 134.824219 114.097656 135.226562 115.636719 C 135.46875 116.554688 134.074219 116.941406 133.816406 116.023438 C 133.460938 114.765625 132.824219 112.835938 132.511719 111.894531 C 107.488281 110.648438 81.210938 118.132812 63.339844 136.710938 C 62.558594 137.171875 62.015625 136.199219 61.453125 135.789062 C 49.53125 124.425781 34.613281 117.683594 18.992188 112.746094 C 18.363281 114.199219 17.636719 115.609375 17.078125 117.101562 C 16.519531 117 15.960938 116.90625 15.40625 116.816406 C 15.476562 116.535156 15.320312 116.222656 15.128906 115.988281 C 13.898438 113.980469 12.640625 111.992188 11.292969 110.058594 Z M 82.039062 183.738281 C 68.828125 179.75 54.628906 178.273438 41.105469 181.570312 C 39.492188 178.058594 37.902344 174.46875 35.878906 171.179688 C 42.710938 166.382812 60.53125 147.941406 43.929688 144.839844 C 37.175781 144.945312 31.722656 149.839844 25.792969 152.511719 C 20.207031 140.648438 14.652344 128.730469 8.242188 117.285156 C 25.96875 119.292969 43.5625 124.925781 57.816406 135.640625 C 66.457031 151.96875 75.875 167.875 84.164062 184.375 C 83.460938 184.152344 82.753906 183.9375 82.039062 183.738281 Z M 90.367188 185.699219 C 88.328125 185.960938 86.4375 184.863281 85.488281 183.550781 C 77.257812 167.9375 68.398438 152.660156 60.175781 137.03125 C 62.257812 137.664062 64.800781 137.574219 66.40625 135.933594 C 75.78125 151.628906 84.34375 167.972656 92.089844 184.558594 C 91.527344 185.4375 91.132812 185.550781 90.367188 185.699219 Z M 146.109375 148.246094 C 138.804688 148.324219 132.144531 148.066406 124.824219 146.8125 C 119.03125 145.570312 110.296875 147.992188 112.847656 155.527344 C 117.820312 166.089844 131.625 171.15625 141.488281 176.289062 C 125.472656 174.652344 107.78125 175.425781 93.644531 183.867188 C 85.613281 167.175781 77.117188 150.601562 67.449219 134.808594 C 84.296875 118.511719 115.96875 116.222656 138.726562 117.113281 C 142.355469 127.3125 144.730469 137.898438 147.84375 148.253906 C 147.265625 148.25 146.6875 148.246094 146.109375 148.246094 Z M 127.6875 110.152344 C 127.601562 109.273438 127.597656 109.027344 127.257812 107.859375 C 108.378906 105.367188 86.535156 111.445312 73.578125 125.976562 C 89.140625 114.550781 108.664062 110.363281 127.6875 110.152344 Z M 42.691406 120.839844 C 45.042969 121.945312 47.324219 123.183594 49.527344 124.539062 C 40.949219 117.644531 30.359375 113.953125 20.867188 108.5625 C 20.644531 109.054688 20.429688 109.554688 20.210938 110.046875 C 20.496094 110.632812 20.738281 111.210938 20.851562 111.78125 C 28.414062 114.078125 35.691406 117.179688 42.691406 120.839844 Z M 20.863281 108.5625 C 20.644531 109.054688 20.429688 109.554688 20.210938 110.046875 C 20.496094 110.632812 20.738281 111.210938 20.851562 111.78125 C 30.871094 114.863281 40.476562 119.28125 49.527344 124.539062 C 40.949219 117.644531 30.359375 113.953125 20.867188 108.5625 Z M 127.257812 107.859375 C 108.378906 105.367188 86.535156 111.445312 73.578125 125.976562 C 89.140625 114.550781 108.664062 110.363281 127.6875 110.152344 C 127.601562 109.273438 127.597656 109.027344 127.257812 107.859375 Z M 127.257812 107.859375 C 108.378906 105.367188 86.535156 111.445312 73.578125 125.976562 C 89.140625 114.550781 108.664062 110.363281 127.6875 110.152344 C 127.601562 109.273438 127.597656 109.027344 127.257812 107.859375 Z M 20.863281 108.5625 C 20.644531 109.054688 20.429688 109.554688 20.210938 110.046875 C 20.496094 110.632812 20.738281 111.210938 20.851562 111.78125 C 30.871094 114.863281 40.476562 119.28125 49.527344 124.539062 C 40.949219 117.644531 30.359375 113.953125 20.867188 108.5625 Z M 20.863281 108.5625 C 20.644531 109.054688 20.429688 109.554688 20.210938 110.046875 C 20.496094 110.632812 20.738281 111.210938 20.851562 111.78125 C 30.871094 114.863281 40.476562 119.28125 49.527344 124.539062 C 40.949219 117.644531 30.359375 113.953125 20.867188 108.5625 Z M 127.257812 107.859375 C 108.378906 105.367188 86.535156 111.445312 73.578125 125.976562 C 89.140625 114.550781 108.664062 110.363281 127.6875 110.152344 C 127.601562 109.273438 127.597656 109.027344 127.257812 107.859375 Z M 127.257812 107.859375 C 108.378906 105.367188 86.535156 111.445312 73.578125 125.976562 C 89.140625 114.550781 108.664062 110.363281 127.6875 110.152344 C 127.601562 109.273438 127.597656 109.027344 127.257812 107.859375 Z M 20.863281 108.5625 C 20.644531 109.054688 20.429688 109.554688 20.210938 110.046875 C 20.496094 110.632812 20.738281 111.210938 20.851562 111.78125 C 30.871094 114.863281 40.476562 119.28125 49.527344 124.539062 C 40.949219 117.644531 30.359375 113.953125 20.867188 108.5625 Z M 20.863281 108.5625 " fill-opacity="1" fill-rule="nonzero"/><path fill="#000000" d="M 45.582031 72.574219 C 45.015625 70.625 44.449219 68.664062 44.121094 66.660156 C 43.886719 65.789062 42.558594 65.964844 42.566406 66.871094 C 42.75 68.546875 43.144531 70.1875 43.589844 71.8125 C 43.824219 72.402344 43.789062 73.21875 44.351562 73.605469 C 45.007812 74.015625 45.867188 73.292969 45.582031 72.574219 Z M 45.582031 72.574219 " fill-opacity="1" fill-rule="nonzero"/><path fill="#000000" d="M 89.078125 66.402344 C 88.703125 64.621094 88.40625 62.828125 88.0625 61.039062 C 87.898438 60.445312 87.945312 59.75 87.628906 59.222656 C 87.128906 58.511719 85.96875 59.097656 86.214844 59.925781 C 86.527344 61.746094 86.804688 63.570312 87.144531 65.382812 C 87.355469 66.03125 87.207031 66.941406 87.824219 67.363281 C 88.453125 67.757812 89.296875 67.109375 89.078125 66.402344 Z M 89.078125 66.402344 " fill-opacity="1" fill-rule="nonzero"/><path fill="#ffffff" d="M 28.839844 33.832031 C 28.726562 33.382812 28.28125 33.246094 27.90625 33.066406 C 24.335938 31.371094 20.992188 29.246094 17.65625 27.136719 C 16.480469 26.390625 15.332031 25.605469 14.167969 24.835938 C 13.816406 24.628906 13.46875 24.265625 13.023438 24.398438 C 12.398438 24.550781 12.273438 25.46875 12.84375 25.78125 C 17.671875 29.09375 22.53125 32.546875 27.90625 34.898438 C 28.484375 35.019531 29.011719 34.386719 28.839844 33.832031 Z M 28.839844 33.832031 " fill-opacity="1" fill-rule="nonzero"/><path fill="#ffffff" d="M 105.113281 6.699219 C 104.953125 6.046875 103.996094 5.917969 103.671875 6.511719 C 100.707031 11.398438 97.882812 15.148438 93.8125 19.183594 C 93.515625 19.492188 93.074219 19.757812 93.089844 20.238281 C 93.066406 20.96875 94.042969 21.378906 94.546875 20.839844 C 97.996094 17.5625 100.972656 13.804688 103.527344 9.796875 C 104.050781 8.980469 104.546875 8.144531 105.03125 7.308594 C 105.140625 7.125 105.167969 6.902344 105.113281 6.699219 Z M 105.113281 6.699219 " fill-opacity="1" fill-rule="nonzero"/><path fill="#ffffff" d="M 21.179688 107.855469 C 21.128906 107.972656 21.074219 108.089844 21.023438 108.207031 C 21.078125 108.089844 21.128906 107.96875 21.183594 107.851562 C 21.179688 107.851562 21.179688 107.855469 21.179688 107.855469 Z M 15.75 116.871094 C 15.691406 116.863281 15.636719 116.851562 15.578125 116.84375 C 15.640625 116.855469 15.699219 116.871094 15.761719 116.886719 C 15.757812 116.882812 15.753906 116.875 15.75 116.871094 Z M 15.75 116.871094 " fill-opacity="1" fill-rule="nonzero"/><path stroke-linecap="butt" transform="matrix(-0.604414, 0.437353, -0.437353, -0.604414, 121.797815, 88.401743)" fill="none" stroke-linejoin="miter" d="M 0.000153743 2.002607 L 31.147723 1.998464 " stroke="#000000" stroke-width="4" stroke-opacity="1" stroke-miterlimit="4"/></svg>