<svg xmlns="http://www.w3.org/2000/svg" xmlns:xlink="http://www.w3.org/1999/xlink" width="297" zoomAndPan="magnify" viewBox="0 0 222.75 189.000001" height="252" preserveAspectRatio="xMidYMid meet" version="1.0"><defs><clipPath id="c8a3fc986d"><path d="M 19 0 L 208 0 L 208 188.003906 L 19 188.003906 Z M 19 0 " clip-rule="nonzero"/></clipPath><clipPath id="976d702083"><path d="M 0.460938 92 L 44 92 L 44 134 L 0.460938 134 Z M 0.460938 92 " clip-rule="nonzero"/></clipPath><clipPath id="b97a486024"><path d="M 178 44 L 222.039062 44 L 222.039062 87 L 178 87 Z M 178 44 " clip-rule="nonzero"/></clipPath><clipPath id="c2328dad27"><path d="M 0.460938 100 L 37 100 L 37 135 L 0.460938 135 Z M 0.460938 100 " clip-rule="nonzero"/></clipPath></defs><g clip-path="url(#c8a3fc986d)"><path fill="#231f20" d="M 205.96875 188.007812 L 20.4375 188.007812 C 19.6875 188.007812 19.078125 187.398438 19.078125 186.648438 L 19.078125 1.363281 C 19.078125 0.613281 19.6875 0.0078125 20.4375 0.0078125 L 205.96875 0.0078125 C 206.71875 0.0078125 207.324219 0.613281 207.324219 1.363281 L 207.324219 186.648438 C 207.324219 187.398438 206.71875 188.003906 205.96875 188.003906 Z M 21.792969 185.292969 L 204.609375 185.292969 L 204.609375 2.71875 L 21.792969 2.71875 Z M 21.792969 185.292969 " fill-opacity="1" fill-rule="nonzero"/></g><g clip-path="url(#976d702083)"><path fill="#ffffff" d="M 41.464844 108.1875 C 40.445312 107 39.046875 106.242188 37.445312 105.980469 C 37.617188 105.238281 37.699219 104.484375 37.691406 103.75 C 37.652344 101.277344 36.566406 99.144531 34.699219 97.898438 C 33.628906 97.179688 32.351562 96.800781 31.019531 96.800781 C 28.851562 96.800781 26.640625 97.804688 24.890625 99.515625 C 24.398438 95.507812 21.746094 92.4375 18.214844 92.144531 C 18.042969 92.132812 17.863281 92.125 17.691406 92.125 C 14.859375 92.125 12.375 93.964844 11.027344 96.765625 C 9.992188 96.183594 8.859375 95.875 7.703125 95.875 C 7.304688 95.875 6.902344 95.914062 6.507812 95.988281 C 4.304688 96.40625 2.464844 97.941406 1.460938 100.203125 C 0.660156 102.011719 0.441406 104.183594 0.847656 106.316406 C 1.222656 108.289062 2.074219 110.054688 3.316406 111.421875 C 3.390625 111.503906 3.46875 111.585938 3.546875 111.664062 C 2.292969 112.871094 1.371094 114.378906 0.867188 116.058594 C 0.140625 118.507812 0.398438 121.148438 1.605469 123.496094 C 2.804688 125.839844 4.796875 127.59375 7.210938 128.4375 C 8.285156 128.8125 9.40625 129.003906 10.539062 129.003906 C 11.671875 129.003906 12.742188 128.824219 13.792969 128.464844 C 13.984375 128.4375 14.164062 128.421875 14.335938 128.421875 C 14.890625 128.421875 15.503906 128.539062 16.238281 129.316406 C 17.453125 131.210938 19.273438 132.648438 21.40625 133.390625 C 22.472656 133.761719 23.585938 133.949219 24.714844 133.949219 C 26.703125 133.949219 28.636719 133.371094 30.300781 132.269531 C 32.015625 131.140625 33.320312 129.542969 34.085938 127.648438 C 34.800781 125.878906 34.980469 123.988281 34.675781 122.183594 C 36.363281 121.835938 38.039062 121.007812 39.457031 119.789062 C 41.105469 118.371094 42.289062 116.535156 42.789062 114.621094 C 43.414062 112.230469 42.933594 109.882812 41.46875 108.1875 Z M 41.464844 108.1875 " fill-opacity="1" fill-rule="nonzero"/></g><path fill="#000000" d="M 29.152344 119.519531 C 28.125 118.480469 27.480469 117.132812 27.320312 115.683594 C 27.078125 113.519531 25.972656 110.53125 21.929688 109.121094 C 18.203125 107.820312 15.535156 109.226562 13.929688 110.679688 C 12.691406 111.804688 11.144531 112.527344 9.492188 112.8125 C 7.25 113.195312 5.285156 114.800781 4.582031 117.164062 C 3.667969 120.242188 5.453125 123.71875 8.488281 124.78125 C 9.941406 125.289062 11.457031 125.222656 12.789062 124.707031 C 15.429688 124.191406 17.621094 124.953125 19.363281 127 C 20.082031 128.234375 21.226562 129.226562 22.683594 129.734375 C 25.796875 130.816406 29.253906 129.253906 30.488281 126.203125 C 31.449219 123.816406 30.824219 121.21875 29.152344 119.519531 Z M 29.152344 119.519531 " fill-opacity="1" fill-rule="nonzero"/><path fill="#000000" d="M 11.742188 104.253906 C 11.804688 104.589844 11.847656 104.925781 11.863281 105.265625 C 11.882812 105.605469 11.875 105.9375 11.84375 106.265625 C 11.816406 106.59375 11.761719 106.910156 11.6875 107.214844 C 11.609375 107.519531 11.511719 107.808594 11.390625 108.078125 C 11.273438 108.34375 11.132812 108.59375 10.976562 108.816406 C 10.816406 109.039062 10.644531 109.234375 10.453125 109.40625 C 10.261719 109.574219 10.058594 109.714844 9.84375 109.824219 C 9.628906 109.933594 9.402344 110.007812 9.171875 110.054688 C 8.9375 110.097656 8.699219 110.109375 8.460938 110.085938 C 8.21875 110.0625 7.976562 110.007812 7.738281 109.921875 C 7.5 109.832031 7.265625 109.710938 7.035156 109.5625 C 6.804688 109.410156 6.585938 109.234375 6.378906 109.027344 C 6.167969 108.820312 5.972656 108.589844 5.789062 108.332031 C 5.605469 108.078125 5.441406 107.800781 5.292969 107.507812 C 5.144531 107.214844 5.015625 106.90625 4.90625 106.585938 C 4.800781 106.261719 4.714844 105.933594 4.648438 105.597656 C 4.585938 105.261719 4.546875 104.921875 4.527344 104.582031 C 4.511719 104.246094 4.515625 103.910156 4.546875 103.582031 C 4.578125 103.253906 4.628906 102.9375 4.707031 102.632812 C 4.78125 102.328125 4.878906 102.042969 5 101.773438 C 5.117188 101.503906 5.257812 101.257812 5.414062 101.035156 C 5.574219 100.808594 5.75 100.613281 5.9375 100.445312 C 6.128906 100.273438 6.332031 100.136719 6.546875 100.027344 C 6.765625 99.917969 6.988281 99.839844 7.222656 99.796875 C 7.453125 99.753906 7.691406 99.742188 7.933594 99.765625 C 8.171875 99.785156 8.414062 99.839844 8.652344 99.929688 C 8.894531 100.019531 9.128906 100.136719 9.355469 100.289062 C 9.585938 100.4375 9.804688 100.617188 10.015625 100.824219 C 10.226562 101.03125 10.421875 101.261719 10.601562 101.515625 C 10.785156 101.773438 10.953125 102.046875 11.097656 102.339844 C 11.246094 102.636719 11.375 102.945312 11.484375 103.265625 C 11.59375 103.585938 11.679688 103.917969 11.742188 104.253906 Z M 11.742188 104.253906 " fill-opacity="1" fill-rule="nonzero"/><path fill="#000000" d="M 17.894531 96.003906 C 18.132812 96.023438 18.363281 96.074219 18.589844 96.160156 C 18.816406 96.246094 19.03125 96.363281 19.238281 96.511719 C 19.445312 96.660156 19.640625 96.839844 19.820312 97.042969 C 20.003906 97.25 20.167969 97.480469 20.3125 97.734375 C 20.460938 97.992188 20.589844 98.265625 20.695312 98.5625 C 20.804688 98.855469 20.890625 99.164062 20.953125 99.488281 C 21.019531 99.808594 21.058594 100.140625 21.078125 100.480469 C 21.097656 100.820312 21.09375 101.160156 21.0625 101.5 C 21.035156 101.84375 20.984375 102.179688 20.910156 102.511719 C 20.835938 102.839844 20.742188 103.160156 20.625 103.46875 C 20.511719 103.777344 20.375 104.066406 20.21875 104.339844 C 20.066406 104.613281 19.894531 104.863281 19.707031 105.09375 C 19.519531 105.320312 19.320312 105.523438 19.109375 105.695312 C 18.898438 105.867188 18.675781 106.011719 18.449219 106.125 C 18.21875 106.238281 17.984375 106.316406 17.75 106.367188 C 17.511719 106.414062 17.273438 106.425781 17.039062 106.40625 C 16.800781 106.386719 16.570312 106.335938 16.34375 106.25 C 16.117188 106.164062 15.902344 106.046875 15.695312 105.898438 C 15.488281 105.75 15.292969 105.574219 15.113281 105.367188 C 14.929688 105.160156 14.765625 104.929688 14.621094 104.675781 C 14.472656 104.421875 14.347656 104.144531 14.238281 103.851562 C 14.128906 103.554688 14.042969 103.246094 13.980469 102.921875 C 13.914062 102.601562 13.875 102.269531 13.855469 101.929688 C 13.835938 101.59375 13.839844 101.25 13.871094 100.910156 C 13.898438 100.570312 13.949219 100.230469 14.023438 99.902344 C 14.097656 99.570312 14.191406 99.25 14.308594 98.941406 C 14.421875 98.632812 14.558594 98.34375 14.714844 98.070312 C 14.867188 97.796875 15.039062 97.546875 15.226562 97.316406 C 15.414062 97.089844 15.613281 96.890625 15.824219 96.714844 C 16.035156 96.542969 16.257812 96.398438 16.484375 96.285156 C 16.714844 96.171875 16.949219 96.09375 17.183594 96.046875 C 17.421875 95.996094 17.660156 95.984375 17.894531 96.003906 Z M 17.894531 96.003906 " fill-opacity="1" fill-rule="nonzero"/><path fill="#000000" d="M 38.523438 110.71875 C 38.679688 110.898438 38.804688 111.097656 38.90625 111.316406 C 39.007812 111.539062 39.078125 111.773438 39.125 112.023438 C 39.167969 112.277344 39.179688 112.539062 39.164062 112.8125 C 39.148438 113.085938 39.105469 113.363281 39.027344 113.648438 C 38.953125 113.933594 38.851562 114.21875 38.722656 114.503906 C 38.59375 114.789062 38.4375 115.070312 38.253906 115.347656 C 38.074219 115.621094 37.871094 115.886719 37.644531 116.140625 C 37.421875 116.394531 37.179688 116.632812 36.917969 116.859375 C 36.660156 117.082031 36.386719 117.285156 36.101562 117.46875 C 35.816406 117.65625 35.523438 117.816406 35.222656 117.953125 C 34.925781 118.09375 34.625 118.203125 34.320312 118.289062 C 34.019531 118.375 33.722656 118.4375 33.429688 118.46875 C 33.136719 118.5 32.851562 118.5 32.578125 118.476562 C 32.304688 118.453125 32.046875 118.398438 31.804688 118.320312 C 31.5625 118.238281 31.339844 118.132812 31.136719 118 C 30.9375 117.867188 30.757812 117.710938 30.601562 117.535156 C 30.449219 117.355469 30.320312 117.15625 30.21875 116.933594 C 30.117188 116.714844 30.046875 116.480469 30.003906 116.230469 C 29.960938 115.976562 29.945312 115.714844 29.960938 115.441406 C 29.976562 115.167969 30.023438 114.890625 30.097656 114.605469 C 30.171875 114.320312 30.273438 114.035156 30.402344 113.746094 C 30.535156 113.460938 30.691406 113.183594 30.871094 112.90625 C 31.050781 112.632812 31.253906 112.367188 31.480469 112.113281 C 31.703125 111.859375 31.945312 111.617188 32.207031 111.394531 C 32.46875 111.171875 32.738281 110.96875 33.023438 110.78125 C 33.308594 110.597656 33.601562 110.4375 33.902344 110.300781 C 34.199219 110.160156 34.5 110.050781 34.804688 109.960938 C 35.105469 109.875 35.402344 109.816406 35.695312 109.785156 C 35.992188 109.753906 36.273438 109.75 36.546875 109.777344 C 36.820312 109.800781 37.078125 109.855469 37.320312 109.933594 C 37.5625 110.015625 37.785156 110.121094 37.988281 110.253906 C 38.191406 110.382812 38.367188 110.539062 38.523438 110.71875 Z M 38.523438 110.71875 " fill-opacity="1" fill-rule="nonzero"/><path fill="#000000" d="M 32.542969 101.109375 C 32.738281 101.242188 32.914062 101.402344 33.070312 101.585938 C 33.226562 101.769531 33.359375 101.976562 33.46875 102.207031 C 33.578125 102.4375 33.660156 102.6875 33.71875 102.957031 C 33.777344 103.222656 33.808594 103.503906 33.8125 103.800781 C 33.816406 104.09375 33.792969 104.394531 33.742188 104.707031 C 33.695312 105.015625 33.617188 105.328125 33.519531 105.640625 C 33.417969 105.953125 33.292969 106.265625 33.144531 106.570312 C 32.992188 106.875 32.824219 107.167969 32.632812 107.453125 C 32.441406 107.738281 32.234375 108.007812 32.007812 108.261719 C 31.78125 108.515625 31.542969 108.75 31.292969 108.960938 C 31.039062 109.171875 30.78125 109.363281 30.511719 109.523438 C 30.242188 109.6875 29.972656 109.824219 29.699219 109.933594 C 29.425781 110.042969 29.152344 110.121094 28.882812 110.167969 C 28.613281 110.21875 28.351562 110.234375 28.09375 110.222656 C 27.839844 110.210938 27.597656 110.167969 27.367188 110.09375 C 27.136719 110.019531 26.921875 109.917969 26.726562 109.785156 C 26.527344 109.652344 26.351562 109.496094 26.195312 109.308594 C 26.039062 109.125 25.910156 108.917969 25.800781 108.6875 C 25.691406 108.457031 25.605469 108.207031 25.550781 107.941406 C 25.492188 107.671875 25.460938 107.390625 25.457031 107.097656 C 25.453125 106.800781 25.476562 106.5 25.523438 106.191406 C 25.574219 105.878906 25.648438 105.566406 25.75 105.253906 C 25.851562 104.941406 25.976562 104.632812 26.125 104.328125 C 26.273438 104.023438 26.445312 103.726562 26.636719 103.441406 C 26.824219 103.15625 27.035156 102.886719 27.261719 102.632812 C 27.484375 102.382812 27.726562 102.148438 27.976562 101.933594 C 28.226562 101.722656 28.488281 101.535156 28.757812 101.371094 C 29.023438 101.207031 29.296875 101.070312 29.570312 100.960938 C 29.84375 100.855469 30.117188 100.777344 30.386719 100.726562 C 30.65625 100.679688 30.917969 100.660156 31.171875 100.671875 C 31.429688 100.6875 31.671875 100.730469 31.902344 100.804688 C 32.132812 100.875 32.34375 100.980469 32.542969 101.109375 Z M 32.542969 101.109375 " fill-opacity="1" fill-rule="nonzero"/><g clip-path="url(#b97a486024)"><path fill="#ffffff" d="M 213.636719 47.1875 C 212.082031 47.007812 210.535156 47.394531 209.183594 48.285156 C 208.804688 47.621094 208.355469 47.011719 207.851562 46.476562 C 206.148438 44.679688 203.902344 43.847656 201.683594 44.1875 C 200.40625 44.386719 199.210938 44.96875 198.230469 45.871094 C 196.636719 47.335938 195.691406 49.570312 195.558594 52.011719 C 192.480469 49.394531 188.449219 48.925781 185.652344 51.097656 C 185.515625 51.207031 185.378906 51.320312 185.25 51.4375 C 183.167969 53.351562 182.582031 56.386719 183.488281 59.355469 C 182.332031 59.632812 181.292969 60.171875 180.441406 60.953125 C 180.148438 61.222656 179.875 61.523438 179.636719 61.84375 C 178.296875 63.640625 177.984375 66.015625 178.78125 68.355469 C 179.414062 70.230469 180.726562 71.972656 182.472656 73.273438 C 184.082031 74.46875 185.90625 75.191406 187.75 75.359375 C 187.859375 75.371094 187.972656 75.378906 188.082031 75.382812 C 187.976562 77.117188 188.320312 78.851562 189.089844 80.429688 C 190.210938 82.722656 192.195312 84.492188 194.671875 85.402344 C 197.144531 86.316406 199.800781 86.261719 202.148438 85.253906 C 203.195312 84.800781 204.148438 84.183594 204.980469 83.417969 C 205.800781 82.667969 206.480469 81.792969 207.011719 80.820312 C 207.132812 80.671875 207.257812 80.539062 207.382812 80.425781 C 207.789062 80.050781 208.320312 79.71875 209.390625 79.796875 C 211.566406 80.367188 213.882812 80.195312 215.953125 79.300781 C 216.992188 78.851562 217.9375 78.238281 218.769531 77.476562 C 220.230469 76.132812 221.261719 74.398438 221.742188 72.464844 C 222.234375 70.476562 222.117188 68.414062 221.394531 66.503906 C 220.71875 64.714844 219.570312 63.203125 218.121094 62.082031 C 219.128906 60.6875 219.800781 58.941406 220.019531 57.085938 C 220.269531 54.929688 219.898438 52.777344 218.96875 51.03125 C 217.808594 48.847656 215.863281 47.449219 213.636719 47.1875 Z M 213.636719 47.1875 " fill-opacity="1" fill-rule="nonzero"/></g><path fill="#000000" d="M 212.253906 63.855469 C 210.792969 63.785156 209.40625 63.230469 208.304688 62.273438 C 206.660156 60.839844 203.820312 59.386719 199.890625 61.082031 C 196.265625 62.644531 195.253906 65.480469 195.058594 67.640625 C 194.90625 69.304688 194.257812 70.882812 193.234375 72.207031 C 191.84375 74.007812 191.488281 76.515625 192.570312 78.730469 C 193.984375 81.613281 197.65625 82.96875 200.609375 81.695312 C 202.023438 81.085938 203.09375 80.015625 203.722656 78.734375 C 205.316406 76.566406 207.449219 75.648438 210.117188 75.976562 C 211.480469 76.398438 213 76.355469 214.414062 75.746094 C 217.4375 74.4375 218.925781 70.953125 217.761719 67.871094 C 216.855469 65.464844 214.632812 63.972656 212.25 63.855469 Z M 212.253906 63.855469 " fill-opacity="1" fill-rule="nonzero"/><path fill="#000000" d="M 189.085938 64.367188 C 189.359375 64.570312 189.621094 64.792969 189.863281 65.03125 C 190.105469 65.265625 190.328125 65.515625 190.527344 65.777344 C 190.726562 66.039062 190.902344 66.308594 191.050781 66.585938 C 191.203125 66.859375 191.324219 67.136719 191.421875 67.417969 C 191.515625 67.695312 191.578125 67.96875 191.613281 68.242188 C 191.648438 68.511719 191.65625 68.777344 191.628906 69.03125 C 191.605469 69.285156 191.550781 69.523438 191.464844 69.75 C 191.378906 69.976562 191.265625 70.183594 191.125 70.375 C 190.984375 70.5625 190.816406 70.730469 190.625 70.878906 C 190.429688 71.023438 190.21875 71.144531 189.980469 71.242188 C 189.746094 71.339844 189.492188 71.410156 189.222656 71.457031 C 188.949219 71.5 188.667969 71.515625 188.371094 71.507812 C 188.078125 71.496094 187.777344 71.457031 187.46875 71.394531 C 187.160156 71.328125 186.855469 71.238281 186.546875 71.121094 C 186.238281 71.007812 185.933594 70.867188 185.636719 70.703125 C 185.339844 70.539062 185.050781 70.355469 184.777344 70.148438 C 184.5 69.945312 184.242188 69.722656 184 69.488281 C 183.757812 69.25 183.535156 69 183.335938 68.738281 C 183.136719 68.476562 182.960938 68.207031 182.808594 67.929688 C 182.660156 67.65625 182.539062 67.378906 182.441406 67.101562 C 182.347656 66.820312 182.28125 66.546875 182.246094 66.273438 C 182.210938 66.003906 182.207031 65.738281 182.234375 65.484375 C 182.257812 65.230469 182.3125 64.992188 182.398438 64.765625 C 182.484375 64.539062 182.597656 64.332031 182.738281 64.140625 C 182.878906 63.953125 183.046875 63.785156 183.238281 63.636719 C 183.429688 63.492188 183.644531 63.371094 183.882812 63.273438 C 184.117188 63.175781 184.371094 63.105469 184.640625 63.058594 C 184.914062 63.015625 185.195312 63 185.488281 63.007812 C 185.785156 63.019531 186.085938 63.058594 186.394531 63.121094 C 186.699219 63.1875 187.007812 63.277344 187.316406 63.394531 C 187.625 63.511719 187.929688 63.648438 188.226562 63.8125 C 188.523438 63.976562 188.808594 64.160156 189.085938 64.367188 Z M 189.085938 64.367188 " fill-opacity="1" fill-rule="nonzero"/><path fill="#000000" d="M 194.089844 56.0625 C 194.300781 56.332031 194.492188 56.617188 194.664062 56.910156 C 194.832031 57.203125 194.980469 57.503906 195.101562 57.808594 C 195.226562 58.113281 195.324219 58.417969 195.394531 58.726562 C 195.464844 59.03125 195.511719 59.332031 195.527344 59.625 C 195.542969 59.917969 195.53125 60.199219 195.496094 60.472656 C 195.457031 60.742188 195.390625 60.996094 195.300781 61.234375 C 195.207031 61.472656 195.089844 61.691406 194.949219 61.886719 C 194.804688 62.082031 194.640625 62.25 194.453125 62.398438 C 194.265625 62.542969 194.0625 62.660156 193.835938 62.75 C 193.613281 62.839844 193.371094 62.898438 193.117188 62.929688 C 192.867188 62.960938 192.601562 62.960938 192.328125 62.933594 C 192.058594 62.902344 191.78125 62.84375 191.5 62.757812 C 191.21875 62.667969 190.9375 62.550781 190.660156 62.40625 C 190.378906 62.261719 190.105469 62.09375 189.839844 61.898438 C 189.574219 61.707031 189.320312 61.488281 189.074219 61.253906 C 188.832031 61.015625 188.605469 60.761719 188.394531 60.492188 C 188.183594 60.222656 187.992188 59.9375 187.824219 59.644531 C 187.652344 59.351562 187.503906 59.050781 187.382812 58.746094 C 187.257812 58.441406 187.164062 58.136719 187.089844 57.832031 C 187.019531 57.523438 186.976562 57.226562 186.957031 56.929688 C 186.941406 56.636719 186.953125 56.355469 186.992188 56.082031 C 187.027344 55.8125 187.09375 55.558594 187.1875 55.320312 C 187.277344 55.082031 187.394531 54.863281 187.539062 54.667969 C 187.679688 54.472656 187.84375 54.304688 188.03125 54.160156 C 188.21875 54.011719 188.425781 53.894531 188.648438 53.804688 C 188.875 53.714844 189.113281 53.65625 189.367188 53.625 C 189.621094 53.59375 189.882812 53.59375 190.15625 53.621094 C 190.429688 53.652344 190.703125 53.710938 190.984375 53.800781 C 191.269531 53.886719 191.546875 54.003906 191.828125 54.148438 C 192.105469 54.292969 192.378906 54.460938 192.644531 54.65625 C 192.910156 54.851562 193.167969 55.066406 193.410156 55.300781 C 193.652344 55.539062 193.878906 55.792969 194.089844 56.0625 Z M 194.089844 56.0625 " fill-opacity="1" fill-rule="nonzero"/><path fill="#000000" d="M 213.203125 51.042969 C 213.4375 51.074219 213.667969 51.132812 213.890625 51.226562 C 214.113281 51.320312 214.328125 51.445312 214.53125 51.597656 C 214.730469 51.753906 214.917969 51.9375 215.09375 52.152344 C 215.265625 52.363281 215.421875 52.597656 215.5625 52.859375 C 215.699219 53.121094 215.816406 53.398438 215.914062 53.695312 C 216.011719 53.996094 216.089844 54.308594 216.140625 54.632812 C 216.195312 54.957031 216.226562 55.289062 216.234375 55.628906 C 216.238281 55.96875 216.222656 56.308594 216.183594 56.648438 C 216.144531 56.988281 216.082031 57.324219 215.996094 57.652344 C 215.910156 57.980469 215.804688 58.296875 215.679688 58.601562 C 215.550781 58.902344 215.40625 59.191406 215.242188 59.457031 C 215.078125 59.726562 214.898438 59.96875 214.703125 60.191406 C 214.507812 60.414062 214.304688 60.605469 214.085938 60.773438 C 213.867188 60.9375 213.640625 61.074219 213.410156 61.179688 C 213.175781 61.285156 212.941406 61.355469 212.703125 61.394531 C 212.464844 61.4375 212.226562 61.441406 211.992188 61.414062 C 211.753906 61.386719 211.527344 61.328125 211.304688 61.234375 C 211.078125 61.140625 210.867188 61.015625 210.664062 60.859375 C 210.460938 60.703125 210.273438 60.519531 210.101562 60.308594 C 209.925781 60.097656 209.769531 59.859375 209.632812 59.601562 C 209.496094 59.339844 209.375 59.0625 209.277344 58.761719 C 209.179688 58.464844 209.105469 58.152344 209.050781 57.828125 C 209 57.503906 208.96875 57.171875 208.960938 56.832031 C 208.957031 56.492188 208.972656 56.152344 209.011719 55.8125 C 209.050781 55.472656 209.113281 55.136719 209.199219 54.808594 C 209.285156 54.480469 209.390625 54.164062 209.515625 53.859375 C 209.644531 53.554688 209.789062 53.269531 209.953125 53 C 210.117188 52.734375 210.296875 52.488281 210.492188 52.269531 C 210.683594 52.046875 210.890625 51.851562 211.109375 51.6875 C 211.328125 51.519531 211.550781 51.382812 211.785156 51.28125 C 212.019531 51.175781 212.253906 51.101562 212.492188 51.0625 C 212.730469 51.023438 212.96875 51.015625 213.203125 51.042969 Z M 213.203125 51.042969 " fill-opacity="1" fill-rule="nonzero"/><path fill="#000000" d="M 206.640625 52.625 C 206.691406 52.960938 206.722656 53.300781 206.726562 53.640625 C 206.734375 53.980469 206.714844 54.3125 206.675781 54.640625 C 206.632812 54.96875 206.570312 55.28125 206.484375 55.582031 C 206.398438 55.882812 206.289062 56.167969 206.160156 56.433594 C 206.03125 56.699219 205.886719 56.941406 205.71875 57.15625 C 205.554688 57.375 205.371094 57.566406 205.175781 57.730469 C 204.980469 57.894531 204.773438 58.027344 204.550781 58.128906 C 204.332031 58.230469 204.105469 58.296875 203.871094 58.332031 C 203.636719 58.371094 203.402344 58.371094 203.160156 58.34375 C 202.921875 58.3125 202.683594 58.246094 202.445312 58.152344 C 202.210938 58.054688 201.980469 57.929688 201.753906 57.769531 C 201.53125 57.613281 201.320312 57.425781 201.117188 57.210938 C 200.914062 57 200.726562 56.761719 200.550781 56.5 C 200.378906 56.238281 200.222656 55.957031 200.082031 55.65625 C 199.945312 55.359375 199.828125 55.046875 199.730469 54.722656 C 199.632812 54.394531 199.558594 54.066406 199.507812 53.726562 C 199.453125 53.386719 199.425781 53.046875 199.417969 52.707031 C 199.414062 52.371094 199.429688 52.035156 199.472656 51.710938 C 199.511719 51.382812 199.578125 51.070312 199.664062 50.765625 C 199.75 50.464844 199.859375 50.183594 199.988281 49.917969 C 200.113281 49.652344 200.261719 49.410156 200.425781 49.191406 C 200.59375 48.972656 200.773438 48.78125 200.96875 48.621094 C 201.167969 48.457031 201.375 48.324219 201.59375 48.222656 C 201.8125 48.121094 202.039062 48.050781 202.273438 48.015625 C 202.507812 47.980469 202.746094 47.976562 202.984375 48.007812 C 203.226562 48.039062 203.464844 48.101562 203.699219 48.199219 C 203.9375 48.292969 204.167969 48.421875 204.390625 48.578125 C 204.613281 48.738281 204.828125 48.921875 205.03125 49.136719 C 205.234375 49.351562 205.421875 49.589844 205.59375 49.851562 C 205.769531 50.113281 205.925781 50.394531 206.0625 50.691406 C 206.203125 50.992188 206.320312 51.304688 206.417969 51.628906 C 206.511719 51.953125 206.589844 52.285156 206.640625 52.625 Z M 206.640625 52.625 " fill-opacity="1" fill-rule="nonzero"/><g clip-path="url(#c2328dad27)"><path stroke-linecap="butt" transform="matrix(-0.734485, 0.130865, -0.130865, -0.734485, 19.745323, 118.590032)" fill="none" stroke-linejoin="miter" d="M -0.00102461 1.999774 L 6.264094 1.999193 " stroke="#000000" stroke-width="4" stroke-opacity="1" stroke-miterlimit="4"/></g></svg>