<svg xmlns="http://www.w3.org/2000/svg" xmlns:xlink="http://www.w3.org/1999/xlink" width="188" zoomAndPan="magnify" viewBox="0 0 141 189.000001" height="252" preserveAspectRatio="xMidYMid meet" version="1.0"><defs><clipPath id="ff11048951"><path d="M 1 0 L 139.882812 0 L 139.882812 188.003906 L 1 188.003906 Z M 1 0 " clip-rule="nonzero"/></clipPath></defs><g clip-path="url(#ff11048951)"><path fill="#000000" d="M 137.15625 23.132812 C 135.777344 17.710938 133.734375 12.484375 130.800781 7.644531 C 129.429688 5.492188 127.527344 3.714844 125.292969 2.488281 C 123.160156 1.265625 120.859375 0.0585938 118.335938 0.105469 C 115.363281 0.00390625 112.394531 1.652344 111.75 4.699219 C 110.660156 9.632812 112.855469 15.152344 114.421875 19.808594 C 114.820312 20.917969 115.226562 22.023438 115.632812 23.132812 C 116.988281 26.847656 118.335938 30.570312 119.410156 34.382812 C 122.070312 43.722656 123.566406 53.484375 122.378906 63.199219 C 121.785156 69.433594 120.453125 75.644531 117.816406 81.359375 C 115.8125 85.632812 113.867188 90.25 110.171875 93.339844 C 108.746094 94.507812 105.886719 95.738281 104.800781 93.566406 C 102.359375 87.949219 100.070312 82.046875 95.714844 77.585938 C 90.351562 71.953125 82.925781 68.519531 75.339844 67.132812 C 70.132812 66.222656 64.746094 65.8125 59.550781 67.011719 C 55.71875 67.828125 49.664062 71.082031 46.417969 73.261719 C 29.480469 84.648438 23.269531 97.710938 21.476562 104.242188 C 19.800781 109.863281 17.433594 123.675781 17.335938 124.003906 C 17.320312 124.105469 17.296875 124.214844 17.277344 124.332031 C 15.140625 124.675781 13.011719 125.105469 10.875 125.429688 C 9.539062 123.605469 8.761719 121.335938 7.121094 119.753906 C 5.992188 119.066406 5.433594 120.113281 5.324219 121.121094 C 5.304688 121.269531 5.167969 121.96875 5.160156 122.070312 C 4.722656 124.375 4.835938 126.828125 4.046875 129.101562 C 4.007812 129.136719 3.972656 129.179688 3.941406 129.226562 C 2.800781 130.804688 2.027344 132.621094 1.652344 134.535156 C 0.398438 140.074219 1.3125 145.535156 5.113281 149.878906 C 8.730469 154.257812 14.433594 156.277344 19.984375 156.519531 C 20.261719 156.535156 20.539062 156.546875 20.816406 156.554688 C 20.902344 156.890625 21.070312 157.234375 21.136719 157.550781 C 21.683594 159.347656 22.082031 161.179688 22.371094 163.035156 C 22.816406 166.023438 23.078125 169.039062 22.984375 172.070312 C 22.871094 174.816406 22.597656 177.636719 21.765625 180.28125 C 21.429688 181.382812 20.949219 182.433594 20.527344 183.503906 C 20.011719 184.652344 19.300781 186.175781 20.328125 187.253906 C 21.042969 187.789062 21.753906 188.011719 22.449219 188.011719 C 25.207031 188.011719 27.722656 184.460938 29.164062 182.359375 C 30.113281 180.871094 30.660156 179.167969 31.222656 177.507812 C 33.269531 171.796875 34.707031 165.808594 34.683594 159.710938 C 34.617188 157.6875 34.558594 155.65625 34.277344 153.644531 C 34.242188 153.359375 34.207031 153.027344 34.132812 152.722656 C 34.15625 152.679688 34.183594 152.640625 34.210938 152.605469 C 35.683594 150.363281 37.816406 148.664062 39.570312 146.65625 C 42.648438 149.796875 43.636719 154.625 44.800781 158.742188 C 45.710938 162.464844 46.730469 166.175781 47.085938 170 C 47.34375 172.460938 47.304688 174.941406 47.023438 177.394531 C 46.828125 180.117188 45.898438 183.359375 47.691406 185.726562 C 48.347656 186.472656 49.375 186.921875 50.375 186.882812 C 51.359375 186.914062 53.035156 186.097656 53.257812 185.070312 C 53.921875 184.707031 54.269531 183.578125 54.664062 182.953125 C 56.519531 179.308594 57.570312 175.3125 58.40625 171.324219 C 59.976562 163.882812 60.023438 156.207031 59.699219 148.636719 C 59.488281 140.964844 58.648438 133.214844 59.929688 125.597656 C 60.523438 122.121094 61.738281 118.695312 63.15625 115.4375 C 63.953125 113.707031 64.855469 111.933594 66.046875 110.410156 C 67.003906 109.230469 68.167969 108.246094 69.382812 107.335938 C 70.675781 106.425781 72 105.496094 73.488281 104.9375 C 73.542969 104.941406 73.59375 104.941406 73.648438 104.933594 C 74.21875 105.058594 74.761719 105.273438 75.300781 105.496094 C 78.640625 106.976562 81.359375 109.820312 82.628906 113.257812 C 84.679688 118.980469 84.179688 125.210938 85.609375 131.066406 C 86.640625 134.929688 89.417969 138.125 92.75 140.234375 C 95.261719 141.777344 98.179688 142.746094 100.199219 144.996094 C 102.835938 147.855469 104.472656 151.582031 105.011719 155.421875 C 105.609375 159.257812 102.136719 168.832031 107.890625 169.589844 C 113.882812 169.042969 113.894531 157.40625 113.894531 152.855469 C 113.820312 148.976562 113.203125 145.136719 112.5625 141.320312 C 111.808594 137.453125 111.421875 133.53125 111.441406 129.589844 C 111.265625 123.992188 111.824219 118.394531 111.917969 112.75 C 111.941406 111.574219 111.921875 110.398438 111.910156 109.226562 C 111.933594 108.71875 111.949219 108.085938 111.773438 107.601562 C 111.882812 107.582031 111.988281 107.550781 112.089844 107.496094 C 114.027344 106.496094 115.917969 105.398438 117.636719 104.054688 C 123.285156 99.398438 128.164062 93.644531 131.203125 86.945312 C 133.402344 82.21875 135.394531 77.378906 136.753906 72.339844 C 138.835938 64.804688 139.710938 56.972656 139.640625 49.167969 C 139.855469 40.503906 139.3125 31.582031 137.15625 23.132812 Z M 137.15625 23.132812 " fill-opacity="1" fill-rule="nonzero"/></g><path fill="#000000" d="M 9.535156 147.046875 C 9.515625 146.957031 9.574219 146.871094 9.664062 146.847656 C 10.1875 146.71875 10.707031 146.574219 11.238281 146.460938 C 11.496094 146.460938 12.917969 145.925781 12.679688 146.492188 C 11.761719 146.882812 10.703125 146.941406 9.734375 147.175781 C 9.722656 147.179688 9.710938 147.179688 9.699219 147.179688 C 9.625 147.179688 9.550781 147.128906 9.535156 147.046875 Z M 9.535156 147.046875 " fill-opacity="1" fill-rule="nonzero"/><path fill="#000000" d="M 11.390625 148.160156 C 11.335938 148.058594 11.378906 147.9375 11.476562 147.882812 C 11.789062 147.703125 12.101562 147.53125 12.421875 147.378906 C 12.570312 147.328125 12.789062 147.121094 12.890625 147.339844 C 12.929688 147.601562 12.570312 147.699219 12.40625 147.828125 C 12.1875 147.898438 11.828125 148.265625 11.574219 148.265625 C 11.503906 148.265625 11.4375 148.234375 11.390625 148.160156 Z M 11.390625 148.160156 " fill-opacity="1" fill-rule="nonzero"/><path fill="#000000" d="M 13.160156 145.675781 C 12.308594 145.625 11.449219 145.625 10.597656 145.542969 C 10.507812 145.535156 10.433594 145.460938 10.4375 145.371094 C 10.441406 145.28125 10.519531 145.210938 10.609375 145.214844 C 11.3125 145.242188 12.015625 145.246094 12.714844 145.304688 C 12.914062 145.335938 13.148438 145.308594 13.3125 145.429688 C 13.40625 145.527344 13.324219 145.679688 13.203125 145.679688 C 13.1875 145.679688 13.171875 145.679688 13.160156 145.675781 Z M 13.160156 145.675781 " fill-opacity="1" fill-rule="nonzero"/><path fill="#000000" d="M 17.070312 145.09375 C 16.789062 144.902344 16.675781 144.550781 16.410156 144.335938 C 15.339844 143.410156 17.265625 143.507812 17.816406 143.46875 C 18.394531 143.59375 17.929688 144.257812 17.765625 144.5625 C 17.636719 144.773438 17.46875 145.121094 17.199219 145.121094 C 17.160156 145.121094 17.117188 145.113281 17.070312 145.09375 Z M 17.070312 145.09375 " fill-opacity="1" fill-rule="nonzero"/><path fill="#000000" d="M 22.109375 144.332031 C 22.3125 144.230469 22.476562 144.546875 22.269531 144.652344 C 22.046875 144.746094 21.839844 144.941406 21.59375 144.960938 C 21.136719 144.722656 21.90625 144.433594 22.109375 144.332031 Z M 22.109375 144.332031 " fill-opacity="1" fill-rule="nonzero"/><path fill="#000000" d="M 22.757812 147.207031 C 22.230469 147.042969 21.703125 146.847656 21.171875 146.710938 C 21.085938 146.691406 21.023438 146.613281 21.042969 146.523438 C 21.054688 146.4375 21.144531 146.371094 21.226562 146.390625 C 21.78125 146.515625 22.316406 146.710938 22.851562 146.898438 C 23.03125 146.957031 22.972656 147.214844 22.808594 147.214844 C 22.792969 147.214844 22.777344 147.210938 22.757812 147.207031 Z M 22.757812 147.207031 " fill-opacity="1" fill-rule="nonzero"/><path fill="#000000" d="M 22.136719 145.929688 C 21.929688 145.9375 21.707031 145.945312 21.628906 145.78125 C 21.613281 145.710938 21.65625 145.628906 21.730469 145.601562 C 22.1875 145.53125 22.660156 145.550781 23.125 145.527344 C 23.230469 145.523438 23.320312 145.59375 23.332031 145.703125 C 23.3125 145.957031 22.988281 145.941406 22.707031 145.929688 C 22.582031 145.925781 22.46875 145.917969 22.390625 145.9375 C 22.316406 145.921875 22.226562 145.925781 22.136719 145.929688 Z M 22.136719 145.929688 " fill-opacity="1" fill-rule="nonzero"/><path fill="#000000" d="M 37.921875 136.296875 C 37.308594 133.519531 36.191406 130.8125 34.277344 128.675781 C 33.550781 127.902344 32.757812 127.214844 31.898438 126.597656 C 31.515625 126.28125 30.992188 126.089844 30.722656 125.660156 C 30.378906 124.359375 30.410156 122.972656 30.054688 121.664062 C 29.78125 120.476562 29.75 119.230469 29.257812 118.105469 C 27.804688 119.890625 26.539062 121.835938 24.976562 123.527344 C 24.285156 124.289062 23.136719 123.976562 22.222656 124.15625 C 21.390625 124.21875 20.585938 124.441406 19.753906 124.527344 C 19.636719 124.535156 19.5 124.519531 19.429688 124.410156 C 19.355469 124.289062 19.441406 124.109375 19.589844 124.109375 C 21.132812 123.867188 22.695312 123.660156 24.242188 123.488281 C 26.175781 121.816406 27.414062 119.433594 29.105469 117.535156 C 29.929688 117.097656 30.179688 119.648438 30.304688 120.164062 C 30.644531 121.851562 30.941406 123.554688 31.140625 125.265625 C 31.285156 125.722656 31.875 125.863281 32.207031 126.175781 C 32.867188 126.652344 33.5 127.164062 34.082031 127.734375 C 35.832031 129.429688 37.054688 131.625 37.816406 133.914062 C 38.046875 134.660156 38.207031 135.425781 38.390625 136.1875 C 38.421875 136.355469 38.277344 136.464844 38.136719 136.464844 C 38.042969 136.464844 37.953125 136.414062 37.921875 136.296875 Z M 37.921875 136.296875 " fill-opacity="1" fill-rule="nonzero"/><path fill="#ffffff" d="M 37.921875 136.296875 C 37.308594 133.519531 36.191406 130.8125 34.277344 128.675781 C 33.550781 127.902344 32.757812 127.214844 31.898438 126.597656 C 31.515625 126.28125 30.992188 126.089844 30.722656 125.660156 C 30.378906 124.359375 30.410156 122.972656 30.054688 121.664062 C 29.78125 120.476562 29.75 119.230469 29.257812 118.105469 C 27.804688 119.890625 26.539062 121.835938 24.976562 123.527344 C 24.285156 124.289062 23.136719 123.976562 22.222656 124.15625 C 21.390625 124.21875 20.582031 124.441406 19.753906 124.527344 C 19.636719 124.535156 19.5 124.519531 19.429688 124.410156 C 19.355469 124.289062 19.441406 124.109375 19.589844 124.109375 C 21.132812 123.867188 22.695312 123.660156 24.242188 123.488281 C 26.175781 121.816406 27.414062 119.433594 29.105469 117.535156 C 29.929688 117.097656 30.179688 119.648438 30.304688 120.164062 C 30.644531 121.851562 30.941406 123.554688 31.140625 125.265625 C 31.285156 125.71875 31.875 125.863281 32.207031 126.175781 C 32.867188 126.652344 33.5 127.164062 34.082031 127.734375 C 35.832031 129.429688 37.054688 131.625 37.816406 133.914062 C 38.046875 134.660156 38.207031 135.425781 38.390625 136.1875 C 38.421875 136.355469 38.277344 136.464844 38.136719 136.464844 C 38.042969 136.464844 37.953125 136.414062 37.921875 136.296875 Z M 37.921875 136.296875 " fill-opacity="1" fill-rule="nonzero"/><path fill="#ffffff" d="M 17.070312 145.097656 C 16.789062 144.90625 16.675781 144.550781 16.410156 144.335938 C 15.339844 143.410156 17.265625 143.507812 17.816406 143.46875 C 18.394531 143.59375 17.929688 144.257812 17.765625 144.5625 C 17.632812 144.773438 17.46875 145.121094 17.199219 145.121094 C 17.15625 145.121094 17.113281 145.113281 17.070312 145.097656 Z M 17.070312 145.097656 " fill-opacity="1" fill-rule="nonzero"/><path fill="#ffffff" d="M 22.757812 147.207031 C 22.230469 147.046875 21.703125 146.847656 21.171875 146.710938 C 21.085938 146.691406 21.023438 146.613281 21.042969 146.523438 C 21.054688 146.4375 21.144531 146.371094 21.226562 146.390625 C 21.78125 146.515625 22.316406 146.710938 22.851562 146.898438 C 23.03125 146.957031 22.96875 147.214844 22.808594 147.214844 C 22.792969 147.214844 22.777344 147.210938 22.757812 147.207031 Z M 22.757812 147.207031 " fill-opacity="1" fill-rule="nonzero"/><path fill="#ffffff" d="M 22.703125 145.929688 C 22.578125 145.921875 22.464844 145.917969 22.390625 145.933594 C 22.316406 145.921875 22.230469 145.925781 22.132812 145.929688 C 21.929688 145.9375 21.707031 145.945312 21.628906 145.78125 C 21.613281 145.707031 21.65625 145.625 21.730469 145.601562 C 22.1875 145.527344 22.660156 145.550781 23.125 145.527344 C 23.230469 145.523438 23.320312 145.59375 23.332031 145.699219 C 23.316406 145.898438 23.113281 145.933594 22.890625 145.933594 C 22.828125 145.9375 22.761719 145.933594 22.703125 145.929688 Z M 22.703125 145.929688 " fill-opacity="1" fill-rule="nonzero"/><path fill="#ffffff" d="M 22.109375 144.332031 C 22.3125 144.230469 22.476562 144.546875 22.269531 144.652344 C 22.046875 144.746094 21.839844 144.941406 21.59375 144.960938 C 21.136719 144.722656 21.90625 144.433594 22.109375 144.332031 Z M 22.109375 144.332031 " fill-opacity="1" fill-rule="nonzero"/><path fill="#ffffff" d="M 13.160156 145.675781 C 12.308594 145.625 11.449219 145.625 10.597656 145.542969 C 10.507812 145.535156 10.433594 145.460938 10.4375 145.371094 C 10.441406 145.28125 10.519531 145.210938 10.609375 145.214844 C 11.3125 145.242188 12.015625 145.246094 12.714844 145.304688 C 12.914062 145.335938 13.148438 145.308594 13.3125 145.429688 C 13.40625 145.527344 13.324219 145.679688 13.203125 145.679688 C 13.1875 145.679688 13.171875 145.679688 13.160156 145.675781 Z M 13.160156 145.675781 " fill-opacity="1" fill-rule="nonzero"/><path fill="#ffffff" d="M 9.535156 147.050781 C 9.515625 146.957031 9.574219 146.871094 9.664062 146.851562 C 10.1875 146.71875 10.707031 146.574219 11.238281 146.460938 C 11.496094 146.460938 12.917969 145.929688 12.679688 146.496094 C 11.761719 146.882812 10.703125 146.941406 9.734375 147.175781 C 9.722656 147.179688 9.710938 147.179688 9.699219 147.179688 C 9.625 147.179688 9.550781 147.128906 9.535156 147.050781 Z M 9.535156 147.050781 " fill-opacity="1" fill-rule="nonzero"/><path fill="#ffffff" d="M 11.390625 148.160156 C 11.335938 148.058594 11.378906 147.9375 11.476562 147.882812 C 11.789062 147.707031 12.101562 147.535156 12.421875 147.378906 C 12.570312 147.328125 12.789062 147.121094 12.890625 147.339844 C 12.933594 147.601562 12.570312 147.699219 12.40625 147.828125 C 12.1875 147.898438 11.828125 148.265625 11.574219 148.265625 C 11.503906 148.265625 11.4375 148.234375 11.390625 148.160156 Z M 11.390625 148.160156 " fill-opacity="1" fill-rule="nonzero"/><path fill="#ffffff" d="M 8.515625 136.863281 C 9.007812 136.582031 9.421875 137.433594 8.765625 137.484375 C 8.480469 137.46875 8.25 137.058594 8.515625 136.863281 Z M 8.515625 136.863281 " fill-opacity="1" fill-rule="nonzero"/><path fill="#ffffff" d="M 11.910156 140.441406 C 11.714844 140.316406 11.828125 139.984375 12.058594 139.996094 C 12.273438 139.988281 12.355469 140.121094 12.347656 140.253906 C 12.339844 140.386719 12.246094 140.515625 12.101562 140.515625 C 12.046875 140.515625 11.980469 140.496094 11.910156 140.441406 Z M 11.910156 140.441406 " fill-opacity="1" fill-rule="nonzero"/><path fill="#ffffff" d="M 8.628906 137.554688 C 8.109375 137.398438 8.203125 136.59375 8.765625 136.625 C 9.433594 136.632812 9.339844 137.582031 8.792969 137.582031 C 8.742188 137.582031 8.6875 137.574219 8.628906 137.554688 Z M 8.628906 137.554688 " fill-opacity="1" fill-rule="nonzero"/><path fill="#ffffff" d="M 22.09375 137.46875 C 21.707031 137.382812 21.78125 136.796875 22.15625 136.742188 C 22.503906 136.695312 22.675781 136.917969 22.6875 137.136719 C 22.699219 137.339844 22.582031 137.539062 22.355469 137.539062 C 22.277344 137.539062 22.191406 137.519531 22.09375 137.46875 Z M 22.09375 137.46875 " fill-opacity="1" fill-rule="nonzero"/><path fill="#ffffff" d="M 26.226562 140.503906 C 25.910156 140.496094 25.8125 140.03125 26.101562 139.90625 C 26.351562 139.703125 26.644531 140.105469 26.496094 140.335938 C 26.453125 140.429688 26.355469 140.503906 26.238281 140.503906 C 26.234375 140.503906 26.230469 140.503906 26.226562 140.503906 Z M 26.226562 140.503906 " fill-opacity="1" fill-rule="nonzero"/><path fill="#ffffff" d="M 10.523438 142.949219 C 8.023438 142.949219 5.992188 140.914062 5.992188 138.414062 C 5.992188 135.914062 8.023438 133.878906 10.523438 133.878906 C 13.019531 133.878906 15.054688 135.914062 15.054688 138.414062 C 15.054688 140.914062 13.019531 142.949219 10.523438 142.949219 Z M 10.523438 135.21875 C 8.761719 135.21875 7.328125 136.652344 7.328125 138.414062 C 7.328125 140.175781 8.761719 141.613281 10.523438 141.613281 C 12.285156 141.613281 13.71875 140.175781 13.71875 138.414062 C 13.71875 136.652344 12.285156 135.21875 10.523438 135.21875 Z M 10.523438 135.21875 " fill-opacity="1" fill-rule="nonzero"/><path fill="#ffffff" d="M 24.386719 143.046875 C 21.808594 143.046875 19.710938 140.949219 19.710938 138.371094 C 19.710938 135.792969 21.808594 133.695312 24.386719 133.695312 C 26.960938 133.695312 29.058594 135.792969 29.058594 138.371094 C 29.058594 140.953125 26.960938 143.046875 24.386719 143.046875 Z M 24.386719 135.03125 C 22.546875 135.03125 21.046875 136.53125 21.046875 138.371094 C 21.046875 140.214844 22.546875 141.710938 24.386719 141.710938 C 26.226562 141.710938 27.722656 140.214844 27.722656 138.371094 C 27.722656 136.53125 26.226562 135.03125 24.386719 135.03125 Z M 24.386719 135.03125 " fill-opacity="1" fill-rule="nonzero"/><path stroke-linecap="butt" transform="matrix(-0.734485, 0.130865, -0.130865, -0.734485, 70.157637, 96.941496)" fill="none" stroke-linejoin="miter" d="M 0.00184524 2.00015 L 6.26181 1.998651 " stroke="#000000" stroke-width="4" stroke-opacity="1" stroke-miterlimit="4"/></svg>