<svg xmlns="http://www.w3.org/2000/svg" xmlns:xlink="http://www.w3.org/1999/xlink" width="396" zoomAndPan="magnify" viewBox="0 0 297 189.000001" height="252" preserveAspectRatio="xMidYMid meet" version="1.0"><path fill="#ffffff" d="M 12.933594 114.316406 C 9.847656 79.554688 6.757812 44.792969 3.75 10.640625 C 50.953125 4.003906 98.667969 1.027344 147.398438 2.007812 C 147.511719 37.300781 149.472656 72.59375 153.273438 107.683594 Z M 12.933594 114.316406 " fill-opacity="1" fill-rule="nonzero"/><path fill="#ffffff" d="M 53.96875 175.605469 L 68.242188 99.875 C 68.769531 97.082031 71.464844 95.242188 74.257812 95.769531 C 77.054688 96.296875 78.894531 98.988281 78.367188 101.78125 L 64.09375 177.511719 C 63.566406 180.304688 60.875 182.144531 58.078125 181.617188 C 55.285156 181.089844 53.445312 178.398438 53.96875 175.605469 Z M 53.96875 175.605469 " fill-opacity="1" fill-rule="nonzero"/><path fill="#ffffff" d="M 115.9375 177.371094 L 98.144531 102.390625 C 97.488281 99.625 99.199219 96.847656 101.964844 96.191406 C 104.734375 95.535156 107.511719 97.246094 108.167969 100.015625 L 125.960938 174.996094 C 126.617188 177.761719 124.90625 180.535156 122.136719 181.191406 C 119.371094 181.847656 116.59375 180.136719 115.9375 177.371094 Z M 115.9375 177.371094 " fill-opacity="1" fill-rule="nonzero"/><path fill="#000000" d="M 45.5625 104.964844 C 45.210938 104.964844 44.921875 104.691406 44.90625 104.339844 C 44.890625 103.976562 45.167969 103.671875 45.53125 103.652344 C 67.097656 102.667969 88.917969 101.015625 110.386719 98.742188 C 110.746094 98.703125 111.070312 98.964844 111.109375 99.324219 C 111.148438 99.683594 110.886719 100.007812 110.527344 100.046875 C 89.03125 102.324219 67.183594 103.980469 45.589844 104.964844 C 45.582031 104.964844 45.570312 104.964844 45.5625 104.964844 Z M 45.5625 104.964844 " fill-opacity="1" fill-rule="nonzero"/><path fill="#000000" d="M 55.414062 97.734375 C 55.253906 97.734375 55.089844 97.675781 54.964844 97.554688 C 54.699219 97.308594 54.6875 96.890625 54.933594 96.628906 C 57.214844 94.199219 59.386719 91.769531 61.6875 89.199219 C 63.082031 87.640625 64.523438 86.027344 65.980469 84.425781 C 66.101562 84.292969 66.269531 84.21875 66.449219 84.210938 C 66.632812 84.210938 66.800781 84.277344 66.925781 84.402344 C 69.777344 87.207031 72.765625 89.941406 75.824219 92.535156 L 86.621094 77.671875 C 86.726562 77.527344 86.882812 77.433594 87.058594 77.410156 C 87.234375 77.382812 87.410156 77.429688 87.550781 77.535156 L 97.300781 84.980469 L 111.613281 75.699219 C 111.914062 75.5 112.324219 75.585938 112.519531 75.890625 C 112.71875 76.195312 112.632812 76.601562 112.328125 76.800781 L 97.628906 86.332031 C 97.394531 86.484375 97.09375 86.472656 96.871094 86.300781 L 87.289062 78.988281 L 76.46875 93.878906 C 76.363281 94.023438 76.199219 94.121094 76.019531 94.144531 C 75.835938 94.167969 75.65625 94.113281 75.515625 93.992188 C 72.421875 91.390625 69.386719 88.640625 66.492188 85.816406 C 65.195312 87.242188 63.910156 88.679688 62.664062 90.074219 C 60.460938 92.539062 58.183594 95.085938 55.894531 97.527344 C 55.761719 97.664062 55.589844 97.734375 55.414062 97.734375 Z M 55.414062 97.734375 " fill-opacity="1" fill-rule="nonzero"/><path fill="#000000" d="M 50.105469 109.523438 C 49.757812 109.523438 49.46875 109.253906 49.449219 108.90625 C 48.859375 98.25 48.078125 87.460938 47.128906 76.839844 C 47.09375 76.480469 47.359375 76.160156 47.722656 76.128906 C 48.074219 76.097656 48.402344 76.363281 48.433594 76.722656 C 49.390625 87.359375 50.171875 98.160156 50.761719 108.832031 C 50.78125 109.195312 50.503906 109.503906 50.140625 109.523438 C 50.128906 109.523438 50.117188 109.523438 50.105469 109.523438 Z M 50.105469 109.523438 " fill-opacity="1" fill-rule="nonzero"/><path fill="#000000" d="M 55.933594 41.964844 C 55.808594 41.964844 55.683594 41.929688 55.578125 41.859375 L 34.390625 28.300781 C 34.234375 28.203125 34.128906 28.046875 34.097656 27.867188 C 34.0625 27.6875 34.105469 27.503906 34.214844 27.355469 C 39.53125 20.238281 47.664062 16.152344 56.53125 16.152344 C 57.890625 16.152344 59.253906 16.253906 60.585938 16.453125 C 60.761719 16.476562 60.917969 16.574219 61.023438 16.71875 C 61.125 16.867188 61.167969 17.046875 61.132812 17.222656 L 56.578125 41.429688 C 56.535156 41.644531 56.394531 41.824219 56.191406 41.910156 C 56.109375 41.945312 56.019531 41.964844 55.933594 41.964844 Z M 35.699219 27.582031 L 55.464844 40.230469 L 59.714844 17.660156 C 58.664062 17.53125 57.597656 17.46875 56.53125 17.46875 C 48.316406 17.46875 40.765625 21.144531 35.699219 27.582031 Z M 35.699219 27.582031 " fill-opacity="1" fill-rule="nonzero"/><path fill="#000000" d="M 54.238281 43.289062 C 54.226562 43.289062 54.214844 43.289062 54.207031 43.289062 L 29.453125 42.167969 C 29.273438 42.160156 29.109375 42.078125 28.988281 41.945312 C 28.871094 41.8125 28.8125 41.632812 28.828125 41.457031 C 29.199219 37.289062 30.46875 33.363281 32.605469 29.777344 C 32.789062 29.464844 33.195312 29.363281 33.503906 29.546875 L 54.570312 42.066406 C 54.832031 42.222656 54.953125 42.53125 54.867188 42.820312 C 54.78125 43.097656 54.527344 43.289062 54.238281 43.289062 Z M 30.207031 40.890625 L 51.648438 41.859375 L 33.402344 31.015625 C 31.679688 34.078125 30.605469 37.390625 30.207031 40.890625 Z M 30.207031 40.890625 " fill-opacity="1" fill-rule="nonzero"/><path fill="#000000" d="M 32.328125 56.945312 C 32.257812 56.945312 32.191406 56.933594 32.128906 56.914062 C 31.960938 56.863281 31.820312 56.742188 31.742188 56.585938 C 30.011719 53.199219 29.015625 49.558594 28.777344 45.761719 C 28.765625 45.585938 28.824219 45.414062 28.945312 45.28125 C 29.0625 45.152344 29.226562 45.074219 29.40625 45.066406 L 54.300781 44.023438 C 54.609375 44.007812 54.882812 44.210938 54.960938 44.507812 C 55.039062 44.804688 54.902344 45.117188 54.628906 45.257812 L 54.335938 45.414062 L 32.632812 56.871094 C 32.539062 56.917969 32.433594 56.945312 32.328125 56.945312 Z M 30.136719 46.347656 C 30.417969 49.5 31.25 52.539062 32.617188 55.394531 L 51.445312 45.453125 Z M 30.136719 46.347656 " fill-opacity="1" fill-rule="nonzero"/><path fill="#000000" d="M 41.433594 67.175781 C 41.304688 67.175781 41.179688 67.136719 41.070312 67.066406 C 38.046875 65.046875 35.484375 62.496094 33.453125 59.484375 C 33.355469 59.335938 33.320312 59.15625 33.355469 58.984375 C 33.390625 58.8125 33.492188 58.660156 33.640625 58.566406 L 54.5625 45.050781 C 54.824219 44.878906 55.164062 44.914062 55.386719 45.136719 C 55.605469 45.355469 55.640625 45.699219 55.46875 45.957031 L 55.277344 46.25 L 41.984375 66.875 C 41.890625 67.023438 41.738281 67.128906 41.566406 67.164062 C 41.523438 67.171875 41.476562 67.175781 41.433594 67.175781 Z M 34.921875 59.300781 C 36.664062 61.75 38.789062 63.863281 41.246094 65.597656 L 52.714844 47.808594 Z M 34.921875 59.300781 " fill-opacity="1" fill-rule="nonzero"/><path fill="#000000" d="M 56.414062 71.757812 C 56.414062 71.757812 56.414062 71.757812 56.410156 71.757812 C 51.984375 71.738281 47.75 70.710938 43.832031 68.699219 C 43.675781 68.621094 43.554688 68.480469 43.503906 68.3125 C 43.453125 68.140625 43.46875 67.960938 43.554688 67.804688 L 55.21875 46.191406 C 55.359375 45.929688 55.660156 45.796875 55.949219 45.863281 C 56.238281 45.933594 56.445312 46.1875 56.453125 46.484375 L 57.070312 71.085938 C 57.074219 71.261719 57.007812 71.433594 56.882812 71.5625 C 56.757812 71.6875 56.589844 71.757812 56.414062 71.757812 Z M 45.03125 67.832031 C 48.394531 69.453125 51.992188 70.328125 55.742188 70.433594 L 55.203125 48.988281 Z M 45.03125 67.832031 " fill-opacity="1" fill-rule="nonzero"/><path fill="#000000" d="M 62.535156 71.09375 C 62.40625 71.09375 62.28125 71.054688 62.171875 70.984375 C 62.023438 70.886719 61.921875 70.730469 61.886719 70.554688 L 57.4375 46.117188 C 57.390625 45.882812 57.476562 45.640625 57.660156 45.488281 C 57.84375 45.335938 58.09375 45.292969 58.316406 45.378906 L 58.414062 45.417969 L 81.683594 54.144531 C 81.851562 54.207031 81.988281 54.335938 82.058594 54.503906 C 82.128906 54.667969 82.125 54.855469 82.054688 55.019531 C 78.53125 63.132812 71.289062 69.136719 62.679688 71.078125 C 62.632812 71.089844 62.582031 71.09375 62.535156 71.09375 Z M 58.933594 47.015625 L 63.054688 69.636719 C 70.742188 67.691406 77.210938 62.332031 80.566406 55.128906 Z M 58.933594 47.015625 " fill-opacity="1" fill-rule="nonzero"/><path fill="#000000" d="M 83.191406 49.828125 C 83.101562 49.828125 83.101562 49.828125 63.359375 44.589844 L 58.769531 43.375 C 58.597656 43.328125 58.453125 43.214844 58.367188 43.0625 C 58.28125 42.910156 58.257812 42.726562 58.308594 42.558594 L 65.304688 18.300781 C 65.355469 18.125 65.476562 17.976562 65.636719 17.894531 C 65.800781 17.8125 65.992188 17.800781 66.160156 17.867188 C 77.039062 21.878906 84.347656 32.363281 84.347656 43.957031 C 84.347656 45.746094 84.175781 47.542969 83.835938 49.296875 C 83.773438 49.605469 83.503906 49.828125 83.191406 49.828125 Z M 59.753906 42.277344 L 63.695312 43.320312 C 63.867188 43.367188 79.214844 47.4375 82.671875 48.355469 C 82.914062 46.90625 83.035156 45.429688 83.035156 43.957031 C 83.035156 33.148438 76.367188 23.347656 66.367188 19.351562 Z M 59.753906 42.277344 " fill-opacity="1" fill-rule="nonzero"/><path fill="#000000" d="M 54.03125 45.488281 C 53.953125 45.488281 53.875 45.472656 53.800781 45.445312 C 53.625 45.382812 53.488281 45.246094 53.417969 45.070312 C 53.394531 45.007812 53.375 44.945312 53.355469 44.878906 C 53.296875 44.6875 53.332031 44.476562 53.449219 44.308594 C 53.566406 44.144531 53.753906 44.042969 53.957031 44.035156 L 54.300781 44.023438 C 54.609375 44.007812 54.882812 44.210938 54.960938 44.507812 C 55.039062 44.804688 54.902344 45.117188 54.628906 45.257812 L 54.335938 45.414062 C 54.238281 45.460938 54.136719 45.488281 54.03125 45.488281 Z M 54.03125 45.488281 " fill-opacity="1" fill-rule="nonzero"/><path fill="#000000" d="M 54.726562 46.550781 C 54.570312 46.550781 54.414062 46.492188 54.292969 46.386719 C 54.242188 46.339844 54.167969 46.273438 54.097656 46.179688 C 53.988281 46.035156 53.945312 45.851562 53.980469 45.675781 C 54.011719 45.496094 54.117188 45.339844 54.265625 45.242188 L 54.5625 45.050781 C 54.824219 44.878906 55.164062 44.914062 55.386719 45.136719 C 55.605469 45.355469 55.640625 45.699219 55.46875 45.957031 L 55.277344 46.253906 C 55.175781 46.410156 55.007812 46.519531 54.816406 46.542969 C 54.789062 46.546875 54.757812 46.550781 54.726562 46.550781 Z M 54.726562 46.550781 " fill-opacity="1" fill-rule="nonzero"/><path fill="#000000" d="M 58.101562 46.746094 C 58.011719 46.746094 57.925781 46.730469 57.84375 46.695312 C 57.640625 46.609375 57.496094 46.429688 57.453125 46.214844 L 57.4375 46.117188 C 57.390625 45.882812 57.476562 45.640625 57.660156 45.488281 C 57.84375 45.335938 58.09375 45.292969 58.316406 45.378906 L 58.414062 45.417969 C 58.621094 45.496094 58.773438 45.675781 58.820312 45.890625 C 58.867188 46.109375 58.800781 46.335938 58.644531 46.492188 C 58.578125 46.558594 58.515625 46.601562 58.460938 46.636719 C 58.351562 46.710938 58.226562 46.746094 58.101562 46.746094 Z M 57.738281 45.542969 C 57.738281 45.542969 57.726562 45.554688 57.714844 45.566406 L 57.835938 45.6875 Z M 57.738281 45.542969 " fill-opacity="1" fill-rule="nonzero"/><path fill="#000000" d="M 55.933594 41.964844 C 55.808594 41.964844 55.683594 41.929688 55.578125 41.859375 L 34.386719 28.300781 C 34.082031 28.105469 33.992188 27.699219 34.1875 27.394531 C 34.386719 27.089844 34.792969 27 35.097656 27.195312 L 55.464844 40.230469 L 59.84375 16.980469 C 59.910156 16.625 60.25 16.390625 60.609375 16.457031 C 60.964844 16.523438 61.199219 16.867188 61.132812 17.222656 L 56.578125 41.429688 C 56.535156 41.644531 56.394531 41.824219 56.191406 41.910156 C 56.109375 41.945312 56.019531 41.964844 55.933594 41.964844 Z M 55.933594 41.964844 " fill-opacity="1" fill-rule="nonzero"/><path fill="#000000" d="M 81.453125 55.414062 C 81.375 55.414062 81.296875 55.402344 81.222656 55.375 L 57.949219 46.644531 C 57.609375 46.515625 57.4375 46.136719 57.566406 45.800781 C 57.691406 45.460938 58.070312 45.289062 58.410156 45.414062 L 81.683594 54.144531 C 82.023438 54.273438 82.195312 54.648438 82.066406 54.988281 C 81.96875 55.253906 81.71875 55.414062 81.453125 55.414062 Z M 81.453125 55.414062 " fill-opacity="1" fill-rule="nonzero"/><path fill="#000000" d="M 62.535156 71.09375 C 62.222656 71.09375 61.945312 70.871094 61.886719 70.554688 L 57.453125 46.207031 C 57.390625 45.851562 57.625 45.511719 57.980469 45.445312 C 58.339844 45.378906 58.679688 45.617188 58.746094 45.972656 L 63.179688 70.320312 C 63.246094 70.675781 63.007812 71.019531 62.652344 71.082031 C 62.613281 71.089844 62.574219 71.09375 62.535156 71.09375 Z M 62.535156 71.09375 " fill-opacity="1" fill-rule="nonzero"/><path fill="#000000" d="M 56.414062 71.757812 C 56.058594 71.757812 55.765625 71.476562 55.757812 71.117188 L 55.203125 48.984375 L 44.710938 68.425781 C 44.535156 68.746094 44.136719 68.867188 43.820312 68.695312 C 43.5 68.523438 43.378906 68.125 43.554688 67.804688 L 55.21875 46.191406 C 55.359375 45.929688 55.660156 45.796875 55.949219 45.863281 C 56.238281 45.933594 56.445312 46.1875 56.453125 46.484375 L 57.070312 71.085938 C 57.078125 71.449219 56.792969 71.75 56.429688 71.757812 C 56.425781 71.757812 56.417969 71.757812 56.414062 71.757812 Z M 56.414062 71.757812 " fill-opacity="1" fill-rule="nonzero"/><path fill="#000000" d="M 41.433594 67.175781 C 41.3125 67.175781 41.1875 67.144531 41.078125 67.070312 C 40.773438 66.875 40.683594 66.46875 40.882812 66.164062 L 54.175781 45.539062 C 54.371094 45.234375 54.777344 45.144531 55.082031 45.34375 C 55.386719 45.539062 55.476562 45.945312 55.28125 46.25 L 41.984375 66.875 C 41.859375 67.070312 41.648438 67.175781 41.433594 67.175781 Z M 41.433594 67.175781 " fill-opacity="1" fill-rule="nonzero"/><path fill="#000000" d="M 34 59.773438 C 33.785156 59.773438 33.570312 59.667969 33.445312 59.472656 C 33.25 59.167969 33.335938 58.761719 33.640625 58.566406 L 54.269531 45.238281 C 54.574219 45.042969 54.980469 45.128906 55.175781 45.433594 C 55.375 45.738281 55.285156 46.144531 54.980469 46.34375 L 34.355469 59.667969 C 34.246094 59.738281 34.121094 59.773438 34 59.773438 Z M 34 59.773438 " fill-opacity="1" fill-rule="nonzero"/><path fill="#000000" d="M 83.1875 49.828125 C 83.128906 49.828125 83.074219 49.820312 83.015625 49.804688 L 58.769531 43.375 C 58.597656 43.328125 58.453125 43.214844 58.367188 43.0625 C 58.28125 42.910156 58.257812 42.726562 58.308594 42.558594 L 65.304688 18.300781 C 65.402344 17.953125 65.765625 17.75 66.117188 17.851562 C 66.464844 17.953125 66.664062 18.316406 66.566406 18.664062 L 59.753906 42.277344 L 83.355469 48.535156 C 83.703125 48.628906 83.914062 48.988281 83.820312 49.339844 C 83.742188 49.632812 83.476562 49.828125 83.1875 49.828125 Z M 83.1875 49.828125 " fill-opacity="1" fill-rule="nonzero"/><path fill="#000000" d="M 29.433594 46.378906 C 29.082031 46.378906 28.789062 46.101562 28.777344 45.75 C 28.761719 45.386719 29.042969 45.082031 29.40625 45.066406 L 53.957031 44.035156 C 54.308594 44.023438 54.625 44.300781 54.640625 44.664062 C 54.65625 45.027344 54.375 45.332031 54.011719 45.347656 L 29.460938 46.375 C 29.449219 46.378906 29.441406 46.378906 29.433594 46.378906 Z M 29.433594 46.378906 " fill-opacity="1" fill-rule="nonzero"/><path fill="#000000" d="M 32.328125 56.945312 C 32.089844 56.945312 31.863281 56.816406 31.746094 56.59375 C 31.574219 56.273438 31.699219 55.878906 32.019531 55.707031 L 53.722656 44.25 C 54.042969 44.082031 54.441406 44.203125 54.609375 44.523438 C 54.78125 44.84375 54.65625 45.242188 54.335938 45.410156 L 32.632812 56.871094 C 32.535156 56.921875 32.429688 56.945312 32.328125 56.945312 Z M 32.328125 56.945312 " fill-opacity="1" fill-rule="nonzero"/><path fill="#000000" d="M 54.238281 43.289062 C 54.226562 43.289062 54.214844 43.289062 54.207031 43.289062 L 29.453125 42.167969 C 29.09375 42.152344 28.8125 41.84375 28.828125 41.484375 C 28.84375 41.121094 29.15625 40.839844 29.511719 40.859375 L 51.648438 41.859375 L 32.832031 30.675781 C 32.523438 30.492188 32.417969 30.089844 32.605469 29.777344 C 32.789062 29.464844 33.195312 29.363281 33.503906 29.546875 L 54.570312 42.066406 C 54.832031 42.222656 54.953125 42.53125 54.867188 42.820312 C 54.78125 43.097656 54.527344 43.289062 54.238281 43.289062 Z M 54.238281 43.289062 " fill-opacity="1" fill-rule="nonzero"/><path fill="#000000" d="M 124.179688 62.667969 C 123.839844 62.667969 123.550781 62.40625 123.527344 62.0625 C 122.503906 49.230469 121.835938 36.203125 121.542969 23.335938 C 121.535156 22.984375 121.804688 22.691406 122.15625 22.667969 L 130.992188 22.089844 C 131.167969 22.078125 131.339844 22.136719 131.472656 22.25 C 131.601562 22.367188 131.683594 22.53125 131.691406 22.707031 L 133.929688 61.832031 C 133.941406 62.007812 133.878906 62.183594 133.757812 62.316406 C 133.636719 62.445312 133.464844 62.519531 133.285156 62.523438 L 124.191406 62.667969 C 124.1875 62.667969 124.183594 62.667969 124.179688 62.667969 Z M 122.871094 23.933594 C 123.164062 36.367188 123.8125 48.945312 124.785156 61.347656 L 132.582031 61.222656 L 130.417969 23.441406 Z M 122.871094 23.933594 " fill-opacity="1" fill-rule="nonzero"/><path fill="#000000" d="M 109.136719 64.398438 C 108.984375 64.398438 108.835938 64.347656 108.71875 64.25 C 108.582031 64.136719 108.496094 63.976562 108.480469 63.800781 L 105.828125 34.425781 C 105.796875 34.070312 106.050781 33.753906 106.40625 33.714844 L 115.144531 32.703125 C 115.320312 32.683594 115.5 32.734375 115.636719 32.847656 C 115.773438 32.960938 115.859375 33.125 115.875 33.300781 L 118.277344 62.824219 C 118.308594 63.179688 118.046875 63.496094 117.691406 63.53125 L 109.203125 64.394531 C 109.179688 64.398438 109.160156 64.398438 109.136719 64.398438 Z M 107.191406 34.945312 L 109.730469 63.023438 L 116.917969 62.289062 L 114.621094 34.085938 Z M 107.191406 34.945312 " fill-opacity="1" fill-rule="nonzero"/><path fill="#000000" d="M 94.921875 65.902344 C 94.773438 65.902344 94.625 65.851562 94.507812 65.753906 C 94.371094 65.644531 94.285156 65.484375 94.269531 65.3125 L 92.351562 45.664062 C 92.335938 45.488281 92.390625 45.308594 92.503906 45.175781 C 92.621094 45.039062 92.785156 44.957031 92.964844 44.945312 L 100.15625 44.488281 C 100.503906 44.464844 100.8125 44.722656 100.851562 45.070312 L 103.117188 64.378906 C 103.136719 64.550781 103.085938 64.726562 102.976562 64.863281 C 102.867188 65 102.707031 65.085938 102.53125 65.105469 L 94.992188 65.898438 C 94.96875 65.902344 94.945312 65.902344 94.921875 65.902344 Z M 93.726562 46.210938 L 95.511719 64.523438 L 101.734375 63.871094 L 99.621094 45.839844 Z M 93.726562 46.210938 " fill-opacity="1" fill-rule="nonzero"/><path fill="#000000" d="M 112.941406 75.21875 C 111.445312 75.179688 109.941406 75.460938 108.460938 75.671875 C 107.8125 75.777344 107.167969 75.910156 106.515625 76.019531 C 106.492188 76.023438 106.457031 76.03125 106.429688 76.039062 C 106.394531 76.042969 106.351562 76.054688 106.324219 76.074219 C 106.097656 76.152344 105.984375 76.417969 106.042969 76.644531 C 106.113281 76.910156 106.386719 77.035156 106.640625 77 C 107.226562 76.9375 107.121094 76.941406 107.605469 76.875 C 108.648438 76.726562 110.144531 76.558594 111.789062 76.363281 C 111.808594 76.359375 111.824219 76.355469 111.84375 76.355469 C 110.8125 77.835938 110 79.453125 109.097656 81.015625 C 108.847656 81.425781 109.5 81.8125 109.738281 81.390625 C 110.78125 79.746094 111.675781 78.003906 112.878906 76.46875 C 112.945312 76.40625 112.960938 76.359375 113.109375 76.171875 C 113.105469 76.179688 113.125 76.167969 113.171875 76.121094 C 113.195312 76.097656 113.199219 76.09375 113.207031 76.082031 C 113.230469 76.0625 113.257812 76.023438 113.285156 75.984375 C 113.464844 75.6875 113.269531 75.296875 112.941406 75.21875 Z M 112.941406 75.21875 " fill-opacity="1" fill-rule="nonzero"/><path fill="#000000" d="M 76.316406 113.941406 C 76.015625 113.6875 75.539062 113.726562 75.265625 114.003906 C 74.832031 114.617188 74.910156 115.710938 74.714844 116.453125 C 74.363281 118.710938 74.058594 120.976562 73.679688 123.234375 C 71.152344 136.207031 68.582031 149.175781 65.941406 162.128906 C 65.148438 166.070312 64.230469 169.984375 63.296875 173.894531 C 62.4375 177.535156 61.53125 180.546875 58.625 181.132812 C 57.109375 181.351562 55.441406 180.746094 55.15625 178.480469 C 54.941406 175.996094 55.71875 171.308594 56.066406 168.617188 C 57.058594 161.746094 58.558594 154.964844 60.011719 148.183594 C 60.957031 143.5 61.789062 138.792969 62.742188 134.109375 C 63.664062 129.4375 64.296875 125.691406 65.097656 121.15625 C 65.351562 119.777344 65.664062 118.410156 65.894531 117.027344 C 65.941406 116.871094 65.917969 116.703125 65.835938 116.5625 C 65.585938 116.121094 64.851562 116.191406 64.730469 116.707031 C 61.867188 129.640625 59.609375 142.699219 56.785156 155.644531 C 55.550781 161.578125 54.507812 167.554688 53.816406 173.578125 C 53.617188 175.957031 52.996094 178.632812 54.296875 180.804688 C 55.097656 182.046875 56.539062 182.796875 58.011719 182.78125 C 62.410156 182.722656 63.996094 178.195312 64.777344 174.578125 C 65.585938 171.175781 66.398438 167.777344 67.113281 164.355469 C 69.6875 152.132812 71.953125 139.847656 74.484375 127.617188 C 75.226562 124.09375 75.699219 120.519531 76.246094 116.960938 C 76.34375 116.125 76.582031 115.292969 76.617188 114.460938 C 76.605469 114.253906 76.484375 114.054688 76.316406 113.941406 Z M 76.316406 113.941406 " fill-opacity="1" fill-rule="nonzero"/><path fill="#000000" d="M 125.128906 168.757812 C 124.082031 164.417969 123.0625 160.074219 121.910156 155.761719 C 120.105469 148.648438 118.761719 141.425781 117.28125 134.238281 C 116.390625 130.484375 115.375 126.765625 114.441406 123.023438 C 113.628906 119.851562 112.847656 116.671875 111.964844 113.519531 C 111.671875 112.515625 111.371094 111.511719 111.082031 110.507812 C 111.023438 110.304688 110.890625 110.132812 110.710938 110.027344 C 110.128906 109.671875 109.332031 110.257812 109.539062 110.929688 C 109.855469 112.039062 110.191406 113.140625 110.511719 114.25 C 111.1875 116.699219 111.804688 119.167969 112.4375 121.628906 C 113.523438 126 114.710938 130.347656 115.75 134.730469 C 117.164062 141.636719 118.484375 148.5625 120.164062 155.410156 C 121.359375 159.875 122.425781 164.375 123.515625 168.867188 C 124.492188 173.25 125.414062 177.609375 122.648438 180.226562 C 122.089844 180.6875 121.984375 180.816406 121.125 181.035156 C 121.078125 181.046875 121.027344 181.054688 120.976562 181.0625 C 120.960938 181.066406 120.90625 181.078125 120.847656 181.085938 C 120.832031 181.085938 120.816406 181.089844 120.800781 181.09375 C 120.8125 181.089844 120.820312 181.089844 120.832031 181.085938 C 120.761719 181.097656 120.683594 181.105469 120.632812 181.101562 C 120.511719 181.152344 119.789062 181.078125 119.800781 181.085938 C 119.667969 181.054688 119.527344 181.003906 119.492188 180.996094 C 118.128906 180.394531 117.875 179.5 117.3125 178.167969 C 116.507812 175.84375 116.007812 173.429688 115.414062 171.046875 C 113.0625 161.988281 111.0625 152.84375 108.769531 143.773438 C 106.851562 137.097656 105.269531 130.34375 103.773438 123.5625 C 102.90625 119.804688 102.023438 116.046875 101.097656 112.300781 C 101.027344 111.996094 100.980469 111.652344 100.679688 111.492188 C 100.164062 111.179688 99.449219 111.695312 99.636719 112.292969 C 101.378906 119.867188 102.984375 127.472656 104.761719 135.035156 C 105.769531 139.085938 106.984375 143.082031 107.984375 147.132812 C 108.953125 151.035156 109.785156 154.972656 110.75 158.878906 C 112.011719 164.136719 113.375 169.375 114.640625 174.632812 C 115.332031 177.066406 115.734375 179.855469 117.605469 181.703125 C 119.125 183.046875 121.539062 183.011719 123.15625 181.863281 C 127.316406 178.78125 126.085938 173.101562 125.128906 168.757812 Z M 125.128906 168.757812 " fill-opacity="1" fill-rule="nonzero"/><path fill="#000000" d="M 120.976562 181.0625 C 120.996094 181.058594 120.957031 181.0625 120.832031 181.085938 C 120.890625 181.078125 120.933594 181.070312 120.976562 181.0625 Z M 120.976562 181.0625 " fill-opacity="1" fill-rule="nonzero"/><path fill="#000000" d="M 154.777344 107.734375 C 154.738281 107.582031 154.644531 107.453125 154.527344 107.351562 C 154.53125 107.320312 154.539062 107.289062 154.539062 107.253906 C 154.28125 105.078125 153.980469 102.902344 153.757812 100.722656 C 153.691406 100.113281 153.628906 99.503906 153.566406 98.894531 C 153.570312 98.683594 153.480469 98.476562 153.332031 98.328125 C 152.980469 97.957031 152.324219 98.046875 152.070312 98.492188 C 151.953125 98.679688 151.949219 98.898438 151.984375 99.113281 C 152.058594 99.863281 152.140625 100.613281 152.222656 101.363281 C 152.425781 103.300781 152.695312 105.234375 152.921875 107.171875 C 152.605469 107.179688 152.289062 107.183594 151.972656 107.195312 C 149.609375 107.285156 147.25 107.414062 144.886719 107.53125 C 135.191406 108.101562 125.46875 108.203125 115.789062 109.058594 C 106.566406 109.753906 97.390625 111.046875 88.128906 111.226562 C 74.851562 111.597656 61.609375 112.738281 48.332031 113.019531 C 39.46875 113.1875 30.609375 113.441406 21.765625 114.027344 C 19.1875 114.234375 16.585938 114.332031 14.023438 114.625 C 13.964844 114.226562 13.882812 113.824219 13.902344 113.515625 C 13.75 111.703125 13.585938 109.890625 13.390625 108.082031 C 12.5 99.808594 11.359375 92.675781 10.398438 84.546875 C 8.785156 71.078125 7.339844 57.585938 6.238281 44.0625 C 5.59375 34.507812 4.796875 24.960938 3.609375 15.453125 C 3.390625 13.671875 3.195312 11.886719 2.96875 10.101562 C 2.902344 9.789062 2.890625 9.449219 2.851562 9.121094 C 3.722656 9.078125 4.59375 9.035156 5.464844 8.992188 C 7.566406 8.878906 9.667969 8.773438 11.765625 8.640625 C 24.03125 7.78125 36.273438 6.589844 48.542969 5.824219 C 64.613281 4.957031 80.691406 4.269531 96.777344 3.777344 C 109.746094 3.503906 122.726562 3.4375 135.664062 2.367188 C 139.171875 2.125 142.675781 1.816406 146.175781 1.457031 C 146.484375 1.425781 146.796875 1.390625 147.105469 1.351562 C 147.261719 7.625 147.257812 13.902344 147.410156 20.175781 C 147.539062 24.898438 147.871094 29.617188 147.988281 34.34375 C 148.070312 48.804688 148.433594 63.257812 149.085938 77.707031 C 149.238281 80.292969 149.125 82.925781 149.34375 85.492188 C 149.625 86.265625 150.90625 86.042969 150.875 85.183594 C 150.792969 78.746094 150.425781 72.320312 150.234375 65.886719 C 149.777344 55.589844 149.691406 45.28125 149.601562 34.972656 C 149.472656 29.339844 149.046875 23.71875 148.953125 18.085938 C 148.859375 13.609375 148.867188 9.128906 148.710938 4.652344 C 148.679688 3.671875 148.644531 2.6875 148.601562 1.707031 C 148.554688 1.367188 148.621094 0.976562 148.527344 0.644531 C 148.523438 0.324219 148.261719 0.0117188 147.921875 0.0234375 C 138.359375 0.84375 128.769531 1.359375 119.179688 1.699219 C 106.96875 2.078125 94.746094 2.117188 82.539062 2.65625 C 70.761719 3.179688 58.980469 3.59375 47.214844 4.308594 C 34.628906 5.117188 22.074219 6.390625 9.484375 7.175781 C 7.121094 7.304688 4.761719 7.4375 2.398438 7.542969 C 2.066406 7.53125 1.78125 7.757812 1.660156 8.054688 C 1.320312 8.203125 1.074219 8.554688 1.203125 8.980469 C 2.035156 15.363281 2.996094 23.726562 3.648438 30.898438 C 4.367188 40.1875 4.988281 49.484375 5.960938 58.75 C 6.921875 68.375 7.964844 77.992188 9.167969 87.589844 C 10.199219 95.832031 11.371094 103.15625 12.132812 111.597656 C 12.242188 112.847656 12.347656 114.097656 12.453125 115.34375 C 12.449219 115.609375 12.589844 115.84375 12.796875 115.992188 C 12.917969 116.105469 13.078125 116.175781 13.28125 116.167969 C 27.03125 115.027344 40.824219 114.808594 54.609375 114.433594 C 65.800781 113.984375 76.96875 113.140625 88.164062 112.824219 C 97.882812 112.625 107.507812 111.238281 117.191406 110.542969 C 127.527344 109.71875 137.90625 109.589844 148.253906 108.964844 C 149.871094 108.882812 151.484375 108.800781 153.101562 108.761719 C 153.503906 108.722656 153.933594 108.820312 154.3125 108.675781 C 154.679688 108.546875 154.882812 108.105469 154.777344 107.734375 Z M 154.777344 107.734375 " fill-opacity="1" fill-rule="nonzero"/><path fill="#000000" d="M 287.5 81.058594 C 288.445312 75.726562 289.589844 70.402344 291.582031 65.351562 C 293.382812 60.042969 295.984375 54.640625 295.472656 48.90625 C 295.203125 46.3125 293.851562 43.59375 291.378906 42.488281 C 290.042969 41.878906 288.527344 42.039062 287.152344 42.441406 C 285.21875 42.972656 283.496094 44.046875 281.972656 45.332031 C 278.644531 48.191406 276.632812 52.28125 274.921875 56.25 C 271.59375 63.824219 269.621094 71.988281 268.882812 80.222656 C 268.210938 89.34375 268.59375 98.539062 269.628906 107.621094 C 270.050781 110.875 270.839844 114.066406 271.445312 117.289062 C 272.140625 121.328125 272.691406 125.390625 273.367188 129.429688 C 274.226562 135.144531 275.125 140.976562 274.296875 147.125 C 273.746094 153.878906 270.152344 160.816406 263.890625 164.363281 C 262.59375 165.085938 261.40625 165.578125 260.0625 165.984375 C 262.207031 157.128906 261.695312 147.796875 260.292969 138.847656 C 259.253906 132.953125 257.722656 127.101562 255.546875 121.519531 C 253.457031 116.277344 250.628906 111.371094 247.851562 106.46875 C 245.09375 101.332031 241.632812 96.585938 239.136719 91.304688 C 237 86.644531 234.96875 82.09375 233.785156 76.742188 C 232.945312 73.441406 232.476562 70.800781 232.5625 67.371094 C 232.617188 65.21875 232.785156 63.253906 233.136719 61.289062 C 233.164062 61.109375 233.199219 60.929688 233.238281 60.746094 C 234.410156 58.695312 235.644531 56.609375 236.183594 53.949219 C 236.738281 51.386719 236.699219 48.757812 236.320312 46.175781 C 236.160156 44.488281 235.359375 40.738281 234.476562 38.382812 C 233.589844 35.578125 232.0625 33.027344 230.574219 30.507812 C 230.6875 25 230.25 19.5 229.277344 14.070312 C 228.175781 6.503906 223.015625 14.234375 220.8125 17.027344 C 219.425781 18.917969 218.082031 20.832031 216.746094 22.753906 C 213.058594 21.867188 209.257812 21.488281 205.472656 21.347656 C 201.9375 21.296875 198.402344 21.789062 194.941406 22.480469 C 194.316406 22.617188 193.691406 22.757812 193.070312 22.90625 C 192.589844 22.355469 192.101562 21.816406 191.589844 21.296875 C 190.125 19.796875 188.578125 18.382812 187.140625 16.863281 C 185.867188 15.542969 184.628906 14.160156 183.136719 13.078125 C 181.25 12.011719 181.03125 13.660156 181.003906 14.742188 C 180.824219 17.546875 181.105469 20.339844 181.375 23.128906 C 181.503906 25.34375 181.851562 27.542969 182.03125 29.753906 C 181.671875 30.917969 181.132812 32.277344 180.824219 33.40625 C 179.902344 36.375 177.25 43.667969 176.839844 48.328125 C 175.984375 58.046875 182.09375 62.847656 182.171875 62.957031 C 182.082031 66.777344 181.324219 72.5 174.722656 77.828125 C 171.96875 80.050781 168.164062 81.84375 164.183594 82.691406 C 160.226562 83.625 156.863281 84.089844 152.648438 83.714844 C 152.554688 83.707031 152.457031 83.695312 152.363281 83.6875 C 150.886719 83.46875 149.308594 83.164062 147.570312 82.667969 C 144.367188 81.664062 142.148438 80.699219 139.691406 79.585938 C 137.78125 78.65625 135.890625 77.6875 133.964844 76.785156 C 132.855469 76.257812 131.695312 75.734375 130.449219 75.722656 C 127.367188 75.863281 125.832031 77.511719 126.308594 81.496094 C 126.804688 85.175781 129.632812 87.941406 132.152344 90.4375 C 136.878906 94.894531 142.730469 97.910156 148.628906 100.511719 C 154.074219 103.050781 161.195312 105.59375 167.617188 107.210938 C 168.609375 107.441406 169.609375 107.65625 170.609375 107.851562 C 170.902344 112.335938 170.023438 116.652344 168.65625 121.394531 C 167.445312 125.226562 166.507812 128.746094 164.671875 131.796875 C 161.875 136.058594 158.546875 139.949219 155.75 144.21875 C 153.375 147.5 151.339844 151.089844 150.558594 155.109375 C 149.570312 159.765625 149.734375 164.636719 150.730469 169.277344 C 151.125 170.671875 151.644531 172.027344 152.25 173.34375 C 152.121094 173.347656 151.988281 173.351562 151.859375 173.355469 C 147.792969 174.027344 143.632812 174.503906 140.054688 176.460938 C 137.886719 177.769531 137.382812 179.171875 137.960938 180.839844 C 139.390625 184.992188 145.257812 185.003906 148.925781 184.976562 C 152.871094 185.007812 156.8125 184.742188 160.753906 184.664062 C 166.980469 184.417969 173.210938 184.308594 179.429688 183.914062 C 180.972656 183.820312 182.511719 183.699219 184.046875 183.53125 C 184.265625 183.476562 184.519531 183.472656 184.761719 183.449219 C 185.285156 188 193.378906 186.792969 204.777344 187.242188 C 216.367188 187.699219 232.617188 186.402344 244.15625 185.316406 C 256.769531 184.125 255.691406 178.972656 256.207031 178.277344 C 257.332031 178.332031 258.460938 178.324219 259.59375 178.214844 C 263.375 177.992188 267.164062 177.25 270.589844 175.589844 C 277.109375 172.652344 281.921875 166.804688 284.832031 160.390625 C 287.835938 153.691406 289.140625 146.320312 289.832031 139.046875 C 290.128906 135.789062 289.523438 132.539062 289.105469 129.316406 C 288.507812 123.605469 286.777344 116.140625 286.171875 110.359375 C 285.675781 104.566406 285.667969 98.722656 285.960938 92.917969 C 286.226562 88.621094 286.792969 85.417969 287.5 81.058594 Z M 287.5 81.058594 " fill-opacity="1" fill-rule="nonzero"/><path fill="#ffffff" d="M 215.050781 38.941406 C 215.539062 39.050781 216.011719 39.207031 216.464844 39.410156 C 216.921875 39.613281 217.355469 39.859375 217.761719 40.148438 C 218.171875 40.4375 218.546875 40.761719 218.890625 41.125 C 219.234375 41.488281 219.539062 41.878906 219.804688 42.304688 C 220.070312 42.726562 220.292969 43.171875 220.472656 43.636719 C 220.652344 44.101562 220.78125 44.582031 220.867188 45.074219 C 220.949219 45.566406 220.984375 46.0625 220.972656 46.5625 C 220.960938 47.0625 220.898438 47.554688 220.785156 48.039062 C 220.675781 48.527344 220.519531 49 220.316406 49.457031 C 220.113281 49.910156 219.863281 50.34375 219.578125 50.75 C 219.289062 51.160156 218.960938 51.535156 218.597656 51.878906 C 218.238281 52.222656 217.84375 52.527344 217.421875 52.792969 C 217 53.058594 216.554688 53.28125 216.085938 53.460938 C 215.621094 53.636719 215.140625 53.769531 214.648438 53.851562 C 214.15625 53.9375 213.660156 53.972656 213.160156 53.960938 C 212.660156 53.945312 212.167969 53.882812 211.679688 53.773438 C 211.191406 53.664062 210.722656 53.503906 210.265625 53.300781 C 209.808594 53.097656 209.375 52.851562 208.96875 52.5625 C 208.5625 52.273438 208.1875 51.949219 207.84375 51.585938 C 207.5 51.226562 207.195312 50.832031 206.925781 50.410156 C 206.660156 49.988281 206.4375 49.542969 206.257812 49.074219 C 206.082031 48.609375 205.949219 48.128906 205.867188 47.636719 C 205.78125 47.144531 205.746094 46.648438 205.757812 46.152344 C 205.773438 45.652344 205.835938 45.160156 205.945312 44.671875 C 206.054688 44.183594 206.214844 43.714844 206.417969 43.257812 C 206.621094 42.800781 206.867188 42.371094 207.15625 41.960938 C 207.445312 41.554688 207.769531 41.179688 208.132812 40.835938 C 208.496094 40.492188 208.886719 40.1875 209.3125 39.921875 C 209.734375 39.65625 210.179688 39.433594 210.644531 39.253906 C 211.113281 39.074219 211.589844 38.945312 212.082031 38.859375 C 212.574219 38.777344 213.070312 38.738281 213.570312 38.753906 C 214.070312 38.765625 214.5625 38.828125 215.050781 38.941406 Z M 215.050781 38.941406 " fill-opacity="1" fill-rule="nonzero"/><path fill="#ffffff" d="M 196.125 41.570312 C 196.421875 41.949219 196.675781 42.351562 196.890625 42.78125 C 197.105469 43.210938 197.277344 43.65625 197.40625 44.117188 C 197.535156 44.582031 197.613281 45.050781 197.648438 45.53125 C 197.683594 46.007812 197.671875 46.484375 197.613281 46.960938 C 197.554688 47.4375 197.449219 47.902344 197.296875 48.359375 C 197.144531 48.816406 196.953125 49.25 196.714844 49.667969 C 196.476562 50.085938 196.203125 50.476562 195.886719 50.839844 C 195.574219 51.203125 195.226562 51.53125 194.847656 51.824219 C 194.46875 52.121094 194.066406 52.375 193.636719 52.589844 C 193.207031 52.804688 192.761719 52.976562 192.296875 53.105469 C 191.835938 53.230469 191.363281 53.3125 190.886719 53.347656 C 190.40625 53.382812 189.929688 53.371094 189.453125 53.308594 C 188.976562 53.25 188.511719 53.144531 188.054688 52.996094 C 187.601562 52.84375 187.164062 52.648438 186.746094 52.414062 C 186.328125 52.175781 185.9375 51.902344 185.574219 51.585938 C 185.210938 51.273438 184.882812 50.925781 184.585938 50.546875 C 184.292969 50.167969 184.039062 49.765625 183.820312 49.335938 C 183.605469 48.90625 183.433594 48.460938 183.308594 48 C 183.179688 47.535156 183.097656 47.066406 183.066406 46.585938 C 183.03125 46.109375 183.042969 45.632812 183.101562 45.15625 C 183.160156 44.679688 183.265625 44.214844 183.417969 43.757812 C 183.566406 43.304688 183.761719 42.867188 184 42.449219 C 184.238281 42.03125 184.511719 41.640625 184.824219 41.277344 C 185.140625 40.914062 185.488281 40.585938 185.867188 40.292969 C 186.246094 39.996094 186.648438 39.742188 187.078125 39.527344 C 187.507812 39.3125 187.953125 39.140625 188.414062 39.011719 C 188.878906 38.886719 189.347656 38.804688 189.828125 38.769531 C 190.304688 38.734375 190.785156 38.746094 191.261719 38.808594 C 191.738281 38.867188 192.203125 38.972656 192.660156 39.121094 C 193.113281 39.273438 193.550781 39.46875 193.96875 39.703125 C 194.386719 39.941406 194.777344 40.21875 195.140625 40.53125 C 195.503906 40.84375 195.832031 41.191406 196.125 41.570312 Z M 196.125 41.570312 " fill-opacity="1" fill-rule="nonzero"/><path fill="#ffffff" d="M 202.261719 51.007812 C 201.261719 51.015625 200.246094 51.03125 199.25 51.152344 C 199.105469 51.1875 198.945312 51.304688 199.039062 51.457031 C 199.121094 51.578125 199.101562 51.535156 199.167969 51.621094 C 199.511719 51.964844 199.914062 52.269531 200.253906 52.621094 C 200.449219 52.820312 200.617188 53.039062 200.863281 52.929688 C 201.257812 52.566406 201.648438 52.195312 202.035156 51.816406 C 202.148438 51.703125 202.925781 51.125 202.261719 51.007812 Z M 202.261719 51.007812 " fill-opacity="1" fill-rule="nonzero"/><path fill="#000000" d="M 211.449219 44.042969 C 212.613281 46.132812 212.699219 48.816406 211.65625 50.90625 C 210.5625 48.945312 210.382812 46.429688 211.449219 44.042969 Z M 211.449219 44.042969 " fill-opacity="1" fill-rule="nonzero"/><path fill="#000000" d="M 188.335938 44.246094 C 189.464844 46.273438 189.546875 48.878906 188.539062 50.90625 C 187.476562 49 187.300781 46.5625 188.335938 44.246094 Z M 188.335938 44.246094 " fill-opacity="1" fill-rule="nonzero"/><path fill="#ffffff" d="M 226.894531 110.308594 C 226.636719 110.683594 226.628906 111.195312 226.449219 111.617188 C 225.945312 113.125 225.558594 113.953125 224.816406 115.410156 C 221.71875 120.804688 218.359375 125.164062 213.789062 129.457031 C 211.308594 131.792969 208.414062 133.523438 205.152344 135.34375 C 201.402344 137.578125 196.769531 139.636719 193.261719 139.125 C 189.632812 138.59375 188.675781 136.191406 189.886719 133.417969 C 190.800781 131.339844 191.878906 130.191406 193.183594 128.554688 C 195.59375 125.652344 198.253906 122.949219 200.390625 119.828125 C 203.925781 114.636719 207.613281 109.253906 208.558594 102.902344 C 208.679688 102.167969 208.777344 101.425781 208.824219 100.675781 C 208.847656 100.375 208.933594 99.96875 208.574219 99.835938 C 208.296875 99.699219 207.941406 99.9375 207.953125 100.246094 C 207.542969 105.597656 205.484375 110.136719 202.320312 114.839844 C 200.367188 117.804688 198.703125 120.359375 196.542969 122.84375 C 194.796875 124.90625 192.949219 126.882812 191.285156 129.007812 C 190.089844 130.488281 188.992188 132.089844 188.425781 133.917969 C 187.207031 137.496094 189.683594 140.050781 193.167969 140.445312 C 197.742188 140.921875 202.039062 138.636719 205.894531 136.449219 C 210.726562 133.902344 215.132812 130.582031 218.636719 126.371094 C 221.269531 123.269531 223.8125 120.039062 225.660156 116.398438 C 226.261719 115.109375 227.28125 112.902344 227.746094 110.800781 C 227.882812 110.320312 227.25 109.933594 226.894531 110.308594 Z M 226.894531 110.308594 " fill-opacity="1" fill-rule="nonzero"/><path fill="#ffffff" d="M 219.621094 147.292969 C 219.058594 147.183594 218.601562 147.839844 218.160156 148.109375 C 215.339844 150.328125 213.558594 153.570312 212.074219 156.777344 C 210.730469 159.738281 209.976562 162.914062 208.914062 165.976562 C 208.613281 166.992188 207.101562 169.777344 206.503906 170.46875 C 203.660156 174.074219 198.898438 174.683594 194.222656 176.074219 C 191.175781 177.066406 187.929688 178.378906 185.929688 180.996094 C 185.511719 181.707031 185.210938 182.203125 185.320312 183.15625 C 185.511719 183.660156 186.316406 183.5 186.300781 182.957031 C 186.363281 181.417969 188.171875 180.152344 190.089844 179.015625 C 193.046875 177.332031 196.703125 176.683594 200.269531 175.570312 C 202.222656 175.035156 204.15625 174.296875 205.773438 173.050781 C 208.910156 170.570312 210.195312 166.535156 211.277344 162.832031 C 212.394531 159.351562 213.328125 156.699219 215.226562 153.617188 C 216.246094 152.011719 216.832031 151.105469 218.136719 149.8125 C 218.683594 149.308594 219.246094 148.820312 219.816406 148.34375 C 219.875 148.296875 219.855469 148.3125 219.824219 148.335938 C 220.191406 148.0625 220.089844 147.402344 219.621094 147.292969 Z M 219.621094 147.292969 " fill-opacity="1" fill-rule="nonzero"/><path fill="#ffffff" d="M 187.855469 24.707031 C 187.53125 23.964844 187.195312 23.226562 186.835938 22.503906 C 185.78125 20.457031 184.566406 18.507812 183.230469 16.632812 C 183.050781 16.425781 182.964844 16.097656 182.6875 16.007812 C 182.351562 15.902344 182.039062 16.304688 182.226562 16.605469 C 184.191406 19.324219 186.398438 23.445312 187.257812 25.769531 C 187.371094 26.234375 188.078125 26.234375 188.191406 25.769531 C 188.253906 25.394531 187.964844 25.054688 187.855469 24.707031 Z M 187.855469 24.707031 " fill-opacity="1" fill-rule="nonzero"/><path fill="#ffffff" d="M 185.378906 25.996094 C 184.839844 24.195312 184.085938 22.460938 183.164062 20.816406 C 182.960938 20.457031 182.398438 20.785156 182.613281 21.140625 C 183.277344 22.394531 183.816406 23.558594 184.25 24.761719 C 184.445312 25.3125 184.492188 25.929688 184.738281 26.457031 C 185.042969 26.851562 185.625 26.421875 185.378906 25.996094 Z M 185.378906 25.996094 " fill-opacity="1" fill-rule="nonzero"/><path fill="#ffffff" d="M 226.921875 14.121094 C 224.234375 16.402344 222.03125 19.277344 220.390625 22.386719 C 220.089844 23.011719 219.796875 23.636719 219.582031 24.292969 C 219.53125 24.433594 219.542969 24.589844 219.617188 24.714844 C 219.808594 25.058594 220.332031 25.015625 220.492188 24.679688 C 220.484375 24.695312 220.484375 24.703125 220.492188 24.675781 C 220.503906 24.652344 220.515625 24.625 220.527344 24.601562 C 221.230469 22.324219 223.332031 19.257812 224.796875 17.453125 C 225.601562 16.449219 226.46875 15.488281 227.4375 14.636719 C 227.773438 14.3125 227.253906 13.78125 226.921875 14.121094 Z M 226.921875 14.121094 " fill-opacity="1" fill-rule="nonzero"/><path fill="#ffffff" d="M 226.414062 18.953125 C 225.128906 20.378906 224.015625 21.996094 223.339844 23.800781 C 223.128906 24.386719 222.960938 24.988281 222.863281 25.601562 C 222.832031 25.710938 222.847656 25.832031 222.90625 25.929688 C 223.035156 26.164062 223.382812 26.207031 223.570312 26.011719 C 223.753906 25.804688 223.699219 25.480469 223.785156 25.226562 C 224.152344 23.550781 224.789062 22.363281 225.8125 20.882812 C 226.234375 20.261719 226.503906 20.027344 227.015625 19.355469 C 227.191406 19.003906 226.683594 18.664062 226.414062 18.953125 Z M 226.414062 18.953125 " fill-opacity="1" fill-rule="nonzero"/><path stroke-linecap="butt" transform="matrix(-0.734485, 0.130865, -0.130865, -0.734485, 193.036493, 96.941496)" fill="none" stroke-linejoin="miter" d="M 0.00178004 2.000138 L 6.261744 1.998639 " stroke="#000000" stroke-width="4" stroke-opacity="1" stroke-miterlimit="4"/></svg>