<svg xmlns="http://www.w3.org/2000/svg" xmlns:xlink="http://www.w3.org/1999/xlink" width="480" zoomAndPan="magnify" viewBox="0 0 360 182.249993" height="243" preserveAspectRatio="xMidYMid meet" version="1.0"><defs><clipPath id="fda1b21d75"><path d="M 3 0 L 359 0 L 359 181.503906 L 3 181.503906 Z M 3 0 " clip-rule="nonzero"/></clipPath><clipPath id="943d1e1369"><path d="M 226 131 L 333 131 L 333 181.503906 L 226 181.503906 Z M 226 131 " clip-rule="nonzero"/></clipPath><clipPath id="9dd348956c"><path d="M 58 131 L 165 131 L 165 181.503906 L 58 181.503906 Z M 58 131 " clip-rule="nonzero"/></clipPath><clipPath id="df787995a5"><path d="M 73 147 L 142 147 L 142 181.503906 L 73 181.503906 Z M 73 147 " clip-rule="nonzero"/></clipPath><clipPath id="4da417a96b"><path d="M 252 147 L 322 147 L 322 181.503906 L 252 181.503906 Z M 252 147 " clip-rule="nonzero"/></clipPath></defs><g clip-path="url(#fda1b21d75)"><path fill="#000000" d="M 5.871094 19.605469 C 6.503906 13.667969 7.59375 7.121094 12.246094 3.394531 C 16.328125 0.132812 22.238281 0 27.160156 1.746094 C 32.074219 3.492188 36.238281 6.867188 40.246094 10.210938 C 64.6875 30.613281 87.714844 52.699219 109.9375 76.214844 C 124.707031 65.28125 156.578125 58.769531 181.753906 58.992188 C 203.960938 59.1875 245.972656 63.300781 265.542969 73.871094 C 284.597656 50.648438 303.8125 27.242188 327.171875 8.355469 C 330.46875 5.679688 333.949219 3.042969 338.019531 1.808594 C 342.085938 0.574219 346.910156 1 350.015625 3.898438 C 352.285156 6.011719 353.347656 9.089844 354.167969 12.070312 C 356.964844 22.417969 357.710938 33.203125 358.0625 43.929688 C 359.261719 79.328125 356.425781 114.878906 349.464844 149.496094 C 352.371094 158.367188 354.398438 170.4375 355.179688 181.492188 L 12.039062 181.492188 C 12.625 174.90625 13.699219 168.675781 15.128906 163.765625 C 3.902344 116.699219 0.75 67.710938 5.871094 19.605469 Z M 5.871094 19.605469 " fill-opacity="1" fill-rule="nonzero"/></g><g clip-path="url(#943d1e1369)"><path fill="#ffffff" d="M 226.535156 181.492188 C 227.929688 153.457031 251.113281 131.148438 279.492188 131.148438 C 307.871094 131.148438 331.042969 153.457031 332.4375 181.492188 Z M 226.535156 181.492188 " fill-opacity="1" fill-rule="nonzero"/></g><g clip-path="url(#9dd348956c)"><path fill="#ffffff" d="M 164.039062 181.492188 C 162.648438 153.457031 139.472656 131.148438 111.097656 131.148438 C 82.71875 131.148438 59.535156 153.457031 58.140625 181.492188 Z M 164.039062 181.492188 " fill-opacity="1" fill-rule="nonzero"/></g><g clip-path="url(#df787995a5)"><path fill="#000000" d="M 73.03125 181.492188 C 73.03125 162.59375 88.351562 147.273438 107.25 147.273438 C 126.148438 147.273438 141.476562 162.59375 141.476562 181.492188 Z M 73.03125 181.492188 " fill-opacity="1" fill-rule="nonzero"/></g><g clip-path="url(#4da417a96b)"><path fill="#000000" d="M 252.738281 181.492188 C 252.738281 162.59375 268.058594 147.273438 286.957031 147.273438 C 305.855469 147.273438 321.171875 162.59375 321.171875 181.492188 Z M 252.738281 181.492188 " fill-opacity="1" fill-rule="nonzero"/></g><path fill="#ffffff" d="M 11.28125 59.625 C 11.429688 81.691406 13.003906 103.773438 15.808594 125.660156 C 16.292969 128.976562 17.730469 136.785156 18.78125 141.847656 C 19.195312 143.1875 21.320312 142.765625 20.964844 141.246094 C 20.585938 136.949219 20.023438 131.296875 19.742188 126.5 C 18.644531 112.90625 17.097656 99.347656 16.132812 85.742188 C 15.582031 76.027344 15.5625 66.292969 15.570312 56.566406 C 15.777344 43.9375 15.390625 33.625 19.085938 22.160156 C 20.4375 19.460938 19.980469 18.9375 26.308594 23.515625 C 39.523438 32.671875 54.203125 45.84375 68.25 59.625 C 74.988281 66.078125 81.46875 72.785156 87.914062 79.527344 C 88.941406 80.53125 90.09375 81.957031 90.398438 82.304688 C 90.832031 82.976562 91.230469 83.738281 92.089844 83.925781 C 93.664062 84.386719 95.28125 82.8125 94.792969 81.21875 C 93.699219 78.226562 89.542969 73.722656 89.078125 73.023438 C 84.773438 68.164062 80.292969 63.472656 75.714844 58.871094 C 63.820312 46.878906 51.453125 35.28125 37.800781 25.292969 C 34.214844 22.640625 30.671875 19.925781 26.929688 17.5 C 23.234375 14.644531 18.082031 13.699219 15.402344 18.378906 C 13.21875 23.269531 12.644531 28.722656 11.996094 33.992188 C 11.234375 42.515625 11.207031 51.074219 11.28125 59.625 Z M 11.28125 59.625 " fill-opacity="1" fill-rule="nonzero"/><path fill="#ffffff" d="M 281.378906 78.925781 C 281.769531 80.476562 284.03125 80.789062 284.804688 79.375 C 291.417969 68.28125 296.441406 61.847656 303.839844 52.675781 C 311.488281 43.050781 319.519531 33.6875 328.378906 25.152344 C 331.511719 22.097656 335.289062 19.378906 337.105469 18.660156 C 337.152344 18.648438 337.203125 18.640625 337.253906 18.632812 C 337.425781 18.636719 337.578125 18.640625 337.699219 18.644531 C 337.789062 18.667969 337.882812 18.6875 337.972656 18.71875 C 338.023438 18.742188 338.101562 18.785156 338.195312 18.847656 C 338.164062 18.820312 338.136719 18.792969 338.113281 18.773438 C 338.070312 18.757812 338.039062 18.746094 338.011719 18.730469 C 338.042969 18.742188 338.074219 18.757812 338.109375 18.769531 C 338.027344 18.691406 338.007812 18.664062 338.132812 18.777344 C 338.226562 18.8125 338.324219 18.84375 338.414062 18.882812 C 338.300781 18.84375 338.210938 18.808594 338.136719 18.78125 C 338.160156 18.800781 338.195312 18.835938 338.226562 18.867188 C 338.320312 18.925781 338.417969 18.996094 338.527344 19.082031 C 338.449219 19.042969 338.359375 18.980469 338.28125 18.917969 C 338.53125 19.148438 338.738281 19.394531 338.941406 19.644531 C 339.023438 19.765625 339.117188 19.914062 339.191406 20.070312 C 343.289062 28.601562 344.003906 40.730469 344.371094 52.613281 C 344.542969 63 344.308594 73.402344 343.480469 83.753906 C 342.511719 94.730469 340.949219 105.644531 340.09375 116.628906 C 339.804688 120.320312 339.519531 124.007812 339.25 127.699219 C 339.070312 128.660156 340.042969 129.5625 340.996094 129.273438 C 341.652344 129.097656 342.054688 128.453125 342.035156 127.789062 C 341.917969 129.109375 342.300781 125.847656 342.367188 125.742188 C 343.324219 119.902344 344.464844 112.21875 345.007812 108.566406 C 347.117188 93.648438 348.9375 80.855469 349.226562 65.117188 C 349.484375 54.078125 350.609375 19.351562 340.210938 13.78125 C 334.542969 11.191406 329.734375 16.71875 325.730469 20.234375 C 320.660156 25.363281 315.773438 30.671875 311.070312 36.144531 C 300.914062 48.488281 290.628906 60.941406 282.921875 75.011719 C 282.386719 76.28125 281.082031 77.46875 281.378906 78.925781 Z M 281.378906 78.925781 " fill-opacity="1" fill-rule="nonzero"/><path fill="#ffffff" d="M 338.195312 18.847656 C 338.222656 18.871094 338.25 18.894531 338.28125 18.917969 C 338.261719 18.898438 338.246094 18.882812 338.226562 18.867188 C 338.21875 18.859375 338.207031 18.851562 338.195312 18.847656 Z M 338.195312 18.847656 " fill-opacity="1" fill-rule="nonzero"/><path stroke-linecap="butt" transform="matrix(-0.735345, 0.131018, -0.131018, -0.735345, 42.734249, 100.753987)" fill="none" stroke-linejoin="miter" d="M -0.000148835 1.997444 L 6.262792 1.997781 " stroke="#000000" stroke-width="4" stroke-opacity="1" stroke-miterlimit="4"/></svg>