<svg xmlns="http://www.w3.org/2000/svg" xmlns:xlink="http://www.w3.org/1999/xlink" width="265" zoomAndPan="magnify" viewBox="0 0 198.75 189.000001" height="252" preserveAspectRatio="xMidYMid meet" version="1.0"><defs><clipPath id="79db2c8801"><path d="M 0.398438 0 L 198 0 L 198 188 L 0.398438 188 Z M 0.398438 0 " clip-rule="nonzero"/></clipPath></defs><g clip-path="url(#79db2c8801)"><path fill="#000000" d="M 197.679688 181.933594 C 197.230469 186.203125 191.847656 187.925781 187.558594 187.6875 C 175.5 187.023438 165.226562 179.246094 155.089844 172.695312 C 144.949219 166.136719 132.628906 160.363281 121.5625 164.035156 C 102.800781 171.15625 82.679688 173.753906 62.769531 176.296875 C 60.789062 176.550781 58.734375 176.796875 56.824219 176.207031 C 54.914062 175.617188 53.1875 173.941406 53.207031 171.945312 C 53.230469 169.242188 56.109375 167.609375 58.519531 165.875 C 55.457031 166.109375 53.011719 168.382812 50.363281 169.929688 C 47.996094 171.3125 45.316406 172.15625 42.585938 172.378906 C 42.292969 172.410156 42 172.425781 41.707031 172.433594 C 41.433594 172.445312 41.164062 172.449219 40.890625 172.445312 C 40.257812 172.441406 39.578125 172.355469 38.9375 172.171875 C 38.605469 172.085938 38.292969 171.972656 38.003906 171.828125 C 37.050781 171.378906 36.332031 170.660156 36.234375 169.621094 C 36.03125 167.472656 38.578125 166.304688 40.175781 164.851562 C 42.496094 162.734375 43.007812 159.328125 43.265625 156.203125 C 44.140625 145.554688 43.671875 134.800781 41.742188 124.410156 C 38.914062 120.871094 36.054688 117.304688 32.558594 114.421875 C 29.058594 111.539062 24.828125 109.355469 20.308594 109.046875 C 19.359375 108.984375 18.359375 109.007812 17.515625 109.453125 C 15.84375 110.328125 15.34375 112.523438 15.515625 114.40625 C 15.691406 116.289062 16.347656 118.132812 16.222656 120.019531 C 16.125 121.554688 15.253906 123.191406 13.917969 123.761719 C 13.609375 123.894531 13.277344 123.972656 12.921875 123.976562 C 12.921875 124.097656 12.910156 124.214844 12.890625 124.328125 C 12.671875 125.5625 11.398438 126.480469 10.117188 126.640625 C 10.089844 126.640625 10.074219 126.644531 10.0625 126.644531 C 8.78125 126.777344 7.523438 126.347656 6.316406 125.871094 C 6.1875 125.820312 6.0625 125.765625 5.933594 125.71875 C 5.328125 125.476562 4.714844 125.226562 4.238281 124.789062 C 3.519531 124.121094 3.222656 123.121094 2.957031 122.175781 C 1.886719 118.367188 0.8125 114.519531 0.605469 110.574219 C 0.394531 106.621094 1.125 102.503906 3.386719 99.261719 C 8.472656 91.96875 19.847656 90.730469 23.96875 82.851562 C 26.445312 78.125 25.496094 72.394531 24.519531 67.78125 C 21.421875 62.359375 15.191406 58.5625 14.222656 52.390625 C 13.921875 50.480469 14.183594 48.523438 14.449219 46.605469 C 15.675781 37.742188 17.003906 28.890625 18.867188 20.183594 C 17.558594 13.988281 16.25 7.628906 17.191406 1.367188 C 17.253906 0.957031 17.363281 0.492188 17.726562 0.292969 C 18.121094 0.0703125 18.609375 0.28125 19.015625 0.488281 C 24.035156 3.085938 28.84375 6.097656 33.371094 9.480469 C 34.738281 10.503906 36.339844 11.328125 37.945312 11.0625 C 47.722656 9.441406 58.171875 12.578125 65.441406 19.3125 C 72.707031 26.046875 76.625 36.226562 75.757812 46.089844 C 75.566406 48.203125 75.175781 50.3125 75.332031 52.425781 C 75.636719 56.460938 77.882812 60.046875 80.070312 63.453125 C 84.78125 70.785156 89.523438 78.164062 95.414062 84.59375 C 98.980469 88.488281 102.941406 92.007812 106.472656 95.9375 C 119.582031 110.539062 126.117188 130.828125 124.074219 151.808594 C 132.90625 150.980469 142.351562 150.277344 150.121094 154.5625 C 155.21875 157.371094 159.027344 162.066406 163.929688 165.203125 C 171.679688 170.171875 181.34375 170.820312 190.042969 173.828125 C 193.839844 175.140625 198.09375 177.9375 197.679688 181.933594 Z M 197.679688 181.933594 " fill-opacity="1" fill-rule="nonzero"/></g><path fill="#ffffff" d="M 41.140625 57.390625 C 39.25 53.929688 39.859375 49.246094 42.65625 46.460938 C 45.453125 43.679688 50.234375 43.125 53.535156 45.285156 C 56.339844 47.125 57.835938 50.582031 57.8125 53.9375 C 57.796875 56.527344 56.898438 59.183594 55.003906 60.945312 C 53.203125 62.621094 50.59375 63.347656 48.167969 62.941406 C 45.746094 62.535156 43.234375 61.222656 41.140625 57.390625 Z M 41.140625 57.390625 " fill-opacity="1" fill-rule="nonzero"/><path fill="#ffffff" d="M 18.816406 51.996094 C 15.851562 48.644531 15.402344 39.566406 20.035156 37.703125 C 22.910156 36.542969 27.070312 38.042969 29.101562 43.769531 C 31.867188 51.585938 25.664062 59.734375 18.816406 51.996094 Z M 18.816406 51.996094 " fill-opacity="1" fill-rule="nonzero"/><path fill="#ffffff" d="M 33.417969 56.300781 C 34.390625 56.386719 35.339844 56.726562 36.144531 57.273438 C 36.316406 57.386719 36.496094 57.550781 36.476562 57.753906 C 36.464844 57.855469 36.40625 57.941406 36.347656 58.023438 C 35.957031 58.554688 35.464844 59.007812 34.90625 59.351562 C 34.355469 59.691406 33.632812 59.921875 33.074219 59.59375 C 32.871094 59.472656 32.710938 59.292969 32.5625 59.109375 C 32.085938 58.519531 31.675781 57.878906 31.339844 57.203125 C 31.265625 57.050781 31.191406 56.875 31.253906 56.714844 C 31.316406 56.554688 31.492188 56.472656 31.660156 56.421875 C 32.296875 56.226562 32.992188 56.261719 33.417969 56.300781 Z M 33.417969 56.300781 " fill-opacity="1" fill-rule="nonzero"/><path fill="#000000" d="M 47.261719 51.949219 C 48.082031 54.53125 47.972656 57.402344 46.953125 59.914062 C 46.816406 60.253906 46.320312 60.234375 46.207031 59.886719 C 45.328125 57.210938 45.425781 54.246094 46.523438 51.894531 C 46.675781 51.570312 47.15625 51.609375 47.261719 51.949219 Z M 47.261719 51.949219 " fill-opacity="1" fill-rule="nonzero"/><path fill="#000000" d="M 22.203125 44.574219 C 23.023438 47.15625 22.910156 50.027344 21.894531 52.539062 C 21.757812 52.878906 21.257812 52.863281 21.144531 52.511719 C 20.265625 49.835938 20.367188 46.871094 21.464844 44.519531 C 21.613281 44.199219 22.09375 44.234375 22.203125 44.574219 Z M 22.203125 44.574219 " fill-opacity="1" fill-rule="nonzero"/><path fill="#ffffff" d="M 22.363281 8.421875 C 21.390625 5.621094 20.585938 3.511719 19.015625 1.035156 C 18.640625 0.710938 18.066406 1.214844 18.332031 1.636719 C 19.445312 3.824219 20.175781 5.820312 21.023438 8.335938 C 21.867188 10.863281 22.617188 13.429688 23.058594 16.0625 C 23.132812 16.300781 23.035156 16.269531 23.234375 16.535156 C 23.511719 16.832031 24.054688 16.59375 24.015625 16.1875 C 23.824219 13.539062 23.234375 10.929688 22.363281 8.421875 Z M 22.363281 8.421875 " fill-opacity="1" fill-rule="nonzero"/><path fill="#ffffff" d="M 66.339844 29.984375 C 66.078125 27.476562 65.453125 25.03125 64.789062 22.605469 C 63.945312 19.4375 64.035156 18.992188 60.96875 19.457031 C 58.296875 19.933594 55.710938 20.828125 53.265625 22.003906 C 51.476562 22.847656 49.886719 24.019531 48.265625 25.136719 C 47.855469 25.382812 48.210938 26.015625 48.636719 25.777344 C 50.296875 24.652344 52.507812 23.378906 53.972656 22.824219 C 55.0625 22.351562 57.207031 21.558594 58.832031 21.210938 C 60.054688 20.960938 60.800781 20.785156 61.765625 20.734375 C 57.578125 24.316406 54.226562 27.980469 51.703125 32.902344 C 51.601562 33.066406 51.503906 33.257812 51.78125 33.390625 C 52.097656 33.429688 52.148438 33.082031 52.390625 32.847656 C 54.316406 30.214844 56.3125 28.03125 59.097656 25.113281 C 60.339844 23.765625 61.710938 22.546875 63 21.25 C 63.128906 21.652344 63.257812 22.152344 63.390625 22.605469 C 64.066406 25.003906 64.703125 27.417969 65.0625 29.886719 C 65.320312 31.476562 65.527344 34.0625 65.679688 36.539062 C 65.757812 37.234375 65.742188 38.160156 65.824219 38.90625 C 65.910156 39.160156 66.328125 39.085938 66.316406 38.808594 C 66.609375 36.234375 66.675781 32.972656 66.339844 29.984375 Z M 66.339844 29.984375 " fill-opacity="1" fill-rule="nonzero"/><path fill="#ffffff" d="M 62.011719 25.570312 C 58.972656 27.625 55.863281 30.332031 54.277344 33.53125 C 54.191406 33.660156 54.324219 33.839844 54.472656 33.792969 C 54.609375 33.734375 54.664062 33.574219 54.8125 33.414062 C 56.390625 31.527344 58.269531 29.910156 60.078125 28.25 C 60.632812 27.765625 61.183594 27.277344 61.757812 26.8125 C 62.019531 26.558594 62.394531 26.386719 62.585938 26.074219 C 62.753906 25.738281 62.328125 25.367188 62.011719 25.570312 Z M 62.011719 25.570312 " fill-opacity="1" fill-rule="nonzero"/><path fill="#ffffff" d="M 56.636719 33.445312 C 56.652344 33.429688 56.652344 33.421875 56.660156 33.417969 C 56.65625 33.421875 56.648438 33.433594 56.636719 33.445312 Z M 56.636719 33.445312 " fill-opacity="1" fill-rule="nonzero"/><path fill="#ffffff" d="M 62.199219 28.945312 C 60.574219 29.789062 59.136719 30.953125 57.8125 32.207031 C 57.402344 32.59375 57.003906 33 56.644531 33.4375 C 56.585938 33.503906 56.550781 33.585938 56.550781 33.675781 C 56.546875 33.867188 56.722656 34.042969 56.914062 34.039062 C 57.21875 33.996094 57.230469 33.84375 57.578125 33.597656 C 58.75 32.542969 60.378906 31.085938 61.121094 30.574219 C 61.535156 30.269531 61.953125 29.96875 62.398438 29.707031 C 62.539062 29.625 62.714844 29.550781 62.753906 29.375 C 62.851562 29.058594 62.476562 28.769531 62.199219 28.945312 Z M 62.199219 28.945312 " fill-opacity="1" fill-rule="nonzero"/><path fill="#ffffff" d="M 62.21875 31.308594 C 60.835938 31.914062 59.613281 32.824219 58.476562 33.804688 C 58.28125 34.019531 57.925781 34.171875 57.910156 34.496094 C 57.90625 34.753906 58.171875 34.957031 58.421875 34.886719 C 58.664062 34.785156 59.226562 34.332031 59.695312 34.023438 C 60.683594 33.269531 61.746094 32.597656 62.804688 31.976562 C 63.121094 31.609375 62.625 31.050781 62.21875 31.308594 Z M 62.21875 31.308594 " fill-opacity="1" fill-rule="nonzero"/><path fill="#ffffff" d="M 40.570312 167.632812 C 40.125 168.128906 39.488281 168.460938 39.089844 169.011719 C 38.519531 169.753906 38.328125 170.574219 38.695312 171.683594 C 38.71875 171.828125 38.835938 171.984375 38.933594 172.171875 C 38.605469 172.085938 38.292969 171.972656 38.003906 171.828125 C 37.871094 171.441406 37.808594 171.03125 37.8125 170.625 C 37.777344 169.136719 38.992188 168.125 40.082031 167.308594 C 40.300781 167.070312 40.710938 167.347656 40.570312 167.632812 Z M 40.570312 167.632812 " fill-opacity="1" fill-rule="nonzero"/><path fill="#ffffff" d="M 42.183594 169.628906 C 41.8125 170.394531 42 171.542969 42.535156 172.300781 C 42.550781 172.332031 42.570312 172.359375 42.585938 172.378906 C 42.292969 172.410156 42 172.425781 41.707031 172.433594 C 41.59375 172.199219 41.507812 171.953125 41.433594 171.707031 C 41.003906 170.257812 41.542969 169.054688 42.585938 167.875 C 42.777344 167.667969 43.15625 167.824219 43.144531 168.105469 C 43.144531 168.292969 42.972656 168.410156 42.875 168.554688 C 42.746094 168.714844 42.367188 169.214844 42.183594 169.628906 Z M 42.183594 169.628906 " fill-opacity="1" fill-rule="nonzero"/><path fill="#ffffff" d="M 10.101562 126.640625 C 10.089844 126.640625 10.074219 126.644531 10.0625 126.644531 C 8.78125 126.777344 7.523438 126.347656 6.316406 125.871094 C 6.191406 125.765625 6.074219 125.660156 5.957031 125.554688 C 5.015625 124.554688 4.65625 123.207031 4.554688 121.871094 C 4.542969 121.542969 4.992188 121.359375 5.214844 121.597656 C 5.367188 121.75 5.324219 121.980469 5.367188 122.171875 C 5.367188 122.191406 5.53125 123.332031 5.695312 123.664062 C 6.210938 125.207031 8.394531 126.480469 9.96875 126.621094 C 10.011719 126.628906 10.054688 126.636719 10.101562 126.640625 Z M 10.101562 126.640625 " fill-opacity="1" fill-rule="nonzero"/><path fill="#ffffff" d="M 13.917969 123.761719 C 13.609375 123.894531 13.277344 123.972656 12.921875 123.976562 C 12.921875 124.097656 12.910156 124.214844 12.890625 124.328125 C 12.417969 124.132812 11.960938 123.886719 11.523438 123.621094 C 10.777344 123.160156 10.035156 122.660156 9.480469 121.972656 C 8.949219 121.335938 8.644531 120.546875 8.445312 119.753906 C 8.304688 119.3125 8.953125 118.984375 9.214844 119.371094 C 9.539062 120.171875 9.523438 120.523438 9.988281 121.179688 C 10.472656 121.957031 11.910156 122.804688 13.257812 123.386719 C 13.339844 123.425781 13.597656 123.539062 13.601562 123.542969 C 13.625 123.550781 13.648438 123.5625 13.671875 123.570312 C 13.691406 123.578125 13.710938 123.585938 13.730469 123.597656 C 13.8125 123.636719 13.875 123.695312 13.917969 123.761719 Z M 13.917969 123.761719 " fill-opacity="1" fill-rule="nonzero"/><path stroke-linecap="butt" transform="matrix(-0.604414, 0.437353, -0.437353, -0.604414, 83.078098, 80.381532)" fill="none" stroke-linejoin="miter" d="M -0.0003623 2.001109 L 31.147207 1.996966 " stroke="#000000" stroke-width="4" stroke-opacity="1" stroke-miterlimit="4"/></svg>