<svg xmlns="http://www.w3.org/2000/svg" xmlns:xlink="http://www.w3.org/1999/xlink" width="425" zoomAndPan="magnify" viewBox="0 0 318.75 189.000001" height="252" preserveAspectRatio="xMidYMid meet" version="1.0"><defs><clipPath id="8b1a8e5b96"><path d="M 106 5 L 289 5 L 289 188.003906 L 106 188.003906 Z M 106 5 " clip-rule="nonzero"/></clipPath></defs><g clip-path="url(#8b1a8e5b96)"><path fill="#ffffff" d="M 197.550781 5.746094 C 147.347656 5.746094 106.507812 46.628906 106.507812 96.875 C 106.507812 147.125 147.347656 188.003906 197.550781 188.003906 C 247.75 188.003906 288.589844 147.125 288.589844 96.875 C 288.589844 46.628906 247.75 5.746094 197.550781 5.746094 Z M 197.550781 5.746094 " fill-opacity="1" fill-rule="nonzero"/><path fill="#000000" d="M 197.546875 188.003906 C 147.347656 188.003906 106.507812 147.125 106.507812 96.875 C 106.507812 46.628906 147.347656 5.746094 197.546875 5.746094 C 247.75 5.746094 288.589844 46.628906 288.589844 96.875 C 288.589844 147.125 247.75 188.003906 197.546875 188.003906 Z M 197.546875 9.332031 C 149.324219 9.332031 110.089844 48.605469 110.089844 96.875 C 110.089844 145.148438 149.324219 184.417969 197.546875 184.417969 C 245.773438 184.417969 285.007812 145.148438 285.007812 96.875 C 285.007812 48.605469 245.773438 9.332031 197.546875 9.332031 Z M 197.546875 9.332031 " fill-opacity="1" fill-rule="nonzero"/></g><path fill="#000000" d="M 197.546875 172.75 C 155.75 172.75 121.746094 138.710938 121.746094 96.875 C 121.746094 55.039062 155.75 21 197.546875 21 C 239.347656 21 273.351562 55.039062 273.351562 96.875 C 273.351562 138.710938 239.347656 172.75 197.546875 172.75 Z M 197.546875 24.585938 C 157.726562 24.585938 125.328125 57.015625 125.328125 96.875 C 125.328125 136.734375 157.726562 169.164062 197.546875 169.164062 C 237.371094 169.164062 269.769531 136.734375 269.769531 96.875 C 269.769531 57.015625 237.371094 24.585938 197.546875 24.585938 Z M 197.546875 24.585938 " fill-opacity="1" fill-rule="nonzero"/><path fill="#000000" d="M 271.363281 104.792969 C 271.308594 102.722656 270.632812 100.722656 270.078125 98.746094 C 268.355469 92.941406 265.414062 87.613281 262.507812 82.335938 C 261.277344 80.128906 259.914062 77.992188 258.789062 75.726562 C 258.410156 74.914062 258.433594 74.988281 258.136719 74.183594 C 258.347656 72.953125 258.539062 71.71875 258.757812 70.488281 C 259.5625 65.746094 259.910156 62.109375 260.6875 57.4375 C 260.675781 57.023438 260.390625 56.699219 260.175781 56.367188 C 259.785156 55.796875 259.386719 55.234375 258.976562 54.675781 C 257.621094 52.820312 256.132812 50.890625 255.082031 49.539062 C 254.445312 48.765625 253.875 47.90625 253.089844 47.277344 C 252.921875 47.15625 252.722656 47.089844 252.519531 47.054688 C 252.320312 46.890625 252.03125 46.832031 251.726562 47.003906 C 250.089844 48.03125 248.34375 48.875 246.714844 49.925781 C 244.210938 51.476562 241.835938 53.214844 239.542969 55.058594 C 237.089844 57.058594 234.53125 59.039062 232.445312 61.425781 C 225.203125 60.734375 217.882812 61.082031 210.667969 61.902344 C 206.230469 62.464844 201.78125 63.160156 197.472656 64.371094 C 197.207031 64.128906 196.855469 63.972656 196.570312 63.761719 C 195.570312 63.132812 194.542969 62.546875 193.503906 61.984375 C 188.285156 59.207031 182.929688 56.632812 177.304688 54.789062 C 175.355469 54.25 171.421875 52.570312 169.738281 54.085938 C 168.917969 54.898438 168.957031 56.148438 169.042969 57.222656 C 169.179688 58.75 169.484375 60.257812 169.855469 61.746094 C 170.582031 64.609375 171.359375 67.457031 172.289062 70.261719 C 173.023438 72.457031 173.792969 74.640625 174.6875 76.773438 C 174.859375 77.191406 175.035156 77.609375 175.21875 78.023438 C 175.136719 78.308594 175.050781 78.59375 174.960938 78.875 C 174.355469 80.863281 173.675781 82.828125 172.96875 84.785156 C 170.132812 92.476562 167.363281 100.339844 166.609375 108.554688 C 165.847656 114.761719 167.707031 119.09375 170.703125 124.367188 C 172.261719 127.292969 174 130.117188 175.679688 132.972656 C 176.699219 134.714844 177.726562 136.484375 177.757812 137.59375 C 177.71875 139.152344 176.46875 141.847656 175.824219 143.40625 C 174.492188 146.46875 171.769531 151.628906 169.890625 155.339844 C 168.933594 157.210938 168.164062 159.164062 167.527344 161.164062 C 167.34375 161.738281 167.175781 162.3125 167.003906 162.890625 C 166.949219 163.089844 166.976562 163.300781 167.078125 163.480469 C 167.058594 163.605469 167.0625 163.730469 167.101562 163.855469 C 167.269531 164.410156 167.882812 164.558594 168.363281 164.746094 C 169.496094 165.191406 169.980469 165.375 171.308594 165.929688 C 176.015625 167.777344 181.007812 168.703125 185.917969 169.8125 C 189.039062 170.457031 192.167969 171.117188 195.355469 171.28125 C 199.316406 171.546875 203.285156 171.265625 207.214844 170.742188 C 213.101562 169.964844 218.910156 168.503906 224.492188 166.484375 C 227.746094 165.296875 231.023438 164.109375 234.042969 162.390625 C 237.289062 160.609375 240.296875 158.4375 243.257812 156.230469 C 246.105469 154.132812 249.011719 152.066406 251.433594 149.46875 C 259.117188 141.238281 264.285156 130.941406 267.710938 120.28125 C 268.960938 116.402344 270.582031 110.941406 271.015625 107.738281 C 271.113281 107.042969 271.171875 106.339844 271.195312 105.636719 C 271.332031 105.4375 271.40625 105.160156 271.363281 104.792969 Z M 271.363281 104.792969 " fill-opacity="1" fill-rule="nonzero"/><path fill="#ffffff" d="M 247.203125 83.816406 C 247.605469 84.21875 247.988281 84.636719 248.347656 85.078125 C 248.707031 85.515625 249.046875 85.972656 249.363281 86.445312 C 249.675781 86.917969 249.96875 87.40625 250.238281 87.90625 C 250.503906 88.410156 250.746094 88.921875 250.964844 89.449219 C 251.183594 89.972656 251.375 90.507812 251.539062 91.050781 C 251.703125 91.597656 251.839844 92.148438 251.953125 92.707031 C 252.0625 93.261719 252.144531 93.824219 252.203125 94.390625 C 252.257812 94.957031 252.285156 95.523438 252.285156 96.09375 C 252.285156 96.660156 252.257812 97.230469 252.203125 97.792969 C 252.144531 98.359375 252.0625 98.921875 251.953125 99.480469 C 251.839844 100.039062 251.703125 100.589844 251.539062 101.132812 C 251.375 101.675781 251.183594 102.210938 250.964844 102.738281 C 250.746094 103.261719 250.503906 103.777344 250.238281 104.277344 C 249.96875 104.78125 249.675781 105.265625 249.363281 105.738281 C 249.046875 106.210938 248.707031 106.667969 248.347656 107.109375 C 247.988281 107.546875 247.605469 107.96875 247.203125 108.371094 C 246.804688 108.773438 246.382812 109.152344 245.941406 109.515625 C 245.503906 109.875 245.046875 110.214844 244.574219 110.53125 C 244.105469 110.847656 243.617188 111.136719 243.117188 111.40625 C 242.613281 111.675781 242.101562 111.917969 241.578125 112.132812 C 241.050781 112.351562 240.519531 112.542969 239.972656 112.707031 C 239.429688 112.875 238.878906 113.011719 238.324219 113.121094 C 237.765625 113.234375 237.203125 113.316406 236.640625 113.371094 C 236.074219 113.429688 235.507812 113.457031 234.9375 113.457031 C 234.371094 113.457031 233.804688 113.429688 233.238281 113.371094 C 232.671875 113.316406 232.113281 113.234375 231.554688 113.121094 C 230.996094 113.011719 230.445312 112.875 229.902344 112.707031 C 229.359375 112.542969 228.824219 112.351562 228.300781 112.132812 C 227.773438 111.917969 227.261719 111.675781 226.761719 111.40625 C 226.261719 111.136719 225.773438 110.847656 225.300781 110.53125 C 224.828125 110.214844 224.371094 109.875 223.933594 109.515625 C 223.496094 109.152344 223.074219 108.773438 222.671875 108.371094 C 222.269531 107.96875 221.890625 107.546875 221.527344 107.109375 C 221.167969 106.667969 220.832031 106.210938 220.515625 105.738281 C 220.199219 105.265625 219.90625 104.78125 219.640625 104.277344 C 219.371094 103.777344 219.128906 103.261719 218.910156 102.738281 C 218.695312 102.210938 218.503906 101.675781 218.339844 101.132812 C 218.171875 100.589844 218.035156 100.039062 217.925781 99.480469 C 217.8125 98.921875 217.730469 98.359375 217.675781 97.792969 C 217.621094 97.230469 217.589844 96.660156 217.589844 96.09375 C 217.589844 95.523438 217.621094 94.957031 217.675781 94.390625 C 217.730469 93.824219 217.8125 93.261719 217.925781 92.707031 C 218.035156 92.148438 218.171875 91.597656 218.339844 91.050781 C 218.503906 90.507812 218.695312 89.972656 218.910156 89.449219 C 219.128906 88.921875 219.371094 88.410156 219.640625 87.90625 C 219.90625 87.40625 220.199219 86.917969 220.515625 86.445312 C 220.832031 85.972656 221.167969 85.515625 221.527344 85.078125 C 221.890625 84.636719 222.269531 84.21875 222.671875 83.816406 C 223.074219 83.414062 223.496094 83.03125 223.933594 82.671875 C 224.371094 82.308594 224.828125 81.972656 225.300781 81.65625 C 225.773438 81.339844 226.261719 81.046875 226.761719 80.78125 C 227.261719 80.511719 227.773438 80.269531 228.300781 80.050781 C 228.824219 79.832031 229.359375 79.640625 229.902344 79.476562 C 230.445312 79.3125 230.996094 79.171875 231.554688 79.0625 C 232.113281 78.953125 232.671875 78.867188 233.238281 78.8125 C 233.804688 78.757812 234.371094 78.730469 234.9375 78.730469 C 235.507812 78.730469 236.074219 78.757812 236.640625 78.8125 C 237.203125 78.867188 237.765625 78.953125 238.324219 79.0625 C 238.878906 79.171875 239.429688 79.3125 239.972656 79.476562 C 240.519531 79.640625 241.050781 79.832031 241.578125 80.050781 C 242.101562 80.269531 242.613281 80.511719 243.117188 80.78125 C 243.617188 81.046875 244.105469 81.339844 244.574219 81.65625 C 245.046875 81.972656 245.503906 82.308594 245.941406 82.671875 C 246.382812 83.03125 246.804688 83.414062 247.203125 83.816406 Z M 247.203125 83.816406 " fill-opacity="1" fill-rule="nonzero"/><path fill="#ffffff" d="M 202.464844 100.015625 C 202.464844 100.542969 202.441406 101.066406 202.386719 101.59375 C 202.335938 102.117188 202.257812 102.636719 202.15625 103.152344 C 202.054688 103.671875 201.925781 104.179688 201.773438 104.6875 C 201.621094 105.191406 201.445312 105.683594 201.242188 106.171875 C 201.039062 106.660156 200.816406 107.132812 200.566406 107.597656 C 200.320312 108.0625 200.050781 108.515625 199.757812 108.953125 C 199.464844 109.390625 199.152344 109.816406 198.816406 110.222656 C 198.484375 110.628906 198.128906 111.019531 197.757812 111.390625 C 197.386719 111.765625 196.996094 112.117188 196.589844 112.453125 C 196.183594 112.785156 195.757812 113.101562 195.320312 113.390625 C 194.882812 113.683594 194.433594 113.957031 193.96875 114.203125 C 193.503906 114.453125 193.03125 114.675781 192.542969 114.878906 C 192.058594 115.082031 191.5625 115.257812 191.058594 115.410156 C 190.554688 115.5625 190.042969 115.691406 189.527344 115.792969 C 189.011719 115.898438 188.492188 115.976562 187.96875 116.027344 C 187.445312 116.078125 186.917969 116.105469 186.390625 116.105469 C 185.867188 116.105469 185.339844 116.078125 184.816406 116.027344 C 184.292969 115.976562 183.773438 115.898438 183.257812 115.792969 C 182.738281 115.691406 182.230469 115.5625 181.726562 115.410156 C 181.222656 115.257812 180.726562 115.082031 180.242188 114.878906 C 179.753906 114.675781 179.28125 114.453125 178.816406 114.203125 C 178.351562 113.957031 177.898438 113.683594 177.460938 113.390625 C 177.023438 113.101562 176.601562 112.785156 176.195312 112.453125 C 175.789062 112.117188 175.398438 111.765625 175.027344 111.390625 C 174.65625 111.019531 174.300781 110.628906 173.96875 110.222656 C 173.632812 109.816406 173.320312 109.390625 173.027344 108.953125 C 172.734375 108.515625 172.464844 108.0625 172.21875 107.597656 C 171.96875 107.132812 171.742188 106.660156 171.542969 106.171875 C 171.339844 105.683594 171.164062 105.191406 171.011719 104.6875 C 170.859375 104.179688 170.730469 103.671875 170.628906 103.152344 C 170.523438 102.636719 170.449219 102.117188 170.394531 101.59375 C 170.34375 101.066406 170.320312 100.542969 170.320312 100.015625 C 170.320312 99.488281 170.34375 98.960938 170.394531 98.4375 C 170.449219 97.914062 170.523438 97.394531 170.628906 96.875 C 170.730469 96.359375 170.859375 95.847656 171.011719 95.34375 C 171.164062 94.839844 171.339844 94.34375 171.542969 93.859375 C 171.742188 93.371094 171.96875 92.894531 172.21875 92.429688 C 172.464844 91.964844 172.734375 91.515625 173.027344 91.078125 C 173.320312 90.640625 173.632812 90.214844 173.96875 89.808594 C 174.300781 89.402344 174.65625 89.011719 175.027344 88.640625 C 175.398438 88.265625 175.789062 87.914062 176.195312 87.578125 C 176.601562 87.246094 177.023438 86.929688 177.460938 86.636719 C 177.898438 86.34375 178.351562 86.074219 178.816406 85.828125 C 179.28125 85.578125 179.753906 85.351562 180.242188 85.152344 C 180.726562 84.949219 181.222656 84.773438 181.726562 84.621094 C 182.230469 84.464844 182.738281 84.339844 183.257812 84.234375 C 183.773438 84.132812 184.292969 84.054688 184.816406 84.003906 C 185.339844 83.953125 185.867188 83.925781 186.390625 83.925781 C 186.917969 83.925781 187.445312 83.953125 187.96875 84.003906 C 188.492188 84.054688 189.011719 84.132812 189.527344 84.234375 C 190.042969 84.339844 190.554688 84.464844 191.058594 84.621094 C 191.5625 84.773438 192.058594 84.949219 192.542969 85.152344 C 193.03125 85.351562 193.503906 85.578125 193.96875 85.828125 C 194.433594 86.074219 194.882812 86.34375 195.320312 86.636719 C 195.757812 86.929688 196.183594 87.246094 196.589844 87.578125 C 196.996094 87.914062 197.386719 88.265625 197.757812 88.640625 C 198.128906 89.011719 198.484375 89.402344 198.816406 89.808594 C 199.152344 90.214844 199.464844 90.640625 199.757812 91.078125 C 200.050781 91.515625 200.320312 91.964844 200.566406 92.429688 C 200.816406 92.894531 201.039062 93.371094 201.242188 93.859375 C 201.445312 94.34375 201.621094 94.839844 201.773438 95.34375 C 201.925781 95.847656 202.054688 96.359375 202.15625 96.875 C 202.257812 97.394531 202.335938 97.914062 202.386719 98.4375 C 202.441406 98.960938 202.464844 99.488281 202.464844 100.015625 Z M 202.464844 100.015625 " fill-opacity="1" fill-rule="nonzero"/><path fill="#000000" d="M 198.835938 100.015625 C 198.835938 100.832031 198.753906 101.644531 198.59375 102.445312 C 198.4375 103.246094 198.199219 104.027344 197.886719 104.78125 C 197.574219 105.535156 197.191406 106.253906 196.738281 106.933594 C 196.285156 107.613281 195.769531 108.242188 195.191406 108.820312 C 194.613281 109.398438 193.984375 109.917969 193.304688 110.371094 C 192.625 110.824219 191.910156 111.207031 191.152344 111.519531 C 190.398438 111.835938 189.621094 112.070312 188.820312 112.230469 C 188.019531 112.390625 187.210938 112.46875 186.390625 112.46875 C 185.574219 112.46875 184.765625 112.390625 183.964844 112.230469 C 183.164062 112.070312 182.386719 111.835938 181.628906 111.519531 C 180.875 111.207031 180.160156 110.824219 179.480469 110.371094 C 178.800781 109.917969 178.171875 109.398438 177.59375 108.820312 C 177.015625 108.242188 176.5 107.613281 176.046875 106.933594 C 175.59375 106.253906 175.210938 105.535156 174.898438 104.78125 C 174.585938 104.027344 174.347656 103.246094 174.1875 102.445312 C 174.03125 101.644531 173.949219 100.832031 173.949219 100.015625 C 173.949219 99.199219 174.03125 98.386719 174.1875 97.585938 C 174.347656 96.785156 174.585938 96.003906 174.898438 95.25 C 175.210938 94.492188 175.59375 93.777344 176.046875 93.097656 C 176.5 92.417969 177.015625 91.789062 177.59375 91.207031 C 178.171875 90.628906 178.800781 90.113281 179.480469 89.660156 C 180.160156 89.207031 180.875 88.820312 181.628906 88.507812 C 182.386719 88.195312 183.164062 87.960938 183.964844 87.800781 C 184.765625 87.640625 185.574219 87.5625 186.390625 87.5625 C 187.210938 87.5625 188.019531 87.640625 188.820312 87.800781 C 189.621094 87.960938 190.398438 88.195312 191.152344 88.507812 C 191.910156 88.820312 192.625 89.207031 193.304688 89.660156 C 193.984375 90.113281 194.613281 90.628906 195.191406 91.207031 C 195.769531 91.789062 196.285156 92.417969 196.738281 93.097656 C 197.191406 93.777344 197.574219 94.492188 197.886719 95.25 C 198.199219 96.003906 198.4375 96.785156 198.59375 97.585938 C 198.753906 98.386719 198.835938 99.199219 198.835938 100.015625 Z M 198.835938 100.015625 " fill-opacity="1" fill-rule="nonzero"/><path fill="#ffffff" d="M 211.949219 100.871094 C 210.824219 100.980469 209.691406 101.105469 208.589844 101.375 C 208.195312 101.488281 207.765625 101.597656 207.46875 101.898438 C 206.78125 102.621094 207.347656 103.445312 207.980469 103.957031 C 208.039062 104.03125 208.875 104.726562 209.382812 105.066406 C 209.648438 105.222656 209.953125 105.484375 210.269531 105.632812 C 210.613281 105.894531 211.003906 106.023438 211.441406 105.792969 C 212.039062 105.261719 211.84375 105.269531 212.367188 104.761719 C 213.628906 103.433594 215.074219 100.550781 211.949219 100.871094 Z M 211.949219 100.871094 " fill-opacity="1" fill-rule="nonzero"/><path fill="#ffffff" d="M 185.621094 68.542969 C 183.929688 66.484375 182.15625 64.484375 180.132812 62.742188 C 178.753906 61.539062 177.433594 60.472656 176.285156 59.597656 C 175.507812 59.0625 174.71875 58.347656 173.851562 57.992188 C 173.242188 57.875 172.933594 58.785156 173.480469 59.078125 C 177.332031 61.691406 181.375 65.308594 184.476562 69.378906 C 184.492188 69.398438 184.554688 69.484375 184.613281 69.554688 C 184.742188 69.6875 184.929688 69.761719 185.117188 69.761719 C 185.726562 69.78125 186.070312 68.964844 185.621094 68.542969 Z M 185.621094 68.542969 " fill-opacity="1" fill-rule="nonzero"/><path fill="#000000" d="M 244.433594 86.589844 C 245.058594 87.210938 245.613281 87.890625 246.105469 88.625 C 246.59375 89.359375 247.007812 90.132812 247.34375 90.949219 C 247.683594 91.765625 247.9375 92.605469 248.109375 93.46875 C 248.28125 94.335938 248.367188 95.210938 248.367188 96.09375 C 248.367188 96.976562 248.28125 97.847656 248.109375 98.714844 C 247.9375 99.582031 247.683594 100.421875 247.34375 101.238281 C 247.007812 102.050781 246.59375 102.828125 246.105469 103.558594 C 245.613281 104.292969 245.058594 104.972656 244.433594 105.597656 C 243.808594 106.222656 243.132812 106.777344 242.398438 107.269531 C 241.664062 107.757812 240.890625 108.171875 240.078125 108.511719 C 239.261719 108.847656 238.421875 109.101562 237.558594 109.277344 C 236.695312 109.449219 235.820312 109.535156 234.9375 109.535156 C 234.058594 109.535156 233.183594 109.449219 232.320312 109.277344 C 231.453125 109.101562 230.613281 108.847656 229.800781 108.511719 C 228.984375 108.171875 228.210938 107.757812 227.476562 107.269531 C 226.746094 106.777344 226.066406 106.222656 225.441406 105.597656 C 224.820312 104.972656 224.261719 104.292969 223.773438 103.558594 C 223.285156 102.828125 222.871094 102.050781 222.53125 101.238281 C 222.195312 100.421875 221.941406 99.582031 221.769531 98.714844 C 221.597656 97.847656 221.511719 96.976562 221.511719 96.09375 C 221.511719 95.210938 221.597656 94.335938 221.769531 93.46875 C 221.941406 92.605469 222.195312 91.765625 222.53125 90.949219 C 222.871094 90.132812 223.285156 89.359375 223.773438 88.625 C 224.261719 87.890625 224.820312 87.210938 225.441406 86.589844 C 226.066406 85.964844 226.746094 85.40625 227.476562 84.917969 C 228.210938 84.425781 228.984375 84.011719 229.800781 83.675781 C 230.613281 83.335938 231.453125 83.082031 232.320312 82.910156 C 233.183594 82.738281 234.058594 82.652344 234.9375 82.652344 C 235.820312 82.652344 236.695312 82.738281 237.558594 82.910156 C 238.421875 83.082031 239.261719 83.335938 240.078125 83.675781 C 240.890625 84.011719 241.664062 84.425781 242.398438 84.917969 C 243.132812 85.40625 243.808594 85.964844 244.433594 86.589844 Z M 244.433594 86.589844 " fill-opacity="1" fill-rule="nonzero"/><path fill="#ffffff" d="M 252.710938 53.066406 C 250.171875 55.589844 247.59375 58.105469 245.460938 61 C 245.050781 61.554688 244.648438 62.121094 244.257812 62.695312 C 243.980469 63.078125 243.589844 63.601562 243.980469 64.046875 C 244.191406 64.355469 244.640625 64.421875 244.957031 64.242188 C 245.34375 63.953125 245.523438 63.457031 245.824219 63.085938 C 247.402344 60.789062 248.902344 58.96875 250.980469 56.703125 C 251.667969 55.960938 252.378906 55.242188 253.097656 54.53125 C 253.351562 54.214844 253.800781 53.964844 253.8125 53.523438 C 253.832031 52.96875 253.09375 52.660156 252.710938 53.066406 Z M 252.710938 53.066406 " fill-opacity="1" fill-rule="nonzero"/><path fill="#ffffff" d="M 315.867188 40.898438 C 316.5625 40.246094 315.53125 39.066406 315.300781 38.339844 C 314.46875 36.5 313.558594 34.652344 312.140625 33.183594 C 309.769531 30.6875 306.316406 28.875 302.804688 29.351562 C 302.777344 29.355469 302.746094 29.359375 302.714844 29.363281 C 302.707031 27.964844 302.582031 26.570312 302.386719 25.1875 C 301.941406 21.535156 300.945312 17.96875 299.25 14.695312 C 297.457031 11.242188 294.59375 8.417969 291.414062 6.21875 C 288.992188 4.433594 286.324219 3.027344 283.511719 1.96875 C 280.179688 0.667969 276.550781 0.257812 272.996094 0.160156 C 267.808594 0 262.59375 1.0625 258 3.515625 C 251.960938 7.015625 246.710938 12.195312 243.84375 18.625 C 243.839844 18.640625 243.832031 18.65625 243.824219 18.675781 C 242.464844 18.082031 239.789062 16.726562 237.871094 16.117188 C 233.421875 14.570312 228.566406 14.246094 223.96875 15.316406 C 218.441406 16.660156 213.292969 19.550781 209.15625 23.449219 C 207.148438 25.347656 205.390625 27.488281 203.742188 29.699219 C 202.171875 31.808594 200.636719 34.019531 199.792969 36.53125 C 199.558594 37.265625 199.414062 38.019531 199.28125 38.78125 C 199.085938 38.90625 198.953125 39.125 198.957031 39.359375 C 198.957031 39.578125 199.070312 39.777344 199.234375 39.90625 C 199.242188 39.925781 199.25 39.945312 199.261719 39.964844 C 199.527344 40.421875 200.152344 40.441406 200.488281 40.109375 C 206.832031 40.546875 213.1875 40.601562 219.546875 40.484375 C 225.871094 40.417969 232.195312 40.40625 238.515625 40.445312 C 248.652344 40.523438 258.777344 41.148438 268.914062 41.332031 C 275.234375 41.484375 281.5625 41.5625 287.882812 41.78125 C 295.554688 42.136719 303.230469 42.351562 310.910156 42.539062 C 312.207031 42.574219 313.507812 42.574219 314.804688 42.578125 C 315.628906 42.539062 316.789062 42.863281 316.875 41.746094 C 316.832031 41.085938 316.382812 40.929688 315.867188 40.898438 Z M 315.867188 40.898438 " fill-opacity="1" fill-rule="nonzero"/><path fill="#000000" d="M 315.867188 40.898438 C 316.5625 40.246094 315.53125 39.066406 315.300781 38.339844 C 314.46875 36.5 313.558594 34.652344 312.140625 33.183594 C 309.769531 30.6875 306.316406 28.875 302.804688 29.351562 C 302.777344 29.355469 302.746094 29.359375 302.714844 29.363281 C 302.707031 27.964844 302.582031 26.570312 302.386719 25.1875 C 301.941406 21.535156 300.945312 17.96875 299.25 14.695312 C 297.457031 11.242188 294.59375 8.417969 291.414062 6.21875 C 288.992188 4.433594 286.324219 3.027344 283.511719 1.96875 C 280.179688 0.667969 276.550781 0.257812 272.996094 0.160156 C 267.808594 0 262.59375 1.0625 258 3.515625 C 251.960938 7.015625 246.710938 12.195312 243.847656 18.625 C 243.839844 18.640625 243.832031 18.65625 243.824219 18.675781 C 242.464844 18.082031 239.789062 16.726562 237.871094 16.117188 C 233.421875 14.570312 228.566406 14.246094 223.96875 15.316406 C 218.441406 16.660156 213.292969 19.550781 209.15625 23.449219 C 207.148438 25.347656 205.390625 27.488281 203.742188 29.699219 C 202.171875 31.808594 200.636719 34.019531 199.792969 36.53125 C 199.558594 37.265625 199.414062 38.019531 199.28125 38.78125 C 199.085938 38.90625 198.953125 39.125 198.957031 39.359375 C 198.957031 39.578125 199.070312 39.777344 199.234375 39.90625 C 199.242188 39.925781 199.25 39.945312 199.261719 39.964844 C 199.527344 40.421875 200.152344 40.441406 200.488281 40.109375 C 206.832031 40.546875 213.1875 40.601562 219.546875 40.484375 C 225.871094 40.414062 232.195312 40.40625 238.515625 40.445312 C 248.65625 40.523438 258.777344 41.148438 268.914062 41.332031 C 275.234375 41.484375 281.5625 41.5625 287.882812 41.78125 C 295.554688 42.136719 303.230469 42.351562 310.910156 42.539062 C 312.207031 42.574219 313.507812 42.574219 314.804688 42.578125 C 315.628906 42.539062 316.789062 42.863281 316.875 41.746094 C 316.832031 41.085938 316.382812 40.929688 315.867188 40.898438 Z M 309.542969 40.828125 C 301.785156 40.65625 294.03125 40.371094 286.277344 40.054688 C 278.339844 39.824219 270.394531 39.738281 262.453125 39.507812 C 256.300781 39.351562 250.152344 39.0625 244 38.90625 C 238.480469 38.792969 232.957031 38.828125 227.4375 38.847656 C 221.097656 38.871094 214.757812 39.070312 208.417969 39.011719 C 205.898438 38.984375 203.382812 38.867188 200.867188 38.734375 C 201.078125 37.636719 201.367188 36.546875 201.652344 36.011719 C 203.152344 32.984375 205.042969 30.574219 206.867188 28.34375 C 210.433594 24.050781 213.996094 21.128906 219.007812 18.816406 C 224.46875 16.179688 230.851562 15.515625 236.96875 17.582031 C 238.917969 18.226562 239.753906 18.621094 241.554688 19.460938 C 242.601562 19.871094 244.15625 21.175781 245.046875 19.878906 C 245.910156 18.316406 246.625 16.664062 247.628906 15.175781 C 249.171875 12.898438 251.308594 10.582031 253.800781 8.457031 C 254.816406 7.613281 256.558594 6.332031 258.199219 5.316406 C 260.0625 4.308594 261.144531 3.839844 262.894531 3.226562 C 268.351562 1.449219 273.953125 1.515625 279.28125 2.484375 C 280.769531 2.679688 283.710938 3.796875 284.28125 4.078125 C 286.246094 4.898438 288.113281 5.933594 289.851562 7.167969 C 292.441406 8.78125 294.957031 11.28125 296.519531 13.386719 C 299.027344 17.136719 300.128906 20.929688 300.773438 25.632812 C 300.789062 26 301.109375 28.1875 301.046875 29.339844 C 301.097656 29.90625 300.867188 30.632812 301.402344 31.023438 C 301.847656 31.40625 302.453125 31.070312 302.957031 31.011719 C 303.441406 30.867188 305.003906 30.945312 305.925781 31.226562 C 307.882812 31.769531 309.386719 32.757812 310.957031 34.367188 C 312.320312 35.597656 313.816406 39.089844 314.472656 40.523438 C 314.507812 40.675781 314.59375 40.800781 314.699219 40.902344 C 312.980469 40.902344 311.261719 40.886719 309.542969 40.828125 Z M 309.542969 40.828125 " fill-opacity="1" fill-rule="nonzero"/><path fill="#ffffff" d="M 164.011719 176.738281 C 164.007812 176.722656 164.003906 176.707031 164 176.6875 C 163.867188 174.492188 163.996094 172.277344 163.582031 170.101562 C 163.191406 167.613281 162.277344 165.246094 161.3125 162.929688 C 159.082031 158.015625 155.152344 153.839844 150.339844 151.386719 C 146.160156 149.425781 141.433594 148.570312 136.835938 148.957031 C 134.914062 149.148438 133.027344 149.695312 131.304688 150.5625 C 131.105469 150.683594 130.839844 150.816406 130.582031 150.972656 C 128.34375 143.320312 123.933594 136.242188 117.773438 131.15625 C 115.753906 129.441406 113.464844 128.085938 111.128906 126.84375 C 108.105469 125.261719 104.925781 123.941406 101.628906 123.046875 C 97.425781 121.886719 93.039062 121.644531 88.707031 122.023438 C 84.375 122.335938 80.097656 123.21875 76.007812 124.6875 C 70.46875 126.574219 65.34375 129.558594 60.984375 133.464844 C 58.105469 135.957031 55.34375 138.753906 53.640625 142.199219 C 52.960938 143.527344 52.402344 144.914062 51.882812 146.308594 C 51.839844 146.441406 51.789062 146.574219 51.734375 146.707031 C 51.703125 146.6875 51.671875 146.671875 51.640625 146.652344 C 51.039062 146.324219 50.429688 146.015625 49.808594 145.726562 C 47.96875 144.882812 46.027344 144.242188 44.027344 143.914062 C 37.464844 142.84375 30.640625 143.867188 24.488281 146.308594 C 20.550781 147.863281 17.089844 150.359375 13.964844 153.1875 C 9.390625 157.332031 5.417969 162.234375 2.800781 167.851562 C 2.367188 168.824219 1.996094 169.820312 1.722656 170.847656 C 1.699219 170.929688 1.675781 171.011719 1.648438 171.09375 C 1.636719 171.097656 1.625 171.097656 1.613281 171.097656 C 1.085938 171.238281 0.886719 171.988281 1.261719 172.386719 C 1.496094 172.664062 1.863281 172.675781 2.199219 172.695312 C 3.097656 172.769531 4 172.835938 4.898438 172.898438 C 7.21875 173.054688 9.542969 173.210938 11.867188 173.292969 C 19.003906 173.59375 26.136719 173.914062 33.273438 174.148438 C 43.027344 174.21875 52.777344 174.375 62.53125 174.292969 C 67.8125 174.3125 73.089844 174.523438 78.367188 174.605469 C 83.277344 174.691406 88.183594 174.617188 93.09375 174.613281 C 105.746094 174.644531 118.386719 175.195312 131.019531 175.90625 C 139.332031 176.289062 147.617188 177.191406 155.941406 177.453125 C 158.472656 177.507812 161.03125 177.671875 163.550781 177.53125 C 163.878906 177.441406 164.082031 177.066406 164.011719 176.738281 Z M 164.011719 176.738281 " fill-opacity="1" fill-rule="nonzero"/><path fill="#000000" d="M 164.011719 176.738281 C 164.007812 176.722656 164.003906 176.707031 164 176.6875 C 163.867188 174.492188 163.996094 172.277344 163.582031 170.101562 C 163.191406 167.613281 162.277344 165.246094 161.3125 162.929688 C 159.082031 158.015625 155.152344 153.839844 150.339844 151.386719 C 146.160156 149.425781 141.433594 148.570312 136.835938 148.957031 C 134.914062 149.148438 133.027344 149.695312 131.304688 150.5625 C 131.105469 150.683594 130.839844 150.816406 130.582031 150.972656 C 128.34375 143.320312 123.933594 136.242188 117.773438 131.15625 C 115.753906 129.441406 113.464844 128.085938 111.128906 126.84375 C 108.105469 125.261719 104.925781 123.941406 101.628906 123.046875 C 97.425781 121.886719 93.039062 121.644531 88.707031 122.023438 C 84.375 122.335938 80.097656 123.21875 76.007812 124.6875 C 70.46875 126.574219 65.34375 129.558594 60.984375 133.464844 C 58.105469 135.957031 55.34375 138.753906 53.640625 142.199219 C 52.960938 143.527344 52.402344 144.914062 51.882812 146.308594 C 51.839844 146.441406 51.789062 146.574219 51.734375 146.707031 C 51.703125 146.6875 51.671875 146.671875 51.640625 146.652344 C 51.039062 146.324219 50.429688 146.015625 49.808594 145.726562 C 47.96875 144.882812 46.027344 144.242188 44.027344 143.914062 C 37.464844 142.84375 30.640625 143.867188 24.488281 146.308594 C 20.550781 147.863281 17.089844 150.359375 13.964844 153.1875 C 9.390625 157.332031 5.417969 162.234375 2.800781 167.851562 C 2.367188 168.824219 1.996094 169.820312 1.722656 170.847656 C 1.699219 170.929688 1.675781 171.011719 1.648438 171.09375 C 1.636719 171.097656 1.625 171.097656 1.613281 171.097656 C 1.085938 171.238281 0.886719 171.988281 1.261719 172.386719 C 1.496094 172.664062 1.863281 172.675781 2.199219 172.695312 C 3.097656 172.769531 4 172.835938 4.898438 172.898438 C 7.21875 173.054688 9.542969 173.210938 11.867188 173.292969 C 19 173.59375 26.136719 173.914062 33.273438 174.148438 C 43.027344 174.21875 52.777344 174.375 62.53125 174.292969 C 67.8125 174.3125 73.089844 174.523438 78.367188 174.605469 C 83.277344 174.691406 88.183594 174.617188 93.09375 174.613281 C 105.746094 174.644531 118.386719 175.195312 131.019531 175.90625 C 139.332031 176.289062 147.617188 177.191406 155.941406 177.453125 C 158.472656 177.507812 161.03125 177.671875 163.550781 177.53125 C 163.878906 177.441406 164.082031 177.066406 164.011719 176.738281 Z M 138.882812 174.835938 C 127.648438 174.117188 116.40625 173.449219 105.152344 173.164062 C 97.15625 172.941406 89.15625 172.992188 81.160156 172.976562 C 75.152344 172.933594 69.152344 172.664062 63.144531 172.632812 C 53.105469 172.695312 43.066406 172.5625 33.027344 172.476562 C 25.152344 172.195312 17.28125 171.847656 9.410156 171.535156 C 7.496094 171.4375 5.582031 171.324219 3.667969 171.1875 C 3.507812 171.1875 3.34375 171.175781 3.175781 171.160156 C 3.867188 168.804688 4.703125 167.199219 5.925781 165.210938 C 8.238281 161.355469 10.621094 158.601562 13.65625 155.648438 C 16.621094 152.894531 19.285156 150.691406 22.5625 149.015625 C 25.5 147.5625 27.554688 146.816406 30.714844 146.132812 C 32.597656 145.707031 34.5 145.335938 36.433594 145.226562 C 38.019531 145 43.355469 145.289062 44.972656 145.796875 C 47.550781 146.40625 49.511719 147.421875 51.453125 148.410156 C 51.652344 148.464844 51.847656 148.429688 52.007812 148.339844 C 52.289062 148.453125 52.628906 148.429688 52.875 148.203125 C 53.257812 147.785156 53.300781 147.140625 53.546875 146.636719 C 54.019531 145.375 54.53125 144.128906 55.132812 142.925781 C 56.796875 139.457031 60.605469 135.789062 64.355469 132.832031 C 66.460938 131.164062 68.355469 130 71.007812 128.589844 C 73.195312 127.488281 76.171875 126.359375 77.839844 125.828125 C 81.351562 124.675781 84.988281 123.992188 88.671875 123.695312 C 91.414062 123.441406 95.851562 123.402344 99.285156 124.207031 C 105.847656 125.605469 113.9375 129.441406 118.824219 134.34375 C 123.261719 138.6875 126.101562 143.378906 128.335938 149.324219 C 128.765625 150.441406 128.804688 150.699219 129.199219 152.003906 C 129.242188 152.210938 129.359375 152.394531 129.535156 152.511719 C 129.664062 152.609375 129.8125 152.652344 129.957031 152.652344 C 130.355469 153.011719 130.871094 152.867188 131.25 152.535156 C 131.71875 152.226562 132.214844 151.964844 132.726562 151.738281 C 134.003906 151.074219 136.671875 150.5625 137.859375 150.546875 C 142.148438 150.320312 146.863281 151.507812 149.820312 152.976562 C 154.539062 155.628906 157.632812 158.96875 159.832031 163.699219 C 161.550781 167.566406 162.378906 171.140625 162.328125 175.253906 C 162.34375 175.5625 162.359375 175.867188 162.378906 176.171875 C 154.527344 176.140625 146.703125 175.441406 138.882812 174.835938 Z M 138.882812 174.835938 " fill-opacity="1" fill-rule="nonzero"/><path fill="#000000" d="M 194.125 22.25 C 184.855469 30.582031 175.386719 38.695312 166.203125 47.125 C 154.402344 58.058594 142.296875 68.726562 130.433594 79.566406 C 130.304688 79.824219 130.429688 80.160156 130.675781 80.304688 C 131.015625 80.503906 131.351562 80.285156 131.59375 80.042969 C 132.050781 79.660156 132.5 79.28125 132.953125 78.898438 C 134.847656 77.300781 136.726562 75.691406 138.605469 74.074219 C 144.9375 68.585938 151.128906 62.945312 157.351562 57.335938 C 164.3125 51.039062 171.113281 44.570312 178.164062 38.378906 C 183.1875 33.933594 188.164062 29.4375 193.179688 24.980469 C 193.824219 24.398438 194.464844 23.816406 195.109375 23.234375 C 195.238281 23.105469 195.3125 22.925781 195.3125 22.742188 C 195.320312 22.152344 194.542969 21.808594 194.125 22.25 Z M 194.125 22.25 " fill-opacity="1" fill-rule="nonzero"/><path fill="#000000" d="M 183.175781 23.957031 C 173.816406 32.167969 164.316406 40.210938 155.027344 48.503906 C 146.78125 55.753906 138.515625 62.988281 130.40625 70.398438 C 129.5625 71.164062 128.71875 71.925781 127.871094 72.6875 C 127.511719 73.058594 127.011719 73.335938 126.769531 73.800781 C 126.433594 74.527344 127.429688 75.234375 128.007812 74.636719 C 133.710938 69.527344 139.386719 64.386719 145.089844 59.273438 C 154.359375 51.175781 163.492188 42.925781 172.8125 34.882812 C 175.894531 32.191406 178.957031 29.476562 182.015625 26.753906 C 182.71875 26.140625 183.429688 25.53125 184.136719 24.917969 C 184.265625 24.789062 184.335938 24.617188 184.335938 24.4375 C 184.347656 23.859375 183.582031 23.523438 183.175781 23.957031 Z M 183.175781 23.957031 " fill-opacity="1" fill-rule="nonzero"/><path fill="#000000" d="M 169.328125 75.59375 C 155.699219 87.445312 141.484375 98.609375 128.074219 110.71875 C 127.308594 111.394531 126.53125 112.066406 125.773438 112.75 C 125.390625 113.105469 124.769531 113.511719 125.050781 114.109375 C 125.179688 114.460938 125.59375 114.644531 125.953125 114.550781 C 126.28125 114.453125 126.480469 114.132812 126.742188 113.929688 C 127.292969 113.425781 127.859375 112.9375 128.421875 112.445312 C 132.765625 108.683594 137.007812 104.796875 141.378906 101.0625 C 147.179688 96.0625 153.082031 91.1875 158.90625 86.222656 C 161.863281 83.722656 164.796875 81.195312 167.734375 78.675781 C 168.375 78.125 169.003906 77.5625 169.628906 76.996094 C 169.90625 76.695312 170.382812 76.492188 170.390625 76.035156 C 170.402344 75.503906 169.699219 75.199219 169.328125 75.59375 Z M 169.328125 75.59375 " fill-opacity="1" fill-rule="nonzero"/><path fill="#000000" d="M 168.21875 85.34375 C 161.273438 91.59375 153.882812 97.328125 146.738281 103.347656 C 140.957031 108.039062 135.515625 113.132812 129.757812 117.847656 C 128.765625 118.652344 128.472656 118.832031 127.425781 119.6875 C 127.058594 119.945312 126.648438 120.351562 126.890625 120.828125 C 127.015625 121.175781 127.421875 121.359375 127.777344 121.265625 C 128.105469 121.15625 128.324219 120.851562 128.605469 120.660156 C 129.148438 120.21875 129.042969 120.3125 129.6875 119.816406 C 133.144531 117.179688 136.328125 114.207031 139.605469 111.351562 C 143.5 107.925781 147.460938 104.578125 151.449219 101.261719 C 156.289062 97.179688 161.203125 93.1875 165.976562 89.03125 C 166.859375 88.261719 167.734375 87.484375 168.59375 86.691406 C 168.855469 86.410156 169.28125 86.210938 169.28125 85.785156 C 169.296875 85.253906 168.589844 84.949219 168.21875 85.34375 Z M 168.21875 85.34375 " fill-opacity="1" fill-rule="nonzero"/><path fill="#000000" d="M 291.960938 14.28125 C 291.683594 13.910156 291.390625 13.550781 291.085938 13.203125 C 289.625 11.535156 287.828125 10.195312 285.933594 9.0625 C 284.820312 8.351562 283.574219 7.894531 282.324219 7.5 C 281.816406 7.394531 281.269531 6.984375 280.761719 7.257812 C 280.214844 7.554688 280.328125 8.445312 280.9375 8.59375 C 282.035156 8.9375 283.351562 9.359375 283.886719 9.640625 C 285.710938 10.582031 287.023438 11.605469 287.878906 12.308594 C 288.769531 13.058594 289.597656 13.886719 290.347656 14.785156 C 290.914062 15.378906 291.175781 16.308594 292.128906 15.628906 C 292.554688 15.207031 292.304688 14.660156 291.960938 14.28125 Z M 291.960938 14.28125 " fill-opacity="1" fill-rule="nonzero"/><path fill="#000000" d="M 297.351562 25.296875 C 296.875 22.746094 295.789062 20.292969 294.21875 18.246094 C 293.550781 17.683594 292.570312 18.550781 293.027344 19.292969 C 294.519531 21.648438 295.273438 23.191406 295.78125 25.929688 C 296.191406 27.089844 297.78125 26.441406 297.351562 25.296875 Z M 297.351562 25.296875 " fill-opacity="1" fill-rule="nonzero"/><path fill="#000000" d="M 109.960938 132.765625 C 107.21875 130.503906 104.011719 128.773438 100.617188 127.71875 C 98.484375 127.089844 96.28125 126.679688 94.0625 126.515625 C 93.371094 126.476562 92.675781 126.472656 91.984375 126.449219 C 91.789062 126.433594 91.59375 126.5 91.445312 126.628906 C 90.953125 127.03125 91.242188 127.902344 91.878906 127.925781 C 97.53125 128.203125 102.796875 129.570312 107.753906 133.15625 C 108.144531 133.445312 108.523438 133.742188 108.894531 134.050781 C 109.09375 134.242188 109.382812 134.339844 109.65625 134.28125 C 110.359375 134.160156 110.566406 133.152344 109.960938 132.765625 Z M 109.960938 132.765625 " fill-opacity="1" fill-rule="nonzero"/><path fill="#000000" d="M 50.074219 152.730469 C 49.769531 152.253906 49.195312 152.015625 48.742188 151.703125 C 45.621094 150.007812 42.121094 148.863281 38.558594 148.730469 C 35.894531 148.667969 32.65625 149.039062 31.222656 149.914062 C 30.777344 150.363281 31.25 151.179688 31.863281 151.03125 C 33.644531 150.417969 34.894531 150.457031 36.039062 150.363281 C 37.828125 150.21875 41.285156 150.472656 43.363281 151.253906 C 44.875 151.714844 46.890625 152.542969 47.664062 153.007812 C 47.988281 153.195312 48.304688 153.394531 48.609375 153.613281 C 48.78125 153.730469 48.941406 153.894531 49.160156 153.914062 C 49.808594 154.09375 50.390625 153.320312 50.074219 152.730469 Z M 50.074219 152.730469 " fill-opacity="1" fill-rule="nonzero"/><path fill="#000000" d="M 55.085938 156.738281 C 54.621094 156.082031 54.082031 155.476562 53.507812 154.914062 C 53.269531 154.6875 53.042969 154.390625 52.683594 154.382812 C 51.976562 154.308594 51.519531 155.222656 52.003906 155.746094 C 52.535156 156.242188 53.015625 156.785156 53.472656 157.351562 C 53.675781 157.566406 53.804688 157.886719 54.089844 158.011719 C 54.867188 158.445312 55.675781 157.390625 55.085938 156.738281 Z M 55.085938 156.738281 " fill-opacity="1" fill-rule="nonzero"/><path fill="#000000" d="M 62.746094 139.261719 C 60.261719 141.675781 58.4375 144.667969 57.097656 147.84375 C 56.578125 149.050781 56.222656 150.316406 55.941406 151.597656 C 55.777344 152.460938 55.519531 153.375 55.675781 154.25 C 55.90625 155.039062 57.132812 154.878906 57.171875 154.054688 C 57.367188 150.363281 59.699219 145.289062 62.664062 141.792969 C 63.101562 141.28125 63.0625 141.324219 63.710938 140.65625 C 63.914062 140.464844 64.117188 140.246094 64.125 139.949219 C 64.199219 139.238281 63.273438 138.773438 62.746094 139.261719 Z M 62.746094 139.261719 " fill-opacity="1" fill-rule="nonzero"/><path stroke-linecap="butt" transform="matrix(-0.734485, 0.130865, -0.130865, -0.734485, 214.95907, 162.12272)" fill="none" stroke-linejoin="miter" d="M -0.00280995 2.001413 L 6.262309 2.000832 " stroke="#000000" stroke-width="4" stroke-opacity="1" stroke-miterlimit="4"/></svg>