<svg xmlns="http://www.w3.org/2000/svg" xmlns:xlink="http://www.w3.org/1999/xlink" width="192" zoomAndPan="magnify" viewBox="0 0 144 189.000001" height="252" preserveAspectRatio="xMidYMid meet" version="1.0"><defs><clipPath id="27a612381f"><path d="M 0.378906 0 L 143 0 L 143 188.003906 L 0.378906 188.003906 Z M 0.378906 0 " clip-rule="nonzero"/></clipPath><clipPath id="58b9d71e48"><path d="M 0.378906 0 L 143 0 L 143 188.003906 L 0.378906 188.003906 Z M 0.378906 0 " clip-rule="nonzero"/></clipPath></defs><g clip-path="url(#27a612381f)"><path fill="#ffffff" d="M 140.324219 90.613281 C 139.679688 89.773438 138.933594 88.96875 138.050781 88.367188 C 138.097656 85.367188 138.148438 82.371094 138.199219 79.371094 C 138.28125 74.609375 138.359375 69.847656 138.449219 65.089844 C 138.539062 60.398438 138.621094 55.703125 138.703125 51.011719 C 138.746094 48.648438 138.796875 46.285156 138.835938 43.917969 C 138.855469 42.734375 138.878906 41.550781 138.890625 40.367188 C 138.894531 39.8125 138.894531 39.261719 138.890625 38.707031 C 138.890625 38.644531 138.890625 38.585938 138.890625 38.523438 C 139.390625 38.011719 139.175781 37.191406 138.636719 36.855469 C 138.3125 36.425781 137.628906 36.402344 137.253906 36.789062 C 137.195312 36.847656 137.148438 36.910156 137.113281 36.980469 C 137.105469 36.988281 137.097656 37 137.09375 37.007812 C 135.808594 37.507812 134.523438 38.007812 133.242188 38.511719 C 133.265625 38.289062 133.25 38.054688 133.246094 37.839844 C 133.210938 36.757812 133.175781 35.675781 133.125 34.589844 C 133.207031 31.769531 131.867188 32.242188 129.941406 33.164062 C 127.976562 34.136719 126.027344 35.148438 124.085938 36.175781 C 123.90625 35.375 123.632812 34.589844 123.367188 33.8125 C 121.835938 29.472656 119.617188 25.117188 116.953125 21.300781 C 118.828125 17.417969 120.71875 13.527344 122.0625 9.421875 C 123.164062 6.289062 124.847656 0.140625 119.726562 0 C 117.492188 0.140625 115.371094 0.984375 113.257812 1.675781 C 111.53125 2.28125 109.804688 2.894531 108.101562 3.570312 C 103.714844 5.3125 99.410156 7.28125 95.351562 9.695312 C 95.027344 9.925781 94.554688 10.148438 94.152344 10.421875 C 81.007812 6.949219 67.015625 8.03125 53.898438 11.148438 C 52.355469 11.546875 50.792969 11.921875 49.257812 12.371094 C 49.039062 12.292969 48.828125 12.214844 48.660156 12.121094 C 41.167969 9.351562 33.199219 8.085938 25.800781 5.039062 C 17.421875 1.59375 19.945312 8.09375 21.738281 13.097656 C 23.582031 17.691406 25.015625 22.660156 27.570312 26.90625 C 27.332031 27.335938 27.121094 27.75 26.941406 28.007812 C 26.308594 29.21875 24.464844 32.855469 23.898438 35.429688 C 23.53125 35.035156 23.164062 34.640625 22.796875 34.242188 C 21.644531 32.988281 20.492188 31.734375 19.316406 30.5 C 18.738281 29.898438 18.152344 29.300781 17.546875 28.722656 C 17.148438 28.34375 16.671875 27.867188 16.074219 27.949219 C 15.082031 28.09375 15.222656 29.21875 15.222656 29.96875 C 15.1875 30.964844 15.171875 31.957031 15.167969 32.949219 C 15.171875 33.3125 15.175781 33.679688 15.171875 34.042969 C 14.730469 33.636719 14.289062 33.234375 13.859375 32.820312 C 13.566406 32.539062 13.28125 32.25 12.984375 31.96875 C 12.675781 31.683594 12.367188 31.398438 12.054688 31.117188 C 11.800781 30.882812 11.554688 30.636719 11.308594 30.394531 C 11.1875 30.273438 11.050781 30.175781 10.929688 30.054688 C 10.746094 29.878906 10.46875 29.757812 10.160156 29.78125 C 9.894531 29.796875 9.640625 29.917969 9.460938 30.117188 C 9.214844 30.390625 9.136719 30.804688 9.25 31.152344 C 9.207031 31.246094 9.1875 31.351562 9.1875 31.460938 C 9.1875 31.507812 9.191406 31.554688 9.191406 31.601562 C 9.191406 31.617188 9.1875 31.632812 9.1875 31.648438 C 9.164062 31.757812 9.140625 31.867188 9.128906 31.980469 C 9.105469 32.1875 9.101562 32.398438 9.09375 32.609375 C 9.082031 33.238281 9.085938 33.867188 9.085938 34.496094 C 9.085938 35.773438 9.097656 37.050781 9.109375 38.328125 C 9.132812 40.847656 9.160156 43.363281 9.191406 45.882812 C 9.257812 51.09375 9.34375 56.308594 9.4375 61.523438 C 9.53125 66.695312 9.601562 71.867188 9.671875 77.042969 C 9.710938 79.847656 9.757812 82.652344 9.808594 85.457031 C 9.558594 85.484375 9.3125 85.539062 9.070312 85.632812 C 9.042969 85.640625 9.015625 85.652344 8.988281 85.667969 C 3.167969 85.582031 0.382812 91.042969 0.820312 96.316406 C 1.070312 101.222656 4.972656 106.953125 10.152344 107.421875 C 10.164062 107.621094 10.167969 107.820312 10.171875 108.019531 C 10.25 113.164062 10.335938 118.3125 10.414062 123.460938 C 10.492188 128.597656 10.574219 133.730469 10.660156 138.867188 C 10.703125 141.363281 10.75 143.859375 10.789062 146.355469 C 10.804688 147.570312 10.820312 148.789062 10.835938 150.003906 C 10.839844 150.65625 10.859375 151.304688 10.863281 151.953125 C 10.808594 152.089844 10.78125 152.242188 10.785156 152.394531 C 10.785156 152.496094 10.800781 152.601562 10.816406 152.703125 C 10.824219 152.839844 10.84375 152.972656 10.875 153.105469 C 10.882812 153.175781 10.902344 153.246094 10.933594 153.3125 C 10.925781 153.46875 10.964844 153.625 11.035156 153.769531 C 11.097656 153.90625 11.207031 154.011719 11.308594 154.117188 C 11.640625 154.449219 11.996094 154.757812 12.34375 155.070312 C 13.070312 155.714844 13.800781 156.351562 14.527344 156.992188 C 17.371094 159.480469 20.234375 161.9375 23.066406 164.433594 C 24.496094 165.695312 25.929688 166.957031 27.375 168.199219 C 28.773438 169.40625 30.148438 170.636719 31.535156 171.859375 C 32.960938 173.117188 34.390625 174.371094 35.839844 175.605469 C 37.167969 176.742188 38.5 177.871094 39.8125 179.019531 C 40.40625 179.539062 41.007812 180.042969 41.605469 180.558594 C 42.179688 181.054688 42.738281 181.570312 43.324219 182.054688 C 43.792969 182.4375 44.242188 182.84375 44.699219 183.238281 C 44.953125 183.457031 45.214844 183.671875 45.460938 183.898438 C 45.476562 183.917969 45.496094 183.9375 45.515625 183.953125 C 45.644531 184.066406 45.800781 184.144531 45.964844 184.179688 C 46.214844 184.84375 46.707031 185.410156 47.242188 185.859375 C 48.5 186.90625 50.15625 187.386719 51.738281 187.671875 C 52.617188 187.828125 53.503906 187.941406 54.394531 187.984375 C 54.707031 188 55.015625 188.003906 55.328125 188.003906 C 55.925781 188.003906 56.523438 187.980469 57.117188 187.941406 C 58.015625 187.878906 58.90625 187.765625 59.785156 187.566406 C 60.625 187.371094 61.453125 187.128906 62.257812 186.824219 C 62.699219 186.65625 63.257812 186.402344 63.792969 186.082031 C 64.207031 185.835938 64.621094 185.570312 64.980469 185.246094 C 65.410156 184.859375 65.796875 184.386719 66.046875 183.859375 C 66.058594 183.824219 66.070312 183.800781 66.082031 183.777344 C 66.164062 183.605469 66.214844 183.425781 66.261719 183.230469 C 66.296875 183.101562 66.316406 182.972656 66.332031 182.839844 C 66.425781 182.769531 66.511719 182.6875 66.582031 182.589844 C 66.785156 182.507812 66.988281 182.414062 67.1875 182.324219 C 67.8125 182.042969 68.433594 181.761719 69.058594 181.472656 C 70.339844 180.882812 71.617188 180.277344 72.898438 179.683594 C 76.503906 178.015625 80.109375 176.347656 83.714844 174.679688 C 87.355469 172.996094 90.960938 171.238281 94.585938 169.515625 C 98.207031 167.800781 101.816406 166.0625 105.4375 164.351562 C 109.054688 162.644531 112.667969 160.9375 116.285156 159.234375 C 119.910156 157.527344 123.546875 155.847656 127.167969 154.128906 C 128.898438 153.308594 130.625 152.476562 132.363281 151.664062 C 133.167969 151.285156 133.980469 150.910156 134.789062 150.53125 C 135.113281 150.378906 135.4375 150.222656 135.765625 150.078125 C 135.910156 150.011719 136.058594 149.9375 136.207031 149.871094 C 136.421875 149.859375 136.636719 149.785156 136.800781 149.652344 C 136.816406 149.644531 136.828125 149.632812 136.839844 149.625 C 137.199219 149.34375 137.359375 148.859375 137.234375 148.417969 C 137.195312 148.28125 137.132812 148.15625 137.046875 148.046875 C 137.050781 147.636719 137.039062 147.226562 137.054688 146.820312 C 137.125 145.199219 137.132812 143.558594 137.152344 141.921875 C 137.179688 139.820312 137.207031 137.722656 137.242188 135.625 C 137.316406 131.058594 137.398438 126.496094 137.480469 121.929688 C 137.566406 117.246094 137.648438 112.5625 137.726562 107.875 C 137.730469 107.671875 137.734375 107.46875 137.738281 107.265625 C 140.039062 106.210938 141.828125 104.121094 142.535156 101.558594 C 143.613281 97.855469 142.628906 93.664062 140.324219 90.613281 Z M 140.324219 90.613281 " fill-opacity="1" fill-rule="nonzero"/></g><path fill="#000000" d="M 66.28125 69.980469 C 66.476562 70.335938 66.347656 70.828125 65.976562 71.015625 C 64.890625 71.574219 63.789062 72.109375 62.699219 72.65625 C 60.933594 73.730469 58.8125 73.902344 56.789062 73.8125 C 54.742188 73.664062 52.644531 73.292969 50.824219 72.308594 C 50.328125 71.996094 49.441406 71.570312 49.847656 70.859375 C 50.050781 70.515625 50.554688 70.394531 50.878906 70.65625 C 51.957031 71.144531 53.089844 71.53125 54.242188 71.800781 C 57.082031 72.429688 60.109375 72.21875 62.734375 70.921875 C 63.578125 70.523438 64.410156 70.101562 65.242188 69.675781 C 65.613281 69.488281 66.074219 69.609375 66.28125 69.980469 Z M 66.28125 69.980469 " fill-opacity="1" fill-rule="nonzero"/><g clip-path="url(#58b9d71e48)"><path fill="#000000" d="M 3.382812 98.578125 C 3.378906 98.554688 3.375 98.53125 3.375 98.507812 C 3.367188 98.53125 3.375 98.554688 3.382812 98.578125 Z M 8.644531 87.839844 C 8.652344 87.824219 8.636719 87.824219 8.621094 87.824219 C 8.628906 87.828125 8.636719 87.835938 8.644531 87.839844 Z M 46.871094 67.328125 C 46.886719 67.015625 46.894531 66.695312 46.945312 66.382812 C 46.632812 66.136719 46.332031 65.871094 46.035156 65.605469 C 45.328125 64.976562 44.628906 64.339844 43.929688 63.699219 C 42.554688 62.4375 41.199219 61.15625 39.835938 59.882812 C 37.035156 57.261719 34.214844 54.660156 31.414062 52.039062 C 30.019531 50.738281 28.628906 49.429688 27.230469 48.128906 C 25.824219 46.816406 24.410156 45.511719 23.007812 44.199219 C 21.667969 42.945312 20.34375 41.671875 19.007812 40.410156 C 17.683594 39.160156 16.332031 37.941406 15.007812 36.691406 C 14.015625 35.753906 13.042969 34.792969 12.015625 33.890625 C 11.589844 33.511719 11.179688 33.113281 10.765625 32.71875 C 10.800781 33.355469 10.8125 33.988281 10.835938 34.625 C 10.871094 35.882812 10.902344 37.136719 10.929688 38.394531 C 10.988281 40.976562 11.042969 43.558594 11.089844 46.144531 C 11.191406 51.339844 11.269531 56.539062 11.34375 61.734375 C 11.417969 66.949219 11.515625 72.160156 11.609375 77.375 C 11.660156 80.1875 11.703125 83.003906 11.746094 85.820312 C 12.523438 86.179688 13.226562 86.761719 13.753906 87.390625 C 14.988281 88.769531 15.417969 90.707031 15.128906 92.507812 C 15.070312 92.917969 14.964844 93.324219 14.808594 93.714844 C 15.085938 94.289062 15.246094 94.921875 15.363281 95.542969 C 15.691406 97.199219 15.355469 99.046875 14.449219 100.421875 C 15.90625 102.773438 14.550781 106.144531 12.082031 107.152344 C 12.089844 107.574219 12.097656 107.996094 12.105469 108.417969 C 12.191406 113.570312 12.269531 118.726562 12.355469 123.878906 C 12.441406 128.988281 12.523438 134.097656 12.601562 139.203125 C 12.640625 141.683594 12.671875 144.160156 12.714844 146.636719 C 12.734375 147.839844 12.757812 149.042969 12.78125 150.246094 C 12.792969 150.796875 12.796875 151.347656 12.8125 151.898438 C 12.867188 152.015625 12.898438 152.148438 12.902344 152.285156 C 12.90625 152.425781 12.890625 152.554688 12.878906 152.601562 C 12.878906 152.75 12.867188 152.886719 12.84375 153.027344 C 12.839844 153.054688 12.835938 153.082031 12.828125 153.105469 C 12.824219 153.144531 12.816406 153.167969 12.808594 153.195312 C 12.976562 153.328125 13.140625 153.464844 13.304688 153.605469 C 13.996094 154.183594 14.6875 154.769531 15.375 155.355469 C 16.820312 156.585938 18.257812 157.824219 19.695312 159.066406 C 22.574219 161.546875 25.5 163.976562 28.375 166.464844 C 31.210938 168.914062 34.105469 171.300781 36.9375 173.761719 C 38.257812 174.914062 39.566406 176.074219 40.902344 177.210938 C 41.507812 177.726562 42.105469 178.253906 42.710938 178.777344 C 43.316406 179.304688 43.933594 179.816406 44.539062 180.34375 C 44.75 180.527344 44.960938 180.710938 45.167969 180.894531 C 45.167969 180.851562 45.171875 180.8125 45.171875 180.769531 C 45.183594 179.824219 45.203125 178.875 45.21875 177.929688 C 45.261719 175.546875 45.265625 173.167969 45.300781 170.789062 C 45.371094 165.804688 45.4375 160.824219 45.503906 155.84375 C 45.570312 150.855469 45.648438 145.871094 45.714844 140.882812 C 45.785156 135.859375 45.855469 130.832031 45.921875 125.808594 C 45.988281 120.746094 46.050781 115.6875 46.113281 110.625 C 46.179688 105.59375 46.257812 100.566406 46.332031 95.535156 C 46.40625 90.519531 46.46875 85.5 46.558594 80.484375 C 46.601562 77.980469 46.644531 75.472656 46.703125 72.964844 C 46.730469 71.664062 46.765625 70.359375 46.804688 69.054688 C 46.820312 68.480469 46.839844 67.902344 46.871094 67.328125 Z M 50.738281 66.976562 C 50.921875 67.09375 51.105469 67.207031 51.292969 67.3125 C 39.78125 54.996094 28.378906 42.570312 16.800781 30.316406 C 16.773438 31.785156 16.714844 33.253906 16.6875 34.722656 C 16.664062 34.953125 16.691406 35.207031 16.703125 35.453125 C 17.027344 35.753906 17.347656 36.054688 17.667969 36.359375 C 18.996094 37.617188 20.324219 38.871094 21.671875 40.105469 C 23.074219 41.394531 24.46875 42.691406 25.855469 43.992188 C 28.617188 46.589844 31.394531 49.175781 34.152344 51.773438 C 36.941406 54.402344 39.734375 57.027344 42.535156 59.640625 C 43.703125 60.730469 44.871094 61.820312 46.019531 62.933594 C 46.582031 63.472656 47.144531 64.007812 47.691406 64.5625 C 47.90625 64.78125 48.121094 64.996094 48.320312 65.230469 C 48.539062 65.238281 48.746094 65.316406 48.917969 65.457031 C 49.011719 65.53125 49.101562 65.609375 49.191406 65.6875 C 49.414062 65.886719 49.621094 66.101562 49.839844 66.304688 C 50.128906 66.542969 50.429688 66.765625 50.738281 66.976562 Z M 66.667969 71.28125 C 66.703125 70.289062 66.734375 69.292969 66.792969 68.300781 C 66.289062 68.632812 65.746094 68.910156 65.199219 69.140625 C 64.386719 69.476562 63.539062 69.738281 62.683594 69.953125 C 61.78125 70.179688 60.863281 70.386719 59.941406 70.515625 C 59.46875 70.585938 58.992188 70.617188 58.515625 70.644531 C 58.089844 70.667969 57.660156 70.6875 57.230469 70.6875 L 57.152344 70.6875 C 56.273438 70.683594 55.390625 70.617188 54.527344 70.472656 C 54.015625 70.386719 53.503906 70.285156 53.003906 70.15625 C 52.527344 70.035156 52.058594 69.863281 51.605469 69.675781 C 50.71875 69.300781 49.875 68.785156 49.101562 68.214844 C 48.980469 68.128906 48.863281 68.039062 48.742188 67.945312 C 48.746094 68.171875 48.75 68.398438 48.75 68.621094 C 48.753906 69.863281 48.757812 71.101562 48.75 72.339844 C 48.738281 74.84375 48.714844 77.347656 48.691406 79.851562 C 48.640625 84.972656 48.566406 90.089844 48.5 95.210938 C 48.4375 100.265625 48.375 105.324219 48.300781 110.375 C 48.230469 115.355469 48.148438 120.335938 48.078125 125.316406 C 48.007812 130.296875 47.9375 135.28125 47.867188 140.261719 C 47.800781 145.347656 47.734375 150.4375 47.664062 155.527344 C 47.597656 160.484375 47.527344 165.445312 47.457031 170.40625 C 47.40625 174.179688 47.3125 177.949219 47.300781 181.722656 C 47.324219 181.84375 47.332031 181.964844 47.320312 182.09375 C 47.324219 182.125 47.324219 182.152344 47.324219 182.183594 C 47.660156 182.445312 47.664062 182.90625 47.734375 183.296875 C 47.75 183.34375 47.765625 183.394531 47.78125 183.441406 C 47.804688 183.492188 47.828125 183.542969 47.851562 183.59375 C 47.886719 183.652344 47.921875 183.707031 47.957031 183.761719 C 48.003906 183.824219 48.050781 183.882812 48.101562 183.941406 C 48.199219 184.035156 48.296875 184.125 48.402344 184.214844 C 48.53125 184.3125 48.664062 184.398438 48.800781 184.484375 C 49.035156 184.617188 49.269531 184.742188 49.515625 184.855469 C 49.921875 185.023438 50.332031 185.175781 50.75 185.304688 C 51.238281 185.445312 51.726562 185.558594 52.226562 185.644531 C 52.914062 185.753906 53.605469 185.816406 54.300781 185.84375 C 55.097656 185.863281 55.898438 185.863281 56.695312 185.796875 C 57.660156 185.695312 58.617188 185.539062 59.5625 185.328125 C 60.0625 185.210938 60.558594 185.078125 61.042969 184.898438 C 61.058594 184.890625 61.078125 184.882812 61.097656 184.875 C 61.574219 184.6875 62.039062 184.476562 62.492188 184.238281 C 62.664062 184.140625 62.828125 184.039062 62.988281 183.929688 C 63.171875 183.792969 63.34375 183.644531 63.511719 183.488281 C 63.605469 183.394531 63.699219 183.300781 63.785156 183.199219 C 63.8125 183.164062 63.839844 183.125 63.867188 183.082031 C 63.902344 183.027344 63.933594 182.96875 63.960938 182.910156 C 63.964844 182.902344 63.96875 182.890625 63.996094 182.808594 C 64.015625 182.773438 64.027344 182.734375 64.042969 182.699219 C 64.058594 182.59375 64.066406 182.496094 64.074219 182.429688 C 64.078125 182.417969 64.078125 182.402344 64.082031 182.390625 C 64.125 182.152344 64.210938 181.949219 64.367188 181.777344 C 64.40625 181.734375 64.449219 181.691406 64.496094 181.65625 C 64.496094 181.5625 64.496094 181.476562 64.496094 181.394531 C 64.496094 181.300781 64.507812 181.210938 64.53125 181.125 C 64.535156 180.929688 64.539062 180.730469 64.542969 180.53125 C 64.554688 180.070312 64.5625 179.613281 64.574219 179.152344 C 64.605469 177.996094 64.628906 176.839844 64.65625 175.683594 C 64.699219 173.300781 64.742188 170.917969 64.78125 168.53125 C 64.863281 163.609375 64.9375 158.691406 65.023438 153.769531 C 65.109375 148.679688 65.203125 143.585938 65.296875 138.496094 C 65.386719 133.417969 65.484375 128.34375 65.582031 123.269531 C 65.675781 118.199219 65.765625 113.128906 65.859375 108.058594 C 65.949219 103.109375 66.042969 98.160156 66.140625 93.210938 C 66.238281 88.140625 66.347656 83.074219 66.472656 78.007812 C 66.527344 75.765625 66.589844 73.523438 66.667969 71.28125 Z M 131.652344 39.136719 C 131.59375 39.074219 131.542969 39 131.5 38.917969 C 131.402344 38.71875 131.402344 38.519531 131.398438 38.421875 C 131.359375 37.113281 131.285156 35.804688 131.3125 34.492188 C 121.6875 39.09375 112.433594 44.441406 102.890625 49.207031 C 97.847656 51.730469 92.773438 54.179688 87.675781 56.589844 C 95.070312 53.566406 102.46875 50.5625 109.945312 47.742188 C 117.183594 44.882812 124.410156 41.984375 131.652344 39.136719 Z M 136.738281 45.523438 C 136.773438 43.488281 136.800781 41.449219 136.867188 39.417969 C 123.273438 44.640625 109.757812 50.074219 96.179688 55.355469 C 86.910156 58.929688 77.824219 63.171875 68.4375 66.355469 C 68.574219 68.757812 68.542969 71.160156 68.527344 73.558594 C 68.515625 76.019531 68.492188 78.484375 68.464844 80.945312 C 68.40625 85.964844 68.324219 90.984375 68.25 96.003906 C 68.171875 101.027344 68.082031 106.046875 67.996094 111.066406 C 67.910156 116.101562 67.824219 121.132812 67.742188 126.167969 C 67.65625 131.261719 67.570312 136.355469 67.484375 141.449219 C 67.398438 146.472656 67.3125 151.496094 67.21875 156.519531 C 67.128906 161.4375 67.027344 166.355469 66.9375 171.269531 C 66.878906 174.378906 66.820312 177.484375 66.800781 180.59375 C 67.03125 180.476562 67.261719 180.363281 67.496094 180.25 C 68.375 179.816406 69.253906 179.394531 70.140625 178.972656 C 71.898438 178.132812 73.648438 177.273438 75.402344 176.421875 C 79 174.675781 82.597656 172.917969 86.21875 171.210938 C 89.859375 169.496094 93.507812 167.792969 97.148438 166.074219 C 100.753906 164.371094 104.363281 162.679688 107.964844 160.972656 C 111.625 159.234375 115.289062 157.496094 118.941406 155.742188 C 122.472656 154.046875 126.007812 152.363281 129.550781 150.695312 C 131.355469 149.847656 133.160156 149 134.949219 148.113281 C 134.953125 148 134.960938 147.890625 134.96875 147.78125 C 134.980469 147.414062 134.988281 147.042969 134.980469 146.675781 C 134.964844 145.78125 135 144.886719 135.019531 143.988281 C 135.0625 141.765625 135.117188 139.542969 135.15625 137.320312 C 135.242188 132.722656 135.316406 128.121094 135.394531 123.523438 C 135.472656 118.8125 135.550781 114.105469 135.636719 109.398438 C 135.644531 108.898438 135.652344 108.398438 135.660156 107.898438 C 135.019531 108.003906 134.351562 108.035156 133.671875 107.980469 C 129.347656 108.058594 126.199219 103.332031 129.605469 99.964844 C 128.957031 98.675781 128.222656 97.359375 128.257812 95.871094 C 128.246094 94.710938 128.804688 93.476562 129.9375 93.035156 C 130.015625 90.269531 130.796875 86.925781 134.253906 87.207031 C 134.867188 87.222656 135.453125 87.363281 136.03125 87.53125 C 136.070312 85.351562 136.109375 83.171875 136.148438 80.992188 C 136.230469 76.1875 136.320312 71.382812 136.398438 66.578125 C 136.472656 61.878906 136.550781 57.179688 136.628906 52.480469 C 136.667969 50.160156 136.703125 47.839844 136.738281 45.523438 Z M 140.324219 90.613281 C 142.628906 93.664062 143.613281 97.855469 142.535156 101.558594 C 141.828125 104.125 140.039062 106.210938 137.738281 107.265625 C 137.734375 107.46875 137.730469 107.671875 137.726562 107.875 C 137.648438 112.5625 137.566406 117.246094 137.480469 121.929688 C 137.398438 126.496094 137.316406 131.058594 137.242188 135.625 C 137.207031 137.722656 137.179688 139.820312 137.152344 141.921875 C 137.132812 143.558594 137.125 145.199219 137.054688 146.820312 C 137.039062 147.226562 137.050781 147.636719 137.046875 148.046875 C 137.132812 148.15625 137.195312 148.28125 137.234375 148.417969 C 137.359375 148.859375 137.199219 149.34375 136.839844 149.625 C 136.828125 149.632812 136.816406 149.644531 136.800781 149.652344 C 136.636719 149.785156 136.421875 149.859375 136.207031 149.871094 C 136.058594 149.9375 135.910156 150.011719 135.765625 150.078125 C 135.4375 150.222656 135.113281 150.378906 134.789062 150.53125 C 133.980469 150.910156 133.167969 151.285156 132.363281 151.664062 C 130.625 152.476562 128.898438 153.308594 127.167969 154.128906 C 123.546875 155.847656 119.910156 157.527344 116.285156 159.234375 C 112.667969 160.9375 109.054688 162.644531 105.4375 164.351562 C 101.816406 166.0625 98.207031 167.800781 94.585938 169.515625 C 90.960938 171.238281 87.355469 172.996094 83.714844 174.679688 C 80.109375 176.347656 76.503906 178.015625 72.898438 179.683594 C 71.617188 180.277344 70.339844 180.882812 69.058594 181.472656 C 68.433594 181.761719 67.8125 182.042969 67.1875 182.324219 C 66.988281 182.414062 66.785156 182.507812 66.582031 182.59375 C 66.511719 182.6875 66.425781 182.769531 66.332031 182.839844 C 66.316406 182.972656 66.296875 183.101562 66.261719 183.230469 C 66.214844 183.425781 66.164062 183.605469 66.082031 183.777344 C 66.070312 183.800781 66.058594 183.824219 66.046875 183.847656 C 65.796875 184.386719 65.410156 184.859375 64.980469 185.246094 C 64.621094 185.570312 64.207031 185.835938 63.792969 186.082031 C 63.257812 186.402344 62.699219 186.65625 62.257812 186.824219 C 61.453125 187.128906 60.625 187.371094 59.785156 187.566406 C 58.90625 187.765625 58.015625 187.878906 57.117188 187.941406 C 56.523438 187.980469 55.925781 188.003906 55.328125 188.003906 C 55.015625 188.003906 54.707031 188 54.394531 187.984375 C 53.503906 187.941406 52.617188 187.828125 51.738281 187.671875 C 50.15625 187.386719 48.5 186.90625 47.242188 185.859375 C 46.707031 185.410156 46.214844 184.84375 45.960938 184.179688 C 45.800781 184.144531 45.644531 184.066406 45.515625 183.953125 C 45.496094 183.9375 45.476562 183.917969 45.460938 183.902344 C 45.214844 183.671875 44.953125 183.457031 44.699219 183.238281 C 44.242188 182.84375 43.792969 182.4375 43.324219 182.054688 C 42.738281 181.570312 42.179688 181.054688 41.605469 180.558594 C 41.007812 180.042969 40.40625 179.539062 39.8125 179.019531 C 38.5 177.871094 37.167969 176.742188 35.839844 175.605469 C 34.390625 174.371094 32.960938 173.117188 31.535156 171.859375 C 30.148438 170.636719 28.773438 169.40625 27.375 168.199219 C 25.929688 166.957031 24.496094 165.695312 23.066406 164.433594 C 20.234375 161.9375 17.367188 159.480469 14.527344 156.992188 C 13.800781 156.351562 13.070312 155.714844 12.34375 155.070312 C 11.996094 154.757812 11.640625 154.449219 11.308594 154.117188 C 11.207031 154.011719 11.097656 153.90625 11.035156 153.769531 C 10.964844 153.625 10.925781 153.46875 10.933594 153.3125 C 10.902344 153.246094 10.882812 153.175781 10.875 153.105469 C 10.84375 152.972656 10.824219 152.839844 10.816406 152.703125 C 10.800781 152.601562 10.785156 152.496094 10.785156 152.394531 C 10.78125 152.242188 10.808594 152.089844 10.863281 151.953125 C 10.859375 151.304688 10.839844 150.65625 10.835938 150.003906 C 10.820312 148.789062 10.804688 147.570312 10.789062 146.355469 C 10.75 143.859375 10.703125 141.363281 10.660156 138.867188 C 10.574219 133.730469 10.492188 128.597656 10.414062 123.460938 C 10.335938 118.3125 10.25 113.164062 10.171875 108.019531 C 10.167969 107.820312 10.164062 107.621094 10.160156 107.421875 C 4.972656 106.953125 1.070312 101.222656 0.820312 96.316406 C 0.382812 91.042969 3.167969 85.582031 8.988281 85.667969 C 9.015625 85.652344 9.042969 85.640625 9.070312 85.632812 C 9.3125 85.539062 9.558594 85.484375 9.808594 85.457031 C 9.757812 82.652344 9.710938 79.847656 9.671875 77.042969 C 9.601562 71.867188 9.53125 66.695312 9.4375 61.523438 C 9.34375 56.308594 9.257812 51.09375 9.191406 45.882812 C 9.160156 43.363281 9.132812 40.847656 9.109375 38.328125 C 9.097656 37.050781 9.085938 35.773438 9.085938 34.496094 C 9.085938 33.867188 9.082031 33.238281 9.09375 32.609375 C 9.101562 32.398438 9.105469 32.1875 9.128906 31.980469 C 9.140625 31.867188 9.164062 31.757812 9.1875 31.648438 C 9.1875 31.632812 9.191406 31.617188 9.191406 31.601562 C 9.191406 31.554688 9.1875 31.507812 9.1875 31.460938 C 9.1875 31.351562 9.207031 31.246094 9.25 31.152344 C 9.136719 30.804688 9.214844 30.390625 9.460938 30.117188 C 9.640625 29.917969 9.894531 29.796875 10.160156 29.78125 C 10.46875 29.757812 10.746094 29.878906 10.929688 30.054688 C 11.050781 30.175781 11.1875 30.277344 11.308594 30.394531 C 11.554688 30.636719 11.800781 30.882812 12.054688 31.117188 C 12.367188 31.398438 12.675781 31.683594 12.984375 31.972656 C 13.28125 32.25 13.566406 32.539062 13.859375 32.820312 C 14.289062 33.234375 14.730469 33.636719 15.171875 34.042969 C 15.175781 33.679688 15.171875 33.3125 15.167969 32.949219 C 15.171875 31.957031 15.1875 30.964844 15.222656 29.96875 C 15.222656 29.21875 15.082031 28.09375 16.074219 27.949219 C 16.671875 27.867188 17.148438 28.34375 17.546875 28.722656 C 18.152344 29.300781 18.738281 29.898438 19.316406 30.503906 C 20.492188 31.734375 21.644531 32.988281 22.796875 34.242188 C 23.164062 34.640625 23.53125 35.035156 23.898438 35.429688 C 24.464844 32.855469 26.308594 29.21875 26.941406 28.007812 C 27.121094 27.75 27.332031 27.335938 27.570312 26.90625 C 25.015625 22.660156 23.582031 17.691406 21.738281 13.097656 C 19.945312 8.09375 17.421875 1.597656 25.800781 5.039062 C 33.199219 8.085938 41.167969 9.351562 48.660156 12.121094 C 48.828125 12.214844 49.039062 12.292969 49.257812 12.371094 C 50.792969 11.921875 52.355469 11.546875 53.898438 11.148438 C 67.015625 8.03125 81.007812 6.949219 94.152344 10.421875 C 94.554688 10.148438 95.027344 9.925781 95.351562 9.695312 C 99.410156 7.28125 103.714844 5.3125 108.101562 3.570312 C 109.804688 2.894531 111.53125 2.28125 113.257812 1.675781 C 115.371094 0.984375 117.492188 0.140625 119.726562 0 C 124.847656 0.140625 123.164062 6.289062 122.0625 9.421875 C 120.71875 13.527344 118.828125 17.417969 116.953125 21.300781 C 119.617188 25.117188 121.835938 29.472656 123.367188 33.8125 C 123.632812 34.589844 123.90625 35.375 124.085938 36.175781 C 126.027344 35.148438 127.976562 34.136719 129.941406 33.164062 C 131.867188 32.242188 133.207031 31.769531 133.125 34.589844 C 133.175781 35.675781 133.210938 36.757812 133.246094 37.839844 C 133.25 38.054688 133.265625 38.289062 133.242188 38.511719 C 134.523438 38.007812 135.808594 37.507812 137.09375 37.007812 C 137.097656 37 137.105469 36.988281 137.113281 36.980469 C 137.148438 36.910156 137.195312 36.847656 137.253906 36.789062 C 137.628906 36.402344 138.3125 36.425781 138.636719 36.855469 C 139.175781 37.191406 139.390625 38.011719 138.890625 38.523438 C 138.890625 38.585938 138.890625 38.648438 138.890625 38.707031 C 138.894531 39.261719 138.894531 39.8125 138.890625 40.367188 C 138.878906 41.550781 138.855469 42.734375 138.835938 43.917969 C 138.796875 46.285156 138.746094 48.648438 138.703125 51.011719 C 138.621094 55.703125 138.539062 60.398438 138.449219 65.089844 C 138.359375 69.851562 138.28125 74.609375 138.199219 79.371094 C 138.148438 82.371094 138.097656 85.367188 138.050781 88.367188 C 138.933594 88.96875 139.679688 89.773438 140.324219 90.613281 Z M 140.324219 90.613281 " fill-opacity="1" fill-rule="nonzero"/></g><path fill="#ffffff" d="M 35.972656 18.578125 C 33.371094 17.148438 30.914062 15.316406 28.652344 13.433594 C 27.128906 12.15625 25.574219 10.886719 24.199219 9.449219 C 23.957031 9.15625 23.535156 8.851562 23.519531 8.457031 C 23.53125 8.230469 23.734375 8.039062 23.972656 8.097656 C 23.957031 8.097656 23.941406 8.09375 23.929688 8.089844 C 23.910156 8.089844 23.894531 8.089844 23.875 8.089844 C 24.128906 8.09375 24.300781 8.28125 24.464844 8.445312 C 24.941406 8.941406 25.433594 9.417969 25.9375 9.878906 C 28.324219 12.0625 30.835938 14.109375 33.503906 15.933594 C 34.460938 16.570312 35.410156 17.210938 36.390625 17.800781 C 36.886719 18.082031 36.484375 18.847656 35.972656 18.578125 Z M 35.972656 18.578125 " fill-opacity="1" fill-rule="nonzero"/><path fill="#ffffff" d="M 101.625 16.980469 C 101.507812 16.75 101.605469 16.464844 101.835938 16.351562 C 103.042969 15.734375 104.25 15.109375 105.421875 14.429688 C 109.777344 11.878906 113.515625 8.457031 117.011719 4.863281 C 117.253906 4.507812 117.804688 4.667969 117.753906 5.121094 C 117.691406 5.492188 117.394531 5.78125 117.164062 6.066406 C 116.214844 7.125 115.179688 8.09375 114.136719 9.058594 C 111.394531 11.570312 108.421875 13.851562 105.175781 15.671875 C 104.21875 16.207031 103.246094 16.71875 102.257812 17.191406 C 102.03125 17.300781 101.738281 17.21875 101.625 16.980469 Z M 101.625 16.980469 " fill-opacity="1" fill-rule="nonzero"/><path fill="#ffffff" d="M 103.324219 45.878906 L 88.183594 54.148438 C 88.183594 54.152344 85.25 55.753906 85.25 55.753906 L 78.152344 59.632812 C 76.457031 57.265625 75.457031 54.363281 75.457031 51.230469 C 75.457031 43.261719 81.925781 36.796875 89.902344 36.796875 C 95.988281 36.796875 101.195312 40.558594 103.324219 45.878906 Z M 103.324219 45.878906 " fill-opacity="1" fill-rule="nonzero"/><path fill="#ffffff" d="M 58.960938 48.839844 C 58.960938 55.160156 54.914062 60.535156 49.28125 62.511719 L 31.617188 42.308594 C 34 37.59375 38.878906 34.363281 44.515625 34.363281 C 52.492188 34.363281 58.960938 40.84375 58.960938 48.839844 Z M 58.960938 48.839844 " fill-opacity="1" fill-rule="nonzero"/><path fill="#000000" d="M 88.183594 54.148438 C 88.183594 54.152344 85.25 55.753906 85.25 55.753906 C 85.25 55.6875 85.253906 55.625 85.261719 55.5625 C 85.257812 54.925781 85.25 54.292969 85.253906 53.65625 C 85.246094 51.011719 85.382812 48.371094 85.355469 45.722656 C 85.464844 44.503906 87.21875 44.117188 87.800781 45.203125 C 88.109375 45.648438 87.953125 46.242188 88.011719 46.753906 C 88.042969 47.863281 88.082031 48.976562 88.109375 50.089844 C 88.136719 51.472656 88.148438 52.355469 88.183594 54.148438 Z M 88.183594 54.148438 " fill-opacity="1" fill-rule="nonzero"/><path fill="#000000" d="M 47.480469 53.949219 C 47.496094 53.832031 47.496094 53.710938 47.476562 53.585938 C 47.46875 52.878906 47.46875 53.371094 47.457031 52.363281 C 47.410156 50.316406 47.40625 49.410156 47.371094 47.933594 C 47.34375 46.820312 47.308594 45.710938 47.273438 44.597656 C 47.21875 44.085938 47.375 43.496094 47.066406 43.046875 C 46.484375 41.960938 44.730469 42.347656 44.621094 43.570312 C 44.648438 46.214844 44.507812 48.855469 44.519531 51.503906 C 44.515625 52.136719 44.519531 52.773438 44.527344 53.40625 C 44.441406 54.175781 44.8125 55.058594 45.640625 55.207031 C 46.191406 55.390625 46.847656 55.132812 47.191406 54.675781 C 47.339844 54.453125 47.445312 54.207031 47.480469 53.949219 Z M 47.480469 53.949219 " fill-opacity="1" fill-rule="nonzero"/><path fill="#ffffff" d="M 69.03125 55.988281 C 68.832031 55.433594 68.109375 55.433594 67.613281 55.34375 C 66.628906 55.257812 65.597656 55.152344 64.628906 55.394531 C 63.859375 55.636719 63.886719 56.15625 64.359375 56.710938 C 64.742188 57.1875 65.191406 57.609375 65.695312 57.949219 C 65.746094 57.996094 65.800781 58.027344 65.851562 58.046875 C 65.988281 58.167969 66.15625 58.253906 66.34375 58.207031 C 66.929688 57.878906 67.4375 57.410156 68.050781 57.125 C 68.484375 56.890625 69.160156 56.589844 69.03125 55.988281 Z M 69.03125 55.988281 " fill-opacity="1" fill-rule="nonzero"/><path stroke-linecap="butt" transform="matrix(-0.734485, 0.130865, -0.130865, -0.734485, 68.844397, 27.875872)" fill="none" stroke-linejoin="miter" d="M 0.000685911 2.001009 L 6.265805 2.000428 " stroke="#000000" stroke-width="4" stroke-opacity="1" stroke-miterlimit="4"/></svg>