<svg xmlns="http://www.w3.org/2000/svg" xmlns:xlink="http://www.w3.org/1999/xlink" width="148" zoomAndPan="magnify" viewBox="0 0 110.88 189.000001" height="252" preserveAspectRatio="xMidYMid meet" version="1.0"><defs><clipPath id="257c24c025"><path d="M 23 1 L 110.527344 1 L 110.527344 145 L 23 145 Z M 23 1 " clip-rule="nonzero"/></clipPath><clipPath id="d3e0c389e0"><path d="M 0.230469 15 L 35 15 L 35 60 L 0.230469 60 Z M 0.230469 15 " clip-rule="nonzero"/></clipPath></defs><path fill="#ffffff" d="M 101.484375 16.789062 C 101.691406 12.738281 101.753906 8.242188 99.089844 5.183594 C 98.082031 4.027344 96.757812 3.183594 95.355469 2.5625 C 90.832031 0.550781 85.664062 0.789062 80.734375 1.234375 C 75.652344 1.6875 70.160156 2.527344 66.625 6.195312 C 63.550781 9.386719 62.636719 14.054688 62.375 18.5 C 63.597656 18.4375 64.824219 18.488281 66.183594 18.726562 C 65.761719 14.101562 68.265625 9.34375 72.316406 7.0625 C 73.585938 6.34375 74.976562 5.863281 76.390625 5.488281 C 80.363281 4.441406 84.550781 4.246094 88.761719 4.949219 C 91.066406 5.210938 93.429688 6.03125 94.917969 7.804688 C 95.9375 9.015625 96.464844 10.578125 96.675781 12.148438 C 96.882812 13.714844 96.792969 15.308594 96.703125 16.886719 Z M 101.484375 16.789062 " fill-opacity="1" fill-rule="nonzero"/><path fill="#000000" d="M 96.515625 48.433594 C 96.324219 48.433594 96.148438 48.304688 96.105469 48.109375 C 96.054688 47.882812 96.195312 47.660156 96.421875 47.605469 C 97.851562 47.277344 99.632812 46.867188 100.753906 45.714844 C 101.652344 44.789062 101.992188 43.542969 102.117188 42.65625 C 102.273438 41.53125 102.199219 40.375 102.09375 39.089844 C 101.796875 35.5 101.402344 31.871094 100.917969 28.300781 C 100.886719 28.070312 101.046875 27.859375 101.277344 27.828125 C 101.507812 27.796875 101.71875 27.957031 101.75 28.1875 C 102.238281 31.773438 102.632812 35.417969 102.929688 39.019531 C 103.042969 40.355469 103.121094 41.5625 102.949219 42.773438 C 102.804688 43.78125 102.414062 45.214844 101.355469 46.300781 C 100.0625 47.628906 98.148438 48.070312 96.609375 48.425781 C 96.578125 48.429688 96.546875 48.433594 96.515625 48.433594 Z M 96.515625 48.433594 " fill-opacity="1" fill-rule="nonzero"/><path fill="#ffffff" d="M 101.128906 102.691406 C 101.128906 103.085938 101.074219 103.480469 100.96875 103.871094 C 100.863281 104.261719 100.703125 104.652344 100.492188 105.039062 C 100.28125 105.425781 100.015625 105.804688 99.703125 106.183594 C 99.386719 106.558594 99.019531 106.929688 98.605469 107.292969 C 98.191406 107.660156 97.726562 108.015625 97.214844 108.359375 C 96.703125 108.707031 96.144531 109.046875 95.539062 109.375 C 94.9375 109.699219 94.292969 110.015625 93.601562 110.320312 C 92.914062 110.625 92.183594 110.917969 91.417969 111.195312 C 90.648438 111.472656 89.84375 111.738281 89.003906 111.988281 C 88.167969 112.238281 87.292969 112.472656 86.390625 112.691406 C 85.488281 112.910156 84.558594 113.113281 83.601562 113.296875 C 82.644531 113.484375 81.664062 113.652344 80.660156 113.800781 C 79.65625 113.953125 78.632812 114.085938 77.59375 114.199219 C 76.554688 114.316406 75.503906 114.410156 74.4375 114.488281 C 73.371094 114.5625 72.300781 114.621094 71.21875 114.660156 C 70.136719 114.699219 69.054688 114.71875 67.96875 114.71875 C 66.882812 114.71875 65.800781 114.699219 64.71875 114.660156 C 63.636719 114.621094 62.566406 114.5625 61.5 114.488281 C 60.433594 114.410156 59.382812 114.316406 58.34375 114.199219 C 57.304688 114.085938 56.28125 113.953125 55.277344 113.800781 C 54.277344 113.652344 53.296875 113.484375 52.335938 113.296875 C 51.378906 113.113281 50.449219 112.910156 49.546875 112.691406 C 48.644531 112.472656 47.773438 112.238281 46.933594 111.988281 C 46.09375 111.738281 45.289062 111.472656 44.519531 111.195312 C 43.753906 110.917969 43.023438 110.625 42.335938 110.320312 C 41.648438 110.015625 41 109.699219 40.398438 109.375 C 39.792969 109.046875 39.234375 108.707031 38.722656 108.359375 C 38.210938 108.015625 37.75 107.660156 37.332031 107.292969 C 36.917969 106.929688 36.550781 106.558594 36.238281 106.183594 C 35.921875 105.804688 35.65625 105.425781 35.445312 105.039062 C 35.234375 104.652344 35.074219 104.261719 34.96875 103.871094 C 34.863281 103.480469 34.808594 103.085938 34.808594 102.691406 C 34.808594 102.296875 34.863281 101.90625 34.96875 101.511719 C 35.074219 101.121094 35.234375 100.734375 35.445312 100.347656 C 35.65625 99.960938 35.921875 99.578125 36.238281 99.203125 C 36.550781 98.824219 36.917969 98.453125 37.332031 98.089844 C 37.75 97.726562 38.210938 97.371094 38.722656 97.023438 C 39.234375 96.675781 39.792969 96.339844 40.398438 96.011719 C 41 95.683594 41.648438 95.367188 42.335938 95.0625 C 43.023438 94.757812 43.753906 94.46875 44.519531 94.1875 C 45.289062 93.910156 46.09375 93.644531 46.933594 93.394531 C 47.773438 93.144531 48.644531 92.910156 49.546875 92.691406 C 50.449219 92.472656 51.378906 92.273438 52.335938 92.085938 C 53.296875 91.902344 54.277344 91.734375 55.277344 91.582031 C 56.28125 91.429688 57.304688 91.296875 58.34375 91.183594 C 59.382812 91.070312 60.433594 90.972656 61.5 90.898438 C 62.566406 90.820312 63.636719 90.761719 64.71875 90.722656 C 65.800781 90.6875 66.882812 90.667969 67.96875 90.667969 C 69.054688 90.667969 70.136719 90.6875 71.21875 90.722656 C 72.300781 90.761719 73.371094 90.820312 74.4375 90.898438 C 75.503906 90.972656 76.554688 91.070312 77.59375 91.183594 C 78.632812 91.296875 79.65625 91.429688 80.660156 91.582031 C 81.664062 91.734375 82.644531 91.902344 83.601562 92.085938 C 84.558594 92.273438 85.488281 92.472656 86.390625 92.691406 C 87.292969 92.910156 88.167969 93.144531 89.003906 93.394531 C 89.84375 93.644531 90.648438 93.910156 91.417969 94.1875 C 92.183594 94.46875 92.914062 94.757812 93.601562 95.0625 C 94.292969 95.367188 94.9375 95.683594 95.539062 96.011719 C 96.144531 96.339844 96.703125 96.675781 97.214844 97.023438 C 97.726562 97.371094 98.191406 97.726562 98.605469 98.089844 C 99.019531 98.453125 99.386719 98.824219 99.703125 99.203125 C 100.015625 99.578125 100.28125 99.960938 100.492188 100.347656 C 100.703125 100.734375 100.863281 101.121094 100.96875 101.511719 C 101.074219 101.90625 101.128906 102.296875 101.128906 102.691406 Z M 101.128906 102.691406 " fill-opacity="1" fill-rule="nonzero"/><path fill="#ffffff" d="M 96.925781 25.351562 C 96.410156 23.292969 96.347656 21.117188 96.75 19.03125 C 96.914062 18.171875 97.171875 17.300781 97.738281 16.632812 C 98.699219 15.496094 100.429688 15.199219 101.828125 15.714844 C 103.222656 16.230469 104.285156 17.4375 104.886719 18.796875 C 105.492188 20.15625 105.683594 21.660156 105.75 23.144531 C 105.851562 25.410156 105.613281 27.84375 104.1875 29.609375 C 103.757812 30.140625 103.210938 30.605469 102.554688 30.800781 C 101.050781 31.246094 99.507812 30.164062 98.574219 28.90625 C 97.757812 27.8125 97.222656 26.527344 96.925781 25.351562 Z M 96.925781 25.351562 " fill-opacity="1" fill-rule="nonzero"/><path fill="#000000" d="M 100.238281 31.0625 C 99.578125 31.0625 98.992188 30.722656 98.59375 30.410156 C 97.8125 29.796875 97.226562 28.933594 96.945312 27.976562 L 97.753906 27.742188 C 97.984375 28.53125 98.46875 29.242188 99.113281 29.75 C 99.378906 29.957031 99.898438 30.292969 100.410156 30.210938 C 101.183594 30.082031 101.609375 29.085938 101.824219 28.273438 C 102.429688 26.015625 102.882812 22.679688 101.605469 19.617188 C 101.238281 18.738281 100.578125 17.609375 99.5 17.203125 C 98.984375 17.011719 98.332031 17.066406 97.835938 17.339844 C 97.460938 17.546875 97.21875 17.859375 97.148438 18.214844 L 96.324219 18.050781 C 96.441406 17.449219 96.835938 16.9375 97.429688 16.605469 C 98.144531 16.210938 99.050781 16.140625 99.796875 16.417969 C 100.871094 16.824219 101.765625 17.816406 102.382812 19.292969 C 103.75 22.578125 103.277344 26.105469 102.636719 28.488281 C 102.226562 30.019531 101.523438 30.878906 100.546875 31.039062 C 100.441406 31.054688 100.339844 31.0625 100.238281 31.0625 Z M 100.238281 31.0625 " fill-opacity="1" fill-rule="nonzero"/><path fill="#ffffff" d="M 34.054688 109.855469 C 32.707031 87.054688 48.902344 97.832031 67.214844 97.832031 C 79.570312 97.832031 99.230469 95.191406 101.128906 101.675781 C 101.863281 104.1875 101.335938 107.765625 100.335938 110.695312 C 98.1875 116.980469 85.53125 121.882812 67.214844 121.882812 C 48.902344 121.882812 34.449219 116.488281 34.054688 109.855469 Z M 34.054688 109.855469 " fill-opacity="1" fill-rule="nonzero"/><g clip-path="url(#257c24c025)"><path fill="#000000" d="M 66.734375 14 C 65.066406 21.980469 63.667969 28.273438 59.730469 34.832031 C 58.375 37.097656 56.523438 39.023438 54.640625 40.875 C 48.945312 46.480469 42.792969 51.625 37.371094 57.5 C 31.953125 63.371094 27.222656 70.105469 25.042969 77.785156 C 22.863281 85.46875 23.519531 94.21875 28.203125 100.957031 C 26.308594 107.066406 25.9375 113.757812 27.898438 119.847656 C 29.523438 124.898438 32.699219 129.382812 36.632812 132.949219 C 40.570312 136.515625 45.25 139.195312 50.15625 141.230469 C 55.257812 143.347656 60.898438 144.796875 66.296875 143.621094 C 67.992188 143.25 69.855469 142.429688 69.953125 140.414062 C 69.992188 139.628906 69.71875 138.863281 69.292969 138.199219 C 67.445312 135.332031 63.890625 134.445312 60.65625 133.605469 C 53.367188 131.710938 46.054688 129.007812 40.507812 123.921875 C 34.960938 118.839844 31.507812 110.929688 33.742188 104.003906 C 38.800781 107.246094 44.816406 108.757812 50.8125 109.230469 C 56.808594 109.699219 62.832031 109.179688 68.820312 108.636719 C 73.949219 108.175781 79.09375 107.695312 84.109375 106.539062 C 85.320312 106.257812 86.566406 105.921875 87.429688 104.960938 C 87.804688 104.546875 88.0625 104.023438 88.101562 103.46875 C 88.207031 101.972656 86.875 101.109375 85.617188 100.628906 C 82.828125 99.566406 79.667969 99.507812 76.855469 100.367188 C 78.675781 95.238281 80.296875 89.707031 79.144531 84.535156 C 81.914062 88.519531 85.234375 92.121094 88.984375 95.199219 C 91.171875 97 93.5625 98.648438 96.292969 99.40625 C 97.664062 99.789062 99.148438 99.933594 100.46875 99.257812 C 100.902344 99.035156 101.285156 98.71875 101.570312 98.328125 C 102.675781 96.796875 101.886719 95.019531 100.957031 93.625 C 99.96875 92.140625 98.792969 90.792969 97.765625 89.335938 C 93.035156 82.628906 91.757812 74.167969 90.839844 65.933594 C 94.777344 65.859375 98.707031 65.203125 102.453125 63.988281 C 105.757812 62.917969 109.222656 61.101562 110.398438 57.835938 C 110.546875 57.425781 110.652344 56.972656 110.527344 56.554688 C 110.253906 55.617188 109.054688 55.355469 108.074219 55.363281 C 105.554688 55.375 103.078125 56.042969 100.558594 56.195312 C 94.546875 56.566406 88.09375 53.445312 85.976562 47.738281 C 88.816406 46.300781 91.648438 44.800781 94.136719 42.824219 C 96.625 40.84375 98.777344 38.34375 99.894531 35.371094 C 101.179688 31.949219 101.019531 28.15625 100.453125 24.546875 C 99.886719 20.9375 98.925781 17.382812 98.664062 13.738281 C 98.433594 10.542969 98.738281 7.296875 98.339844 4.132812 C 98.242188 3.351562 97.332031 2.988281 96.703125 3.460938 C 94.652344 5.015625 92.953125 6.980469 91.777344 8.921875 C 85.933594 8.714844 80.074219 8.921875 74.226562 9.382812 C 72.730469 7.011719 71.238281 4.640625 69.746094 2.273438 C 69.5625 1.980469 69.355469 1.667969 68.898438 1.730469 C 68.621094 1.769531 68.378906 1.941406 68.226562 2.171875 C 67.746094 2.902344 67.648438 3.777344 67.558594 4.628906 C 67.253906 7.527344 66.644531 11.214844 66.734375 14 Z M 66.734375 14 " fill-opacity="1" fill-rule="nonzero"/></g><path fill="#ffffff" d="M 79.476562 23.003906 C 79.800781 23.074219 80.117188 23.175781 80.417969 23.304688 C 80.722656 23.4375 81.011719 23.59375 81.285156 23.78125 C 81.558594 23.96875 81.808594 24.183594 82.039062 24.421875 C 82.269531 24.65625 82.476562 24.914062 82.65625 25.191406 C 82.835938 25.46875 82.988281 25.761719 83.109375 26.070312 C 83.230469 26.375 83.324219 26.691406 83.382812 27.015625 C 83.441406 27.34375 83.46875 27.667969 83.464844 28 C 83.460938 28.332031 83.425781 28.65625 83.355469 28.980469 C 83.285156 29.304688 83.183594 29.617188 83.054688 29.921875 C 82.921875 30.222656 82.765625 30.511719 82.574219 30.785156 C 82.386719 31.058594 82.175781 31.308594 81.9375 31.539062 C 81.699219 31.769531 81.441406 31.972656 81.164062 32.152344 C 80.886719 32.332031 80.59375 32.484375 80.285156 32.605469 C 79.980469 32.726562 79.660156 32.820312 79.335938 32.878906 C 79.011719 32.9375 78.683594 32.964844 78.351562 32.960938 C 78.019531 32.957031 77.691406 32.921875 77.367188 32.851562 C 77.046875 32.78125 76.730469 32.683594 76.425781 32.550781 C 76.121094 32.421875 75.835938 32.261719 75.5625 32.074219 C 75.289062 31.886719 75.039062 31.671875 74.808594 31.4375 C 74.574219 31.199219 74.371094 30.941406 74.191406 30.664062 C 74.011719 30.386719 73.859375 30.09375 73.738281 29.789062 C 73.613281 29.480469 73.523438 29.164062 73.464844 28.839844 C 73.402344 28.515625 73.375 28.1875 73.378906 27.855469 C 73.386719 27.527344 73.421875 27.199219 73.492188 26.875 C 73.5625 26.550781 73.660156 26.238281 73.792969 25.9375 C 73.921875 25.632812 74.082031 25.34375 74.269531 25.070312 C 74.457031 24.800781 74.671875 24.546875 74.910156 24.316406 C 75.144531 24.089844 75.402344 23.882812 75.679688 23.703125 C 75.960938 23.523438 76.253906 23.371094 76.558594 23.25 C 76.867188 23.128906 77.183594 23.039062 77.511719 22.976562 C 77.835938 22.917969 78.164062 22.890625 78.496094 22.894531 C 78.828125 22.898438 79.152344 22.9375 79.476562 23.003906 Z M 79.476562 23.003906 " fill-opacity="1" fill-rule="nonzero"/><path fill="#ffffff" d="M 98.070312 24.257812 C 98.285156 24.476562 98.480469 24.710938 98.652344 24.964844 C 98.820312 25.21875 98.964844 25.488281 99.082031 25.769531 C 99.199219 26.050781 99.289062 26.34375 99.347656 26.644531 C 99.40625 26.945312 99.4375 27.246094 99.4375 27.550781 C 99.4375 27.859375 99.40625 28.160156 99.347656 28.460938 C 99.289062 28.761719 99.199219 29.050781 99.082031 29.335938 C 98.964844 29.617188 98.820312 29.886719 98.652344 30.140625 C 98.480469 30.394531 98.285156 30.628906 98.070312 30.847656 C 97.855469 31.0625 97.617188 31.253906 97.363281 31.425781 C 97.109375 31.59375 96.839844 31.738281 96.554688 31.855469 C 96.273438 31.972656 95.980469 32.0625 95.679688 32.121094 C 95.378906 32.179688 95.078125 32.210938 94.769531 32.210938 C 94.464844 32.210938 94.160156 32.179688 93.859375 32.121094 C 93.558594 32.0625 93.269531 31.972656 92.984375 31.855469 C 92.703125 31.738281 92.433594 31.59375 92.179688 31.425781 C 91.921875 31.253906 91.6875 31.0625 91.472656 30.847656 C 91.253906 30.628906 91.0625 30.394531 90.890625 30.140625 C 90.71875 29.886719 90.578125 29.617188 90.460938 29.335938 C 90.34375 29.050781 90.253906 28.761719 90.195312 28.460938 C 90.132812 28.160156 90.105469 27.859375 90.105469 27.550781 C 90.105469 27.246094 90.132812 26.945312 90.195312 26.644531 C 90.253906 26.34375 90.34375 26.050781 90.460938 25.769531 C 90.578125 25.488281 90.71875 25.21875 90.890625 24.964844 C 91.0625 24.710938 91.253906 24.476562 91.472656 24.257812 C 91.6875 24.042969 91.921875 23.847656 92.179688 23.679688 C 92.433594 23.507812 92.703125 23.367188 92.984375 23.25 C 93.269531 23.132812 93.558594 23.042969 93.859375 22.984375 C 94.160156 22.925781 94.464844 22.894531 94.769531 22.894531 C 95.078125 22.894531 95.378906 22.925781 95.679688 22.984375 C 95.980469 23.042969 96.273438 23.132812 96.554688 23.25 C 96.839844 23.367188 97.109375 23.507812 97.363281 23.679688 C 97.617188 23.847656 97.855469 24.042969 98.070312 24.257812 Z M 98.070312 24.257812 " fill-opacity="1" fill-rule="nonzero"/><path fill="#ffffff" d="M 86.84375 31.125 C 87.402344 31.074219 87.960938 31.082031 88.515625 31.152344 C 88.550781 31.15625 88.59375 31.164062 88.609375 31.195312 C 88.617188 31.214844 88.617188 31.238281 88.613281 31.257812 C 88.589844 31.371094 88.527344 31.46875 88.464844 31.5625 C 88.296875 31.8125 88.128906 32.054688 87.957031 32.296875 C 87.890625 32.390625 87.800781 32.496094 87.6875 32.488281 C 87.621094 32.484375 87.5625 32.441406 87.511719 32.402344 C 87.128906 32.101562 86.761719 31.773438 86.421875 31.425781 C 86.386719 31.386719 86.351562 31.34375 86.359375 31.292969 C 86.367188 31.226562 86.445312 31.199219 86.507812 31.183594 C 86.660156 31.148438 86.808594 31.125 86.84375 31.125 Z M 86.84375 31.125 " fill-opacity="1" fill-rule="nonzero"/><path fill="#ffffff" d="M 56.46875 28.832031 C 56.566406 26.113281 57.453125 23.425781 58.988281 21.175781 C 60.050781 19.625 61.457031 18.253906 63.207031 17.566406 C 64.957031 16.875 67.070312 16.957031 68.585938 18.066406 C 70.421875 19.410156 71.015625 21.898438 71.007812 24.175781 C 70.996094 27.300781 70.089844 30.417969 68.417969 33.0625 C 67.546875 34.449219 66.4375 35.730469 64.996094 36.503906 C 63.554688 37.28125 61.742188 37.488281 60.277344 36.757812 C 59.335938 36.292969 58.605469 35.488281 57.984375 34.644531 C 56.863281 33.117188 56.378906 31.277344 56.46875 28.832031 Z M 56.46875 28.832031 " fill-opacity="1" fill-rule="nonzero"/><path fill="#000000" d="M 71.90625 9.429688 C 71.242188 7.832031 70.394531 6.324219 69.554688 4.816406 C 69.433594 4.570312 69.472656 4.644531 69.378906 4.398438 C 69.359375 4.332031 69.316406 4.273438 69.253906 4.238281 C 69.054688 4.113281 68.785156 4.320312 68.855469 4.542969 C 69.144531 5.402344 69.671875 6.152344 70.054688 6.96875 C 70.339844 7.605469 70.667969 8.226562 70.953125 8.867188 C 71.136719 9.199219 71.246094 9.589844 71.484375 9.882812 C 71.640625 10.023438 71.914062 9.925781 71.960938 9.726562 C 71.984375 9.480469 71.949219 9.574219 71.90625 9.429688 Z M 71.90625 9.429688 " fill-opacity="1" fill-rule="nonzero"/><path fill="#000000" d="M 97.25 4.976562 C 97.199219 4.773438 96.90625 4.734375 96.808594 4.917969 C 95.96875 6.289062 94.984375 7.613281 94.46875 9.148438 C 94.40625 9.398438 94.160156 9.742188 94.429688 9.949219 C 94.667969 10.132812 94.9375 9.925781 94.976562 9.664062 C 95.320312 8.53125 95.785156 7.699219 96.410156 6.574219 C 96.675781 6.097656 96.9375 5.621094 97.226562 5.160156 C 97.257812 5.105469 97.265625 5.039062 97.25 4.976562 Z M 97.25 4.976562 " fill-opacity="1" fill-rule="nonzero"/><path fill="#ffffff" d="M 63.730469 119.367188 L 69.894531 119.367188 L 69.894531 159.917969 L 63.730469 159.917969 Z M 63.730469 119.367188 " fill-opacity="1" fill-rule="nonzero"/><path fill="#000000" d="M 78.695312 25.757812 C 79.421875 27.335938 79.4375 29.214844 78.691406 30.847656 C 78.554688 31.148438 78.128906 31.144531 77.996094 30.84375 C 77.253906 29.191406 77.207031 27.28125 78.011719 25.734375 C 78.15625 25.449219 78.5625 25.46875 78.695312 25.757812 Z M 78.695312 25.757812 " fill-opacity="1" fill-rule="nonzero"/><path fill="#000000" d="M 95.894531 25.128906 C 96.628906 26.71875 96.644531 28.613281 95.890625 30.257812 C 95.753906 30.5625 95.328125 30.558594 95.191406 30.253906 C 94.445312 28.589844 94.394531 26.664062 95.203125 25.101562 C 95.351562 24.820312 95.761719 24.835938 95.894531 25.128906 Z M 95.894531 25.128906 " fill-opacity="1" fill-rule="nonzero"/><path fill="#000000" d="M 60.90625 35.605469 C 60.414062 35.605469 59.953125 35.535156 59.613281 35.398438 C 56.546875 34.171875 55.875 29.195312 56.363281 26.753906 C 57.113281 22.996094 58.453125 20.332031 60.464844 18.605469 C 61.828125 17.4375 63.363281 16.964844 64.671875 17.304688 C 66.578125 17.800781 67.742188 19.664062 67.949219 22.554688 C 68.203125 26.050781 67.308594 29.609375 65.4375 32.574219 C 64.964844 33.320312 64.207031 34.394531 63.097656 35.066406 C 62.480469 35.4375 61.65625 35.605469 60.90625 35.605469 Z M 57.1875 26.917969 C 56.691406 29.414062 57.511719 33.652344 59.925781 34.617188 C 60.503906 34.847656 61.820312 34.855469 62.664062 34.347656 C 63.390625 33.90625 64.046875 33.199219 64.726562 32.128906 C 66.503906 29.3125 67.351562 25.933594 67.113281 22.617188 C 67.007812 21.167969 66.523438 18.652344 64.460938 18.117188 C 62.984375 17.734375 61.558594 18.777344 61.011719 19.242188 C 59.148438 20.839844 57.898438 23.351562 57.1875 26.917969 Z M 57.1875 26.917969 " fill-opacity="1" fill-rule="nonzero"/><path fill="#ffffff" d="M 101.5625 171.113281 C 102.164062 168.824219 100.78125 166.382812 98.847656 165.011719 C 96.914062 163.640625 94.53125 163.101562 92.214844 162.574219 C 77.121094 159.148438 62.164062 155.097656 47.40625 150.433594 C 45.617188 149.871094 43.832031 149.296875 41.996094 148.925781 C 41.113281 148.746094 40.15625 148.625 39.335938 148.992188 C 38.324219 149.445312 37.746094 150.554688 37.625 151.652344 C 37.503906 152.75 37.765625 153.847656 38.457031 155.546875 C 58.789062 160.917969 79.058594 166.523438 99.253906 172.171875 C 100.035156 171.71875 100.871094 171.355469 101.5625 171.113281 Z M 101.5625 171.113281 " fill-opacity="1" fill-rule="nonzero"/><path fill="#ffffff" d="M 37.101562 181.785156 C 35.660156 179.230469 35.058594 175.890625 36.675781 173.441406 C 37.785156 171.757812 39.703125 170.824219 41.53125 169.96875 C 53.484375 164.363281 65.4375 158.757812 77.386719 153.15625 C 81.78125 151.097656 86.175781 149.035156 90.703125 147.292969 C 91.582031 146.957031 92.492188 146.625 93.429688 146.664062 C 96.179688 146.777344 97.75 149.757812 98.757812 152.3125 C 77.988281 160.8125 57.707031 170.496094 37.101562 181.785156 Z M 37.101562 181.785156 " fill-opacity="1" fill-rule="nonzero"/><path fill="#000000" d="M 89.148438 49.765625 C 88.890625 48.777344 89.480469 47.761719 90.472656 47.503906 L 95.550781 46.167969 C 96.542969 45.90625 97.558594 46.5 97.820312 47.488281 C 98.082031 48.476562 97.488281 49.492188 96.496094 49.75 L 91.417969 51.085938 C 90.425781 51.347656 89.410156 50.753906 89.148438 49.765625 Z M 89.148438 49.765625 " fill-opacity="1" fill-rule="nonzero"/><path fill="#000000" d="M 101.371094 101.292969 C 101.308594 101.199219 101.179688 101.160156 101.074219 101.191406 C 100.84375 101.253906 100.855469 101.503906 100.90625 101.691406 C 101.164062 103.054688 101.132812 104.890625 100.964844 106.5 C 100.867188 107.824219 100.417969 109.890625 99.945312 111.070312 C 99.378906 112.273438 98.757812 113.058594 97.90625 113.988281 C 96.796875 115.113281 95.324219 115.949219 93.730469 116.648438 C 90.355469 118.28125 86.40625 119.089844 82.589844 120.023438 C 80.578125 120.507812 78.90625 120.699219 76.90625 120.96875 C 74.851562 121.257812 73.1875 121.53125 71.128906 121.671875 C 65.355469 122.140625 59.617188 121.824219 54.101562 120.765625 C 50.953125 120.117188 47.824219 119.3125 44.777344 118.285156 C 42.605469 117.5 40.6875 116.828125 38.675781 115.578125 C 37.058594 114.511719 35.382812 112.972656 34.777344 111.214844 C 34.269531 109.8125 34.441406 108.375 34.382812 106.777344 C 34.375 106.074219 34.339844 105.371094 34.339844 104.664062 C 34.339844 104.59375 34.3125 104.519531 34.257812 104.46875 C 34.101562 104.292969 33.765625 104.425781 33.78125 104.664062 C 33.796875 105.851562 33.828125 107.039062 33.839844 108.226562 C 33.855469 109.273438 33.871094 110.347656 34.230469 111.34375 C 34.847656 113.117188 36.222656 114.480469 37.703125 115.578125 C 38.96875 116.566406 40.460938 117.175781 41.921875 117.808594 C 46.144531 119.515625 50.589844 120.675781 55.0625 121.507812 C 60.851562 122.527344 66.769531 122.683594 72.617188 122.105469 C 75.535156 121.730469 78.105469 121.402344 80.9375 120.941406 C 84.4375 120.203125 87.929688 119.371094 91.332031 118.265625 C 94.359375 117.058594 97.613281 115.769531 99.488281 112.945312 C 100.910156 111.082031 101.265625 108.675781 101.535156 106.40625 C 101.671875 104.714844 101.789062 102.945312 101.371094 101.292969 Z M 101.371094 101.292969 " fill-opacity="1" fill-rule="nonzero"/><path fill="#000000" d="M 102.332031 168.957031 C 101.46875 165.917969 98.363281 164.460938 95.636719 163.417969 C 91.722656 161.878906 87.601562 160.957031 83.535156 159.902344 C 83.210938 159.816406 82.886719 159.738281 82.5625 159.652344 C 83.375 159.304688 84.316406 158.910156 85.203125 158.539062 C 87.328125 157.710938 90.335938 156.210938 92.734375 155.109375 C 92.832031 155.0625 92.929688 155.015625 93.027344 154.96875 C 93.011719 155.054688 93.003906 155.136719 92.996094 155.222656 C 92.910156 155.5 93.210938 155.746094 93.4375 155.535156 C 93.597656 155.289062 93.492188 155.132812 93.574219 154.890625 C 93.597656 154.796875 93.613281 154.730469 93.632812 154.675781 C 94.246094 154.375 94.863281 154.074219 95.484375 153.789062 C 95.804688 153.609375 95.597656 153.097656 95.238281 153.199219 C 92.683594 154.238281 89.542969 155.769531 86.585938 157.148438 C 84.789062 157.980469 83.203125 158.539062 81.390625 159.351562 C 78.875 158.714844 76.355469 158.121094 73.835938 157.496094 C 72.84375 157.289062 71.867188 156.941406 70.882812 156.734375 C 70.554688 156.761719 70.507812 157.273438 70.839844 157.355469 C 74.253906 158.167969 85.714844 161.304688 87.953125 161.902344 C 90.859375 162.675781 94.304688 163.671875 96.695312 164.761719 C 99.164062 165.855469 101.128906 167.167969 101.601562 169.585938 C 101.632812 169.589844 101.664062 170.554688 101.605469 170.605469 C 101.59375 170.746094 101.53125 170.878906 101.480469 171.011719 C 101.144531 171.105469 100.742188 171.367188 100.511719 171.476562 C 100.164062 171.628906 99.675781 171.898438 99.519531 171.953125 C 99.511719 171.953125 99.503906 171.949219 99.492188 171.949219 C 99.460938 171.945312 99.410156 171.933594 99.378906 171.925781 C 95.476562 170.980469 91.605469 169.910156 87.746094 168.796875 C 84.382812 167.691406 80.96875 166.757812 77.542969 165.863281 C 75.300781 165.191406 72.886719 164.445312 70.78125 164.066406 C 70.664062 164.046875 70.542969 163.96875 70.429688 164.03125 C 70.289062 164.113281 70.3125 164.34375 70.472656 164.382812 C 72.855469 165.113281 75.527344 166.046875 78.101562 166.800781 C 81.601562 167.660156 85.042969 168.707031 88.472656 169.792969 C 90.410156 170.355469 92.347656 170.933594 94.300781 171.457031 C 93.71875 171.773438 93.15625 172.234375 92.734375 172.804688 C 92.625 172.863281 92.535156 172.957031 92.46875 173.085938 C 92.195312 173.386719 91.980469 173.730469 91.808594 174.101562 C 91.691406 174.304688 91.597656 174.503906 91.558594 174.679688 C 91.523438 174.820312 91.464844 174.980469 91.484375 175.125 C 91.402344 175.582031 91.394531 176.054688 91.472656 176.511719 C 91.5 177.265625 91.738281 178.085938 92.371094 178.898438 C 93.199219 179.878906 94.492188 180.433594 95.777344 180.292969 C 96.519531 180.238281 97.152344 179.902344 97.929688 179.460938 C 99.324219 178.625 100.347656 177.828125 101.21875 176.421875 C 101.859375 175.269531 101.644531 173.53125 101.210938 172.675781 C 101.132812 172.507812 101.042969 172.347656 100.945312 172.1875 C 101.253906 172.039062 101.75 171.777344 101.738281 171.800781 C 101.792969 171.789062 101.839844 171.761719 101.886719 171.734375 C 102.207031 171.683594 102.285156 171.292969 102.375 171.023438 C 102.5625 170.347656 102.5 169.628906 102.332031 168.957031 Z M 100.285156 176.53125 C 99.894531 177.175781 99.128906 177.902344 98.257812 178.507812 C 99.117188 177.269531 99.195312 175.496094 98.476562 174.167969 C 98.066406 173.398438 96.96875 172.515625 96.410156 172.28125 C 96.335938 172.253906 96.261719 172.226562 96.183594 172.199219 C 95.679688 171.992188 95.082031 171.875 94.484375 171.964844 C 94.636719 171.867188 94.859375 171.753906 95.066406 171.660156 C 95.964844 171.894531 96.871094 172.113281 97.777344 172.308594 C 98.464844 172.613281 99.195312 173.328125 99.433594 174.054688 C 99.515625 174.289062 99.582031 174.699219 99.585938 174.761719 C 99.578125 174.953125 99.835938 175.058594 99.96875 174.917969 C 100.113281 174.730469 99.964844 174.375 99.933594 174.152344 C 99.78125 173.589844 99.460938 173.011719 98.921875 172.578125 C 98.90625 172.5625 98.886719 172.550781 98.867188 172.535156 C 98.90625 172.542969 98.945312 172.550781 98.984375 172.558594 C 99.605469 172.726562 99.871094 172.636719 100.300781 172.453125 C 100.988281 173.796875 101.105469 175.277344 100.285156 176.53125 Z M 100.285156 176.53125 " fill-opacity="1" fill-rule="nonzero"/><path fill="#000000" d="M 100.257812 154.195312 C 100.066406 153.261719 99.394531 152.480469 98.542969 152.097656 C 98.640625 152.046875 98.71875 151.957031 98.746094 151.851562 C 98.789062 151.617188 98.671875 151.382812 98.625 151.152344 C 98.410156 150.4375 98.125 149.738281 97.765625 149.085938 C 96.191406 146.007812 92.554688 146.027344 89.714844 147.171875 C 85.867188 148.695312 82.179688 150.59375 78.402344 152.273438 C 75.761719 153.488281 73.09375 154.644531 70.53125 156.019531 C 70.488281 156.050781 70.4375 156.078125 70.386719 156.105469 C 70.535156 147.457031 70.554688 138.800781 70.222656 130.15625 C 70.171875 128.410156 70.210938 126.664062 70.285156 124.917969 C 70.304688 124.371094 70.324219 123.820312 70.335938 123.265625 C 70.335938 123.179688 70.300781 123.09375 70.238281 123.03125 C 70.042969 122.824219 69.65625 122.976562 69.667969 123.265625 C 69.351562 127.222656 69.363281 131.179688 69.542969 135.140625 C 69.652344 138.644531 69.625 142.152344 69.640625 145.660156 C 69.636719 148.453125 69.585938 151.246094 69.585938 154.039062 C 69.589844 154.777344 69.542969 155.519531 69.570312 156.261719 C 69.570312 156.382812 69.601562 156.503906 69.691406 156.59375 C 69.765625 156.671875 69.863281 156.703125 69.960938 156.703125 C 70.046875 156.84375 70.234375 156.925781 70.390625 156.828125 C 72.242188 155.769531 73.871094 155.195312 75.691406 154.355469 C 78.738281 152.988281 81.765625 151.585938 84.789062 150.171875 C 86.074219 149.570312 87.867188 148.769531 88.84375 148.355469 C 89.894531 147.914062 90.960938 147.496094 92.089844 147.316406 C 94.007812 146.992188 96.117188 147.511719 97.066406 149.4375 C 97.464844 150.167969 97.582031 150.476562 97.847656 151.273438 C 97.929688 151.457031 97.933594 151.730469 98.023438 151.917969 C 97.761719 151.855469 97.492188 151.828125 97.21875 151.847656 C 95.75 151.960938 94.535156 152.972656 94.128906 154.109375 C 94.105469 154.1875 94.078125 154.269531 94.070312 154.351562 C 94.042969 154.367188 94.011719 154.609375 93.988281 154.75 C 93.949219 155.070312 93.9375 155.40625 93.957031 155.734375 C 93.929688 156.261719 94.03125 156.804688 94.253906 157.300781 C 94.269531 157.332031 94.285156 157.363281 94.300781 157.394531 C 93.378906 157.007812 92.601562 156.464844 92.378906 155.828125 C 92.363281 155.78125 92.347656 155.738281 92.335938 155.695312 C 92.308594 155.605469 92.289062 155.511719 92.273438 155.417969 C 92.253906 155.292969 92.292969 155.15625 92.238281 155.039062 C 92.167969 154.828125 91.863281 154.773438 91.714844 154.933594 C 91.550781 155.121094 91.621094 155.40625 91.640625 155.636719 C 91.625 155.492188 91.628906 155.585938 91.644531 155.667969 C 91.679688 155.894531 91.761719 156.109375 91.859375 156.320312 C 92.019531 156.652344 92.25 156.964844 92.535156 157.207031 C 93.246094 157.789062 94.132812 158.132812 95.015625 158.363281 C 95.136719 158.390625 95.257812 158.417969 95.382812 158.441406 C 95.449219 158.480469 95.519531 158.523438 95.613281 158.574219 C 96.726562 159.179688 98.6875 159.09375 99.554688 157.652344 C 100.15625 156.625 100.496094 155.382812 100.257812 154.195312 Z M 100.257812 154.195312 " fill-opacity="1" fill-rule="nonzero"/><path fill="#000000" d="M 104.136719 16.960938 C 103.597656 16.425781 102.972656 15.960938 102.277344 15.648438 C 102.140625 15.578125 101.863281 15.472656 101.585938 15.382812 C 101.589844 15.355469 101.589844 15.332031 101.589844 15.3125 C 101.703125 13.785156 101.757812 11.257812 101.367188 9.429688 C 101.035156 7.964844 100.40625 6.554688 99.503906 5.355469 C 99.28125 5.0625 99.042969 4.785156 98.796875 4.515625 C 98.699219 4.417969 98.613281 4.277344 98.457031 4.28125 C 98.214844 4.273438 98.082031 4.59375 98.257812 4.757812 C 99.617188 6.285156 100.414062 7.914062 100.867188 10.230469 C 101.074219 11.46875 101.03125 13.34375 100.960938 14.871094 C 100.964844 14.980469 100.949219 15.101562 100.941406 15.222656 C 100.839844 15.191406 100.734375 15.144531 100.636719 15.203125 C 100.488281 15.285156 100.519531 15.527344 100.6875 15.566406 C 102.058594 16.070312 103.675781 17.097656 104.585938 18.664062 C 105.960938 21.160156 106.128906 24.25 105.027344 27.152344 C 104.285156 29.023438 103.289062 30.539062 101.546875 30.996094 C 101.378906 31.105469 101.402344 31.390625 101.578125 31.484375 C 101.808594 31.574219 101.9375 31.5 102.285156 31.433594 C 102.957031 31.21875 103.589844 30.859375 104.089844 30.363281 C 104.589844 29.882812 104.9375 29.28125 105.253906 28.671875 C 105.78125 27.679688 106.164062 26.609375 106.390625 25.507812 C 106.882812 22.605469 106.414062 19.269531 104.136719 16.960938 Z M 104.136719 16.960938 " fill-opacity="1" fill-rule="nonzero"/><path fill="#000000" d="M 68.941406 4.085938 C 68.722656 4.089844 68.535156 4.25 68.144531 4.4375 C 66.179688 5.605469 64.703125 7.496094 63.71875 9.535156 C 63.027344 11.078125 62.660156 12.75 62.390625 14.414062 C 62.289062 15.246094 62.203125 16.101562 62.253906 16.933594 C 62.34375 17.179688 62.742188 17.105469 62.734375 16.839844 C 62.777344 15.136719 63.136719 13.644531 63.644531 11.910156 C 64.082031 10.324219 65.050781 8.601562 66 7.457031 C 66.6875 6.609375 67.527344 5.835938 68.195312 5.390625 C 68.5 5.152344 69.027344 4.996094 69.269531 4.757812 C 69.492188 4.503906 69.273438 4.078125 68.941406 4.085938 Z M 68.941406 4.085938 " fill-opacity="1" fill-rule="nonzero"/><path fill="#000000" d="M 97.886719 4.039062 C 97.816406 3.824219 97.589844 3.710938 97.425781 3.570312 C 96.878906 3.152344 96.277344 2.816406 95.65625 2.519531 C 93.460938 1.507812 91.050781 1.035156 88.671875 0.699219 C 84.136719 0.160156 79.5625 0.65625 75.101562 1.550781 C 73.410156 1.925781 71.660156 2.386719 70.183594 3.300781 C 69.992188 3.523438 70.289062 3.871094 70.542969 3.710938 C 72.828125 2.558594 75.886719 2.070312 78.632812 1.648438 C 83.503906 0.921875 89.117188 0.992188 94.011719 2.742188 C 94.921875 3.066406 95.710938 3.433594 96.695312 4.074219 C 97.101562 4.316406 97.152344 4.5 97.496094 4.554688 C 97.753906 4.558594 97.957031 4.289062 97.886719 4.039062 Z M 97.886719 4.039062 " fill-opacity="1" fill-rule="nonzero"/><path fill="#000000" d="M 93.871094 6.414062 C 93.199219 5.988281 92.472656 5.652344 91.730469 5.371094 C 86.671875 3.546875 78.800781 3.550781 73.925781 5.914062 C 73.335938 6.203125 72.765625 6.527344 72.234375 6.914062 C 72.050781 7.082031 71.699219 7.210938 71.761719 7.507812 C 71.804688 7.679688 72.023438 7.765625 72.175781 7.671875 C 76.453125 4.613281 83.808594 4.425781 88.777344 5.398438 C 90.003906 5.636719 91.4375 6.109375 92.265625 6.5 C 92.609375 6.660156 92.945312 6.835938 93.269531 7.03125 C 93.417969 7.128906 93.585938 7.242188 93.773438 7.183594 C 94.121094 7.097656 94.191406 6.585938 93.871094 6.414062 Z M 93.871094 6.414062 " fill-opacity="1" fill-rule="nonzero"/><path fill="#000000" d="M 100.0625 170.664062 C 99.847656 168.75 98.585938 167.046875 96.890625 166.160156 C 94.714844 165.101562 92.367188 164.464844 90.066406 163.746094 C 87.859375 163.117188 85.636719 162.527344 83.398438 162.015625 C 82.871094 161.921875 82.347656 161.761719 81.828125 161.65625 C 81.59375 161.675781 81.5625 162.042969 81.796875 162.101562 C 85.585938 163.132812 89.367188 164.210938 93.105469 165.425781 C 94.632812 165.957031 95.78125 166.335938 97.109375 167.082031 C 98.246094 167.832031 99.128906 168.988281 99.4375 170.460938 C 99.480469 170.695312 99.511719 170.828125 99.511719 170.898438 C 99.511719 170.980469 99.539062 171.0625 99.597656 171.121094 C 99.722656 171.25 99.957031 171.222656 100.046875 171.0625 C 100.117188 170.941406 100.070312 170.796875 100.0625 170.664062 Z M 100.0625 170.664062 " fill-opacity="1" fill-rule="nonzero"/><path fill="#000000" d="M 53.203125 166.832031 C 53.109375 166.835938 52.988281 166.921875 52.851562 166.972656 C 51.046875 167.757812 49.222656 168.617188 47.339844 169.433594 C 45.746094 170.132812 44.199219 170.933594 42.644531 171.710938 C 40.675781 172.699219 37.878906 174.292969 37.542969 176.671875 C 37.417969 177.503906 37.472656 178.367188 37.695312 179.179688 C 37.796875 179.546875 37.941406 179.898438 38.078125 180.25 C 38.101562 180.335938 38.15625 180.40625 38.230469 180.449219 C 38.476562 180.601562 38.804688 180.351562 38.71875 180.074219 C 37.472656 177.230469 38.207031 175.25 40.34375 173.6875 C 41.394531 172.898438 42.589844 172.335938 43.75 171.742188 C 46.871094 170.09375 50.144531 168.773438 53.269531 167.144531 C 53.425781 167.082031 53.375 166.824219 53.203125 166.832031 Z M 53.203125 166.832031 " fill-opacity="1" fill-rule="nonzero"/><path fill="#000000" d="M 95.507812 149.40625 C 94.890625 148.941406 94.144531 148.621094 93.371094 148.550781 C 92.796875 148.511719 92.21875 148.636719 91.664062 148.777344 C 90 149.226562 88.417969 149.917969 86.820312 150.554688 C 84.78125 151.390625 82.734375 152.210938 80.695312 153.050781 C 80.53125 153.121094 79.894531 153.375 79.535156 153.539062 C 79.4375 153.585938 79.320312 153.621094 79.292969 153.738281 C 79.238281 153.917969 79.453125 154.089844 79.617188 153.988281 C 82.523438 152.878906 85.933594 151.519531 89.007812 150.308594 C 90.347656 149.8125 91.890625 149.152344 93.101562 149.125 C 93.765625 149.089844 94.714844 149.570312 95.128906 149.925781 C 95.578125 150.402344 96.097656 149.707031 95.507812 149.40625 Z M 95.507812 149.40625 " fill-opacity="1" fill-rule="nonzero"/><path fill="#000000" d="M 60.222656 155.960938 C 57.753906 154.894531 55.195312 154.082031 52.648438 153.234375 C 50.660156 152.550781 48.628906 152 46.601562 151.453125 C 45.214844 151.085938 43.847656 150.636719 42.429688 150.386719 C 41.683594 150.273438 40.890625 150.171875 40.15625 150.410156 C 39.207031 150.75 38.71875 151.507812 38.933594 152.460938 C 39.03125 152.796875 39.539062 152.65625 39.449219 152.316406 C 39.34375 151.828125 39.535156 151.335938 40.027344 151.058594 C 41.273438 150.414062 43.265625 151.175781 45 151.621094 C 48.191406 152.492188 51.375 153.386719 54.515625 154.421875 C 56.386719 154.976562 58.230469 155.621094 60.070312 156.265625 C 60.179688 156.292969 60.289062 156.378906 60.398438 156.320312 C 60.601562 156.136719 60.390625 156.003906 60.222656 155.960938 Z M 60.222656 155.960938 " fill-opacity="1" fill-rule="nonzero"/><path fill="#ffffff" d="M 27.261719 78.851562 C 21.800781 72.515625 20.085938 63.179688 23.027344 55.460938 C 25.078125 54.789062 27.128906 54.117188 29.355469 53.554688 C 28.628906 56.574219 28.183594 59.6875 28.414062 62.78125 C 28.644531 65.875 29.585938 68.964844 31.308594 71.210938 C 29.980469 73.773438 28.546875 76.277344 27.261719 78.851562 Z M 27.261719 78.851562 " fill-opacity="1" fill-rule="nonzero"/><path fill="#000000" d="M 28.402344 68.125 C 27.140625 68.839844 25.84375 69.53125 24.570312 70.210938 C 24.328125 69.230469 24.125 68.273438 23.976562 67.316406 C 25.273438 66.800781 26.539062 66.199219 27.808594 65.617188 C 27.945312 65.53125 28.152344 65.507812 28.207031 65.339844 C 28.261719 65.164062 28.050781 65 27.894531 65.097656 C 26.917969 65.53125 25.101562 66.222656 23.894531 66.75 C 23.773438 65.851562 23.703125 64.945312 23.699219 64.015625 C 23.796875 63.988281 23.882812 63.910156 24.066406 63.855469 C 25.242188 63.375 26.472656 63.050781 27.671875 62.632812 C 28.042969 62.59375 28.050781 62.105469 27.664062 62.152344 C 26.632812 62.453125 25.621094 62.816406 24.601562 63.164062 C 24.300781 63.269531 24.003906 63.378906 23.703125 63.488281 C 23.71875 62.875 23.757812 62.25 23.832031 61.601562 C 23.867188 61.300781 23.902344 61.015625 23.941406 60.730469 C 24.042969 60.703125 24.148438 60.652344 24.238281 60.609375 C 24.5625 60.464844 24.886719 60.316406 25.214844 60.179688 C 25.886719 59.886719 27.121094 59.410156 28.058594 59.121094 C 28.40625 59.023438 28.261719 58.496094 27.914062 58.585938 C 26.859375 58.90625 25.84375 59.335938 24.820312 59.742188 C 24.5625 59.84375 24.300781 59.949219 24.042969 60.054688 C 24.144531 59.402344 24.269531 58.707031 24.421875 57.789062 C 24.539062 57.363281 23.882812 57.171875 23.761719 57.605469 C 22.421875 62.566406 22.523438 67.832031 24.566406 72.308594 C 24.617188 72.539062 24.953125 72.589844 25.066406 72.378906 C 25.175781 72.132812 24.941406 71.78125 24.902344 71.519531 C 24.832031 71.257812 24.769531 71.007812 24.703125 70.753906 C 24.765625 70.746094 24.828125 70.722656 24.886719 70.671875 C 26.15625 69.996094 27.398438 69.257812 28.652344 68.554688 C 28.933594 68.390625 28.683594 67.964844 28.402344 68.125 Z M 28.402344 68.125 " fill-opacity="1" fill-rule="nonzero"/><path fill="#000000" d="M 26.132812 77.078125 C 25.859375 76.539062 25.542969 76.019531 25.277344 75.472656 C 23.824219 72.703125 22.753906 69.25 22.527344 66.464844 C 22.195312 64.101562 22.164062 61.707031 22.46875 59.339844 C 22.570312 58.550781 22.753906 57.308594 23.058594 56.3125 C 23.128906 56.082031 23.203125 55.855469 23.289062 55.632812 C 23.304688 55.605469 23.308594 55.59375 23.304688 55.59375 C 23.34375 55.507812 23.382812 55.425781 23.355469 55.332031 C 23.296875 55.105469 22.960938 55.054688 22.84375 55.265625 C 22.246094 56.628906 22.054688 58.128906 21.863281 59.59375 C 21.652344 61.4375 21.550781 63.296875 21.742188 65.144531 C 22.015625 69.058594 22.964844 72.945312 24.898438 76.382812 C 25.128906 76.804688 25.371094 77.222656 25.628906 77.628906 C 25.816406 77.847656 25.832031 78.054688 26.203125 77.925781 C 26.535156 77.664062 26.269531 77.410156 26.132812 77.078125 Z M 26.132812 77.078125 " fill-opacity="1" fill-rule="nonzero"/><path fill="#000000" d="M 30.269531 69.367188 C 29.425781 66.863281 29.121094 64.980469 28.984375 62.617188 C 28.859375 61.027344 28.8125 59.429688 28.972656 57.835938 C 29.074219 56.722656 29.132812 55.960938 29.332031 54.960938 C 29.355469 54.65625 29.574219 54.269531 29.460938 53.988281 C 29.335938 53.761719 28.960938 53.804688 28.898438 54.0625 C 28.578125 55.253906 28.464844 56.484375 28.371094 57.710938 C 28.210938 59.550781 28.207031 61.398438 28.363281 63.242188 C 28.4375 64.269531 28.480469 65.300781 28.664062 66.316406 C 28.824219 67.382812 29.410156 69.351562 29.636719 69.71875 C 29.851562 70.246094 30.527344 69.902344 30.269531 69.367188 Z M 30.269531 69.367188 " fill-opacity="1" fill-rule="nonzero"/><path fill="#ffffff" d="M 37.441406 48.289062 C 31.078125 53.417969 23.460938 56.988281 15.441406 58.597656 C 12.9375 59.097656 10.152344 59.363281 7.996094 57.996094 C 6.257812 56.890625 5.28125 54.929688 4.488281 53.03125 C 1.589844 46.085938 0.242188 37.511719 4.746094 31.476562 C 6.796875 28.726562 11.003906 25.804688 13.859375 23.746094 C 19.558594 19.640625 24.832031 17.773438 31.570312 15.777344 C 33.242188 15.285156 35 14.890625 36.722656 15.167969 C 40.753906 15.816406 43.355469 19.875 44.394531 23.816406 C 46.605469 32.183594 44.609375 42.511719 37.441406 48.289062 Z M 37.441406 48.289062 " fill-opacity="1" fill-rule="nonzero"/><g clip-path="url(#d3e0c389e0)"><path fill="#000000" d="M 34.277344 15.097656 C 32.019531 15.175781 29.824219 15.78125 27.664062 16.378906 C 21.3125 18.238281 15.433594 21.535156 10.285156 25.609375 C 6.09375 29.09375 1.015625 33.273438 0.972656 39.128906 C 0.980469 41.785156 1.464844 44.421875 2.03125 47.011719 C 2.605469 49.613281 3.382812 52.203125 4.78125 54.503906 C 5.554688 55.828125 6.488281 57.09375 7.71875 58.042969 C 9.164062 59.222656 11.109375 59.574219 12.945312 59.566406 C 14.902344 59.480469 16.792969 58.894531 18.644531 58.308594 C 20.761719 57.585938 22.972656 56.710938 24.71875 55.933594 C 24.765625 55.917969 24.859375 55.886719 24.886719 55.847656 C 24.976562 55.789062 25.039062 55.679688 25.046875 55.574219 C 25.105469 55.285156 24.785156 55.023438 24.507812 55.121094 C 22.34375 55.886719 20.242188 56.808594 18.054688 57.511719 C 16.480469 58.011719 14.605469 58.519531 13.339844 58.605469 C 11.335938 58.734375 9.429688 58.273438 8.210938 57.230469 C 6.996094 56.210938 6.421875 55.390625 5.605469 54.03125 C 4.257812 51.804688 3.59375 49.574219 2.980469 46.886719 C 2.378906 44.113281 1.949219 41.933594 1.925781 39.132812 C 1.914062 35.132812 4.648438 31.886719 7.78125 29 C 11.054688 25.925781 14.242188 23.496094 18.191406 21.222656 C 21.96875 18.988281 25.648438 17.386719 29.921875 16.296875 C 30.933594 16.007812 32.363281 15.722656 33.175781 15.605469 C 33.542969 15.558594 33.910156 15.53125 34.277344 15.507812 C 34.359375 15.507812 34.441406 15.457031 34.464844 15.382812 C 34.53125 15.257812 34.417969 15.09375 34.277344 15.097656 Z M 34.277344 15.097656 " fill-opacity="1" fill-rule="nonzero"/></g><path fill="#000000" d="M 41.847656 17.648438 C 40.792969 16.355469 39.121094 15.558594 37.824219 15.097656 C 37.1875 14.839844 36.640625 14.851562 35.800781 14.851562 C 35.6875 14.851562 35.570312 14.925781 35.53125 15.03125 C 35.441406 15.214844 35.597656 15.441406 35.800781 15.4375 C 36.746094 15.390625 37.542969 15.71875 38.328125 16.074219 C 39.429688 16.609375 40.144531 17.015625 40.902344 17.800781 C 44.007812 21.203125 45.046875 27.246094 44.546875 32.378906 C 44.230469 35.324219 43.472656 38.890625 41.996094 41.558594 C 41.082031 43.28125 40.222656 44.453125 39 45.816406 C 36.683594 48.476562 34.773438 50.011719 32.1875 51.683594 C 30.945312 52.5 29.566406 53.109375 28.296875 53.855469 C 28.113281 54.058594 28.292969 54.417969 28.570312 54.40625 C 29.167969 54.222656 29.707031 53.851562 30.273438 53.585938 C 34.808594 51.363281 39.066406 47.648438 41.707031 43.855469 C 43.710938 41.023438 44.703125 37.65625 45.25 34.285156 C 46.140625 28.816406 45.535156 22.058594 41.847656 17.648438 Z M 41.847656 17.648438 " fill-opacity="1" fill-rule="nonzero"/><path fill="#000000" d="M 91.097656 169.738281 C 89.519531 169.171875 87.882812 168.796875 86.28125 168.304688 C 84.761719 167.84375 83.277344 167.265625 81.757812 166.8125 C 80.179688 166.316406 78.5625 165.957031 76.964844 165.53125 C 76.097656 165.324219 75.238281 165.070312 74.375 164.828125 C 73.261719 164.464844 72.140625 164.113281 71 163.855469 C 70.933594 163.859375 70.871094 163.867188 70.804688 163.878906 C 70.710938 162.523438 70.589844 161.167969 70.421875 159.816406 C 70.339844 159.421875 70.390625 158.957031 70.210938 158.597656 C 69.976562 158.257812 69.402344 158.542969 69.527344 158.9375 C 69.675781 159.964844 69.882812 161.898438 69.980469 163.300781 C 70.003906 163.585938 70.023438 163.867188 70.039062 164.152344 C 69.785156 164.285156 69.535156 164.433594 69.285156 164.550781 C 68.324219 165.085938 67.363281 165.628906 66.398438 166.160156 C 65.839844 166.476562 65.269531 166.78125 64.710938 167.097656 C 59.851562 169.425781 55.027344 171.820312 50.261719 174.335938 C 46.683594 176.164062 43.230469 178.246094 39.660156 180.09375 C 39.636719 180.097656 39.617188 180.109375 39.597656 180.125 C 38.742188 180.566406 37.878906 180.996094 37.003906 181.402344 C 37.15625 181.070312 36.761719 180.527344 36.71875 180.179688 C 36.480469 179.398438 36.316406 178.597656 36.207031 177.792969 C 36.125 177.214844 36.007812 175.761719 36.34375 175.03125 C 37.117188 173.101562 39.703125 171.667969 42.003906 170.394531 C 44.1875 169.160156 46.464844 168.117188 48.746094 167.074219 C 51.558594 165.71875 54.378906 164.367188 57.179688 162.980469 C 58.050781 162.550781 59.003906 162.089844 59.953125 161.640625 C 60.023438 161.640625 60.09375 161.632812 60.164062 161.59375 C 60.214844 161.566406 60.25 161.527344 60.277344 161.484375 C 61.484375 160.914062 62.667969 160.371094 63.648438 159.960938 C 64.429688 159.628906 64.816406 159.464844 65.648438 159.121094 C 65.941406 158.980469 66.289062 158.90625 66.53125 158.683594 C 66.574219 158.628906 66.59375 158.570312 66.59375 158.511719 C 67.609375 158.5 68.609375 158.207031 69.496094 157.707031 C 70.007812 157.511719 69.945312 156.777344 69.371094 156.75 C 69.015625 156.804688 68.726562 157.085938 68.378906 157.191406 C 68.636719 157.089844 67.914062 157.371094 67.761719 157.402344 C 67.570312 157.457031 67.375 157.496094 67.175781 157.527344 C 67.164062 157.527344 67.160156 157.527344 67.148438 157.53125 C 66.007812 157.59375 65.144531 157.523438 64.554688 157.183594 C 64.503906 157.144531 64.464844 157.105469 64.429688 157.066406 C 64.429688 157.0625 64.425781 157.054688 64.421875 157.050781 C 64.40625 157.027344 64.394531 157.003906 64.382812 156.984375 C 64.382812 156.976562 64.386719 156.980469 64.386719 156.988281 C 64.382812 156.976562 64.382812 156.96875 64.378906 156.960938 C 64.371094 156.929688 64.367188 156.917969 64.359375 156.90625 C 64.367188 156.910156 64.367188 156.90625 64.355469 156.878906 C 64.351562 156.851562 64.335938 156.816406 64.316406 156.777344 C 64.316406 156.757812 64.316406 156.738281 64.320312 156.714844 C 64.292969 155.386719 64.390625 154.050781 64.347656 152.722656 C 64.34375 145.703125 63.984375 138.683594 63.9375 131.664062 C 63.882812 129.460938 63.859375 127.257812 63.875 125.058594 C 63.882812 124.480469 63.886719 123.902344 63.914062 123.324219 C 63.90625 123.117188 64.007812 122.871094 63.84375 122.703125 C 63.660156 122.507812 63.292969 122.652344 63.304688 122.925781 C 63.046875 126.988281 63.167969 131.0625 63.175781 135.128906 C 63.21875 141.164062 63.527344 147.195312 63.507812 153.230469 C 63.527344 153.417969 63.488281 153.632812 63.496094 153.828125 C 63.457031 154.207031 63.425781 154.574219 63.402344 154.941406 C 63.359375 154.898438 63.304688 154.863281 63.234375 154.84375 C 58.671875 153.347656 54.148438 151.730469 49.554688 150.320312 C 47.75 149.777344 45.941406 149.246094 44.101562 148.828125 C 42.625 148.515625 41.066406 148.253906 39.574219 148.617188 C 36.945312 149.398438 37.089844 152.335938 37.792969 154.472656 C 37.886719 154.804688 38 155.128906 38.097656 155.457031 C 38.03125 155.640625 38.085938 155.863281 38.328125 155.933594 C 38.699219 156.035156 39.070312 156.128906 39.441406 156.21875 C 38.519531 156.351562 37.628906 156.699219 36.871094 157.257812 C 36.363281 157.609375 35.964844 158.082031 35.601562 158.574219 C 35.585938 158.59375 35.574219 158.609375 35.5625 158.628906 C 35.46875 158.773438 35.300781 158.921875 35.28125 159.105469 C 34.992188 159.5625 34.789062 160.074219 34.699219 160.601562 C 34.578125 161.40625 34.820312 162.214844 35.148438 162.945312 C 35.65625 164.089844 36.769531 164.839844 37.976562 165.070312 C 38.289062 165.289062 38.789062 165.417969 39.398438 165.417969 C 40.757812 165.335938 41.714844 164.917969 42.851562 164.246094 C 43.691406 163.671875 44.421875 163.207031 44.9375 162.234375 C 45.160156 161.527344 45.128906 160.730469 44.964844 160.011719 C 44.734375 159.167969 44.332031 158.335938 43.738281 157.683594 C 43.660156 157.605469 43.570312 157.539062 43.484375 157.46875 C 43.511719 157.394531 43.519531 157.3125 43.496094 157.234375 C 43.472656 157.179688 43.445312 157.140625 43.417969 157.101562 C 45.839844 157.664062 48.25 158.289062 50.667969 158.882812 C 53.421875 159.636719 56.15625 160.480469 58.886719 161.328125 C 54.601562 163.335938 50.257812 165.5625 46.027344 167.476562 C 44.003906 168.410156 42.035156 169.457031 40.109375 170.574219 C 38.65625 171.414062 37.203125 172.347656 36.199219 173.71875 C 34.992188 175.222656 35.304688 177.269531 35.625 179.027344 C 35.765625 179.746094 35.96875 180.453125 36.21875 181.144531 C 36.230469 181.199219 36.25 181.253906 36.273438 181.308594 C 36.199219 181.414062 36.175781 181.554688 36.230469 181.675781 C 35.996094 181.832031 35.945312 182.226562 36.222656 182.382812 C 36.375 182.457031 36.535156 182.433594 36.691406 182.378906 C 36.265625 183.527344 36.5 184.894531 37.234375 185.972656 C 37.3125 186.117188 37.90625 186.703125 38.328125 186.90625 C 38.960938 187.246094 39.34375 187.378906 39.980469 187.523438 C 40.621094 187.667969 41.203125 187.726562 41.914062 187.714844 C 42.160156 187.761719 42.394531 187.785156 42.601562 187.789062 C 43.734375 187.832031 44.660156 187.144531 45.117188 186.457031 C 45.777344 185.546875 46.167969 184.394531 46.082031 183.269531 C 46.035156 182.566406 45.796875 181.960938 45.4375 181.476562 C 44.886719 180.304688 43.746094 179.503906 42.675781 179.351562 C 44.140625 178.539062 45.601562 177.710938 47.082031 176.925781 C 51.359375 174.578125 55.71875 172.378906 60.082031 170.199219 C 62.226562 169.148438 64.375 168.121094 66.527344 167.09375 C 67.96875 166.46875 69.433594 165.789062 70.976562 164.964844 C 71.007812 164.949219 71.035156 164.925781 71.058594 164.898438 C 71.066406 164.894531 71.074219 164.890625 71.082031 164.886719 C 71.402344 164.878906 71.339844 164.902344 71.664062 164.945312 C 72.359375 165.074219 73.046875 165.226562 73.734375 165.386719 C 75.472656 165.863281 77.207031 166.355469 78.953125 166.761719 C 79.007812 166.753906 79.046875 166.730469 79.078125 166.699219 C 80.910156 167.175781 82.722656 167.714844 84.503906 168.363281 C 86.363281 169.011719 88.269531 169.5 90.152344 170.058594 C 90.632812 170.199219 91.113281 170.339844 91.59375 170.472656 C 91.699219 170.507812 91.832031 170.476562 91.894531 170.382812 C 92.171875 169.914062 91.375 169.875 91.097656 169.738281 Z M 38.546875 164.582031 C 39.445312 164.605469 40.25 164.246094 40.832031 163.667969 C 40.199219 164.339844 39.382812 164.625 38.546875 164.582031 Z M 43.992188 159.011719 C 44.445312 159.886719 44.660156 160.796875 44.488281 161.929688 C 44.371094 162.40625 43.414062 163.351562 42.558594 163.8125 C 41.917969 164.207031 41.160156 164.519531 40.433594 164.6875 C 40.898438 164.414062 41.304688 164.035156 41.601562 163.59375 C 42.253906 162.554688 42.246094 161.269531 41.800781 160.15625 C 41.308594 158.578125 39.664062 157.421875 38.007812 157.472656 C 38.523438 157.214844 39.078125 157.039062 39.65625 156.964844 C 39.675781 157.039062 39.722656 157.105469 39.8125 157.128906 C 40.339844 157.207031 40.890625 157.640625 41.125 157.824219 C 42.191406 158.617188 42.773438 159.914062 42.894531 161.058594 C 42.9375 161.300781 42.875 161.554688 42.914062 161.789062 C 43.042969 162.054688 43.375 161.890625 43.335938 161.621094 C 43.441406 159.847656 42.488281 158.054688 40.972656 157.125 C 40.871094 157.0625 40.761719 157 40.652344 156.945312 C 41.210938 156.984375 42.058594 157.179688 42.488281 157.410156 C 42.664062 157.476562 42.816406 157.632812 42.996094 157.695312 C 43.4375 158.015625 43.632812 158.355469 43.992188 159.011719 Z M 54.679688 159.242188 C 50.777344 158.011719 46.773438 157.113281 42.792969 156.171875 C 41.460938 155.859375 40.109375 155.640625 38.785156 155.308594 C 37.496094 150.777344 38.019531 148.503906 43.15625 149.4375 C 49.136719 150.6875 54.867188 152.878906 60.640625 154.839844 C 61.355469 155.082031 62.066406 155.324219 62.777344 155.570312 C 62.957031 155.636719 63.15625 155.722656 63.335938 155.609375 C 63.351562 155.601562 63.363281 155.582031 63.378906 155.570312 C 63.363281 156.183594 63.378906 156.8125 63.441406 157.503906 C 63.503906 157.660156 63.636719 157.722656 63.765625 157.714844 C 64.203125 158.199219 64.878906 158.359375 65.519531 158.433594 C 63.667969 159.164062 61.785156 159.984375 59.886719 160.859375 C 58.550781 160.320312 56.296875 159.75 54.679688 159.242188 Z M 42.007812 180.179688 C 41.1875 180.332031 40.394531 180.777344 39.792969 181.566406 C 39.40625 182.113281 39.164062 182.703125 39.085938 183.359375 C 38.828125 184.308594 38.949219 185.257812 39.414062 186.160156 C 39.683594 186.625 40.070312 186.964844 40.5 187.210938 C 40.414062 187.195312 40.320312 187.171875 40.21875 187.144531 C 38.105469 186.59375 36.851562 184.84375 37.285156 182.777344 C 37.367188 182.421875 37.441406 182.203125 37.535156 182.015625 C 37.921875 181.835938 38.304688 181.65625 38.683594 181.46875 C 38.46875 181.863281 38.292969 182.273438 38.171875 182.707031 C 37.957031 183.425781 37.902344 184.191406 38.046875 184.933594 C 38.109375 185.152344 38.113281 185.492188 38.289062 185.640625 C 38.445312 185.738281 38.652344 185.582031 38.597656 185.40625 C 38.507812 185.140625 38.449219 184.867188 38.40625 184.585938 C 38.285156 183.75 38.507812 182.582031 39.015625 181.660156 C 39.097656 181.480469 39.203125 181.3125 39.316406 181.152344 C 39.859375 180.878906 40.390625 180.59375 40.925781 180.308594 C 41.28125 180.210938 41.644531 180.164062 42.007812 180.179688 Z M 42.007812 180.179688 " fill-opacity="1" fill-rule="nonzero"/><path fill="#000000" d="M 99.964844 105.285156 C 98.578125 106.878906 96.808594 107.972656 94.671875 109.066406 C 90.363281 111.3125 85.265625 112.390625 80.25 113.289062 C 75.050781 114.230469 69.789062 114.792969 64.289062 114.519531 C 60.824219 114.355469 57.910156 113.886719 54.488281 113.273438 C 51.683594 112.773438 48.875 112.257812 46.136719 111.464844 C 43.246094 110.613281 40.808594 109.757812 38.3125 108.023438 C 38.070312 107.878906 37.65625 107.460938 37.257812 107.078125 C 37.074219 106.921875 36.960938 106.652344 36.691406 106.652344 C 36.445312 106.648438 36.242188 106.90625 36.316406 107.148438 C 36.359375 107.300781 36.5 107.398438 36.597656 107.515625 C 37.210938 108.167969 37.910156 108.738281 38.667969 109.210938 C 40.539062 110.332031 42.570312 111.183594 44.65625 111.835938 C 47.914062 112.875 51.285156 113.496094 54.648438 114.09375 C 58.261719 114.742188 61.910156 115.273438 65.585938 115.34375 C 71.867188 115.53125 78.117188 114.570312 84.253906 113.3125 C 87.550781 112.605469 90.828125 111.746094 93.882812 110.304688 C 95.722656 109.457031 97.511719 108.46875 99.023438 107.109375 C 99.425781 106.765625 99.757812 106.355469 100.105469 105.957031 C 100.214844 105.800781 100.410156 105.679688 100.425781 105.476562 C 100.429688 105.246094 100.125 105.117188 99.964844 105.285156 Z M 99.964844 105.285156 " fill-opacity="1" fill-rule="nonzero"/><path fill="#000000" d="M 94.042969 95.769531 C 93.972656 95.589844 93.800781 95.566406 93.609375 95.402344 C 90.207031 92.863281 86.007812 91.660156 81.832031 91.191406 C 80.796875 91.101562 79.757812 91.003906 78.71875 91.082031 C 78.457031 91.125 78.050781 91.039062 77.945312 91.347656 C 77.890625 91.53125 78.042969 91.730469 78.234375 91.726562 C 78.984375 91.640625 79.503906 91.734375 80.066406 91.777344 C 81.3125 91.898438 82.199219 92.039062 83.742188 92.34375 C 87.128906 92.988281 89.984375 93.988281 92.875 95.605469 C 93.148438 95.75 93.421875 95.894531 93.691406 96.039062 C 93.746094 96.070312 93.8125 96.078125 93.875 96.0625 C 94 96.03125 94.078125 95.894531 94.042969 95.769531 Z M 94.042969 95.769531 " fill-opacity="1" fill-rule="nonzero"/><path fill="#000000" d="M 70.011719 18.496094 C 69.199219 17.0625 67.910156 16.628906 66.441406 16.617188 C 66.441406 16.613281 66.441406 16.605469 66.4375 16.597656 C 66.433594 16.546875 66.425781 16.457031 66.425781 16.421875 C 66.449219 15.445312 66.761719 14.34375 67.09375 13.222656 C 67.203125 12.851562 67.316406 12.484375 67.390625 12.105469 C 67.410156 12.007812 67.445312 11.902344 67.386719 11.8125 C 67.285156 11.625 66.984375 11.664062 66.933594 11.871094 C 66.445312 13.089844 65.929688 14.621094 65.828125 16.15625 C 65.816406 16.40625 65.800781 16.535156 65.789062 16.640625 C 65.296875 16.671875 64.792969 16.738281 64.285156 16.824219 C 63.617188 16.984375 62.917969 17.175781 62.320312 17.507812 C 62.210938 17.632812 62.347656 17.835938 62.507812 17.789062 C 63.671875 17.328125 64.714844 17.148438 65.894531 17.179688 C 66.015625 17.289062 66.1875 17.28125 66.316406 17.199219 C 66.429688 17.207031 66.542969 17.214844 66.660156 17.226562 C 67.402344 17.261719 68.636719 17.550781 69.335938 18.445312 C 69.449219 18.5625 69.539062 18.699219 69.660156 18.804688 C 69.988281 18.996094 70.113281 18.585938 70.011719 18.496094 Z M 70.011719 18.496094 " fill-opacity="1" fill-rule="nonzero"/><path fill="#000000" d="M 19.644531 22.234375 C 18.644531 22.878906 17.585938 23.433594 16.621094 24.136719 C 15.394531 25.03125 14.542969 25.792969 13.449219 26.699219 C 10.902344 28.953125 8.441406 31.394531 6.609375 34.277344 C 3.488281 39.3125 4.882812 47.535156 6.925781 52.382812 C 7.402344 53.40625 7.953125 54.4375 8.757812 55.238281 C 9.335938 55.738281 9.65625 55.828125 10.234375 56.089844 C 10.640625 56.214844 11.054688 56.625 11.269531 56.148438 C 11.355469 55.765625 10.78125 55.648438 10.550781 55.445312 C 10.160156 55.199219 9.945312 55.03125 9.824219 54.9375 C 9.816406 54.929688 9.808594 54.921875 9.800781 54.917969 C 9.75 54.867188 9.742188 54.863281 9.75 54.878906 C 8.757812 54.082031 7.679688 52.46875 7.199219 51.070312 C 6.21875 48.050781 5.90625 45.988281 5.777344 43.046875 C 5.722656 40.917969 5.746094 39.191406 6.292969 37.339844 C 7.097656 34.519531 9.089844 32.390625 11.242188 30.066406 C 13.109375 28.089844 15.28125 25.804688 17.265625 24.328125 C 17.667969 24.019531 18.761719 23.214844 19.414062 22.800781 C 19.566406 22.667969 19.789062 22.59375 19.890625 22.421875 C 19.929688 22.285156 19.765625 22.152344 19.644531 22.234375 Z M 19.644531 22.234375 " fill-opacity="1" fill-rule="nonzero"/><path stroke-linecap="butt" transform="matrix(-0.734485, 0.130865, -0.130865, -0.734485, 55.330783, 70.477945)" fill="none" stroke-linejoin="miter" d="M -0.00193597 2.001237 L 6.263183 2.000656 " stroke="#000000" stroke-width="4" stroke-opacity="1" stroke-miterlimit="4"/></svg>